G04 #@! TF.GenerationSoftware,KiCad,Pcbnew,(5.1.7)-1*
G04 #@! TF.CreationDate,2020-11-09T16:31:24+01:00*
G04 #@! TF.ProjectId,Touch-Flaeche,546f7563-682d-4466-9c61-656368652e6b,0.1*
G04 #@! TF.SameCoordinates,Original*
G04 #@! TF.FileFunction,Copper,L1,Top*
G04 #@! TF.FilePolarity,Positive*
%FSLAX46Y46*%
G04 Gerber Fmt 4.6, Leading zero omitted, Abs format (unit mm)*
G04 Created by KiCad (PCBNEW (5.1.7)-1) date 2020-11-09 16:31:24*
%MOMM*%
%LPD*%
G01*
G04 APERTURE LIST*
G04 #@! TA.AperFunction,SMDPad,CuDef*
%ADD10R,0.850000X2.350000*%
G04 #@! TD*
G04 #@! TA.AperFunction,ViaPad*
%ADD11C,0.800000*%
G04 #@! TD*
G04 #@! TA.AperFunction,Conductor*
%ADD12C,0.250000*%
G04 #@! TD*
G04 APERTURE END LIST*
G04 #@! TA.AperFunction,SMDPad,CuDef*
G36*
G01*
X107177500Y-119186250D02*
X107177500Y-117598750D01*
G75*
G02*
X107653750Y-117122500I476250J0D01*
G01*
X108606250Y-117122500D01*
G75*
G02*
X109082500Y-117598750I0J-476250D01*
G01*
X109082500Y-119186250D01*
G75*
G02*
X108606250Y-119662500I-476250J0D01*
G01*
X107653750Y-119662500D01*
G75*
G02*
X107177500Y-119186250I0J476250D01*
G01*
G37*
G04 #@! TD.AperFunction*
G04 #@! TA.AperFunction,SMDPad,CuDef*
G36*
G01*
X109717500Y-119186250D02*
X109717500Y-117598750D01*
G75*
G02*
X110193750Y-117122500I476250J0D01*
G01*
X111146250Y-117122500D01*
G75*
G02*
X111622500Y-117598750I0J-476250D01*
G01*
X111622500Y-119186250D01*
G75*
G02*
X111146250Y-119662500I-476250J0D01*
G01*
X110193750Y-119662500D01*
G75*
G02*
X109717500Y-119186250I0J476250D01*
G01*
G37*
G04 #@! TD.AperFunction*
G04 #@! TA.AperFunction,SMDPad,CuDef*
G36*
G01*
X112257500Y-119186250D02*
X112257500Y-117598750D01*
G75*
G02*
X112733750Y-117122500I476250J0D01*
G01*
X113686250Y-117122500D01*
G75*
G02*
X114162500Y-117598750I0J-476250D01*
G01*
X114162500Y-119186250D01*
G75*
G02*
X113686250Y-119662500I-476250J0D01*
G01*
X112733750Y-119662500D01*
G75*
G02*
X112257500Y-119186250I0J476250D01*
G01*
G37*
G04 #@! TD.AperFunction*
G04 #@! TA.AperFunction,SMDPad,CuDef*
G36*
G01*
X135117500Y-119186250D02*
X135117500Y-117598750D01*
G75*
G02*
X135593750Y-117122500I476250J0D01*
G01*
X136546250Y-117122500D01*
G75*
G02*
X137022500Y-117598750I0J-476250D01*
G01*
X137022500Y-119186250D01*
G75*
G02*
X136546250Y-119662500I-476250J0D01*
G01*
X135593750Y-119662500D01*
G75*
G02*
X135117500Y-119186250I0J476250D01*
G01*
G37*
G04 #@! TD.AperFunction*
G04 #@! TA.AperFunction,SMDPad,CuDef*
G36*
G01*
X132577500Y-119186250D02*
X132577500Y-117598750D01*
G75*
G02*
X133053750Y-117122500I476250J0D01*
G01*
X134006250Y-117122500D01*
G75*
G02*
X134482500Y-117598750I0J-476250D01*
G01*
X134482500Y-119186250D01*
G75*
G02*
X134006250Y-119662500I-476250J0D01*
G01*
X133053750Y-119662500D01*
G75*
G02*
X132577500Y-119186250I0J476250D01*
G01*
G37*
G04 #@! TD.AperFunction*
G04 #@! TA.AperFunction,SMDPad,CuDef*
G36*
G01*
X130037500Y-119186250D02*
X130037500Y-117598750D01*
G75*
G02*
X130513750Y-117122500I476250J0D01*
G01*
X131466250Y-117122500D01*
G75*
G02*
X131942500Y-117598750I0J-476250D01*
G01*
X131942500Y-119186250D01*
G75*
G02*
X131466250Y-119662500I-476250J0D01*
G01*
X130513750Y-119662500D01*
G75*
G02*
X130037500Y-119186250I0J476250D01*
G01*
G37*
G04 #@! TD.AperFunction*
G04 #@! TA.AperFunction,SMDPad,CuDef*
G36*
G01*
X127497500Y-119186250D02*
X127497500Y-117598750D01*
G75*
G02*
X127973750Y-117122500I476250J0D01*
G01*
X128926250Y-117122500D01*
G75*
G02*
X129402500Y-117598750I0J-476250D01*
G01*
X129402500Y-119186250D01*
G75*
G02*
X128926250Y-119662500I-476250J0D01*
G01*
X127973750Y-119662500D01*
G75*
G02*
X127497500Y-119186250I0J476250D01*
G01*
G37*
G04 #@! TD.AperFunction*
G04 #@! TA.AperFunction,SMDPad,CuDef*
G36*
G01*
X124957500Y-119186250D02*
X124957500Y-117598750D01*
G75*
G02*
X125433750Y-117122500I476250J0D01*
G01*
X126386250Y-117122500D01*
G75*
G02*
X126862500Y-117598750I0J-476250D01*
G01*
X126862500Y-119186250D01*
G75*
G02*
X126386250Y-119662500I-476250J0D01*
G01*
X125433750Y-119662500D01*
G75*
G02*
X124957500Y-119186250I0J476250D01*
G01*
G37*
G04 #@! TD.AperFunction*
G04 #@! TA.AperFunction,SMDPad,CuDef*
G36*
G01*
X122417500Y-119186250D02*
X122417500Y-117598750D01*
G75*
G02*
X122893750Y-117122500I476250J0D01*
G01*
X123846250Y-117122500D01*
G75*
G02*
X124322500Y-117598750I0J-476250D01*
G01*
X124322500Y-119186250D01*
G75*
G02*
X123846250Y-119662500I-476250J0D01*
G01*
X122893750Y-119662500D01*
G75*
G02*
X122417500Y-119186250I0J476250D01*
G01*
G37*
G04 #@! TD.AperFunction*
G04 #@! TA.AperFunction,SMDPad,CuDef*
G36*
G01*
X119877500Y-119186250D02*
X119877500Y-117598750D01*
G75*
G02*
X120353750Y-117122500I476250J0D01*
G01*
X121306250Y-117122500D01*
G75*
G02*
X121782500Y-117598750I0J-476250D01*
G01*
X121782500Y-119186250D01*
G75*
G02*
X121306250Y-119662500I-476250J0D01*
G01*
X120353750Y-119662500D01*
G75*
G02*
X119877500Y-119186250I0J476250D01*
G01*
G37*
G04 #@! TD.AperFunction*
G04 #@! TA.AperFunction,SMDPad,CuDef*
G36*
G01*
X117337500Y-119186250D02*
X117337500Y-117598750D01*
G75*
G02*
X117813750Y-117122500I476250J0D01*
G01*
X118766250Y-117122500D01*
G75*
G02*
X119242500Y-117598750I0J-476250D01*
G01*
X119242500Y-119186250D01*
G75*
G02*
X118766250Y-119662500I-476250J0D01*
G01*
X117813750Y-119662500D01*
G75*
G02*
X117337500Y-119186250I0J476250D01*
G01*
G37*
G04 #@! TD.AperFunction*
G04 #@! TA.AperFunction,SMDPad,CuDef*
G36*
G01*
X114797500Y-119186250D02*
X114797500Y-117598750D01*
G75*
G02*
X115273750Y-117122500I476250J0D01*
G01*
X116226250Y-117122500D01*
G75*
G02*
X116702500Y-117598750I0J-476250D01*
G01*
X116702500Y-119186250D01*
G75*
G02*
X116226250Y-119662500I-476250J0D01*
G01*
X115273750Y-119662500D01*
G75*
G02*
X114797500Y-119186250I0J476250D01*
G01*
G37*
G04 #@! TD.AperFunction*
G04 #@! TA.AperFunction,SMDPad,CuDef*
G36*
G01*
X127497500Y-137601250D02*
X127497500Y-136013750D01*
G75*
G02*
X127973750Y-135537500I476250J0D01*
G01*
X128926250Y-135537500D01*
G75*
G02*
X129402500Y-136013750I0J-476250D01*
G01*
X129402500Y-137601250D01*
G75*
G02*
X128926250Y-138077500I-476250J0D01*
G01*
X127973750Y-138077500D01*
G75*
G02*
X127497500Y-137601250I0J476250D01*
G01*
G37*
G04 #@! TD.AperFunction*
G04 #@! TA.AperFunction,SMDPad,CuDef*
G36*
G01*
X124957500Y-137601250D02*
X124957500Y-136013750D01*
G75*
G02*
X125433750Y-135537500I476250J0D01*
G01*
X126386250Y-135537500D01*
G75*
G02*
X126862500Y-136013750I0J-476250D01*
G01*
X126862500Y-137601250D01*
G75*
G02*
X126386250Y-138077500I-476250J0D01*
G01*
X125433750Y-138077500D01*
G75*
G02*
X124957500Y-137601250I0J476250D01*
G01*
G37*
G04 #@! TD.AperFunction*
G04 #@! TA.AperFunction,SMDPad,CuDef*
G36*
G01*
X122417500Y-137601250D02*
X122417500Y-136013750D01*
G75*
G02*
X122893750Y-135537500I476250J0D01*
G01*
X123846250Y-135537500D01*
G75*
G02*
X124322500Y-136013750I0J-476250D01*
G01*
X124322500Y-137601250D01*
G75*
G02*
X123846250Y-138077500I-476250J0D01*
G01*
X122893750Y-138077500D01*
G75*
G02*
X122417500Y-137601250I0J476250D01*
G01*
G37*
G04 #@! TD.AperFunction*
G04 #@! TA.AperFunction,SMDPad,CuDef*
G36*
G01*
X119877500Y-137601250D02*
X119877500Y-136013750D01*
G75*
G02*
X120353750Y-135537500I476250J0D01*
G01*
X121306250Y-135537500D01*
G75*
G02*
X121782500Y-136013750I0J-476250D01*
G01*
X121782500Y-137601250D01*
G75*
G02*
X121306250Y-138077500I-476250J0D01*
G01*
X120353750Y-138077500D01*
G75*
G02*
X119877500Y-137601250I0J476250D01*
G01*
G37*
G04 #@! TD.AperFunction*
G04 #@! TA.AperFunction,SMDPad,CuDef*
G36*
G01*
X117337500Y-137601250D02*
X117337500Y-136013750D01*
G75*
G02*
X117813750Y-135537500I476250J0D01*
G01*
X118766250Y-135537500D01*
G75*
G02*
X119242500Y-136013750I0J-476250D01*
G01*
X119242500Y-137601250D01*
G75*
G02*
X118766250Y-138077500I-476250J0D01*
G01*
X117813750Y-138077500D01*
G75*
G02*
X117337500Y-137601250I0J476250D01*
G01*
G37*
G04 #@! TD.AperFunction*
G04 #@! TA.AperFunction,SMDPad,CuDef*
G36*
G01*
X114797500Y-137601250D02*
X114797500Y-136013750D01*
G75*
G02*
X115273750Y-135537500I476250J0D01*
G01*
X116226250Y-135537500D01*
G75*
G02*
X116702500Y-136013750I0J-476250D01*
G01*
X116702500Y-137601250D01*
G75*
G02*
X116226250Y-138077500I-476250J0D01*
G01*
X115273750Y-138077500D01*
G75*
G02*
X114797500Y-137601250I0J476250D01*
G01*
G37*
G04 #@! TD.AperFunction*
D10*
X117000000Y-146475000D03*
X121000000Y-146475000D03*
X125000000Y-146475000D03*
X119000000Y-144125000D03*
X123000000Y-144125000D03*
X127000000Y-144125000D03*
D11*
X136070000Y-114730000D03*
X137000000Y-105400000D03*
X137000000Y-86900000D03*
X137000000Y-68400000D03*
X137000000Y-49900000D03*
X125900000Y-86900000D03*
X123300000Y-105300000D03*
X120800000Y-68400000D03*
X118300000Y-49900000D03*
X107150000Y-50050000D03*
X107000000Y-68400000D03*
X107050000Y-86950000D03*
X107000000Y-105400000D03*
D12*
X136070000Y-118202000D02*
X136000001Y-118132001D01*
X136070000Y-118202000D02*
X136070000Y-114730000D01*
X136100000Y-118740000D02*
X136070000Y-118710000D01*
X137000000Y-105400000D02*
X137000000Y-105400000D01*
X136070000Y-114730000D02*
X136070000Y-113930000D01*
X136070000Y-113930000D02*
X136070000Y-106330000D01*
X136070000Y-106330000D02*
X137000000Y-105400000D01*
X137000000Y-105400000D02*
X137000000Y-105400000D01*
X133530000Y-90370000D02*
X137000000Y-86900000D01*
X133530000Y-118202000D02*
X133530000Y-90370000D01*
X137000000Y-86900000D02*
X137000000Y-86900000D01*
X130990000Y-74410000D02*
X137000000Y-68400000D01*
X130990000Y-118202000D02*
X130990000Y-74410000D01*
X137000000Y-68400000D02*
X137000000Y-68400000D01*
X128450000Y-58450000D02*
X137000000Y-49900000D01*
X128450000Y-118202000D02*
X128450000Y-58450000D01*
X137000000Y-49900000D02*
X137000000Y-49900000D01*
X125910000Y-118202000D02*
X125800006Y-118092006D01*
X125900000Y-118192000D02*
X125900000Y-86900000D01*
X125910000Y-118202000D02*
X125900000Y-118192000D01*
X125900000Y-86900000D02*
X125900000Y-86900000D01*
X123200002Y-118032002D02*
X123370000Y-118202000D01*
X123300000Y-118132000D02*
X123300000Y-105300000D01*
X123370000Y-118202000D02*
X123300000Y-118132000D01*
X123300000Y-105300000D02*
X123300000Y-105300000D01*
X120830000Y-118202000D02*
X120699996Y-118071996D01*
X120800000Y-118172000D02*
X120800000Y-68400000D01*
X120830000Y-118202000D02*
X120800000Y-118172000D01*
X120800000Y-68400000D02*
X120800000Y-68400000D01*
X118290000Y-118202000D02*
X118200004Y-118112004D01*
X118300000Y-118192000D02*
X118300000Y-49900000D01*
X118290000Y-118202000D02*
X118300000Y-118192000D01*
X118300000Y-49900000D02*
X118300000Y-49900000D01*
X115750000Y-58650000D02*
X107150000Y-50050000D01*
X115750000Y-118202000D02*
X115750000Y-58650000D01*
X107150000Y-50050000D02*
X107000000Y-49900000D01*
X113210000Y-74610000D02*
X107000000Y-68400000D01*
X113210000Y-118202000D02*
X113210000Y-74610000D01*
X107000000Y-68400000D02*
X107000000Y-68400000D01*
X110670000Y-90570000D02*
X107050000Y-86950000D01*
X110670000Y-118202000D02*
X110670000Y-90570000D01*
X107050000Y-86950000D02*
X107000000Y-86900000D01*
X115750000Y-143800000D02*
X115750000Y-136998000D01*
X117000000Y-145050000D02*
X115750000Y-143800000D01*
X117000000Y-146475000D02*
X117000000Y-145050000D01*
X121000000Y-138560000D02*
X120730000Y-138290000D01*
X121000000Y-146475000D02*
X121000000Y-138560000D01*
X120730000Y-136590000D02*
X120830000Y-136490000D01*
X120730000Y-138290000D02*
X120730000Y-136590000D01*
X125000000Y-139100000D02*
X125810000Y-138290000D01*
X125000000Y-146475000D02*
X125000000Y-139100000D01*
X125810000Y-136590000D02*
X125910000Y-136490000D01*
X125810000Y-138290000D02*
X125810000Y-136590000D01*
X119000000Y-142700000D02*
X118190000Y-141890000D01*
X119000000Y-144125000D02*
X119000000Y-142700000D01*
X118190000Y-136590000D02*
X118290000Y-136490000D01*
X118190000Y-138610000D02*
X118190000Y-136590000D01*
X118190000Y-141890000D02*
X118190000Y-138610000D01*
X118190000Y-138610000D02*
X118190000Y-138290000D01*
X123000000Y-138560000D02*
X123270000Y-138290000D01*
X123000000Y-144125000D02*
X123000000Y-138560000D01*
X123270000Y-136590000D02*
X123370000Y-136490000D01*
X123270000Y-138290000D02*
X123270000Y-136590000D01*
X128350000Y-136590000D02*
X128450000Y-136490000D01*
X128350000Y-141350000D02*
X128350000Y-136590000D01*
X127000000Y-142700000D02*
X128350000Y-141350000D01*
X127000000Y-144125000D02*
X127000000Y-142700000D01*
X108130000Y-118202000D02*
X108000000Y-118072000D01*
X108130000Y-106530000D02*
X107000000Y-105400000D01*
X108130000Y-118202000D02*
X108130000Y-106530000D01*
X107000000Y-105400000D02*
X107000000Y-105400000D01*
M02*
