solid Codelock
facet normal 0.0 1.0 0.0
  outer loop
    vertex 433.2753876257905 128.20606685027283 1.4051855371954298
    vertex 435.2753876257906 128.20606685027283 0.4051855371954317
    vertex 433.2753876257905 128.20606685027283 0.4051855371954317
  endloop
endfacet
facet normal 0.0 1.0 0.0
  outer loop
    vertex 435.2753876257906 128.20606685027283 0.4051855371954317
    vertex 433.2753876257905 128.20606685027283 1.4051855371954298
    vertex 435.2753876257906 128.20606685027283 1.4051855371954298
  endloop
endfacet
facet normal 0.0 1.0 0.0
  outer loop
    vertex 405.27538762579053 130.7060668502729 1.4051855371954298
    vertex 407.27538762579064 130.7060668502729 0.4051855371954317
    vertex 405.27538762579053 130.7060668502729 0.4051855371954317
  endloop
endfacet
facet normal 0.0 1.0 0.0
  outer loop
    vertex 407.27538762579064 130.7060668502729 0.4051855371954317
    vertex 405.27538762579053 130.7060668502729 1.4051855371954298
    vertex 407.27538762579064 130.7060668502729 1.4051855371954298
  endloop
endfacet
facet normal 0.0 -1.0 0.0
  outer loop
    vertex 407.27538762579064 134.7060668502729 1.4051855371954298
    vertex 405.27538762579053 134.7060668502729 0.4051855371954317
    vertex 407.27538762579064 134.7060668502729 0.4051855371954317
  endloop
endfacet
facet normal 0.0 -1.0 0.0
  outer loop
    vertex 405.27538762579053 134.7060668502729 0.4051855371954317
    vertex 407.27538762579064 134.7060668502729 1.4051855371954298
    vertex 405.27538762579053 134.7060668502729 1.4051855371954298
  endloop
endfacet
facet normal 0.0 -1.0 0.0
  outer loop
    vertex 405.27538762579053 134.7060668502729 1.4051855371954298
    vertex 407.27538762579064 134.7060668502729 1.4051855371954298
    vertex 405.7753876257904 134.7060668502729 1.4051855371954298
  endloop
endfacet
facet normal -1.0 0.0 0.0
  outer loop
    vertex 435.2753876257906 144.2060668502729 1.4051855371954298
    vertex 435.2753876257906 128.20606685027283 0.4051855371954317
    vertex 435.2753876257906 128.20606685027283 1.4051855371954298
  endloop
endfacet
facet normal -1.0 0.0 0.0
  outer loop
    vertex 435.2753876257906 128.20606685027283 0.4051855371954317
    vertex 435.2753876257906 144.2060668502729 1.4051855371954298
    vertex 435.2753876257906 144.2060668502729 0.4051855371954317
  endloop
endfacet
facet normal 1.0 0.0 0.0
  outer loop
    vertex 433.2753876257905 144.2060668502729 0.4051855371954317
    vertex 433.2753876257905 128.20606685027283 1.4051855371954298
    vertex 433.2753876257905 128.20606685027283 0.4051855371954317
  endloop
endfacet
facet normal 1.0 0.0 0.0
  outer loop
    vertex 433.2753876257905 128.20606685027283 1.4051855371954298
    vertex 433.2753876257905 144.2060668502729 0.4051855371954317
    vertex 433.2753876257905 144.2060668502729 1.4051855371954298
  endloop
endfacet
facet normal 0.0 1.0 0.0
  outer loop
    vertex 412.7753876257905 140.7060668502729 1.4051855371954298
    vertex 430.7753876257903 140.7060668502729 0.4051855371954317
    vertex 412.7753876257905 140.7060668502729 0.4051855371954317
  endloop
endfacet
facet normal 0.0 1.0 0.0
  outer loop
    vertex 430.7753876257903 140.7060668502729 0.4051855371954317
    vertex 412.7753876257905 140.7060668502729 1.4051855371954298
    vertex 430.7753876257903 140.7060668502729 1.4051855371954298
  endloop
endfacet
facet normal -0.38268343236520547 -0.9238795325112388 0.0
  outer loop
    vertex 418.77538762579036 134.93811765784173 0.9051855371954534
    vertex 418.29302571599544 135.13791850285105 0.4051855371954317
    vertex 418.77538762579036 134.93811765784173 0.4051855371954317
  endloop
endfacet
facet normal -0.38268343236520547 -0.9238795325112388 0.0
  outer loop
    vertex 418.29302571599544 135.13791850285105 0.4051855371954317
    vertex 418.77538762579036 134.93811765784173 0.9051855371954534
    vertex 418.29302571599544 135.13791850285105 0.9051855371954534
  endloop
endfacet
facet normal 1.0 0.0 0.0
  outer loop
    vertex 454.2753876257904 148.9560668502729 1.4051855371954298
    vertex 454.2753876257904 95.9560668502728 3.605185537195426
    vertex 454.2753876257904 95.9560668502728 1.4051855371954298
  endloop
endfacet
facet normal 1.0 0.0 0.0
  outer loop
    vertex 454.2753876257904 95.9560668502728 3.605185537195426
    vertex 454.2753876257904 148.9560668502729 1.4051855371954298
    vertex 454.2753876257904 148.9560668502729 3.605185537195426
  endloop
endfacet
facet normal 0.0 -1.0 0.0
  outer loop
    vertex 454.2753876257904 95.9560668502728 3.605185537195426
    vertex 401.27538762579053 95.9560668502728 1.4051855371954298
    vertex 454.2753876257904 95.9560668502728 1.4051855371954298
  endloop
endfacet
facet normal 0.0 -1.0 0.0
  outer loop
    vertex 401.27538762579053 95.9560668502728 1.4051855371954298
    vertex 454.2753876257904 95.9560668502728 3.605185537195426
    vertex 401.27538762579053 95.9560668502728 3.605185537195426
  endloop
endfacet
facet normal 0.13052619221998146 -0.9914448613738197 0.0
  outer loop
    vertex 417.7753876257904 135.20606685027286 0.9051855371954534
    vertex 417.25774953558533 135.13791850285105 0.4051855371954317
    vertex 417.7753876257904 135.20606685027286 0.4051855371954317
  endloop
endfacet
facet normal 0.13052619221998146 -0.9914448613738197 0.0
  outer loop
    vertex 417.25774953558533 135.13791850285105 0.4051855371954317
    vertex 417.7753876257904 135.20606685027286 0.9051855371954534
    vertex 417.25774953558533 135.13791850285105 0.9051855371954534
  endloop
endfacet
facet normal 1.0 0.0 0.0
  outer loop
    vertex 412.7753876257905 144.2060668502729 0.4051855371954317
    vertex 412.7753876257905 140.7060668502729 1.4051855371954298
    vertex 412.7753876257905 140.7060668502729 0.4051855371954317
  endloop
endfacet
facet normal 1.0 0.0 0.0
  outer loop
    vertex 412.7753876257905 140.7060668502729 1.4051855371954298
    vertex 412.7753876257905 144.2060668502729 0.4051855371954317
    vertex 412.7753876257905 144.2060668502729 1.4051855371954298
  endloop
endfacet
facet normal -1.0 0.0 0.0
  outer loop
    vertex 407.27538762579064 134.7060668502729 1.4051855371954298
    vertex 407.27538762579064 130.7060668502729 0.4051855371954317
    vertex 407.27538762579064 130.7060668502729 1.4051855371954298
  endloop
endfacet
facet normal -1.0 0.0 0.0
  outer loop
    vertex 407.27538762579064 130.7060668502729 0.4051855371954317
    vertex 407.27538762579064 134.7060668502729 1.4051855371954298
    vertex 407.27538762579064 134.7060668502729 0.4051855371954317
  endloop
endfacet
facet normal -0.13052619221998146 -0.9914448613738197 0.0
  outer loop
    vertex 418.29302571599544 135.13791850285105 0.9051855371954534
    vertex 417.7753876257904 135.20606685027286 0.4051855371954317
    vertex 418.29302571599544 135.13791850285105 0.4051855371954317
  endloop
endfacet
facet normal -0.13052619221998146 -0.9914448613738197 0.0
  outer loop
    vertex 417.7753876257904 135.20606685027286 0.4051855371954317
    vertex 418.29302571599544 135.13791850285105 0.9051855371954534
    vertex 417.7753876257904 135.20606685027286 0.9051855371954534
  endloop
endfacet
facet normal 0.0 1.0 0.0
  outer loop
    vertex 416.77538762579064 96.20606685027276 1.4051855371954298
    vertex 427.7753876257905 96.20606685027276 0.9051855371954534
    vertex 416.77538762579064 96.20606685027276 0.9051855371954534
  endloop
endfacet
facet normal 0.0 1.0 0.0
  outer loop
    vertex 427.7753876257905 96.20606685027276 0.9051855371954534
    vertex 416.77538762579064 96.20606685027276 1.4051855371954298
    vertex 427.7753876257905 96.20606685027276 1.4051855371954298
  endloop
endfacet
facet normal -1.0 0.0 0.0
  outer loop
    vertex 430.7753876257903 144.2060668502729 1.4051855371954298
    vertex 430.7753876257903 140.7060668502729 0.4051855371954317
    vertex 430.7753876257903 140.7060668502729 1.4051855371954298
  endloop
endfacet
facet normal -1.0 0.0 0.0
  outer loop
    vertex 430.7753876257903 140.7060668502729 0.4051855371954317
    vertex 430.7753876257903 144.2060668502729 1.4051855371954298
    vertex 430.7753876257903 144.2060668502729 0.4051855371954317
  endloop
endfacet
facet normal -0.6087614290087409 -0.7933533402912198 0.0
  outer loop
    vertex 419.1896011881634 134.62028041264597 0.9051855371954534
    vertex 418.77538762579036 134.93811765784173 0.4051855371954317
    vertex 419.1896011881634 134.62028041264597 0.4051855371954317
  endloop
endfacet
facet normal -0.6087614290087409 -0.7933533402912198 0.0
  outer loop
    vertex 418.77538762579036 134.93811765784173 0.4051855371954317
    vertex 419.1896011881634 134.62028041264597 0.9051855371954534
    vertex 418.77538762579036 134.93811765784173 0.9051855371954534
  endloop
endfacet
facet normal 0.0 -1.0 0.0
  outer loop
    vertex 435.2753876257906 144.2060668502729 1.4051855371954298
    vertex 433.2753876257905 144.2060668502729 0.4051855371954317
    vertex 435.2753876257906 144.2060668502729 0.4051855371954317
  endloop
endfacet
facet normal 0.0 -1.0 0.0
  outer loop
    vertex 433.2753876257905 144.2060668502729 0.4051855371954317
    vertex 435.2753876257906 144.2060668502729 1.4051855371954298
    vertex 433.2753876257905 144.2060668502729 1.4051855371954298
  endloop
endfacet
facet normal 0.9914448613737732 0.13052619222033407 0.0
  outer loop
    vertex 415.8234469216178 132.8410202563374 0.4051855371954317
    vertex 415.84353597321234 132.68842876006786 0.9051855371954534
    vertex 415.84353597321234 132.68842876006786 0.4051855371954317
  endloop
endfacet
facet normal 0.9914448613737732 0.13052619222033407 0.0
  outer loop
    vertex 415.84353597321234 132.68842876006786 0.9051855371954534
    vertex 415.8234469216178 132.8410202563374 0.4051855371954317
    vertex 415.8234469216178 132.8410202563374 0.9051855371954534
  endloop
endfacet
facet normal -0.7933533402910616 -0.608761429008947 0.0
  outer loop
    vertex 419.22732832996314 134.5711134442078 0.9051855371954534
    vertex 419.50743843335937 134.20606685027286 0.4051855371954317
    vertex 419.50743843335937 134.20606685027286 0.9051855371954534
  endloop
endfacet
facet normal -0.7933533402910616 -0.608761429008947 0.0
  outer loop
    vertex 419.50743843335937 134.20606685027286 0.4051855371954317
    vertex 419.22732832996314 134.5711134442078 0.9051855371954534
    vertex 419.22732832996314 134.5711134442078 0.4051855371954317
  endloop
endfacet
facet normal 0.6087614290087409 -0.7933533402912198 0.0
  outer loop
    vertex 416.7753876257905 134.93811765784173 0.9051855371954534
    vertex 416.36117406341737 134.62028041264597 0.4051855371954317
    vertex 416.7753876257905 134.93811765784173 0.4051855371954317
  endloop
endfacet
facet normal 0.6087614290087409 -0.7933533402912198 0.0
  outer loop
    vertex 416.36117406341737 134.62028041264597 0.4051855371954317
    vertex 416.7753876257905 134.93811765784173 0.9051855371954534
    vertex 416.36117406341737 134.62028041264597 0.9051855371954534
  endloop
endfacet
facet normal 1.0 0.0 0.0
  outer loop
    vertex 405.27538762579053 134.7060668502729 0.4051855371954317
    vertex 405.27538762579053 130.7060668502729 1.4051855371954298
    vertex 405.27538762579053 130.7060668502729 0.4051855371954317
  endloop
endfacet
facet normal 1.0 0.0 0.0
  outer loop
    vertex 405.27538762579053 130.7060668502729 1.4051855371954298
    vertex 405.27538762579053 134.7060668502729 0.4051855371954317
    vertex 405.27538762579053 134.7060668502729 1.4051855371954298
  endloop
endfacet
facet normal -0.793353340291258 -0.6087614290086909 0.0
  outer loop
    vertex 419.1896011881634 134.62028041264597 0.9051855371954534
    vertex 419.22732832996314 134.5711134442078 0.4051855371954317
    vertex 419.22732832996314 134.5711134442078 0.9051855371954534
  endloop
endfacet
facet normal -0.793353340291258 -0.6087614290086909 0.0
  outer loop
    vertex 419.22732832996314 134.5711134442078 0.4051855371954317
    vertex 419.1896011881634 134.62028041264597 0.9051855371954534
    vertex 419.1896011881634 134.62028041264597 0.4051855371954317
  endloop
endfacet
facet normal 0.38268343236520547 -0.9238795325112388 0.0
  outer loop
    vertex 417.25774953558533 135.13791850285105 0.9051855371954534
    vertex 416.7753876257905 134.93811765784173 0.4051855371954317
    vertex 417.25774953558533 135.13791850285105 0.4051855371954317
  endloop
endfacet
facet normal 0.38268343236520547 -0.9238795325112388 0.0
  outer loop
    vertex 416.7753876257905 134.93811765784173 0.4051855371954317
    vertex 417.25774953558533 135.13791850285105 0.9051855371954534
    vertex 416.7753876257905 134.93811765784173 0.9051855371954534
  endloop
endfacet
facet normal 0.0 -1.0 0.0
  outer loop
    vertex 430.7753876257903 144.2060668502729 1.4051855371954298
    vertex 412.7753876257905 144.2060668502729 0.4051855371954317
    vertex 430.7753876257903 144.2060668502729 0.4051855371954317
  endloop
endfacet
facet normal 0.0 -1.0 0.0
  outer loop
    vertex 412.7753876257905 144.2060668502729 0.4051855371954317
    vertex 430.7753876257903 144.2060668502729 1.4051855371954298
    vertex 412.7753876257905 144.2060668502729 1.4051855371954298
  endloop
endfacet
facet normal 0.38268343236513175 0.9238795325112694 0.0
  outer loop
    vertex 416.7753876257905 131.47401604270402 0.9051855371954534
    vertex 417.25774953558533 131.27421519769476 0.4051855371954317
    vertex 416.7753876257905 131.47401604270402 0.4051855371954317
  endloop
endfacet
facet normal 0.38268343236513175 0.9238795325112694 0.0
  outer loop
    vertex 417.25774953558533 131.27421519769476 0.4051855371954317
    vertex 416.7753876257905 131.47401604270402 0.9051855371954534
    vertex 417.25774953558533 131.27421519769476 0.9051855371954534
  endloop
endfacet
facet normal 1.0 0.0 0.0
  outer loop
    vertex 416.77538762579064 107.20606685027279 0.9051855371954534
    vertex 416.77538762579064 96.20606685027276 1.4051855371954298
    vertex 416.77538762579064 96.20606685027276 0.9051855371954534
  endloop
endfacet
facet normal 1.0 0.0 0.0
  outer loop
    vertex 416.77538762579064 96.20606685027276 1.4051855371954298
    vertex 416.77538762579064 107.20606685027279 0.9051855371954534
    vertex 416.77538762579064 107.20606685027279 1.4051855371954298
  endloop
endfacet
facet normal -0.991444861373775 -0.13052619222032122 0.0
  outer loop
    vertex 419.7072392783685 133.72370494047794 0.9051855371954534
    vertex 419.7753876257905 133.2060668502729 0.4051855371954317
    vertex 419.7753876257905 133.2060668502729 0.9051855371954534
  endloop
endfacet
facet normal -0.991444861373775 -0.13052619222032122 0.0
  outer loop
    vertex 419.7753876257905 133.2060668502729 0.4051855371954317
    vertex 419.7072392783685 133.72370494047794 0.9051855371954534
    vertex 419.7072392783685 133.72370494047794 0.4051855371954317
  endloop
endfacet
facet normal 0.9914448613737736 0.13052619222033174 0.0
  outer loop
    vertex 415.7753876257903 133.2060668502729 0.4051855371954317
    vertex 415.8234469216178 132.8410202563374 0.9051855371954534
    vertex 415.8234469216178 132.8410202563374 0.4051855371954317
  endloop
endfacet
facet normal 0.9914448613737736 0.13052619222033174 0.0
  outer loop
    vertex 415.8234469216178 132.8410202563374 0.9051855371954534
    vertex 415.7753876257903 133.2060668502729 0.4051855371954317
    vertex 415.7753876257903 133.2060668502729 0.9051855371954534
  endloop
endfacet
facet normal -1.0 0.0 0.0
  outer loop
    vertex 427.7753876257905 107.20606685027279 1.4051855371954298
    vertex 427.7753876257905 96.20606685027276 0.9051855371954534
    vertex 427.7753876257905 96.20606685027276 1.4051855371954298
  endloop
endfacet
facet normal -1.0 0.0 0.0
  outer loop
    vertex 427.7753876257905 96.20606685027276 0.9051855371954534
    vertex 427.7753876257905 107.20606685027279 1.4051855371954298
    vertex 427.7753876257905 107.20606685027279 0.9051855371954534
  endloop
endfacet
facet normal 0.9238795325113737 -0.3826834323648799 0.0
  outer loop
    vertex 416.04333681822146 134.20606685027286 0.4051855371954317
    vertex 415.84353597321234 133.72370494047794 0.9051855371954534
    vertex 415.84353597321234 133.72370494047794 0.4051855371954317
  endloop
endfacet
facet normal 0.9238795325113737 -0.3826834323648799 0.0
  outer loop
    vertex 415.84353597321234 133.72370494047794 0.9051855371954534
    vertex 416.04333681822146 134.20606685027286 0.4051855371954317
    vertex 416.04333681822146 134.20606685027286 0.9051855371954534
  endloop
endfacet
facet normal -0.1305261922200664 0.9914448613738086 0.0
  outer loop
    vertex 417.7753876257904 131.2060668502729 0.9051855371954534
    vertex 418.29302571599544 131.27421519769476 0.4051855371954317
    vertex 417.7753876257904 131.2060668502729 0.4051855371954317
  endloop
endfacet
facet normal -0.1305261922200664 0.9914448613738086 0.0
  outer loop
    vertex 418.29302571599544 131.27421519769476 0.4051855371954317
    vertex 417.7753876257904 131.2060668502729 0.9051855371954534
    vertex 418.29302571599544 131.27421519769476 0.9051855371954534
  endloop
endfacet
facet normal 0.0 0.0 -1.0
  outer loop
    vertex 411.7753876257905 139.20606685027286 1.4051855371954298
    vertex 412.7753876257905 140.7060668502729 1.4051855371954298
    vertex 423.7753876257905 139.20606685027286 1.4051855371954298
  endloop
endfacet
facet normal 0.0 0.0 -1.0
  outer loop
    vertex 412.7753876257905 140.7060668502729 1.4051855371954298
    vertex 411.7753876257905 139.20606685027286 1.4051855371954298
    vertex 412.7753876257905 144.2060668502729 1.4051855371954298
  endloop
endfacet
facet normal 0.0 0.0 -1.0
  outer loop
    vertex 423.7753876257905 139.20606685027286 1.4051855371954298
    vertex 412.7753876257905 140.7060668502729 1.4051855371954298
    vertex 430.7753876257903 140.7060668502729 1.4051855371954298
  endloop
endfacet
facet normal 0.0 0.0 -1.0
  outer loop
    vertex 423.7753876257905 139.20606685027286 1.4051855371954298
    vertex 430.7753876257903 140.7060668502729 1.4051855371954298
    vertex 423.7753876257905 127.20606685027289 1.4051855371954298
  endloop
endfacet
facet normal 0.0 0.0 -1.0
  outer loop
    vertex 423.7753876257905 127.20606685027289 1.4051855371954298
    vertex 430.7753876257903 140.7060668502729 1.4051855371954298
    vertex 427.7753876257905 107.20606685027279 1.4051855371954298
  endloop
endfacet
facet normal 0.0 0.0 -1.0
  outer loop
    vertex 427.7753876257905 107.20606685027279 1.4051855371954298
    vertex 430.7753876257903 140.7060668502729 1.4051855371954298
    vertex 427.7753876257905 96.20606685027276 1.4051855371954298
  endloop
endfacet
facet normal 0.0 0.0 -1.0
  outer loop
    vertex 401.27538762579053 148.9560668502729 1.4051855371954298
    vertex 405.27538762579053 134.7060668502729 1.4051855371954298
    vertex 401.27538762579053 95.9560668502728 1.4051855371954298
  endloop
endfacet
facet normal 0.0 0.0 -1.0
  outer loop
    vertex 405.27538762579053 134.7060668502729 1.4051855371954298
    vertex 401.27538762579053 148.9560668502729 1.4051855371954298
    vertex 412.7753876257905 144.2060668502729 1.4051855371954298
  endloop
endfacet
facet normal 0.0 0.0 -1.0
  outer loop
    vertex 412.7753876257905 144.2060668502729 1.4051855371954298
    vertex 401.27538762579053 148.9560668502729 1.4051855371954298
    vertex 454.2753876257904 148.9560668502729 1.4051855371954298
  endloop
endfacet
facet normal 0.0 0.0 -1.0
  outer loop
    vertex 405.27538762579053 134.7060668502729 1.4051855371954298
    vertex 412.7753876257905 144.2060668502729 1.4051855371954298
    vertex 405.7753876257904 134.7060668502729 1.4051855371954298
  endloop
endfacet
facet normal 0.0 0.0 -1.0
  outer loop
    vertex 405.7753876257904 134.7060668502729 1.4051855371954298
    vertex 412.7753876257905 144.2060668502729 1.4051855371954298
    vertex 407.27538762579064 134.7060668502729 1.4051855371954298
  endloop
endfacet
facet normal 0.0 0.0 -1.0
  outer loop
    vertex 407.27538762579064 134.7060668502729 1.4051855371954298
    vertex 412.7753876257905 144.2060668502729 1.4051855371954298
    vertex 407.27538762579064 130.7060668502729 1.4051855371954298
  endloop
endfacet
facet normal 0.0 0.0 -1.0
  outer loop
    vertex 407.27538762579064 130.7060668502729 1.4051855371954298
    vertex 412.7753876257905 144.2060668502729 1.4051855371954298
    vertex 411.7753876257905 139.20606685027286 1.4051855371954298
  endloop
endfacet
facet normal 0.0 0.0 -1.0
  outer loop
    vertex 412.7753876257905 144.2060668502729 1.4051855371954298
    vertex 454.2753876257904 148.9560668502729 1.4051855371954298
    vertex 430.7753876257903 144.2060668502729 1.4051855371954298
  endloop
endfacet
facet normal 0.0 0.0 -1.0
  outer loop
    vertex 430.7753876257903 144.2060668502729 1.4051855371954298
    vertex 454.2753876257904 148.9560668502729 1.4051855371954298
    vertex 433.2753876257905 144.2060668502729 1.4051855371954298
  endloop
endfacet
facet normal 0.0 0.0 -1.0
  outer loop
    vertex 430.7753876257903 144.2060668502729 1.4051855371954298
    vertex 433.2753876257905 144.2060668502729 1.4051855371954298
    vertex 430.7753876257903 140.7060668502729 1.4051855371954298
  endloop
endfacet
facet normal 0.0 0.0 -1.0
  outer loop
    vertex 433.2753876257905 144.2060668502729 1.4051855371954298
    vertex 454.2753876257904 148.9560668502729 1.4051855371954298
    vertex 435.2753876257906 144.2060668502729 1.4051855371954298
  endloop
endfacet
facet normal 0.0 0.0 -1.0
  outer loop
    vertex 435.2753876257906 144.2060668502729 1.4051855371954298
    vertex 454.2753876257904 148.9560668502729 1.4051855371954298
    vertex 435.2753876257906 128.20606685027283 1.4051855371954298
  endloop
endfacet
facet normal 0.0 0.0 -1.0
  outer loop
    vertex 401.27538762579053 95.9560668502728 1.4051855371954298
    vertex 416.77538762579064 96.20606685027276 1.4051855371954298
    vertex 454.2753876257904 95.9560668502728 1.4051855371954298
  endloop
endfacet
facet normal 0.0 0.0 -1.0
  outer loop
    vertex 416.77538762579064 96.20606685027276 1.4051855371954298
    vertex 401.27538762579053 95.9560668502728 1.4051855371954298
    vertex 405.27538762579053 130.7060668502729 1.4051855371954298
  endloop
endfacet
facet normal 0.0 0.0 -1.0
  outer loop
    vertex 405.27538762579053 130.7060668502729 1.4051855371954298
    vertex 401.27538762579053 95.9560668502728 1.4051855371954298
    vertex 405.27538762579053 134.7060668502729 1.4051855371954298
  endloop
endfacet
facet normal 0.0 0.0 -1.0
  outer loop
    vertex 416.77538762579064 96.20606685027276 1.4051855371954298
    vertex 405.27538762579053 130.7060668502729 1.4051855371954298
    vertex 407.27538762579064 130.7060668502729 1.4051855371954298
  endloop
endfacet
facet normal 0.0 0.0 -1.0
  outer loop
    vertex 416.77538762579064 96.20606685027276 1.4051855371954298
    vertex 407.27538762579064 130.7060668502729 1.4051855371954298
    vertex 411.7753876257905 127.20606685027289 1.4051855371954298
  endloop
endfacet
facet normal 0.0 0.0 -1.0
  outer loop
    vertex 411.7753876257905 127.20606685027289 1.4051855371954298
    vertex 407.27538762579064 130.7060668502729 1.4051855371954298
    vertex 411.7753876257905 139.20606685027286 1.4051855371954298
  endloop
endfacet
facet normal 0.0 0.0 -1.0
  outer loop
    vertex 416.77538762579064 96.20606685027276 1.4051855371954298
    vertex 411.7753876257905 127.20606685027289 1.4051855371954298
    vertex 416.77538762579064 107.20606685027279 1.4051855371954298
  endloop
endfacet
facet normal 0.0 0.0 -1.0
  outer loop
    vertex 454.2753876257904 95.9560668502728 1.4051855371954298
    vertex 416.77538762579064 96.20606685027276 1.4051855371954298
    vertex 427.7753876257905 96.20606685027276 1.4051855371954298
  endloop
endfacet
facet normal 0.0 0.0 -1.0
  outer loop
    vertex 454.2753876257904 95.9560668502728 1.4051855371954298
    vertex 427.7753876257905 96.20606685027276 1.4051855371954298
    vertex 433.2753876257905 128.20606685027283 1.4051855371954298
  endloop
endfacet
facet normal 0.0 0.0 -1.0
  outer loop
    vertex 433.2753876257905 128.20606685027283 1.4051855371954298
    vertex 427.7753876257905 96.20606685027276 1.4051855371954298
    vertex 430.7753876257903 140.7060668502729 1.4051855371954298
  endloop
endfacet
facet normal 0.0 0.0 -1.0
  outer loop
    vertex 433.2753876257905 128.20606685027283 1.4051855371954298
    vertex 430.7753876257903 140.7060668502729 1.4051855371954298
    vertex 433.2753876257905 144.2060668502729 1.4051855371954298
  endloop
endfacet
facet normal 0.0 0.0 -1.0
  outer loop
    vertex 454.2753876257904 95.9560668502728 1.4051855371954298
    vertex 433.2753876257905 128.20606685027283 1.4051855371954298
    vertex 435.2753876257906 128.20606685027283 1.4051855371954298
  endloop
endfacet
facet normal 0.0 0.0 -1.0
  outer loop
    vertex 454.2753876257904 95.9560668502728 1.4051855371954298
    vertex 435.2753876257906 128.20606685027283 1.4051855371954298
    vertex 454.2753876257904 148.9560668502729 1.4051855371954298
  endloop
endfacet
facet normal 0.0 0.0 -1.0
  outer loop
    vertex 423.7753876257905 127.20606685027289 1.4051855371954298
    vertex 416.77538762579064 107.20606685027279 1.4051855371954298
    vertex 411.7753876257905 127.20606685027289 1.4051855371954298
  endloop
endfacet
facet normal 0.0 0.0 -1.0
  outer loop
    vertex 416.77538762579064 107.20606685027279 1.4051855371954298
    vertex 423.7753876257905 127.20606685027289 1.4051855371954298
    vertex 427.7753876257905 107.20606685027279 1.4051855371954298
  endloop
endfacet
facet normal -0.9914448613737734 0.1305261922203324 0.0
  outer loop
    vertex 419.7753876257905 133.2060668502729 0.9051855371954534
    vertex 419.7072392783685 132.68842876006786 0.4051855371954317
    vertex 419.7072392783685 132.68842876006786 0.9051855371954534
  endloop
endfacet
facet normal -0.9914448613737734 0.1305261922203324 0.0
  outer loop
    vertex 419.7072392783685 132.68842876006786 0.4051855371954317
    vertex 419.7753876257905 133.2060668502729 0.9051855371954534
    vertex 419.7753876257905 133.2060668502729 0.4051855371954317
  endloop
endfacet
facet normal -0.6087614290087409 0.7933533402912198 0.0
  outer loop
    vertex 418.77538762579036 131.47401604270402 0.9051855371954534
    vertex 419.1896011881634 131.79185328789978 0.4051855371954317
    vertex 418.77538762579036 131.47401604270402 0.4051855371954317
  endloop
endfacet
facet normal -0.6087614290087409 0.7933533402912198 0.0
  outer loop
    vertex 419.1896011881634 131.79185328789978 0.4051855371954317
    vertex 418.77538762579036 131.47401604270402 0.9051855371954534
    vertex 419.1896011881634 131.79185328789978 0.9051855371954534
  endloop
endfacet
facet normal -0.38268343236513175 0.9238795325112694 0.0
  outer loop
    vertex 418.29302571599544 131.27421519769476 0.9051855371954534
    vertex 418.77538762579036 131.47401604270402 0.4051855371954317
    vertex 418.29302571599544 131.27421519769476 0.4051855371954317
  endloop
endfacet
facet normal -0.38268343236513175 0.9238795325112694 0.0
  outer loop
    vertex 418.77538762579036 131.47401604270402 0.4051855371954317
    vertex 418.29302571599544 131.27421519769476 0.9051855371954534
    vertex 418.77538762579036 131.47401604270402 0.9051855371954534
  endloop
endfacet
facet normal 0.0 -1.0 0.0
  outer loop
    vertex 427.7753876257905 107.20606685027279 1.4051855371954298
    vertex 416.77538762579064 107.20606685027279 0.9051855371954534
    vertex 427.7753876257905 107.20606685027279 0.9051855371954534
  endloop
endfacet
facet normal 0.0 -1.0 0.0
  outer loop
    vertex 416.77538762579064 107.20606685027279 0.9051855371954534
    vertex 427.7753876257905 107.20606685027279 1.4051855371954298
    vertex 416.77538762579064 107.20606685027279 1.4051855371954298
  endloop
endfacet
facet normal 0.0 0.0 1.0
  outer loop
    vertex 427.7753876257905 96.20606685027276 0.9051855371954534
    vertex 416.77538762579064 107.20606685027279 0.9051855371954534
    vertex 416.77538762579064 96.20606685027276 0.9051855371954534
  endloop
endfacet
facet normal 0.0 0.0 1.0
  outer loop
    vertex 416.77538762579064 107.20606685027279 0.9051855371954534
    vertex 427.7753876257905 96.20606685027276 0.9051855371954534
    vertex 427.7753876257905 107.20606685027279 0.9051855371954534
  endloop
endfacet
facet normal 0.9238795325113864 0.3826834323648495 0.0
  outer loop
    vertex 415.84353597321234 132.68842876006786 0.4051855371954317
    vertex 416.04333681822146 132.2060668502729 0.9051855371954534
    vertex 416.04333681822146 132.2060668502729 0.4051855371954317
  endloop
endfacet
facet normal 0.9238795325113864 0.3826834323648495 0.0
  outer loop
    vertex 416.04333681822146 132.2060668502729 0.9051855371954534
    vertex 415.84353597321234 132.68842876006786 0.4051855371954317
    vertex 415.84353597321234 132.68842876006786 0.9051855371954534
  endloop
endfacet
facet normal 0.1305261922200664 0.9914448613738086 0.0
  outer loop
    vertex 417.25774953558533 131.27421519769476 0.9051855371954534
    vertex 417.7753876257904 131.2060668502729 0.4051855371954317
    vertex 417.25774953558533 131.27421519769476 0.4051855371954317
  endloop
endfacet
facet normal 0.1305261922200664 0.9914448613738086 0.0
  outer loop
    vertex 417.7753876257904 131.2060668502729 0.4051855371954317
    vertex 417.25774953558533 131.27421519769476 0.9051855371954534
    vertex 417.7753876257904 131.2060668502729 0.9051855371954534
  endloop
endfacet
facet normal -0.9238795325113864 0.3826834323648495 0.0
  outer loop
    vertex 419.7072392783685 132.68842876006786 0.9051855371954534
    vertex 419.50743843335937 132.2060668502729 0.4051855371954317
    vertex 419.50743843335937 132.2060668502729 0.9051855371954534
  endloop
endfacet
facet normal -0.9238795325113864 0.3826834323648495 0.0
  outer loop
    vertex 419.50743843335937 132.2060668502729 0.4051855371954317
    vertex 419.7072392783685 132.68842876006786 0.9051855371954534
    vertex 419.7072392783685 132.68842876006786 0.4051855371954317
  endloop
endfacet
facet normal 0.793353340291085 0.6087614290089167 0.0
  outer loop
    vertex 416.04333681822146 132.2060668502729 0.4051855371954317
    vertex 416.36117406341737 131.79185328789978 0.9051855371954534
    vertex 416.36117406341737 131.79185328789978 0.4051855371954317
  endloop
endfacet
facet normal 0.793353340291085 0.6087614290089167 0.0
  outer loop
    vertex 416.36117406341737 131.79185328789978 0.9051855371954534
    vertex 416.04333681822146 132.2060668502729 0.4051855371954317
    vertex 416.04333681822146 132.2060668502729 0.9051855371954534
  endloop
endfacet
facet normal 0.991444861373775 -0.13052619222032122 0.0
  outer loop
    vertex 415.84353597321234 133.72370494047794 0.4051855371954317
    vertex 415.7753876257903 133.2060668502729 0.9051855371954534
    vertex 415.7753876257903 133.2060668502729 0.4051855371954317
  endloop
endfacet
facet normal 0.991444861373775 -0.13052619222032122 0.0
  outer loop
    vertex 415.7753876257903 133.2060668502729 0.9051855371954534
    vertex 415.84353597321234 133.72370494047794 0.4051855371954317
    vertex 415.84353597321234 133.72370494047794 0.9051855371954534
  endloop
endfacet
facet normal 0.6087614290087409 0.7933533402912198 0.0
  outer loop
    vertex 416.36117406341737 131.79185328789978 0.9051855371954534
    vertex 416.7753876257905 131.47401604270402 0.4051855371954317
    vertex 416.36117406341737 131.79185328789978 0.4051855371954317
  endloop
endfacet
facet normal 0.6087614290087409 0.7933533402912198 0.0
  outer loop
    vertex 416.7753876257905 131.47401604270402 0.4051855371954317
    vertex 416.36117406341737 131.79185328789978 0.9051855371954534
    vertex 416.7753876257905 131.47401604270402 0.9051855371954534
  endloop
endfacet
facet normal 0.7071067811866538 2.513517605783605e-31 -0.7071067811864412
  outer loop
    vertex 454.2753876257904 95.9560668502728 3.605185537195426
    vertex 454.5753876257903 149.25606685027287 3.905185537195448
    vertex 454.5753876257903 95.6560668502728 3.905185537195448
  endloop
endfacet
facet normal 0.7071067811866538 2.513517605783605e-31 -0.7071067811864412
  outer loop
    vertex 454.5753876257903 149.25606685027287 3.905185537195448
    vertex 454.2753876257904 95.9560668502728 3.605185537195426
    vertex 454.2753876257904 148.9560668502729 3.605185537195426
  endloop
endfacet
facet normal -0.793353340291085 0.6087614290089167 0.0
  outer loop
    vertex 419.50743843335937 132.2060668502729 0.9051855371954534
    vertex 419.1896011881634 131.79185328789978 0.4051855371954317
    vertex 419.1896011881634 131.79185328789978 0.9051855371954534
  endloop
endfacet
facet normal -0.793353340291085 0.6087614290089167 0.0
  outer loop
    vertex 419.1896011881634 131.79185328789978 0.4051855371954317
    vertex 419.50743843335937 132.2060668502729 0.9051855371954534
    vertex 419.50743843335937 132.2060668502729 0.4051855371954317
  endloop
endfacet
facet normal 0.707106781186654 -8.72016238211857e-20 -0.7071067811864411
  outer loop
    vertex 400.0753876257904 95.0560668502728 3.605185537195426
    vertex 400.3753876257904 95.0560668502728 3.905185537195448
    vertex 400.0753876257904 94.7560668502728 3.605185537195426
  endloop
endfacet
facet normal 0.707106781186654 -8.72016238211857e-20 -0.7071067811864411
  outer loop
    vertex 400.3753876257904 95.0560668502728 3.905185537195448
    vertex 400.0753876257904 95.0560668502728 3.605185537195426
    vertex 400.0753876257904 149.85606685027292 3.605185537195426
  endloop
endfacet
facet normal 0.707106781186654 -8.72016238211857e-20 -0.7071067811864411
  outer loop
    vertex 400.3753876257904 95.0560668502728 3.905185537195448
    vertex 400.0753876257904 149.85606685027292 3.605185537195426
    vertex 400.3753876257904 149.85606685027292 3.905185537195448
  endloop
endfacet
facet normal 0.707106781186654 -8.72016238211857e-20 -0.7071067811864411
  outer loop
    vertex 400.3753876257904 149.85606685027292 3.905185537195448
    vertex 400.0753876257904 149.85606685027292 3.605185537195426
    vertex 400.0753876257904 150.1560668502729 3.605185537195426
  endloop
endfacet
facet normal 0.0 0.0 -1.0
  outer loop
    vertex 400.3753876257904 149.85606685027292 3.905185537195448
    vertex 400.97538762579063 149.25606685027287 3.905185537195448
    vertex 400.3753876257904 95.0560668502728 3.905185537195448
  endloop
endfacet
facet normal 0.0 0.0 -1.0
  outer loop
    vertex 400.97538762579063 149.25606685027287 3.905185537195448
    vertex 400.3753876257904 149.85606685027292 3.905185537195448
    vertex 455.17538762579045 149.85606685027292 3.905185537195448
  endloop
endfacet
facet normal 0.0 0.0 -1.0
  outer loop
    vertex 400.97538762579063 149.25606685027287 3.905185537195448
    vertex 455.17538762579045 149.85606685027292 3.905185537195448
    vertex 454.5753876257903 149.25606685027287 3.905185537195448
  endloop
endfacet
facet normal 0.0 0.0 -1.0
  outer loop
    vertex 454.5753876257903 149.25606685027287 3.905185537195448
    vertex 455.17538762579045 149.85606685027292 3.905185537195448
    vertex 454.5753876257903 95.6560668502728 3.905185537195448
  endloop
endfacet
facet normal 0.0 0.0 -1.0
  outer loop
    vertex 400.3753876257904 95.0560668502728 3.905185537195448
    vertex 400.97538762579063 95.6560668502728 3.905185537195448
    vertex 455.17538762579045 95.0560668502728 3.905185537195448
  endloop
endfacet
facet normal 0.0 0.0 -1.0
  outer loop
    vertex 400.97538762579063 95.6560668502728 3.905185537195448
    vertex 400.3753876257904 95.0560668502728 3.905185537195448
    vertex 400.97538762579063 149.25606685027287 3.905185537195448
  endloop
endfacet
facet normal 0.0 0.0 -1.0
  outer loop
    vertex 455.17538762579045 95.0560668502728 3.905185537195448
    vertex 400.97538762579063 95.6560668502728 3.905185537195448
    vertex 454.5753876257903 95.6560668502728 3.905185537195448
  endloop
endfacet
facet normal 0.0 0.0 -1.0
  outer loop
    vertex 455.17538762579045 95.0560668502728 3.905185537195448
    vertex 454.5753876257903 95.6560668502728 3.905185537195448
    vertex 455.17538762579045 149.85606685027292 3.905185537195448
  endloop
endfacet
facet normal 0.0 0.7071067811866006 -0.7071067811864944
  outer loop
    vertex 400.97538762579063 149.25606685027287 3.905185537195448
    vertex 454.2753876257904 148.9560668502729 3.605185537195426
    vertex 401.27538762579053 148.9560668502729 3.605185537195426
  endloop
endfacet
facet normal 0.0 0.7071067811866006 -0.7071067811864944
  outer loop
    vertex 454.2753876257904 148.9560668502729 3.605185537195426
    vertex 400.97538762579063 149.25606685027287 3.905185537195448
    vertex 454.5753876257903 149.25606685027287 3.905185537195448
  endloop
endfacet
facet normal 0.0 -0.7071067811865741 -0.7071067811865209
  outer loop
    vertex 454.5753876257903 95.6560668502728 3.905185537195448
    vertex 401.27538762579053 95.9560668502728 3.605185537195426
    vertex 454.2753876257904 95.9560668502728 3.605185537195426
  endloop
endfacet
facet normal 0.0 -0.7071067811865741 -0.7071067811865209
  outer loop
    vertex 401.27538762579053 95.9560668502728 3.605185537195426
    vertex 454.5753876257903 95.6560668502728 3.905185537195448
    vertex 400.97538762579063 95.6560668502728 3.905185537195448
  endloop
endfacet
facet normal -1.7440324764263853e-19 0.7071067811865742 -0.7071067811865209
  outer loop
    vertex 400.3753876257904 95.0560668502728 3.905185537195448
    vertex 400.3753876257904 94.7560668502728 3.605185537195426
    vertex 400.0753876257904 94.7560668502728 3.605185537195426
  endloop
endfacet
facet normal -1.7440324764263853e-19 0.7071067811865742 -0.7071067811865209
  outer loop
    vertex 400.3753876257904 94.7560668502728 3.605185537195426
    vertex 400.3753876257904 95.0560668502728 3.905185537195448
    vertex 455.17538762579045 94.7560668502728 3.605185537195426
  endloop
endfacet
facet normal -1.7440324764263853e-19 0.7071067811865742 -0.7071067811865209
  outer loop
    vertex 455.17538762579045 94.7560668502728 3.605185537195426
    vertex 400.3753876257904 95.0560668502728 3.905185537195448
    vertex 455.4753876257904 94.7560668502728 3.605185537195426
  endloop
endfacet
facet normal -1.7440324764263853e-19 0.7071067811865742 -0.7071067811865209
  outer loop
    vertex 455.4753876257904 94.7560668502728 3.605185537195426
    vertex 400.3753876257904 95.0560668502728 3.905185537195448
    vertex 455.17538762579045 95.0560668502728 3.905185537195448
  endloop
endfacet
facet normal -0.9238795325113737 -0.3826834323648799 0.0
  outer loop
    vertex 419.50743843335937 134.20606685027286 0.9051855371954534
    vertex 419.7072392783685 133.72370494047794 0.4051855371954317
    vertex 419.7072392783685 133.72370494047794 0.9051855371954534
  endloop
endfacet
facet normal -0.9238795325113737 -0.3826834323648799 0.0
  outer loop
    vertex 419.7072392783685 133.72370494047794 0.4051855371954317
    vertex 419.50743843335937 134.20606685027286 0.9051855371954534
    vertex 419.50743843335937 134.20606685027286 0.4051855371954317
  endloop
endfacet
facet normal -1.0 0.0 0.0
  outer loop
    vertex 401.27538762579053 148.9560668502729 3.605185537195426
    vertex 401.27538762579053 95.9560668502728 1.4051855371954298
    vertex 401.27538762579053 95.9560668502728 3.605185537195426
  endloop
endfacet
facet normal -1.0 0.0 0.0
  outer loop
    vertex 401.27538762579053 95.9560668502728 1.4051855371954298
    vertex 401.27538762579053 148.9560668502729 3.605185537195426
    vertex 401.27538762579053 148.9560668502729 1.4051855371954298
  endloop
endfacet
facet normal -0.7071067811866538 2.513517605783605e-31 -0.7071067811864412
  outer loop
    vertex 400.97538762579063 149.25606685027287 3.905185537195448
    vertex 401.27538762579053 95.9560668502728 3.605185537195426
    vertex 400.97538762579063 95.6560668502728 3.905185537195448
  endloop
endfacet
facet normal -0.7071067811866538 2.513517605783605e-31 -0.7071067811864412
  outer loop
    vertex 401.27538762579053 95.9560668502728 3.605185537195426
    vertex 400.97538762579063 149.25606685027287 3.905185537195448
    vertex 401.27538762579053 148.9560668502729 3.605185537195426
  endloop
endfacet
facet normal 0.793353340291085 -0.6087614290089167 0.0
  outer loop
    vertex 416.36117406341737 134.62028041264597 0.4051855371954317
    vertex 416.04333681822146 134.20606685027286 0.9051855371954534
    vertex 416.04333681822146 134.20606685027286 0.4051855371954317
  endloop
endfacet
facet normal 0.793353340291085 -0.6087614290089167 0.0
  outer loop
    vertex 416.04333681822146 134.20606685027286 0.9051855371954534
    vertex 416.36117406341737 134.62028041264597 0.4051855371954317
    vertex 416.36117406341737 134.62028041264597 0.9051855371954534
  endloop
endfacet
facet normal -8.720162382043528e-20 -0.7071067811866009 -0.7071067811864942
  outer loop
    vertex 455.17538762579045 149.85606685027292 3.905185537195448
    vertex 455.17538762579045 150.1560668502729 3.605185537195426
    vertex 455.4753876257904 150.1560668502729 3.605185537195426
  endloop
endfacet
facet normal -8.720162382043528e-20 -0.7071067811866009 -0.7071067811864942
  outer loop
    vertex 455.17538762579045 150.1560668502729 3.605185537195426
    vertex 455.17538762579045 149.85606685027292 3.905185537195448
    vertex 400.3753876257904 150.1560668502729 3.605185537195426
  endloop
endfacet
facet normal -8.720162382043528e-20 -0.7071067811866009 -0.7071067811864942
  outer loop
    vertex 400.3753876257904 150.1560668502729 3.605185537195426
    vertex 455.17538762579045 149.85606685027292 3.905185537195448
    vertex 400.0753876257904 150.1560668502729 3.605185537195426
  endloop
endfacet
facet normal -8.720162382043528e-20 -0.7071067811866009 -0.7071067811864942
  outer loop
    vertex 400.0753876257904 150.1560668502729 3.605185537195426
    vertex 455.17538762579045 149.85606685027292 3.905185537195448
    vertex 400.3753876257904 149.85606685027292 3.905185537195448
  endloop
endfacet
facet normal -1.0 0.0 0.0
  outer loop
    vertex 423.7753876257905 139.20606685027286 1.4051855371954298
    vertex 423.7753876257905 127.20606685027289 0.9051855371954534
    vertex 423.7753876257905 127.20606685027289 1.4051855371954298
  endloop
endfacet
facet normal -1.0 0.0 0.0
  outer loop
    vertex 423.7753876257905 127.20606685027289 0.9051855371954534
    vertex 423.7753876257905 139.20606685027286 1.4051855371954298
    vertex 423.7753876257905 139.20606685027286 0.9051855371954534
  endloop
endfacet
facet normal -1.0 0.0 0.0
  outer loop
    vertex 455.4753876257904 149.85606685027292 3.605185537195426
    vertex 455.4753876257904 95.0560668502728 0.7051855371954537
    vertex 455.4753876257904 95.0560668502728 3.605185537195426
  endloop
endfacet
facet normal -1.0 0.0 0.0
  outer loop
    vertex 455.4753876257904 95.0560668502728 0.7051855371954537
    vertex 455.4753876257904 149.85606685027292 3.605185537195426
    vertex 455.4753876257904 149.85606685027292 0.7051855371954537
  endloop
endfacet
facet normal 0.0 1.0 0.0
  outer loop
    vertex 401.27538762579053 148.9560668502729 3.605185537195426
    vertex 454.2753876257904 148.9560668502729 1.4051855371954298
    vertex 401.27538762579053 148.9560668502729 1.4051855371954298
  endloop
endfacet
facet normal 0.0 1.0 0.0
  outer loop
    vertex 454.2753876257904 148.9560668502729 1.4051855371954298
    vertex 401.27538762579053 148.9560668502729 3.605185537195426
    vertex 454.2753876257904 148.9560668502729 3.605185537195426
  endloop
endfacet
facet normal 1.0 0.0 0.0
  outer loop
    vertex 411.7753876257905 139.20606685027286 0.9051855371954534
    vertex 411.7753876257905 127.20606685027289 1.4051855371954298
    vertex 411.7753876257905 127.20606685027289 0.9051855371954534
  endloop
endfacet
facet normal 1.0 0.0 0.0
  outer loop
    vertex 411.7753876257905 127.20606685027289 1.4051855371954298
    vertex 411.7753876257905 139.20606685027286 0.9051855371954534
    vertex 411.7753876257905 139.20606685027286 1.4051855371954298
  endloop
endfacet
facet normal 0.0 -1.0 0.0
  outer loop
    vertex 423.7753876257905 139.20606685027286 1.4051855371954298
    vertex 411.7753876257905 139.20606685027286 0.9051855371954534
    vertex 423.7753876257905 139.20606685027286 0.9051855371954534
  endloop
endfacet
facet normal 0.0 -1.0 0.0
  outer loop
    vertex 411.7753876257905 139.20606685027286 0.9051855371954534
    vertex 423.7753876257905 139.20606685027286 1.4051855371954298
    vertex 411.7753876257905 139.20606685027286 1.4051855371954298
  endloop
endfacet
facet normal 0.0 0.0 1.0
  outer loop
    vertex 411.7753876257905 127.20606685027289 0.9051855371954534
    vertex 416.04333681822146 132.2060668502729 0.9051855371954534
    vertex 411.7753876257905 139.20606685027286 0.9051855371954534
  endloop
endfacet
facet normal 0.0 0.0 1.0
  outer loop
    vertex 416.04333681822146 132.2060668502729 0.9051855371954534
    vertex 411.7753876257905 127.20606685027289 0.9051855371954534
    vertex 416.36117406341737 131.79185328789978 0.9051855371954534
  endloop
endfacet
facet normal 0.0 0.0 1.0
  outer loop
    vertex 416.36117406341737 131.79185328789978 0.9051855371954534
    vertex 411.7753876257905 127.20606685027289 0.9051855371954534
    vertex 416.7753876257905 131.47401604270402 0.9051855371954534
  endloop
endfacet
facet normal 0.0 0.0 1.0
  outer loop
    vertex 416.7753876257905 131.47401604270402 0.9051855371954534
    vertex 411.7753876257905 127.20606685027289 0.9051855371954534
    vertex 423.7753876257905 127.20606685027289 0.9051855371954534
  endloop
endfacet
facet normal 0.0 0.0 1.0
  outer loop
    vertex 411.7753876257905 139.20606685027286 0.9051855371954534
    vertex 416.04333681822146 132.2060668502729 0.9051855371954534
    vertex 415.84353597321234 132.68842876006786 0.9051855371954534
  endloop
endfacet
facet normal 0.0 0.0 1.0
  outer loop
    vertex 411.7753876257905 139.20606685027286 0.9051855371954534
    vertex 415.84353597321234 132.68842876006786 0.9051855371954534
    vertex 415.8234469216178 132.8410202563374 0.9051855371954534
  endloop
endfacet
facet normal 0.0 0.0 1.0
  outer loop
    vertex 411.7753876257905 139.20606685027286 0.9051855371954534
    vertex 415.8234469216178 132.8410202563374 0.9051855371954534
    vertex 415.7753876257903 133.2060668502729 0.9051855371954534
  endloop
endfacet
facet normal 0.0 0.0 1.0
  outer loop
    vertex 416.7753876257905 131.47401604270402 0.9051855371954534
    vertex 423.7753876257905 127.20606685027289 0.9051855371954534
    vertex 417.25774953558533 131.27421519769476 0.9051855371954534
  endloop
endfacet
facet normal 0.0 0.0 1.0
  outer loop
    vertex 417.25774953558533 131.27421519769476 0.9051855371954534
    vertex 423.7753876257905 127.20606685027289 0.9051855371954534
    vertex 417.7753876257904 131.2060668502729 0.9051855371954534
  endloop
endfacet
facet normal 0.0 0.0 1.0
  outer loop
    vertex 417.7753876257904 131.2060668502729 0.9051855371954534
    vertex 423.7753876257905 127.20606685027289 0.9051855371954534
    vertex 418.29302571599544 131.27421519769476 0.9051855371954534
  endloop
endfacet
facet normal 0.0 0.0 1.0
  outer loop
    vertex 418.29302571599544 131.27421519769476 0.9051855371954534
    vertex 423.7753876257905 127.20606685027289 0.9051855371954534
    vertex 418.77538762579036 131.47401604270402 0.9051855371954534
  endloop
endfacet
facet normal 0.0 0.0 1.0
  outer loop
    vertex 418.77538762579036 131.47401604270402 0.9051855371954534
    vertex 423.7753876257905 127.20606685027289 0.9051855371954534
    vertex 419.1896011881634 131.79185328789978 0.9051855371954534
  endloop
endfacet
facet normal 0.0 0.0 1.0
  outer loop
    vertex 419.1896011881634 131.79185328789978 0.9051855371954534
    vertex 423.7753876257905 127.20606685027289 0.9051855371954534
    vertex 419.50743843335937 132.2060668502729 0.9051855371954534
  endloop
endfacet
facet normal 0.0 0.0 1.0
  outer loop
    vertex 419.50743843335937 132.2060668502729 0.9051855371954534
    vertex 423.7753876257905 127.20606685027289 0.9051855371954534
    vertex 419.7072392783685 132.68842876006786 0.9051855371954534
  endloop
endfacet
facet normal 0.0 0.0 1.0
  outer loop
    vertex 419.7072392783685 132.68842876006786 0.9051855371954534
    vertex 423.7753876257905 127.20606685027289 0.9051855371954534
    vertex 419.7753876257905 133.2060668502729 0.9051855371954534
  endloop
endfacet
facet normal 0.0 0.0 1.0
  outer loop
    vertex 411.7753876257905 139.20606685027286 0.9051855371954534
    vertex 416.7753876257905 134.93811765784173 0.9051855371954534
    vertex 423.7753876257905 139.20606685027286 0.9051855371954534
  endloop
endfacet
facet normal 0.0 0.0 1.0
  outer loop
    vertex 416.7753876257905 134.93811765784173 0.9051855371954534
    vertex 411.7753876257905 139.20606685027286 0.9051855371954534
    vertex 416.36117406341737 134.62028041264597 0.9051855371954534
  endloop
endfacet
facet normal 0.0 0.0 1.0
  outer loop
    vertex 416.36117406341737 134.62028041264597 0.9051855371954534
    vertex 411.7753876257905 139.20606685027286 0.9051855371954534
    vertex 416.04333681822146 134.20606685027286 0.9051855371954534
  endloop
endfacet
facet normal 0.0 0.0 1.0
  outer loop
    vertex 416.04333681822146 134.20606685027286 0.9051855371954534
    vertex 411.7753876257905 139.20606685027286 0.9051855371954534
    vertex 415.84353597321234 133.72370494047794 0.9051855371954534
  endloop
endfacet
facet normal 0.0 0.0 1.0
  outer loop
    vertex 415.84353597321234 133.72370494047794 0.9051855371954534
    vertex 411.7753876257905 139.20606685027286 0.9051855371954534
    vertex 415.7753876257903 133.2060668502729 0.9051855371954534
  endloop
endfacet
facet normal 0.0 0.0 1.0
  outer loop
    vertex 423.7753876257905 139.20606685027286 0.9051855371954534
    vertex 416.7753876257905 134.93811765784173 0.9051855371954534
    vertex 417.25774953558533 135.13791850285105 0.9051855371954534
  endloop
endfacet
facet normal 0.0 0.0 1.0
  outer loop
    vertex 423.7753876257905 139.20606685027286 0.9051855371954534
    vertex 417.25774953558533 135.13791850285105 0.9051855371954534
    vertex 417.7753876257904 135.20606685027286 0.9051855371954534
  endloop
endfacet
facet normal 0.0 0.0 1.0
  outer loop
    vertex 423.7753876257905 139.20606685027286 0.9051855371954534
    vertex 417.7753876257904 135.20606685027286 0.9051855371954534
    vertex 418.29302571599544 135.13791850285105 0.9051855371954534
  endloop
endfacet
facet normal 0.0 0.0 1.0
  outer loop
    vertex 423.7753876257905 139.20606685027286 0.9051855371954534
    vertex 418.29302571599544 135.13791850285105 0.9051855371954534
    vertex 418.77538762579036 134.93811765784173 0.9051855371954534
  endloop
endfacet
facet normal 0.0 0.0 1.0
  outer loop
    vertex 423.7753876257905 139.20606685027286 0.9051855371954534
    vertex 418.77538762579036 134.93811765784173 0.9051855371954534
    vertex 419.1896011881634 134.62028041264597 0.9051855371954534
  endloop
endfacet
facet normal 0.0 0.0 1.0
  outer loop
    vertex 423.7753876257905 139.20606685027286 0.9051855371954534
    vertex 419.1896011881634 134.62028041264597 0.9051855371954534
    vertex 419.22732832996314 134.5711134442078 0.9051855371954534
  endloop
endfacet
facet normal 0.0 0.0 1.0
  outer loop
    vertex 423.7753876257905 139.20606685027286 0.9051855371954534
    vertex 419.22732832996314 134.5711134442078 0.9051855371954534
    vertex 419.50743843335937 134.20606685027286 0.9051855371954534
  endloop
endfacet
facet normal 0.0 0.0 1.0
  outer loop
    vertex 423.7753876257905 139.20606685027286 0.9051855371954534
    vertex 419.50743843335937 134.20606685027286 0.9051855371954534
    vertex 419.7072392783685 133.72370494047794 0.9051855371954534
  endloop
endfacet
facet normal 0.0 0.0 1.0
  outer loop
    vertex 423.7753876257905 139.20606685027286 0.9051855371954534
    vertex 419.7072392783685 133.72370494047794 0.9051855371954534
    vertex 419.7753876257905 133.2060668502729 0.9051855371954534
  endloop
endfacet
facet normal 0.0 0.0 1.0
  outer loop
    vertex 423.7753876257905 139.20606685027286 0.9051855371954534
    vertex 419.7753876257905 133.2060668502729 0.9051855371954534
    vertex 423.7753876257905 127.20606685027289 0.9051855371954534
  endloop
endfacet
facet normal 0.0 1.0 0.0
  outer loop
    vertex 411.7753876257905 127.20606685027289 1.4051855371954298
    vertex 423.7753876257905 127.20606685027289 0.9051855371954534
    vertex 411.7753876257905 127.20606685027289 0.9051855371954534
  endloop
endfacet
facet normal 0.0 1.0 0.0
  outer loop
    vertex 423.7753876257905 127.20606685027289 0.9051855371954534
    vertex 411.7753876257905 127.20606685027289 1.4051855371954298
    vertex 423.7753876257905 127.20606685027289 1.4051855371954298
  endloop
endfacet
facet normal -0.707106781186654 -8.720162382324778e-20 -0.7071067811864411
  outer loop
    vertex 455.17538762579045 95.0560668502728 3.905185537195448
    vertex 455.4753876257904 95.0560668502728 3.605185537195426
    vertex 455.4753876257904 94.7560668502728 3.605185537195426
  endloop
endfacet
facet normal -0.707106781186654 -8.720162382324778e-20 -0.7071067811864411
  outer loop
    vertex 455.4753876257904 95.0560668502728 3.605185537195426
    vertex 455.17538762579045 95.0560668502728 3.905185537195448
    vertex 455.17538762579045 149.85606685027292 3.905185537195448
  endloop
endfacet
facet normal -0.707106781186654 -8.720162382324778e-20 -0.7071067811864411
  outer loop
    vertex 455.4753876257904 95.0560668502728 3.605185537195426
    vertex 455.17538762579045 149.85606685027292 3.905185537195448
    vertex 455.4753876257904 149.85606685027292 3.605185537195426
  endloop
endfacet
facet normal -0.707106781186654 -8.720162382324778e-20 -0.7071067811864411
  outer loop
    vertex 455.4753876257904 149.85606685027292 3.605185537195426
    vertex 455.17538762579045 149.85606685027292 3.905185537195448
    vertex 455.4753876257904 150.1560668502729 3.605185537195426
  endloop
endfacet
facet normal 1.0 0.0 0.0
  outer loop
    vertex 400.0753876257904 149.85606685027292 0.7051855371954537
    vertex 400.0753876257904 95.0560668502728 3.605185537195426
    vertex 400.0753876257904 95.0560668502728 0.7051855371954537
  endloop
endfacet
facet normal 1.0 0.0 0.0
  outer loop
    vertex 400.0753876257904 95.0560668502728 3.605185537195426
    vertex 400.0753876257904 149.85606685027292 0.7051855371954537
    vertex 400.0753876257904 149.85606685027292 3.605185537195426
  endloop
endfacet
facet normal -0.7071067811866006 -0.7071067811864944 0.0
  outer loop
    vertex 455.17538762579045 150.1560668502729 3.605185537195426
    vertex 455.4753876257904 149.85606685027292 0.7051855371954537
    vertex 455.4753876257904 149.85606685027292 3.605185537195426
  endloop
endfacet
facet normal -0.7071067811866006 -0.7071067811864944 0.0
  outer loop
    vertex 455.4753876257904 149.85606685027292 0.7051855371954537
    vertex 455.17538762579045 150.1560668502729 3.605185537195426
    vertex 455.17538762579045 150.1560668502729 0.7051855371954537
  endloop
endfacet
facet normal 0.0 0.0 1.0
  outer loop
    vertex 455.4753876257904 150.1560668502729 3.605185537195426
    vertex 455.17538762579045 150.1560668502729 3.605185537195426
    vertex 455.4753876257904 149.85606685027292 3.605185537195426
  endloop
endfacet
facet normal -0.7071067811866273 0.7071067811864677 0.0
  outer loop
    vertex 455.4753876257904 95.0560668502728 3.605185537195426
    vertex 455.17538762579045 94.7560668502728 0.7051855371954537
    vertex 455.17538762579045 94.7560668502728 3.605185537195426
  endloop
endfacet
facet normal -0.7071067811866273 0.7071067811864677 0.0
  outer loop
    vertex 455.17538762579045 94.7560668502728 0.7051855371954537
    vertex 455.4753876257904 95.0560668502728 3.605185537195426
    vertex 455.4753876257904 95.0560668502728 0.7051855371954537
  endloop
endfacet
facet normal -0.7071067811866539 0.0 0.7071067811864412
  outer loop
    vertex 455.4753876257904 149.85606685027292 0.7051855371954537
    vertex 455.17538762579045 95.0560668502728 0.4051855371954317
    vertex 455.4753876257904 95.0560668502728 0.7051855371954537
  endloop
endfacet
facet normal -0.7071067811866539 0.0 0.7071067811864412
  outer loop
    vertex 455.17538762579045 95.0560668502728 0.4051855371954317
    vertex 455.4753876257904 149.85606685027292 0.7051855371954537
    vertex 455.17538762579045 149.85606685027292 0.4051855371954317
  endloop
endfacet
facet normal 0.0 -1.0 0.0
  outer loop
    vertex 455.17538762579045 150.1560668502729 3.605185537195426
    vertex 400.3753876257904 150.1560668502729 0.7051855371954537
    vertex 455.17538762579045 150.1560668502729 0.7051855371954537
  endloop
endfacet
facet normal 0.0 -1.0 0.0
  outer loop
    vertex 400.3753876257904 150.1560668502729 0.7051855371954537
    vertex 455.17538762579045 150.1560668502729 3.605185537195426
    vertex 400.3753876257904 150.1560668502729 3.605185537195426
  endloop
endfacet
facet normal -0.5773502691897127 -0.5773502691896258 0.5773502691895389
  outer loop
    vertex 455.17538762579045 150.1560668502729 0.7051855371954537
    vertex 455.17538762579045 149.85606685027292 0.4051855371954317
    vertex 455.4753876257904 149.85606685027292 0.7051855371954537
  endloop
endfacet
facet normal 0.0 0.0 1.0
  outer loop
    vertex 400.3753876257904 150.1560668502729 3.605185537195426
    vertex 400.0753876257904 150.1560668502729 3.605185537195426
    vertex 400.0753876257904 149.85606685027292 3.605185537195426
  endloop
endfacet
facet normal 0.0 -0.7071067811866008 0.7071067811864944
  outer loop
    vertex 455.17538762579045 150.1560668502729 0.7051855371954537
    vertex 400.3753876257904 149.85606685027292 0.4051855371954317
    vertex 455.17538762579045 149.85606685027292 0.4051855371954317
  endloop
endfacet
facet normal 0.0 -0.7071067811866008 0.7071067811864944
  outer loop
    vertex 400.3753876257904 149.85606685027292 0.4051855371954317
    vertex 455.17538762579045 150.1560668502729 0.7051855371954537
    vertex 400.3753876257904 150.1560668502729 0.7051855371954537
  endloop
endfacet
facet normal 0.0 0.0 1.0
  outer loop
    vertex 400.3753876257904 95.0560668502728 0.4051855371954317
    vertex 405.27538762579053 130.7060668502729 0.4051855371954317
    vertex 400.3753876257904 149.85606685027292 0.4051855371954317
  endloop
endfacet
facet normal 0.0 0.0 1.0
  outer loop
    vertex 405.27538762579053 130.7060668502729 0.4051855371954317
    vertex 400.3753876257904 95.0560668502728 0.4051855371954317
    vertex 455.17538762579045 95.0560668502728 0.4051855371954317
  endloop
endfacet
facet normal 0.0 0.0 1.0
  outer loop
    vertex 405.27538762579053 130.7060668502729 0.4051855371954317
    vertex 455.17538762579045 95.0560668502728 0.4051855371954317
    vertex 407.27538762579064 130.7060668502729 0.4051855371954317
  endloop
endfacet
facet normal 0.0 0.0 1.0
  outer loop
    vertex 407.27538762579064 130.7060668502729 0.4051855371954317
    vertex 455.17538762579045 95.0560668502728 0.4051855371954317
    vertex 407.27538762579064 134.7060668502729 0.4051855371954317
  endloop
endfacet
facet normal 0.0 0.0 1.0
  outer loop
    vertex 407.27538762579064 134.7060668502729 0.4051855371954317
    vertex 455.17538762579045 95.0560668502728 0.4051855371954317
    vertex 416.36117406341737 131.79185328789978 0.4051855371954317
  endloop
endfacet
facet normal 0.0 0.0 1.0
  outer loop
    vertex 407.27538762579064 134.7060668502729 0.4051855371954317
    vertex 416.36117406341737 131.79185328789978 0.4051855371954317
    vertex 416.04333681822146 132.2060668502729 0.4051855371954317
  endloop
endfacet
facet normal 0.0 0.0 1.0
  outer loop
    vertex 407.27538762579064 134.7060668502729 0.4051855371954317
    vertex 416.04333681822146 132.2060668502729 0.4051855371954317
    vertex 415.84353597321234 132.68842876006786 0.4051855371954317
  endloop
endfacet
facet normal 0.0 0.0 1.0
  outer loop
    vertex 407.27538762579064 134.7060668502729 0.4051855371954317
    vertex 415.84353597321234 132.68842876006786 0.4051855371954317
    vertex 412.7753876257905 140.7060668502729 0.4051855371954317
  endloop
endfacet
facet normal 0.0 0.0 1.0
  outer loop
    vertex 412.7753876257905 140.7060668502729 0.4051855371954317
    vertex 415.84353597321234 132.68842876006786 0.4051855371954317
    vertex 415.8234469216178 132.8410202563374 0.4051855371954317
  endloop
endfacet
facet normal 0.0 0.0 1.0
  outer loop
    vertex 412.7753876257905 140.7060668502729 0.4051855371954317
    vertex 415.8234469216178 132.8410202563374 0.4051855371954317
    vertex 415.7753876257903 133.2060668502729 0.4051855371954317
  endloop
endfacet
facet normal 0.0 0.0 1.0
  outer loop
    vertex 416.36117406341737 131.79185328789978 0.4051855371954317
    vertex 455.17538762579045 95.0560668502728 0.4051855371954317
    vertex 416.7753876257905 131.47401604270402 0.4051855371954317
  endloop
endfacet
facet normal 0.0 0.0 1.0
  outer loop
    vertex 416.7753876257905 131.47401604270402 0.4051855371954317
    vertex 455.17538762579045 95.0560668502728 0.4051855371954317
    vertex 417.25774953558533 131.27421519769476 0.4051855371954317
  endloop
endfacet
facet normal 0.0 0.0 1.0
  outer loop
    vertex 417.25774953558533 131.27421519769476 0.4051855371954317
    vertex 455.17538762579045 95.0560668502728 0.4051855371954317
    vertex 417.7753876257904 131.2060668502729 0.4051855371954317
  endloop
endfacet
facet normal 0.0 0.0 1.0
  outer loop
    vertex 417.7753876257904 131.2060668502729 0.4051855371954317
    vertex 455.17538762579045 95.0560668502728 0.4051855371954317
    vertex 418.29302571599544 131.27421519769476 0.4051855371954317
  endloop
endfacet
facet normal 0.0 0.0 1.0
  outer loop
    vertex 418.29302571599544 131.27421519769476 0.4051855371954317
    vertex 455.17538762579045 95.0560668502728 0.4051855371954317
    vertex 418.77538762579036 131.47401604270402 0.4051855371954317
  endloop
endfacet
facet normal 0.0 0.0 1.0
  outer loop
    vertex 418.77538762579036 131.47401604270402 0.4051855371954317
    vertex 455.17538762579045 95.0560668502728 0.4051855371954317
    vertex 419.1896011881634 131.79185328789978 0.4051855371954317
  endloop
endfacet
facet normal 0.0 0.0 1.0
  outer loop
    vertex 419.1896011881634 131.79185328789978 0.4051855371954317
    vertex 455.17538762579045 95.0560668502728 0.4051855371954317
    vertex 419.50743843335937 132.2060668502729 0.4051855371954317
  endloop
endfacet
facet normal 0.0 0.0 1.0
  outer loop
    vertex 419.50743843335937 132.2060668502729 0.4051855371954317
    vertex 455.17538762579045 95.0560668502728 0.4051855371954317
    vertex 419.7072392783685 132.68842876006786 0.4051855371954317
  endloop
endfacet
facet normal 0.0 0.0 1.0
  outer loop
    vertex 419.7072392783685 132.68842876006786 0.4051855371954317
    vertex 455.17538762579045 95.0560668502728 0.4051855371954317
    vertex 419.7753876257905 133.2060668502729 0.4051855371954317
  endloop
endfacet
facet normal 0.0 0.0 1.0
  outer loop
    vertex 419.7753876257905 133.2060668502729 0.4051855371954317
    vertex 455.17538762579045 95.0560668502728 0.4051855371954317
    vertex 433.2753876257905 128.20606685027283 0.4051855371954317
  endloop
endfacet
facet normal 0.0 0.0 1.0
  outer loop
    vertex 419.7753876257905 133.2060668502729 0.4051855371954317
    vertex 433.2753876257905 128.20606685027283 0.4051855371954317
    vertex 430.7753876257903 140.7060668502729 0.4051855371954317
  endloop
endfacet
facet normal 0.0 0.0 1.0
  outer loop
    vertex 430.7753876257903 140.7060668502729 0.4051855371954317
    vertex 433.2753876257905 128.20606685027283 0.4051855371954317
    vertex 430.7753876257903 144.2060668502729 0.4051855371954317
  endloop
endfacet
facet normal 0.0 0.0 1.0
  outer loop
    vertex 433.2753876257905 128.20606685027283 0.4051855371954317
    vertex 455.17538762579045 95.0560668502728 0.4051855371954317
    vertex 435.2753876257906 128.20606685027283 0.4051855371954317
  endloop
endfacet
facet normal 0.0 0.0 1.0
  outer loop
    vertex 435.2753876257906 128.20606685027283 0.4051855371954317
    vertex 455.17538762579045 95.0560668502728 0.4051855371954317
    vertex 435.2753876257906 144.2060668502729 0.4051855371954317
  endloop
endfacet
facet normal 0.0 0.0 1.0
  outer loop
    vertex 400.3753876257904 149.85606685027292 0.4051855371954317
    vertex 412.7753876257905 144.2060668502729 0.4051855371954317
    vertex 455.17538762579045 149.85606685027292 0.4051855371954317
  endloop
endfacet
facet normal 0.0 0.0 1.0
  outer loop
    vertex 412.7753876257905 144.2060668502729 0.4051855371954317
    vertex 400.3753876257904 149.85606685027292 0.4051855371954317
    vertex 405.27538762579053 134.7060668502729 0.4051855371954317
  endloop
endfacet
facet normal 0.0 0.0 1.0
  outer loop
    vertex 405.27538762579053 134.7060668502729 0.4051855371954317
    vertex 400.3753876257904 149.85606685027292 0.4051855371954317
    vertex 405.27538762579053 130.7060668502729 0.4051855371954317
  endloop
endfacet
facet normal 0.0 0.0 1.0
  outer loop
    vertex 412.7753876257905 144.2060668502729 0.4051855371954317
    vertex 405.27538762579053 134.7060668502729 0.4051855371954317
    vertex 407.27538762579064 134.7060668502729 0.4051855371954317
  endloop
endfacet
facet normal 0.0 0.0 1.0
  outer loop
    vertex 412.7753876257905 144.2060668502729 0.4051855371954317
    vertex 407.27538762579064 134.7060668502729 0.4051855371954317
    vertex 412.7753876257905 140.7060668502729 0.4051855371954317
  endloop
endfacet
facet normal 0.0 0.0 1.0
  outer loop
    vertex 455.17538762579045 149.85606685027292 0.4051855371954317
    vertex 412.7753876257905 144.2060668502729 0.4051855371954317
    vertex 430.7753876257903 144.2060668502729 0.4051855371954317
  endloop
endfacet
facet normal 0.0 0.0 1.0
  outer loop
    vertex 455.17538762579045 149.85606685027292 0.4051855371954317
    vertex 430.7753876257903 144.2060668502729 0.4051855371954317
    vertex 433.2753876257905 144.2060668502729 0.4051855371954317
  endloop
endfacet
facet normal 0.0 0.0 1.0
  outer loop
    vertex 433.2753876257905 144.2060668502729 0.4051855371954317
    vertex 430.7753876257903 144.2060668502729 0.4051855371954317
    vertex 433.2753876257905 128.20606685027283 0.4051855371954317
  endloop
endfacet
facet normal 0.0 0.0 1.0
  outer loop
    vertex 455.17538762579045 149.85606685027292 0.4051855371954317
    vertex 433.2753876257905 144.2060668502729 0.4051855371954317
    vertex 435.2753876257906 144.2060668502729 0.4051855371954317
  endloop
endfacet
facet normal 0.0 0.0 1.0
  outer loop
    vertex 455.17538762579045 149.85606685027292 0.4051855371954317
    vertex 435.2753876257906 144.2060668502729 0.4051855371954317
    vertex 455.17538762579045 95.0560668502728 0.4051855371954317
  endloop
endfacet
facet normal 0.0 0.0 1.0
  outer loop
    vertex 412.7753876257905 140.7060668502729 0.4051855371954317
    vertex 417.25774953558533 135.13791850285105 0.4051855371954317
    vertex 430.7753876257903 140.7060668502729 0.4051855371954317
  endloop
endfacet
facet normal 0.0 0.0 1.0
  outer loop
    vertex 417.25774953558533 135.13791850285105 0.4051855371954317
    vertex 412.7753876257905 140.7060668502729 0.4051855371954317
    vertex 416.7753876257905 134.93811765784173 0.4051855371954317
  endloop
endfacet
facet normal 0.0 0.0 1.0
  outer loop
    vertex 416.7753876257905 134.93811765784173 0.4051855371954317
    vertex 412.7753876257905 140.7060668502729 0.4051855371954317
    vertex 416.36117406341737 134.62028041264597 0.4051855371954317
  endloop
endfacet
facet normal 0.0 0.0 1.0
  outer loop
    vertex 416.36117406341737 134.62028041264597 0.4051855371954317
    vertex 412.7753876257905 140.7060668502729 0.4051855371954317
    vertex 416.04333681822146 134.20606685027286 0.4051855371954317
  endloop
endfacet
facet normal 0.0 0.0 1.0
  outer loop
    vertex 416.04333681822146 134.20606685027286 0.4051855371954317
    vertex 412.7753876257905 140.7060668502729 0.4051855371954317
    vertex 415.84353597321234 133.72370494047794 0.4051855371954317
  endloop
endfacet
facet normal 0.0 0.0 1.0
  outer loop
    vertex 415.84353597321234 133.72370494047794 0.4051855371954317
    vertex 412.7753876257905 140.7060668502729 0.4051855371954317
    vertex 415.7753876257903 133.2060668502729 0.4051855371954317
  endloop
endfacet
facet normal 0.0 0.0 1.0
  outer loop
    vertex 430.7753876257903 140.7060668502729 0.4051855371954317
    vertex 417.25774953558533 135.13791850285105 0.4051855371954317
    vertex 417.7753876257904 135.20606685027286 0.4051855371954317
  endloop
endfacet
facet normal 0.0 0.0 1.0
  outer loop
    vertex 430.7753876257903 140.7060668502729 0.4051855371954317
    vertex 417.7753876257904 135.20606685027286 0.4051855371954317
    vertex 418.29302571599544 135.13791850285105 0.4051855371954317
  endloop
endfacet
facet normal 0.0 0.0 1.0
  outer loop
    vertex 430.7753876257903 140.7060668502729 0.4051855371954317
    vertex 418.29302571599544 135.13791850285105 0.4051855371954317
    vertex 418.77538762579036 134.93811765784173 0.4051855371954317
  endloop
endfacet
facet normal 0.0 0.0 1.0
  outer loop
    vertex 430.7753876257903 140.7060668502729 0.4051855371954317
    vertex 418.77538762579036 134.93811765784173 0.4051855371954317
    vertex 419.1896011881634 134.62028041264597 0.4051855371954317
  endloop
endfacet
facet normal 0.0 0.0 1.0
  outer loop
    vertex 430.7753876257903 140.7060668502729 0.4051855371954317
    vertex 419.1896011881634 134.62028041264597 0.4051855371954317
    vertex 419.22732832996314 134.5711134442078 0.4051855371954317
  endloop
endfacet
facet normal 0.0 0.0 1.0
  outer loop
    vertex 430.7753876257903 140.7060668502729 0.4051855371954317
    vertex 419.22732832996314 134.5711134442078 0.4051855371954317
    vertex 419.50743843335937 134.20606685027286 0.4051855371954317
  endloop
endfacet
facet normal 0.0 0.0 1.0
  outer loop
    vertex 430.7753876257903 140.7060668502729 0.4051855371954317
    vertex 419.50743843335937 134.20606685027286 0.4051855371954317
    vertex 419.7072392783685 133.72370494047794 0.4051855371954317
  endloop
endfacet
facet normal 0.0 0.0 1.0
  outer loop
    vertex 430.7753876257903 140.7060668502729 0.4051855371954317
    vertex 419.7072392783685 133.72370494047794 0.4051855371954317
    vertex 419.7753876257905 133.2060668502729 0.4051855371954317
  endloop
endfacet
facet normal 0.5773502691897271 0.5773502691895969 0.5773502691895535
  outer loop
    vertex 400.0753876257904 95.0560668502728 0.7051855371954537
    vertex 400.3753876257904 94.7560668502728 0.7051855371954537
    vertex 400.3753876257904 95.0560668502728 0.4051855371954317
  endloop
endfacet
facet normal 0.7071067811866273 0.7071067811864677 0.0
  outer loop
    vertex 400.0753876257904 95.0560668502728 0.7051855371954537
    vertex 400.3753876257904 94.7560668502728 3.605185537195426
    vertex 400.3753876257904 94.7560668502728 0.7051855371954537
  endloop
endfacet
facet normal 0.7071067811866273 0.7071067811864677 0.0
  outer loop
    vertex 400.3753876257904 94.7560668502728 3.605185537195426
    vertex 400.0753876257904 95.0560668502728 0.7051855371954537
    vertex 400.0753876257904 95.0560668502728 3.605185537195426
  endloop
endfacet
facet normal 0.0 1.0 0.0
  outer loop
    vertex 400.3753876257904 94.7560668502728 3.605185537195426
    vertex 455.17538762579045 94.7560668502728 0.7051855371954537
    vertex 400.3753876257904 94.7560668502728 0.7051855371954537
  endloop
endfacet
facet normal 0.0 1.0 0.0
  outer loop
    vertex 455.17538762579045 94.7560668502728 0.7051855371954537
    vertex 400.3753876257904 94.7560668502728 3.605185537195426
    vertex 455.17538762579045 94.7560668502728 3.605185537195426
  endloop
endfacet
facet normal 0.0 0.7071067811865741 0.7071067811865209
  outer loop
    vertex 400.3753876257904 94.7560668502728 0.7051855371954537
    vertex 455.17538762579045 95.0560668502728 0.4051855371954317
    vertex 400.3753876257904 95.0560668502728 0.4051855371954317
  endloop
endfacet
facet normal 0.0 0.7071067811865741 0.7071067811865209
  outer loop
    vertex 455.17538762579045 95.0560668502728 0.4051855371954317
    vertex 400.3753876257904 94.7560668502728 0.7051855371954537
    vertex 455.17538762579045 94.7560668502728 0.7051855371954537
  endloop
endfacet
facet normal 0.7071067811866006 -0.7071067811864944 0.0
  outer loop
    vertex 400.3753876257904 150.1560668502729 0.7051855371954537
    vertex 400.0753876257904 149.85606685027292 3.605185537195426
    vertex 400.0753876257904 149.85606685027292 0.7051855371954537
  endloop
endfacet
facet normal 0.7071067811866006 -0.7071067811864944 0.0
  outer loop
    vertex 400.0753876257904 149.85606685027292 3.605185537195426
    vertex 400.3753876257904 150.1560668502729 0.7051855371954537
    vertex 400.3753876257904 150.1560668502729 3.605185537195426
  endloop
endfacet
facet normal 0.0 0.0 1.0
  outer loop
    vertex 400.3753876257904 94.7560668502728 3.605185537195426
    vertex 400.0753876257904 95.0560668502728 3.605185537195426
    vertex 400.0753876257904 94.7560668502728 3.605185537195426
  endloop
endfacet
facet normal 0.0 0.0 1.0
  outer loop
    vertex 455.4753876257904 95.0560668502728 3.605185537195426
    vertex 455.17538762579045 94.7560668502728 3.605185537195426
    vertex 455.4753876257904 94.7560668502728 3.605185537195426
  endloop
endfacet
facet normal 0.7071067811866539 0.0 0.7071067811864412
  outer loop
    vertex 400.3753876257904 149.85606685027292 0.4051855371954317
    vertex 400.0753876257904 95.0560668502728 0.7051855371954537
    vertex 400.3753876257904 95.0560668502728 0.4051855371954317
  endloop
endfacet
facet normal 0.7071067811866539 0.0 0.7071067811864412
  outer loop
    vertex 400.0753876257904 95.0560668502728 0.7051855371954537
    vertex 400.3753876257904 149.85606685027292 0.4051855371954317
    vertex 400.0753876257904 149.85606685027292 0.7051855371954537
  endloop
endfacet
facet normal -0.5773502691897271 0.5773502691895969 0.5773502691895535
  outer loop
    vertex 455.17538762579045 95.0560668502728 0.4051855371954317
    vertex 455.17538762579045 94.7560668502728 0.7051855371954537
    vertex 455.4753876257904 95.0560668502728 0.7051855371954537
  endloop
endfacet
facet normal 0.5773502691897127 -0.5773502691896258 0.5773502691895389
  outer loop
    vertex 400.3753876257904 150.1560668502729 0.7051855371954537
    vertex 400.0753876257904 149.85606685027292 0.7051855371954537
    vertex 400.3753876257904 149.85606685027292 0.4051855371954317
  endloop
endfacet
endsolid Codelock
