solid Codelock
facet normal 0.0 0.0 1.0
  outer loop
    vertex 218.52771047858096 16.85606685027282 1.7051855371954336
    vertex 216.327710478581 154.6560668502728 1.7051855371954336
    vertex 216.327710478581 16.85606685027282 1.7051855371954336
  endloop
endfacet
facet normal 0.0 0.0 1.0
  outer loop
    vertex 216.327710478581 154.6560668502728 1.7051855371954336
    vertex 218.52771047858096 16.85606685027282 1.7051855371954336
    vertex 218.52771047858096 154.6560668502728 1.7051855371954336
  endloop
endfacet
facet normal 0.0 0.0 1.0
  outer loop
    vertex 218.52771047858096 154.6560668502728 1.7051855371954336
    vertex 218.52771047858096 16.85606685027282 1.7051855371954336
    vertex 218.52771047858096 19.056066850272813 1.7051855371954336
  endloop
endfacet
facet normal 0.0 0.0 1.0
  outer loop
    vertex 218.52771047858096 154.6560668502728 1.7051855371954336
    vertex 218.52771047858096 19.056066850272813 1.7051855371954336
    vertex 218.52771047858096 152.45606685027278 1.7051855371954336
  endloop
endfacet
facet normal 0.0 0.0 1.0
  outer loop
    vertex 218.52771047858096 19.056066850272813 6.2051855371954305
    vertex 219.82771047858103 20.056066850272828 6.2051855371954305
    vertex 218.52771047858096 152.45606685027278 6.2051855371954305
  endloop
endfacet
facet normal 0.0 0.0 1.0
  outer loop
    vertex 219.82771047858103 20.056066850272828 6.2051855371954305
    vertex 218.52771047858096 19.056066850272813 6.2051855371954305
    vertex 281.52771047858096 19.056066850272813 6.2051855371954305
  endloop
endfacet
facet normal 0.0 0.0 1.0
  outer loop
    vertex 219.82771047858103 20.056066850272828 6.2051855371954305
    vertex 281.52771047858096 19.056066850272813 6.2051855371954305
    vertex 280.22771047858106 20.056066850272828 6.2051855371954305
  endloop
endfacet
facet normal 0.0 0.0 1.0
  outer loop
    vertex 280.22771047858106 20.056066850272828 6.2051855371954305
    vertex 281.52771047858096 19.056066850272813 6.2051855371954305
    vertex 280.22771047858106 80.4560668502728 6.2051855371954305
  endloop
endfacet
facet normal 0.0 0.0 1.0
  outer loop
    vertex 280.22771047858106 80.4560668502728 6.2051855371954305
    vertex 281.52771047858096 19.056066850272813 6.2051855371954305
    vertex 280.22771047858106 91.05606685027281 6.2051855371954305
  endloop
endfacet
facet normal 0.0 0.0 1.0
  outer loop
    vertex 280.22771047858106 91.05606685027281 6.2051855371954305
    vertex 281.52771047858096 19.056066850272813 6.2051855371954305
    vertex 280.22771047858106 151.45606685027278 6.2051855371954305
  endloop
endfacet
facet normal 0.0 0.0 1.0
  outer loop
    vertex 218.52771047858096 152.45606685027278 6.2051855371954305
    vertex 219.82771047858103 151.45606685027278 6.2051855371954305
    vertex 281.52771047858096 152.45606685027278 6.2051855371954305
  endloop
endfacet
facet normal 0.0 0.0 1.0
  outer loop
    vertex 219.82771047858103 151.45606685027278 6.2051855371954305
    vertex 218.52771047858096 152.45606685027278 6.2051855371954305
    vertex 219.82771047858103 20.056066850272828 6.2051855371954305
  endloop
endfacet
facet normal 0.0 0.0 1.0
  outer loop
    vertex 219.82771047858103 151.45606685027278 6.2051855371954305
    vertex 219.82771047858103 20.056066850272828 6.2051855371954305
    vertex 219.82771047858103 80.4560668502728 6.2051855371954305
  endloop
endfacet
facet normal 0.0 0.0 1.0
  outer loop
    vertex 219.82771047858103 151.45606685027278 6.2051855371954305
    vertex 219.82771047858103 80.4560668502728 6.2051855371954305
    vertex 219.82771047858103 91.05606685027281 6.2051855371954305
  endloop
endfacet
facet normal 0.0 0.0 1.0
  outer loop
    vertex 281.52771047858096 152.45606685027278 6.2051855371954305
    vertex 219.82771047858103 151.45606685027278 6.2051855371954305
    vertex 280.22771047858106 151.45606685027278 6.2051855371954305
  endloop
endfacet
facet normal 0.0 0.0 1.0
  outer loop
    vertex 281.52771047858096 152.45606685027278 6.2051855371954305
    vertex 280.22771047858106 151.45606685027278 6.2051855371954305
    vertex 281.52771047858096 19.056066850272813 6.2051855371954305
  endloop
endfacet
facet normal 0.0 0.0 1.0
  outer loop
    vertex 280.22771047858106 80.4560668502728 6.2051855371954305
    vertex 219.82771047858103 91.05606685027281 6.2051855371954305
    vertex 219.82771047858103 80.4560668502728 6.2051855371954305
  endloop
endfacet
facet normal 0.0 0.0 1.0
  outer loop
    vertex 219.82771047858103 91.05606685027281 6.2051855371954305
    vertex 280.22771047858106 80.4560668502728 6.2051855371954305
    vertex 280.22771047858106 91.05606685027281 6.2051855371954305
  endloop
endfacet
facet normal 0.0 0.0 1.0
  outer loop
    vertex 283.727710478581 16.85606685027282 1.7051855371954336
    vertex 281.52771047858096 19.056066850272813 1.7051855371954336
    vertex 281.52771047858096 16.85606685027282 1.7051855371954336
  endloop
endfacet
facet normal 0.0 0.0 1.0
  outer loop
    vertex 281.52771047858096 19.056066850272813 1.7051855371954336
    vertex 283.727710478581 16.85606685027282 1.7051855371954336
    vertex 281.52771047858096 152.45606685027278 1.7051855371954336
  endloop
endfacet
facet normal 0.0 0.0 1.0
  outer loop
    vertex 281.52771047858096 152.45606685027278 1.7051855371954336
    vertex 283.727710478581 16.85606685027282 1.7051855371954336
    vertex 281.52771047858096 154.6560668502728 1.7051855371954336
  endloop
endfacet
facet normal 0.0 0.0 1.0
  outer loop
    vertex 281.52771047858096 154.6560668502728 1.7051855371954336
    vertex 283.727710478581 16.85606685027282 1.7051855371954336
    vertex 283.727710478581 154.6560668502728 1.7051855371954336
  endloop
endfacet
facet normal 0.0 0.0 1.0
  outer loop
    vertex 219.527710478581 16.85606685027282 1.7051855371954336
    vertex 218.52771047858096 19.056066850272813 1.7051855371954336
    vertex 218.52771047858096 16.85606685027282 1.7051855371954336
  endloop
endfacet
facet normal 0.0 0.0 1.0
  outer loop
    vertex 218.52771047858096 19.056066850272813 1.7051855371954336
    vertex 219.527710478581 16.85606685027282 1.7051855371954336
    vertex 219.527710478581 19.056066850272813 1.7051855371954336
  endloop
endfacet
facet normal 0.0 0.0 1.0
  outer loop
    vertex 281.52771047858096 16.85606685027282 1.7051855371954336
    vertex 280.52771047858096 19.056066850272813 1.7051855371954336
    vertex 280.52771047858096 16.85606685027282 1.7051855371954336
  endloop
endfacet
facet normal 0.0 0.0 1.0
  outer loop
    vertex 280.52771047858096 19.056066850272813 1.7051855371954336
    vertex 281.52771047858096 16.85606685027282 1.7051855371954336
    vertex 281.52771047858096 19.056066850272813 1.7051855371954336
  endloop
endfacet
facet normal -1.0 0.0 0.0
  outer loop
    vertex 219.527710478581 154.6560668502728 3.7051855371954328
    vertex 219.527710478581 152.45606685027278 1.7051855371954336
    vertex 219.527710478581 152.45606685027278 3.7051855371954328
  endloop
endfacet
facet normal -1.0 0.0 0.0
  outer loop
    vertex 219.527710478581 152.45606685027278 1.7051855371954336
    vertex 219.527710478581 154.6560668502728 3.7051855371954328
    vertex 219.527710478581 154.6560668502728 1.7051855371954336
  endloop
endfacet
facet normal 0.0 0.0 1.0
  outer loop
    vertex 280.52771047858096 152.45606685027278 3.7051855371954328
    vertex 219.527710478581 154.6560668502728 3.7051855371954328
    vertex 219.527710478581 152.45606685027278 3.7051855371954328
  endloop
endfacet
facet normal 0.0 0.0 1.0
  outer loop
    vertex 219.527710478581 154.6560668502728 3.7051855371954328
    vertex 280.52771047858096 152.45606685027278 3.7051855371954328
    vertex 280.52771047858096 154.6560668502728 3.7051855371954328
  endloop
endfacet
facet normal 1.0 0.0 0.0
  outer loop
    vertex 219.82771047858103 151.45606685027278 0.7051855371954319
    vertex 219.82771047858103 91.05606685027281 6.2051855371954305
    vertex 219.82771047858103 91.05606685027281 0.7051855371954319
  endloop
endfacet
facet normal 1.0 0.0 0.0
  outer loop
    vertex 219.82771047858103 91.05606685027281 6.2051855371954305
    vertex 219.82771047858103 151.45606685027278 0.7051855371954319
    vertex 219.82771047858103 151.45606685027278 6.2051855371954305
  endloop
endfacet
facet normal 1.0 0.0 0.0
  outer loop
    vertex 280.52771047858096 154.6560668502728 1.7051855371954336
    vertex 280.52771047858096 152.45606685027278 3.7051855371954328
    vertex 280.52771047858096 152.45606685027278 1.7051855371954336
  endloop
endfacet
facet normal 1.0 0.0 0.0
  outer loop
    vertex 280.52771047858096 152.45606685027278 3.7051855371954328
    vertex 280.52771047858096 154.6560668502728 1.7051855371954336
    vertex 280.52771047858096 154.6560668502728 3.7051855371954328
  endloop
endfacet
facet normal 1.0 0.0 0.0
  outer loop
    vertex 285.927710478581 157.15606685027277 0.7051855371954319
    vertex 285.927710478581 14.356066850272827 9.705185537195431
    vertex 285.927710478581 14.356066850272827 0.7051855371954319
  endloop
endfacet
facet normal 1.0 0.0 0.0
  outer loop
    vertex 285.927710478581 14.356066850272827 9.705185537195431
    vertex 285.927710478581 157.15606685027277 0.7051855371954319
    vertex 285.927710478581 157.15606685027277 9.705185537195431
  endloop
endfacet
facet normal 0.0 0.0 1.0
  outer loop
    vertex 280.52771047858096 16.85606685027282 3.7051855371954328
    vertex 219.527710478581 19.056066850272813 3.7051855371954328
    vertex 219.527710478581 16.85606685027282 3.7051855371954328
  endloop
endfacet
facet normal 0.0 0.0 1.0
  outer loop
    vertex 219.527710478581 19.056066850272813 3.7051855371954328
    vertex 280.52771047858096 16.85606685027282 3.7051855371954328
    vertex 280.52771047858096 19.056066850272813 3.7051855371954328
  endloop
endfacet
facet normal 0.0 0.0 1.0
  outer loop
    vertex 281.52771047858096 152.45606685027278 1.7051855371954336
    vertex 280.52771047858096 154.6560668502728 1.7051855371954336
    vertex 280.52771047858096 152.45606685027278 1.7051855371954336
  endloop
endfacet
facet normal 0.0 0.0 1.0
  outer loop
    vertex 280.52771047858096 154.6560668502728 1.7051855371954336
    vertex 281.52771047858096 152.45606685027278 1.7051855371954336
    vertex 281.52771047858096 154.6560668502728 1.7051855371954336
  endloop
endfacet
facet normal -1.0 0.0 0.0
  outer loop
    vertex 280.22771047858106 80.4560668502728 6.2051855371954305
    vertex 280.22771047858106 20.056066850272828 0.7051855371954319
    vertex 280.22771047858106 20.056066850272828 6.2051855371954305
  endloop
endfacet
facet normal -1.0 0.0 0.0
  outer loop
    vertex 280.22771047858106 20.056066850272828 0.7051855371954319
    vertex 280.22771047858106 80.4560668502728 6.2051855371954305
    vertex 280.22771047858106 80.4560668502728 0.7051855371954319
  endloop
endfacet
facet normal -1.0 0.0 0.0
  outer loop
    vertex 280.22771047858106 151.45606685027278 6.2051855371954305
    vertex 280.22771047858106 91.05606685027281 0.7051855371954319
    vertex 280.22771047858106 91.05606685027281 6.2051855371954305
  endloop
endfacet
facet normal -1.0 0.0 0.0
  outer loop
    vertex 280.22771047858106 91.05606685027281 0.7051855371954319
    vertex 280.22771047858106 151.45606685027278 6.2051855371954305
    vertex 280.22771047858106 151.45606685027278 0.7051855371954319
  endloop
endfacet
facet normal 1.0 0.0 0.0
  outer loop
    vertex 216.327710478581 154.6560668502728 1.7051855371954336
    vertex 216.327710478581 16.85606685027282 9.405185537195432
    vertex 216.327710478581 16.85606685027282 1.7051855371954336
  endloop
endfacet
facet normal 1.0 0.0 0.0
  outer loop
    vertex 216.327710478581 16.85606685027282 9.405185537195432
    vertex 216.327710478581 154.6560668502728 1.7051855371954336
    vertex 216.327710478581 154.6560668502728 9.405185537195432
  endloop
endfacet
facet normal 1.0 0.0 0.0
  outer loop
    vertex 281.52771047858096 152.45606685027278 1.7051855371954336
    vertex 281.52771047858096 19.056066850272813 6.2051855371954305
    vertex 281.52771047858096 19.056066850272813 1.7051855371954336
  endloop
endfacet
facet normal 1.0 0.0 0.0
  outer loop
    vertex 281.52771047858096 19.056066850272813 6.2051855371954305
    vertex 281.52771047858096 152.45606685027278 1.7051855371954336
    vertex 281.52771047858096 152.45606685027278 6.2051855371954305
  endloop
endfacet
facet normal 0.0 -1.0 0.0
  outer loop
    vertex 283.727710478581 154.6560668502728 9.405185537195432
    vertex 281.52771047858096 154.6560668502728 1.7051855371954336
    vertex 283.727710478581 154.6560668502728 1.7051855371954336
  endloop
endfacet
facet normal 0.0 -1.0 0.0
  outer loop
    vertex 281.52771047858096 154.6560668502728 1.7051855371954336
    vertex 283.727710478581 154.6560668502728 9.405185537195432
    vertex 280.52771047858096 154.6560668502728 1.7051855371954336
  endloop
endfacet
facet normal 0.0 -1.0 0.0
  outer loop
    vertex 280.52771047858096 154.6560668502728 1.7051855371954336
    vertex 283.727710478581 154.6560668502728 9.405185537195432
    vertex 280.52771047858096 154.6560668502728 3.7051855371954328
  endloop
endfacet
facet normal 0.0 -1.0 0.0
  outer loop
    vertex 280.52771047858096 154.6560668502728 3.7051855371954328
    vertex 283.727710478581 154.6560668502728 9.405185537195432
    vertex 219.527710478581 154.6560668502728 3.7051855371954328
  endloop
endfacet
facet normal 0.0 -1.0 0.0
  outer loop
    vertex 219.527710478581 154.6560668502728 3.7051855371954328
    vertex 218.52771047858096 154.6560668502728 1.7051855371954336
    vertex 219.527710478581 154.6560668502728 1.7051855371954336
  endloop
endfacet
facet normal 0.0 -1.0 0.0
  outer loop
    vertex 218.52771047858096 154.6560668502728 1.7051855371954336
    vertex 219.527710478581 154.6560668502728 3.7051855371954328
    vertex 216.327710478581 154.6560668502728 1.7051855371954336
  endloop
endfacet
facet normal 0.0 -1.0 0.0
  outer loop
    vertex 216.327710478581 154.6560668502728 1.7051855371954336
    vertex 219.527710478581 154.6560668502728 3.7051855371954328
    vertex 216.327710478581 154.6560668502728 9.405185537195432
  endloop
endfacet
facet normal 0.0 -1.0 0.0
  outer loop
    vertex 216.327710478581 154.6560668502728 9.405185537195432
    vertex 219.527710478581 154.6560668502728 3.7051855371954328
    vertex 283.727710478581 154.6560668502728 9.405185537195432
  endloop
endfacet
facet normal 0.0 1.0 0.0
  outer loop
    vertex 214.12771047858106 157.15606685027277 9.705185537195431
    vertex 285.927710478581 157.15606685027277 0.7051855371954319
    vertex 214.12771047858106 157.15606685027277 0.7051855371954319
  endloop
endfacet
facet normal 0.0 1.0 0.0
  outer loop
    vertex 285.927710478581 157.15606685027277 0.7051855371954319
    vertex 214.12771047858106 157.15606685027277 9.705185537195431
    vertex 285.927710478581 157.15606685027277 9.705185537195431
  endloop
endfacet
facet normal 0.0 -1.0 0.0
  outer loop
    vertex 280.22771047858106 151.45606685027278 6.2051855371954305
    vertex 219.82771047858103 151.45606685027278 0.7051855371954319
    vertex 280.22771047858106 151.45606685027278 0.7051855371954319
  endloop
endfacet
facet normal 0.0 -1.0 0.0
  outer loop
    vertex 219.82771047858103 151.45606685027278 0.7051855371954319
    vertex 280.22771047858106 151.45606685027278 6.2051855371954305
    vertex 219.82771047858103 151.45606685027278 6.2051855371954305
  endloop
endfacet
facet normal 0.0 1.0 0.0
  outer loop
    vertex 216.327710478581 16.85606685027282 9.405185537195432
    vertex 218.52771047858096 16.85606685027282 1.7051855371954336
    vertex 216.327710478581 16.85606685027282 1.7051855371954336
  endloop
endfacet
facet normal 0.0 1.0 0.0
  outer loop
    vertex 218.52771047858096 16.85606685027282 1.7051855371954336
    vertex 216.327710478581 16.85606685027282 9.405185537195432
    vertex 219.527710478581 16.85606685027282 1.7051855371954336
  endloop
endfacet
facet normal 0.0 1.0 0.0
  outer loop
    vertex 219.527710478581 16.85606685027282 1.7051855371954336
    vertex 216.327710478581 16.85606685027282 9.405185537195432
    vertex 219.527710478581 16.85606685027282 3.7051855371954328
  endloop
endfacet
facet normal 0.0 1.0 0.0
  outer loop
    vertex 219.527710478581 16.85606685027282 3.7051855371954328
    vertex 216.327710478581 16.85606685027282 9.405185537195432
    vertex 280.52771047858096 16.85606685027282 3.7051855371954328
  endloop
endfacet
facet normal 0.0 1.0 0.0
  outer loop
    vertex 280.52771047858096 16.85606685027282 3.7051855371954328
    vertex 281.52771047858096 16.85606685027282 1.7051855371954336
    vertex 280.52771047858096 16.85606685027282 1.7051855371954336
  endloop
endfacet
facet normal 0.0 1.0 0.0
  outer loop
    vertex 281.52771047858096 16.85606685027282 1.7051855371954336
    vertex 280.52771047858096 16.85606685027282 3.7051855371954328
    vertex 283.727710478581 16.85606685027282 1.7051855371954336
  endloop
endfacet
facet normal 0.0 1.0 0.0
  outer loop
    vertex 283.727710478581 16.85606685027282 1.7051855371954336
    vertex 280.52771047858096 16.85606685027282 3.7051855371954328
    vertex 283.727710478581 16.85606685027282 9.405185537195432
  endloop
endfacet
facet normal 0.0 1.0 0.0
  outer loop
    vertex 283.727710478581 16.85606685027282 9.405185537195432
    vertex 280.52771047858096 16.85606685027282 3.7051855371954328
    vertex 216.327710478581 16.85606685027282 9.405185537195432
  endloop
endfacet
facet normal -1.0 0.0 0.0
  outer loop
    vertex 214.12771047858106 157.15606685027277 9.705185537195431
    vertex 214.12771047858106 14.356066850272827 0.7051855371954319
    vertex 214.12771047858106 14.356066850272827 9.705185537195431
  endloop
endfacet
facet normal -1.0 0.0 0.0
  outer loop
    vertex 214.12771047858106 14.356066850272827 0.7051855371954319
    vertex 214.12771047858106 157.15606685027277 9.705185537195431
    vertex 214.12771047858106 157.15606685027277 0.7051855371954319
  endloop
endfacet
facet normal -1.0 0.0 0.0
  outer loop
    vertex 219.527710478581 19.056066850272813 3.7051855371954328
    vertex 219.527710478581 16.85606685027282 1.7051855371954336
    vertex 219.527710478581 16.85606685027282 3.7051855371954328
  endloop
endfacet
facet normal -1.0 0.0 0.0
  outer loop
    vertex 219.527710478581 16.85606685027282 1.7051855371954336
    vertex 219.527710478581 19.056066850272813 3.7051855371954328
    vertex 219.527710478581 19.056066850272813 1.7051855371954336
  endloop
endfacet
facet normal -1.0 0.0 0.0
  outer loop
    vertex 218.52771047858096 152.45606685027278 6.2051855371954305
    vertex 218.52771047858096 19.056066850272813 1.7051855371954336
    vertex 218.52771047858096 19.056066850272813 6.2051855371954305
  endloop
endfacet
facet normal -1.0 0.0 0.0
  outer loop
    vertex 218.52771047858096 19.056066850272813 1.7051855371954336
    vertex 218.52771047858096 152.45606685027278 6.2051855371954305
    vertex 218.52771047858096 152.45606685027278 1.7051855371954336
  endloop
endfacet
facet normal 1.0 0.0 0.0
  outer loop
    vertex 219.82771047858103 80.4560668502728 0.7051855371954319
    vertex 219.82771047858103 20.056066850272828 6.2051855371954305
    vertex 219.82771047858103 20.056066850272828 0.7051855371954319
  endloop
endfacet
facet normal 1.0 0.0 0.0
  outer loop
    vertex 219.82771047858103 20.056066850272828 6.2051855371954305
    vertex 219.82771047858103 80.4560668502728 0.7051855371954319
    vertex 219.82771047858103 80.4560668502728 6.2051855371954305
  endloop
endfacet
facet normal 0.0 0.0 1.0
  outer loop
    vertex 219.527710478581 152.45606685027278 1.7051855371954336
    vertex 218.52771047858096 154.6560668502728 1.7051855371954336
    vertex 218.52771047858096 152.45606685027278 1.7051855371954336
  endloop
endfacet
facet normal 0.0 0.0 1.0
  outer loop
    vertex 218.52771047858096 154.6560668502728 1.7051855371954336
    vertex 219.527710478581 152.45606685027278 1.7051855371954336
    vertex 219.527710478581 154.6560668502728 1.7051855371954336
  endloop
endfacet
facet normal 1.0 0.0 0.0
  outer loop
    vertex 280.52771047858096 19.056066850272813 1.7051855371954336
    vertex 280.52771047858096 16.85606685027282 3.7051855371954328
    vertex 280.52771047858096 16.85606685027282 1.7051855371954336
  endloop
endfacet
facet normal 1.0 0.0 0.0
  outer loop
    vertex 280.52771047858096 16.85606685027282 3.7051855371954328
    vertex 280.52771047858096 19.056066850272813 1.7051855371954336
    vertex 280.52771047858096 19.056066850272813 3.7051855371954328
  endloop
endfacet
facet normal -0.7071067811864155 1.0739021334372371e-19 -0.7071067811866796
  outer loop
    vertex 280.5277104785812 151.75606685027282 0.4051855371954317
    vertex 280.22771047858106 91.05606685027281 0.7051855371954319
    vertex 280.22771047858106 151.45606685027278 0.7051855371954319
  endloop
endfacet
facet normal -0.7071067811864155 1.0739021334372371e-19 -0.7071067811866796
  outer loop
    vertex 280.22771047858106 91.05606685027281 0.7051855371954319
    vertex 280.5277104785812 151.75606685027282 0.4051855371954317
    vertex 280.5277104785812 90.7560668502728 0.4051855371954317
  endloop
endfacet
facet normal 0.7071067811864155 0.0 -0.7071067811866796
  outer loop
    vertex 219.82771047858103 80.4560668502728 0.7051855371954319
    vertex 219.5277104785809 19.756066850272823 0.4051855371954317
    vertex 219.5277104785809 80.7560668502728 0.4051855371954317
  endloop
endfacet
facet normal 0.7071067811864155 0.0 -0.7071067811866796
  outer loop
    vertex 219.5277104785809 19.756066850272823 0.4051855371954317
    vertex 219.82771047858103 80.4560668502728 0.7051855371954319
    vertex 219.82771047858103 20.056066850272828 0.7051855371954319
  endloop
endfacet
facet normal -0.7071067811865218 -1.1358408985483944e-32 -0.7071067811865733
  outer loop
    vertex 214.42771047858108 156.85606685027278 0.4051855371954317
    vertex 214.12771047858106 14.356066850272827 0.7051855371954319
    vertex 214.12771047858106 157.15606685027277 0.7051855371954319
  endloop
endfacet
facet normal -0.7071067811865218 -1.1358408985483944e-32 -0.7071067811865733
  outer loop
    vertex 214.12771047858106 14.356066850272827 0.7051855371954319
    vertex 214.42771047858108 156.85606685027278 0.4051855371954317
    vertex 214.42771047858108 14.65606685027282 0.4051855371954317
  endloop
endfacet
facet normal -3.922073779556778e-32 -0.707106781186555 -0.70710678118654
  outer loop
    vertex 285.927710478581 14.356066850272827 0.7051855371954319
    vertex 214.42771047858108 14.65606685027282 0.4051855371954317
    vertex 285.6277104785809 14.65606685027282 0.4051855371954317
  endloop
endfacet
facet normal -3.922073779556778e-32 -0.707106781186555 -0.70710678118654
  outer loop
    vertex 214.42771047858108 14.65606685027282 0.4051855371954317
    vertex 285.927710478581 14.356066850272827 0.7051855371954319
    vertex 214.12771047858106 14.356066850272827 0.7051855371954319
  endloop
endfacet
facet normal 0.0 -1.0 0.0
  outer loop
    vertex 281.52771047858096 19.056066850272813 6.2051855371954305
    vertex 280.52771047858096 19.056066850272813 1.7051855371954336
    vertex 281.52771047858096 19.056066850272813 1.7051855371954336
  endloop
endfacet
facet normal 0.0 -1.0 0.0
  outer loop
    vertex 280.52771047858096 19.056066850272813 1.7051855371954336
    vertex 281.52771047858096 19.056066850272813 6.2051855371954305
    vertex 280.52771047858096 19.056066850272813 3.7051855371954328
  endloop
endfacet
facet normal 0.0 -1.0 0.0
  outer loop
    vertex 280.52771047858096 19.056066850272813 3.7051855371954328
    vertex 281.52771047858096 19.056066850272813 6.2051855371954305
    vertex 219.527710478581 19.056066850272813 3.7051855371954328
  endloop
endfacet
facet normal 0.0 -1.0 0.0
  outer loop
    vertex 219.527710478581 19.056066850272813 3.7051855371954328
    vertex 218.52771047858096 19.056066850272813 1.7051855371954336
    vertex 219.527710478581 19.056066850272813 1.7051855371954336
  endloop
endfacet
facet normal 0.0 -1.0 0.0
  outer loop
    vertex 218.52771047858096 19.056066850272813 1.7051855371954336
    vertex 219.527710478581 19.056066850272813 3.7051855371954328
    vertex 218.52771047858096 19.056066850272813 6.2051855371954305
  endloop
endfacet
facet normal 0.0 -1.0 0.0
  outer loop
    vertex 218.52771047858096 19.056066850272813 6.2051855371954305
    vertex 219.527710478581 19.056066850272813 3.7051855371954328
    vertex 281.52771047858096 19.056066850272813 6.2051855371954305
  endloop
endfacet
facet normal -0.7071067811864155 0.0 -0.7071067811866796
  outer loop
    vertex 280.5277104785812 80.7560668502728 0.4051855371954317
    vertex 280.22771047858106 20.056066850272828 0.7051855371954319
    vertex 280.22771047858106 80.4560668502728 0.7051855371954319
  endloop
endfacet
facet normal -0.7071067811864155 0.0 -0.7071067811866796
  outer loop
    vertex 280.22771047858106 20.056066850272828 0.7051855371954319
    vertex 280.5277104785812 80.7560668502728 0.4051855371954317
    vertex 280.5277104785812 19.756066850272823 0.4051855371954317
  endloop
endfacet
facet normal -1.0739021334398005e-19 -0.7071067811865218 -0.7071067811865733
  outer loop
    vertex 280.5277104785812 151.75606685027282 0.4051855371954317
    vertex 219.82771047858103 151.45606685027278 0.7051855371954319
    vertex 219.5277104785809 151.75606685027282 0.4051855371954317
  endloop
endfacet
facet normal -1.0739021334398005e-19 -0.7071067811865218 -0.7071067811865733
  outer loop
    vertex 219.82771047858103 151.45606685027278 0.7051855371954319
    vertex 280.5277104785812 151.75606685027282 0.4051855371954317
    vertex 280.22771047858106 151.45606685027278 0.7051855371954319
  endloop
endfacet
facet normal 0.0 0.7071067811865485 -0.7071067811865467
  outer loop
    vertex 219.82771047858103 91.05606685027281 0.7051855371954319
    vertex 280.5277104785812 90.7560668502728 0.4051855371954317
    vertex 219.5277104785809 90.7560668502728 0.4051855371954317
  endloop
endfacet
facet normal 0.0 0.7071067811865485 -0.7071067811865467
  outer loop
    vertex 280.5277104785812 90.7560668502728 0.4051855371954317
    vertex 219.82771047858103 91.05606685027281 0.7051855371954319
    vertex 280.22771047858106 91.05606685027281 0.7051855371954319
  endloop
endfacet
facet normal -1.0 0.0 0.0
  outer loop
    vertex 283.727710478581 154.6560668502728 9.405185537195432
    vertex 283.727710478581 16.85606685027282 1.7051855371954336
    vertex 283.727710478581 16.85606685027282 9.405185537195432
  endloop
endfacet
facet normal -1.0 0.0 0.0
  outer loop
    vertex 283.727710478581 16.85606685027282 1.7051855371954336
    vertex 283.727710478581 154.6560668502728 9.405185537195432
    vertex 283.727710478581 154.6560668502728 1.7051855371954336
  endloop
endfacet
facet normal 0.707106781186521 6.240357220103023e-33 0.7071067811865741
  outer loop
    vertex 216.327710478581 16.85606685027282 9.405185537195432
    vertex 216.02771047858099 154.95606685027275 9.705185537195431
    vertex 216.02771047858099 16.556066850272828 9.705185537195431
  endloop
endfacet
facet normal 0.707106781186521 6.240357220103023e-33 0.7071067811865741
  outer loop
    vertex 216.02771047858099 154.95606685027275 9.705185537195431
    vertex 216.327710478581 16.85606685027282 9.405185537195432
    vertex 216.327710478581 154.6560668502728 9.405185537195432
  endloop
endfacet
facet normal -0.7071067811866273 8.29895252720909e-20 0.7071067811864679
  outer loop
    vertex 284.0277104785809 154.95606685027275 9.705185537195431
    vertex 283.727710478581 16.85606685027282 9.405185537195432
    vertex 284.0277104785809 16.556066850272828 9.705185537195431
  endloop
endfacet
facet normal -0.7071067811866273 8.29895252720909e-20 0.7071067811864679
  outer loop
    vertex 283.727710478581 16.85606685027282 9.405185537195432
    vertex 284.0277104785809 154.95606685027275 9.705185537195431
    vertex 283.727710478581 154.6560668502728 9.405185537195432
  endloop
endfacet
facet normal 0.0 0.0 -1.0
  outer loop
    vertex 214.42771047858108 156.85606685027278 0.4051855371954317
    vertex 219.5277104785809 151.75606685027282 0.4051855371954317
    vertex 214.42771047858108 14.65606685027282 0.4051855371954317
  endloop
endfacet
facet normal 0.0 0.0 -1.0
  outer loop
    vertex 219.5277104785809 151.75606685027282 0.4051855371954317
    vertex 214.42771047858108 156.85606685027278 0.4051855371954317
    vertex 285.6277104785809 156.85606685027278 0.4051855371954317
  endloop
endfacet
facet normal 0.0 0.0 -1.0
  outer loop
    vertex 219.5277104785809 151.75606685027282 0.4051855371954317
    vertex 285.6277104785809 156.85606685027278 0.4051855371954317
    vertex 280.5277104785812 151.75606685027282 0.4051855371954317
  endloop
endfacet
facet normal 0.0 0.0 -1.0
  outer loop
    vertex 280.5277104785812 151.75606685027282 0.4051855371954317
    vertex 285.6277104785809 156.85606685027278 0.4051855371954317
    vertex 280.5277104785812 90.7560668502728 0.4051855371954317
  endloop
endfacet
facet normal 0.0 0.0 -1.0
  outer loop
    vertex 280.5277104785812 90.7560668502728 0.4051855371954317
    vertex 285.6277104785809 156.85606685027278 0.4051855371954317
    vertex 280.5277104785812 80.7560668502728 0.4051855371954317
  endloop
endfacet
facet normal 0.0 0.0 -1.0
  outer loop
    vertex 280.5277104785812 80.7560668502728 0.4051855371954317
    vertex 285.6277104785809 156.85606685027278 0.4051855371954317
    vertex 280.5277104785812 19.756066850272823 0.4051855371954317
  endloop
endfacet
facet normal 0.0 0.0 -1.0
  outer loop
    vertex 214.42771047858108 14.65606685027282 0.4051855371954317
    vertex 219.5277104785809 19.756066850272823 0.4051855371954317
    vertex 285.6277104785809 14.65606685027282 0.4051855371954317
  endloop
endfacet
facet normal 0.0 0.0 -1.0
  outer loop
    vertex 219.5277104785809 19.756066850272823 0.4051855371954317
    vertex 214.42771047858108 14.65606685027282 0.4051855371954317
    vertex 219.5277104785809 151.75606685027282 0.4051855371954317
  endloop
endfacet
facet normal 0.0 0.0 -1.0
  outer loop
    vertex 219.5277104785809 19.756066850272823 0.4051855371954317
    vertex 219.5277104785809 151.75606685027282 0.4051855371954317
    vertex 219.5277104785809 90.7560668502728 0.4051855371954317
  endloop
endfacet
facet normal 0.0 0.0 -1.0
  outer loop
    vertex 219.5277104785809 19.756066850272823 0.4051855371954317
    vertex 219.5277104785809 90.7560668502728 0.4051855371954317
    vertex 219.5277104785809 80.7560668502728 0.4051855371954317
  endloop
endfacet
facet normal 0.0 0.0 -1.0
  outer loop
    vertex 285.6277104785809 14.65606685027282 0.4051855371954317
    vertex 219.5277104785809 19.756066850272823 0.4051855371954317
    vertex 280.5277104785812 19.756066850272823 0.4051855371954317
  endloop
endfacet
facet normal 0.0 0.0 -1.0
  outer loop
    vertex 285.6277104785809 14.65606685027282 0.4051855371954317
    vertex 280.5277104785812 19.756066850272823 0.4051855371954317
    vertex 285.6277104785809 156.85606685027278 0.4051855371954317
  endloop
endfacet
facet normal 0.0 0.0 -1.0
  outer loop
    vertex 280.5277104785812 90.7560668502728 0.4051855371954317
    vertex 219.5277104785809 80.7560668502728 0.4051855371954317
    vertex 219.5277104785809 90.7560668502728 0.4051855371954317
  endloop
endfacet
facet normal 0.0 0.0 -1.0
  outer loop
    vertex 219.5277104785809 80.7560668502728 0.4051855371954317
    vertex 280.5277104785812 90.7560668502728 0.4051855371954317
    vertex 280.5277104785812 80.7560668502728 0.4051855371954317
  endloop
endfacet
facet normal 0.0 1.0 0.0
  outer loop
    vertex 218.52771047858096 152.45606685027278 6.2051855371954305
    vertex 219.527710478581 152.45606685027278 1.7051855371954336
    vertex 218.52771047858096 152.45606685027278 1.7051855371954336
  endloop
endfacet
facet normal 0.0 1.0 0.0
  outer loop
    vertex 219.527710478581 152.45606685027278 1.7051855371954336
    vertex 218.52771047858096 152.45606685027278 6.2051855371954305
    vertex 219.527710478581 152.45606685027278 3.7051855371954328
  endloop
endfacet
facet normal 0.0 1.0 0.0
  outer loop
    vertex 219.527710478581 152.45606685027278 3.7051855371954328
    vertex 218.52771047858096 152.45606685027278 6.2051855371954305
    vertex 280.52771047858096 152.45606685027278 3.7051855371954328
  endloop
endfacet
facet normal 0.0 1.0 0.0
  outer loop
    vertex 280.52771047858096 152.45606685027278 3.7051855371954328
    vertex 281.52771047858096 152.45606685027278 1.7051855371954336
    vertex 280.52771047858096 152.45606685027278 1.7051855371954336
  endloop
endfacet
facet normal 0.0 1.0 0.0
  outer loop
    vertex 281.52771047858096 152.45606685027278 1.7051855371954336
    vertex 280.52771047858096 152.45606685027278 3.7051855371954328
    vertex 281.52771047858096 152.45606685027278 6.2051855371954305
  endloop
endfacet
facet normal 0.0 1.0 0.0
  outer loop
    vertex 281.52771047858096 152.45606685027278 6.2051855371954305
    vertex 280.52771047858096 152.45606685027278 3.7051855371954328
    vertex 218.52771047858096 152.45606685027278 6.2051855371954305
  endloop
endfacet
facet normal 0.0 -1.0 0.0
  outer loop
    vertex 280.22771047858106 80.4560668502728 6.2051855371954305
    vertex 219.82771047858103 80.4560668502728 0.7051855371954319
    vertex 280.22771047858106 80.4560668502728 0.7051855371954319
  endloop
endfacet
facet normal 0.0 -1.0 0.0
  outer loop
    vertex 219.82771047858103 80.4560668502728 0.7051855371954319
    vertex 280.22771047858106 80.4560668502728 6.2051855371954305
    vertex 219.82771047858103 80.4560668502728 6.2051855371954305
  endloop
endfacet
facet normal 0.7071067811864155 1.073902133437237e-19 -0.7071067811866796
  outer loop
    vertex 219.82771047858103 151.45606685027278 0.7051855371954319
    vertex 219.5277104785809 90.7560668502728 0.4051855371954317
    vertex 219.5277104785809 151.75606685027282 0.4051855371954317
  endloop
endfacet
facet normal 0.7071067811864155 1.073902133437237e-19 -0.7071067811866796
  outer loop
    vertex 219.5277104785809 90.7560668502728 0.4051855371954317
    vertex 219.82771047858103 151.45606685027278 0.7051855371954319
    vertex 219.82771047858103 91.05606685027281 0.7051855371954319
  endloop
endfacet
facet normal 0.7071067811864155 -5.824592127753539e-32 -0.7071067811866797
  outer loop
    vertex 285.927710478581 157.15606685027277 0.7051855371954319
    vertex 285.6277104785809 14.65606685027282 0.4051855371954317
    vertex 285.6277104785809 156.85606685027278 0.4051855371954317
  endloop
endfacet
facet normal 0.7071067811864155 -5.824592127753539e-32 -0.7071067811866797
  outer loop
    vertex 285.6277104785809 14.65606685027282 0.4051855371954317
    vertex 285.927710478581 157.15606685027277 0.7051855371954319
    vertex 285.927710478581 14.356066850272827 0.7051855371954319
  endloop
endfacet
facet normal 0.0 0.0 1.0
  outer loop
    vertex 214.12771047858106 14.356066850272827 9.705185537195431
    vertex 216.02771047858099 16.556066850272828 9.705185537195431
    vertex 214.12771047858106 157.15606685027277 9.705185537195431
  endloop
endfacet
facet normal 0.0 0.0 1.0
  outer loop
    vertex 216.02771047858099 16.556066850272828 9.705185537195431
    vertex 214.12771047858106 14.356066850272827 9.705185537195431
    vertex 285.927710478581 14.356066850272827 9.705185537195431
  endloop
endfacet
facet normal 0.0 0.0 1.0
  outer loop
    vertex 216.02771047858099 16.556066850272828 9.705185537195431
    vertex 285.927710478581 14.356066850272827 9.705185537195431
    vertex 284.0277104785809 16.556066850272828 9.705185537195431
  endloop
endfacet
facet normal 0.0 0.0 1.0
  outer loop
    vertex 284.0277104785809 16.556066850272828 9.705185537195431
    vertex 285.927710478581 14.356066850272827 9.705185537195431
    vertex 284.0277104785809 154.95606685027275 9.705185537195431
  endloop
endfacet
facet normal 0.0 0.0 1.0
  outer loop
    vertex 214.12771047858106 157.15606685027277 9.705185537195431
    vertex 216.02771047858099 154.95606685027275 9.705185537195431
    vertex 285.927710478581 157.15606685027277 9.705185537195431
  endloop
endfacet
facet normal 0.0 0.0 1.0
  outer loop
    vertex 216.02771047858099 154.95606685027275 9.705185537195431
    vertex 214.12771047858106 157.15606685027277 9.705185537195431
    vertex 216.02771047858099 16.556066850272828 9.705185537195431
  endloop
endfacet
facet normal 0.0 0.0 1.0
  outer loop
    vertex 285.927710478581 157.15606685027277 9.705185537195431
    vertex 216.02771047858099 154.95606685027275 9.705185537195431
    vertex 284.0277104785809 154.95606685027275 9.705185537195431
  endloop
endfacet
facet normal 0.0 0.0 1.0
  outer loop
    vertex 285.927710478581 157.15606685027277 9.705185537195431
    vertex 284.0277104785809 154.95606685027275 9.705185537195431
    vertex 285.927710478581 14.356066850272827 9.705185537195431
  endloop
endfacet
facet normal 0.0 1.0 0.0
  outer loop
    vertex 219.82771047858103 20.056066850272828 6.2051855371954305
    vertex 280.22771047858106 20.056066850272828 0.7051855371954319
    vertex 219.82771047858103 20.056066850272828 0.7051855371954319
  endloop
endfacet
facet normal 0.0 1.0 0.0
  outer loop
    vertex 280.22771047858106 20.056066850272828 0.7051855371954319
    vertex 219.82771047858103 20.056066850272828 6.2051855371954305
    vertex 280.22771047858106 20.056066850272828 6.2051855371954305
  endloop
endfacet
facet normal 0.0 0.7071067811865417 -0.7071067811865533
  outer loop
    vertex 219.82771047858103 20.056066850272828 0.7051855371954319
    vertex 280.5277104785812 19.756066850272823 0.4051855371954317
    vertex 219.5277104785809 19.756066850272823 0.4051855371954317
  endloop
endfacet
facet normal 0.0 0.7071067811865417 -0.7071067811865533
  outer loop
    vertex 280.5277104785812 19.756066850272823 0.4051855371954317
    vertex 219.82771047858103 20.056066850272828 0.7051855371954319
    vertex 280.22771047858106 20.056066850272828 0.7051855371954319
  endloop
endfacet
facet normal 0.0 -0.7071067811865485 -0.7071067811865467
  outer loop
    vertex 280.22771047858106 80.4560668502728 0.7051855371954319
    vertex 219.5277104785809 80.7560668502728 0.4051855371954317
    vertex 280.5277104785812 80.7560668502728 0.4051855371954317
  endloop
endfacet
facet normal 0.0 -0.7071067811865485 -0.7071067811865467
  outer loop
    vertex 219.5277104785809 80.7560668502728 0.4051855371954317
    vertex 280.22771047858106 80.4560668502728 0.7051855371954319
    vertex 219.82771047858103 80.4560668502728 0.7051855371954319
  endloop
endfacet
facet normal -1.443708139714192e-31 0.707106781186575 -0.70710678118652
  outer loop
    vertex 214.12771047858106 157.15606685027277 0.7051855371954319
    vertex 285.6277104785809 156.85606685027278 0.4051855371954317
    vertex 214.42771047858108 156.85606685027278 0.4051855371954317
  endloop
endfacet
facet normal -1.443708139714192e-31 0.707106781186575 -0.70710678118652
  outer loop
    vertex 285.6277104785809 156.85606685027278 0.4051855371954317
    vertex 214.12771047858106 157.15606685027277 0.7051855371954319
    vertex 285.927710478581 157.15606685027277 0.7051855371954319
  endloop
endfacet
facet normal -1.7266202334655705e-19 0.7071067811865541 0.7071067811865409
  outer loop
    vertex 216.02771047858099 16.556066850272828 9.705185537195431
    vertex 283.727710478581 16.85606685027282 9.405185537195432
    vertex 216.327710478581 16.85606685027282 9.405185537195432
  endloop
endfacet
facet normal -1.7266202334655705e-19 0.7071067811865541 0.7071067811865409
  outer loop
    vertex 283.727710478581 16.85606685027282 9.405185537195432
    vertex 216.02771047858099 16.556066850272828 9.705185537195431
    vertex 284.0277104785809 16.556066850272828 9.705185537195431
  endloop
endfacet
facet normal -1.5593304184696084e-31 -0.7071067811865741 0.707106781186521
  outer loop
    vertex 284.0277104785809 154.95606685027275 9.705185537195431
    vertex 216.327710478581 154.6560668502728 9.405185537195432
    vertex 283.727710478581 154.6560668502728 9.405185537195432
  endloop
endfacet
facet normal -1.5593304184696084e-31 -0.7071067811865741 0.707106781186521
  outer loop
    vertex 216.327710478581 154.6560668502728 9.405185537195432
    vertex 284.0277104785809 154.95606685027275 9.705185537195431
    vertex 216.02771047858099 154.95606685027275 9.705185537195431
  endloop
endfacet
facet normal 0.0 -1.0 0.0
  outer loop
    vertex 285.927710478581 14.356066850272827 9.705185537195431
    vertex 214.12771047858106 14.356066850272827 0.7051855371954319
    vertex 285.927710478581 14.356066850272827 0.7051855371954319
  endloop
endfacet
facet normal 0.0 -1.0 0.0
  outer loop
    vertex 214.12771047858106 14.356066850272827 0.7051855371954319
    vertex 285.927710478581 14.356066850272827 9.705185537195431
    vertex 214.12771047858106 14.356066850272827 9.705185537195431
  endloop
endfacet
facet normal 0.0 1.0 0.0
  outer loop
    vertex 219.82771047858103 91.05606685027281 6.2051855371954305
    vertex 280.22771047858106 91.05606685027281 0.7051855371954319
    vertex 219.82771047858103 91.05606685027281 0.7051855371954319
  endloop
endfacet
facet normal 0.0 1.0 0.0
  outer loop
    vertex 280.22771047858106 91.05606685027281 0.7051855371954319
    vertex 219.82771047858103 91.05606685027281 6.2051855371954305
    vertex 280.22771047858106 91.05606685027281 6.2051855371954305
  endloop
endfacet
endsolid Codelock
