solid Codelock
facet normal 0.0 -1.0 0.0
  outer loop
    vertex 583.6025190238665 152.38216976469533 12.49999999999993
    vertex 581.3025190238662 152.38216976469533 4.49999999999993
    vertex 583.6025190238665 152.38216976469533 4.49999999999993
  endloop
endfacet
facet normal 0.0 -1.0 0.0
  outer loop
    vertex 581.3025190238662 152.38216976469533 4.49999999999993
    vertex 583.6025190238665 152.38216976469533 12.49999999999993
    vertex 512.9025190238664 152.38216976469533 4.4999999999999325
  endloop
endfacet
facet normal 0.0 -1.0 0.0
  outer loop
    vertex 512.9025190238664 152.38216976469533 4.4999999999999325
    vertex 583.6025190238665 152.38216976469533 12.49999999999993
    vertex 510.60251902386636 152.38216976469533 4.4999999999999325
  endloop
endfacet
facet normal 0.0 -1.0 0.0
  outer loop
    vertex 510.60251902386636 152.38216976469533 4.4999999999999325
    vertex 583.6025190238665 152.38216976469533 12.49999999999993
    vertex 510.60251902386636 152.38216976469533 12.49999999999993
  endloop
endfacet
facet normal 0.0 -1.0 0.0
  outer loop
    vertex 580.8025190238664 152.38216976469533 3.99999999999993
    vertex 513.4025190238665 152.38216976469533 2.999999999999932
    vertex 580.8025190238664 152.38216976469533 2.999999999999932
  endloop
endfacet
facet normal 0.0 -1.0 0.0
  outer loop
    vertex 513.4025190238665 152.38216976469533 2.999999999999932
    vertex 580.8025190238664 152.38216976469533 3.99999999999993
    vertex 513.4025190238665 152.38216976469533 3.999999999999933
  endloop
endfacet
facet normal 0.0 -1.0 0.0
  outer loop
    vertex 513.4025190238665 152.38216976469533 3.999999999999933
    vertex 580.8025190238664 152.38216976469533 3.99999999999993
    vertex 581.3025190238662 152.38216976469533 4.49999999999993
  endloop
endfacet
facet normal 0.0 -1.0 0.0
  outer loop
    vertex 513.4025190238665 152.38216976469533 3.999999999999933
    vertex 581.3025190238662 152.38216976469533 4.49999999999993
    vertex 512.9025190238664 152.38216976469533 4.4999999999999325
  endloop
endfacet
facet normal -0.0 1.0 -0.0
  outer loop
    vertex 510.60251902386636 157.18216976469532 12.99999999999993
    vertex 583.6025190238665 157.18216976469532 -6.767919558114953e-14
    vertex 510.60251902386636 157.18216976469532 -6.767919558114953e-14
  endloop
endfacet
facet normal -0.0 1.0 -0.0
  outer loop
    vertex 583.6025190238665 157.18216976469532 -6.767919558114953e-14
    vertex 510.60251902386636 157.18216976469532 12.99999999999993
    vertex 583.6025190238665 157.18216976469532 12.99999999999993
  endloop
endfacet
facet normal -0.0 -0.0 1.0
  outer loop
    vertex 583.6025190238654 9.7821697646954 12.99999999999993
    vertex 510.6025190238662 14.082169764695402 12.99999999999993
    vertex 510.6025190238662 9.7821697646954 12.99999999999993
  endloop
endfacet
facet normal -0.0 -0.0 1.0
  outer loop
    vertex 510.6025190238662 14.082169764695402 12.99999999999993
    vertex 583.6025190238654 9.7821697646954 12.99999999999993
    vertex 583.6025190238654 14.082169764695402 12.99999999999993
  endloop
endfacet
facet normal -0.0 1.0 -0.0
  outer loop
    vertex 578.8525190238661 124.48216976469531 10.999999999999932
    vertex 583.6025190238661 124.48216976469531 4.4999999999999325
    vertex 578.8525190238661 124.48216976469531 4.4999999999999325
  endloop
endfacet
facet normal -0.0 1.0 -0.0
  outer loop
    vertex 583.6025190238661 124.48216976469531 4.4999999999999325
    vertex 578.8525190238661 124.48216976469531 10.999999999999932
    vertex 583.6025190238661 124.48216976469531 11.499999999999932
  endloop
endfacet
facet normal -0.0 1.0 -0.0
  outer loop
    vertex 583.6025190238661 124.48216976469531 11.499999999999932
    vertex 578.8525190238661 124.48216976469531 10.999999999999932
    vertex 579.352519023866 124.48216976469531 11.499999999999932
  endloop
endfacet
facet normal 0.0 -1.0 0.0
  outer loop
    vertex 515.8525190238661 42.4821697646954 10.999999999999932
    vertex 510.6025190238662 42.4821697646954 4.4999999999999325
    vertex 515.8525190238661 42.4821697646954 4.4999999999999325
  endloop
endfacet
facet normal 0.0 -1.0 0.0
  outer loop
    vertex 510.6025190238662 42.4821697646954 4.4999999999999325
    vertex 515.8525190238661 42.4821697646954 10.999999999999932
    vertex 510.6025190238662 42.4821697646954 11.499999999999934
  endloop
endfacet
facet normal 0.0 -1.0 0.0
  outer loop
    vertex 510.6025190238662 42.4821697646954 11.499999999999934
    vertex 515.8525190238661 42.4821697646954 10.999999999999932
    vertex 515.3525190238661 42.4821697646954 11.499999999999934
  endloop
endfacet
facet normal -1.0 1.121339509967968e-15 4.557521587956175e-16
  outer loop
    vertex 510.6025190238662 124.48216976469531 11.499999999999934
    vertex 510.6025190238662 42.4821697646954 4.4999999999999325
    vertex 510.6025190238662 42.4821697646954 11.499999999999934
  endloop
endfacet
facet normal -1.0 1.121339509967968e-15 4.557521587956175e-16
  outer loop
    vertex 510.60251902386636 152.8821697646953 12.99999999999993
    vertex 510.60251902386636 152.38216976469533 4.4999999999999325
    vertex 510.60251902386636 152.38216976469533 12.49999999999993
  endloop
endfacet
facet normal -1.0 1.121339509967968e-15 4.557521587956175e-16
  outer loop
    vertex 510.6025190238662 14.082169764695402 12.99999999999993
    vertex 510.6025190238662 9.7821697646954 -6.767919558114953e-14
    vertex 510.6025190238662 9.7821697646954 12.99999999999993
  endloop
endfacet
facet normal -1.0 1.121339509967968e-15 4.557521587956175e-16
  outer loop
    vertex 510.6025190238662 9.7821697646954 -6.767919558114953e-14
    vertex 510.6025190238662 14.082169764695402 12.99999999999993
    vertex 510.6025190238662 14.582169764695402 4.499999999999925
  endloop
endfacet
facet normal -1.0 1.121339509967968e-15 4.557521587956175e-16
  outer loop
    vertex 510.6025190238662 9.7821697646954 -6.767919558114953e-14
    vertex 510.6025190238662 14.582169764695402 4.499999999999925
    vertex 510.60251902386636 157.18216976469532 -6.767919558114953e-14
  endloop
endfacet
facet normal -1.0 1.121339509967968e-15 4.557521587956175e-16
  outer loop
    vertex 510.6025190238662 14.582169764695402 4.499999999999925
    vertex 510.6025190238662 14.082169764695402 12.99999999999993
    vertex 510.6025190238662 14.582169764695402 12.49999999999993
  endloop
endfacet
facet normal -1.0 1.121339509967968e-15 4.557521587956175e-16
  outer loop
    vertex 510.60251902386636 157.18216976469532 -6.767919558114953e-14
    vertex 510.6025190238662 14.582169764695402 4.499999999999925
    vertex 510.6025190238662 42.4821697646954 4.4999999999999325
  endloop
endfacet
facet normal -1.0 1.121339509967968e-15 4.557521587956175e-16
  outer loop
    vertex 510.60251902386636 157.18216976469532 -6.767919558114953e-14
    vertex 510.6025190238662 42.4821697646954 4.4999999999999325
    vertex 510.6025190238662 124.48216976469531 4.4999999999999325
  endloop
endfacet
facet normal -1.0 1.121339509967968e-15 4.557521587956175e-16
  outer loop
    vertex 510.6025190238662 124.48216976469531 4.4999999999999325
    vertex 510.6025190238662 42.4821697646954 4.4999999999999325
    vertex 510.6025190238662 124.48216976469531 11.499999999999934
  endloop
endfacet
facet normal -1.0 1.121339509967968e-15 4.557521587956175e-16
  outer loop
    vertex 510.60251902386636 157.18216976469532 -6.767919558114953e-14
    vertex 510.6025190238662 124.48216976469531 4.4999999999999325
    vertex 510.60251902386636 152.38216976469533 4.4999999999999325
  endloop
endfacet
facet normal -1.0 1.121339509967968e-15 4.557521587956175e-16
  outer loop
    vertex 510.60251902386636 157.18216976469532 -6.767919558114953e-14
    vertex 510.60251902386636 152.38216976469533 4.4999999999999325
    vertex 510.60251902386636 152.8821697646953 12.99999999999993
  endloop
endfacet
facet normal -1.0 1.121339509967968e-15 4.557521587956175e-16
  outer loop
    vertex 510.60251902386636 157.18216976469532 -6.767919558114953e-14
    vertex 510.60251902386636 152.8821697646953 12.99999999999993
    vertex 510.60251902386636 157.18216976469532 12.99999999999993
  endloop
endfacet
facet normal -0.0 1.0 -0.0
  outer loop
    vertex 513.4025190238665 142.08216976469532 3.999999999999933
    vertex 580.8025190238664 142.08216976469532 2.999999999999932
    vertex 513.4025190238665 142.08216976469532 2.999999999999932
  endloop
endfacet
facet normal -0.0 1.0 -0.0
  outer loop
    vertex 580.8025190238664 142.08216976469532 2.999999999999932
    vertex 513.4025190238665 142.08216976469532 3.999999999999933
    vertex 580.8025190238664 142.08216976469532 3.99999999999993
  endloop
endfacet
facet normal 0.0 -1.0 0.0
  outer loop
    vertex 583.6025190238661 42.4821697646954 11.499999999999932
    vertex 578.8525190238661 42.4821697646954 4.4999999999999325
    vertex 583.6025190238661 42.4821697646954 4.4999999999999325
  endloop
endfacet
facet normal 0.0 -1.0 0.0
  outer loop
    vertex 578.8525190238661 42.4821697646954 4.4999999999999325
    vertex 583.6025190238661 42.4821697646954 11.499999999999932
    vertex 578.8525190238661 42.4821697646954 10.999999999999932
  endloop
endfacet
facet normal 0.0 -1.0 0.0
  outer loop
    vertex 578.8525190238661 42.4821697646954 10.999999999999932
    vertex 583.6025190238661 42.4821697646954 11.499999999999932
    vertex 579.352519023866 42.4821697646954 11.499999999999932
  endloop
endfacet
facet normal -0.0 -0.0 1.0
  outer loop
    vertex 583.6025190238661 42.4821697646954 11.499999999999932
    vertex 579.352519023866 124.48216976469531 11.499999999999932
    vertex 579.352519023866 42.4821697646954 11.499999999999932
  endloop
endfacet
facet normal -0.0 -0.0 1.0
  outer loop
    vertex 579.352519023866 124.48216976469531 11.499999999999932
    vertex 583.6025190238661 42.4821697646954 11.499999999999932
    vertex 583.6025190238661 124.48216976469531 11.499999999999932
  endloop
endfacet
facet normal 0.0 -1.0 0.0
  outer loop
    vertex 583.6025190238654 9.7821697646954 12.99999999999993
    vertex 510.6025190238662 9.7821697646954 -6.767919558114953e-14
    vertex 583.6025190238654 9.7821697646954 -6.767919558114953e-14
  endloop
endfacet
facet normal 0.0 -1.0 0.0
  outer loop
    vertex 510.6025190238662 9.7821697646954 -6.767919558114953e-14
    vertex 583.6025190238654 9.7821697646954 12.99999999999993
    vertex 510.6025190238662 9.7821697646954 12.99999999999993
  endloop
endfacet
facet normal 1.0 -0.0 -0.0
  outer loop
    vertex 515.8525190238661 124.48216976469531 4.4999999999999325
    vertex 515.8525190238661 42.4821697646954 10.999999999999932
    vertex 515.8525190238661 42.4821697646954 4.4999999999999325
  endloop
endfacet
facet normal 1.0 -0.0 -0.0
  outer loop
    vertex 515.8525190238661 42.4821697646954 10.999999999999932
    vertex 515.8525190238661 124.48216976469531 4.4999999999999325
    vertex 515.8525190238661 124.48216976469531 10.999999999999932
  endloop
endfacet
facet normal 1.0 -6.7280370598078076e-15 9.115043175912301e-16
  outer loop
    vertex 583.6025190238654 9.7821697646954 -6.767919558114953e-14
    vertex 583.6025190238654 14.582169764695402 4.499999999999927
    vertex 583.6025190238654 9.7821697646954 12.99999999999993
  endloop
endfacet
facet normal 1.0 -6.7280370598078076e-15 9.115043175912301e-16
  outer loop
    vertex 583.6025190238654 14.582169764695402 4.499999999999927
    vertex 583.6025190238654 9.7821697646954 -6.767919558114953e-14
    vertex 583.6025190238665 157.18216976469532 -6.767919558114953e-14
  endloop
endfacet
facet normal 1.0 -6.7280370598078076e-15 9.115043175912301e-16
  outer loop
    vertex 583.6025190238654 9.7821697646954 12.99999999999993
    vertex 583.6025190238654 14.582169764695402 4.499999999999927
    vertex 583.6025190238654 14.082169764695402 12.99999999999993
  endloop
endfacet
facet normal 1.0 -6.7280370598078076e-15 9.115043175912301e-16
  outer loop
    vertex 583.6025190238654 14.582169764695402 4.499999999999927
    vertex 583.6025190238665 157.18216976469532 -6.767919558114953e-14
    vertex 583.6025190238661 42.4821697646954 4.4999999999999325
  endloop
endfacet
facet normal 1.0 -6.7280370598078076e-15 9.115043175912301e-16
  outer loop
    vertex 583.6025190238661 42.4821697646954 4.4999999999999325
    vertex 583.6025190238665 157.18216976469532 -6.767919558114953e-14
    vertex 583.6025190238661 42.4821697646954 11.499999999999932
  endloop
endfacet
facet normal 1.0 -6.7280370598078076e-15 9.115043175912301e-16
  outer loop
    vertex 583.6025190238661 42.4821697646954 11.499999999999932
    vertex 583.6025190238665 157.18216976469532 -6.767919558114953e-14
    vertex 583.6025190238661 124.48216976469531 4.4999999999999325
  endloop
endfacet
facet normal 1.0 -6.7280370598078076e-15 9.115043175912301e-16
  outer loop
    vertex 583.6025190238661 124.48216976469531 4.4999999999999325
    vertex 583.6025190238665 157.18216976469532 -6.767919558114953e-14
    vertex 583.6025190238665 152.38216976469533 4.49999999999993
  endloop
endfacet
facet normal 1.0 -6.7280370598078076e-15 9.115043175912301e-16
  outer loop
    vertex 583.6025190238665 152.38216976469533 4.49999999999993
    vertex 583.6025190238665 157.18216976469532 -6.767919558114953e-14
    vertex 583.6025190238665 152.38216976469533 12.49999999999993
  endloop
endfacet
facet normal 1.0 -6.7280370598078076e-15 9.115043175912301e-16
  outer loop
    vertex 583.6025190238665 152.38216976469533 12.49999999999993
    vertex 583.6025190238665 157.18216976469532 -6.767919558114953e-14
    vertex 583.6025190238665 152.8821697646953 12.99999999999993
  endloop
endfacet
facet normal 1.0 -6.7280370598078076e-15 9.115043175912301e-16
  outer loop
    vertex 583.6025190238665 152.8821697646953 12.99999999999993
    vertex 583.6025190238665 157.18216976469532 -6.767919558114953e-14
    vertex 583.6025190238665 157.18216976469532 12.99999999999993
  endloop
endfacet
facet normal 1.0 -6.7280370598078076e-15 9.115043175912301e-16
  outer loop
    vertex 583.6025190238661 124.48216976469531 11.499999999999932
    vertex 583.6025190238661 42.4821697646954 11.499999999999932
    vertex 583.6025190238661 124.48216976469531 4.4999999999999325
  endloop
endfacet
facet normal 1.0 -6.7280370598078076e-15 9.115043175912301e-16
  outer loop
    vertex 583.6025190238654 14.582169764695402 12.49999999999993
    vertex 583.6025190238654 14.082169764695402 12.99999999999993
    vertex 583.6025190238654 14.582169764695402 4.499999999999927
  endloop
endfacet
facet normal -0.0 1.0 -0.0
  outer loop
    vertex 510.6025190238662 124.48216976469531 11.499999999999934
    vertex 515.8525190238661 124.48216976469531 4.4999999999999325
    vertex 510.6025190238662 124.48216976469531 4.4999999999999325
  endloop
endfacet
facet normal -0.0 1.0 -0.0
  outer loop
    vertex 515.8525190238661 124.48216976469531 4.4999999999999325
    vertex 510.6025190238662 124.48216976469531 11.499999999999934
    vertex 515.8525190238661 124.48216976469531 10.999999999999932
  endloop
endfacet
facet normal -0.0 1.0 -0.0
  outer loop
    vertex 515.8525190238661 124.48216976469531 10.999999999999932
    vertex 510.6025190238662 124.48216976469531 11.499999999999934
    vertex 515.3525190238661 124.48216976469531 11.499999999999934
  endloop
endfacet
facet normal -0.0 1.0 -0.0
  outer loop
    vertex 510.6025190238662 14.582169764695402 12.49999999999993
    vertex 512.9025190238663 14.582169764695402 4.49999999999993
    vertex 510.6025190238662 14.582169764695402 4.499999999999925
  endloop
endfacet
facet normal -0.0 1.0 -0.0
  outer loop
    vertex 512.9025190238663 14.582169764695402 4.49999999999993
    vertex 510.6025190238662 14.582169764695402 12.49999999999993
    vertex 513.4025190238663 14.582169764695402 4.49999999999993
  endloop
endfacet
facet normal -0.0 1.0 -0.0
  outer loop
    vertex 513.4025190238663 14.582169764695402 4.49999999999993
    vertex 510.6025190238662 14.582169764695402 12.49999999999993
    vertex 581.3025190238656 14.582169764695402 4.499999999999931
  endloop
endfacet
facet normal -0.0 1.0 -0.0
  outer loop
    vertex 581.3025190238656 14.582169764695402 4.499999999999931
    vertex 583.6025190238654 14.582169764695402 12.49999999999993
    vertex 583.6025190238654 14.582169764695402 4.499999999999927
  endloop
endfacet
facet normal -0.0 1.0 -0.0
  outer loop
    vertex 583.6025190238654 14.582169764695402 12.49999999999993
    vertex 581.3025190238656 14.582169764695402 4.499999999999931
    vertex 510.6025190238662 14.582169764695402 12.49999999999993
  endloop
endfacet
facet normal -0.0 1.0 -0.0
  outer loop
    vertex 513.4025190238663 14.582169764695402 3.99999999999993
    vertex 580.8025190238653 14.582169764695402 2.9999999999999334
    vertex 513.4025190238663 14.582169764695402 2.9999999999999334
  endloop
endfacet
facet normal -0.0 1.0 -0.0
  outer loop
    vertex 580.8025190238653 14.582169764695402 2.9999999999999334
    vertex 513.4025190238663 14.582169764695402 3.99999999999993
    vertex 580.8025190238653 14.582169764695402 3.999999999999931
  endloop
endfacet
facet normal -0.0 1.0 -0.0
  outer loop
    vertex 580.8025190238653 14.582169764695402 3.999999999999931
    vertex 513.4025190238663 14.582169764695402 3.99999999999993
    vertex 513.4025190238663 14.582169764695402 4.49999999999993
  endloop
endfacet
facet normal -0.0 1.0 -0.0
  outer loop
    vertex 580.8025190238653 14.582169764695402 3.999999999999931
    vertex 513.4025190238663 14.582169764695402 4.49999999999993
    vertex 581.3025190238656 14.582169764695402 4.499999999999931
  endloop
endfacet
facet normal -1.0 0.0 0.0
  outer loop
    vertex 580.8025190238664 152.38216976469533 3.99999999999993
    vertex 580.8025190238664 142.08216976469532 2.999999999999932
    vertex 580.8025190238664 142.08216976469532 3.99999999999993
  endloop
endfacet
facet normal -1.0 0.0 0.0
  outer loop
    vertex 580.8025190238664 142.08216976469532 2.999999999999932
    vertex 580.8025190238664 152.38216976469533 3.99999999999993
    vertex 580.8025190238664 152.38216976469533 2.999999999999932
  endloop
endfacet
facet normal 0.0 0.0 -1.0
  outer loop
    vertex 583.6025190238665 157.18216976469532 -6.767919558114953e-14
    vertex 519.6025190238662 131.4821697646953 -8.177902799388902e-14
    vertex 510.60251902386636 157.18216976469532 -6.767919558114953e-14
  endloop
endfacet
facet normal 0.0 0.0 -1.0
  outer loop
    vertex 519.6025190238662 131.4821697646953 -8.177902799388902e-14
    vertex 583.6025190238665 157.18216976469532 -6.767919558114953e-14
    vertex 574.602519023866 131.4821697646953 -8.177902799388902e-14
  endloop
endfacet
facet normal 0.0 0.0 -1.0
  outer loop
    vertex 574.602519023866 131.4821697646953 -8.177902799388902e-14
    vertex 583.6025190238665 157.18216976469532 -6.767919558114953e-14
    vertex 574.602519023866 35.4821697646954 -8.177902799388902e-14
  endloop
endfacet
facet normal 0.0 0.0 -1.0
  outer loop
    vertex 574.602519023866 35.4821697646954 -8.177902799388902e-14
    vertex 583.6025190238665 157.18216976469532 -6.767919558114953e-14
    vertex 583.6025190238654 9.7821697646954 -6.767919558114953e-14
  endloop
endfacet
facet normal 0.0 0.0 -1.0
  outer loop
    vertex 510.6025190238662 9.7821697646954 -6.767919558114953e-14
    vertex 519.6025190238662 35.4821697646954 -8.177902799388902e-14
    vertex 583.6025190238654 9.7821697646954 -6.767919558114953e-14
  endloop
endfacet
facet normal 0.0 0.0 -1.0
  outer loop
    vertex 519.6025190238662 35.4821697646954 -8.177902799388902e-14
    vertex 510.6025190238662 9.7821697646954 -6.767919558114953e-14
    vertex 510.60251902386636 157.18216976469532 -6.767919558114953e-14
  endloop
endfacet
facet normal 0.0 0.0 -1.0
  outer loop
    vertex 519.6025190238662 35.4821697646954 -8.177902799388902e-14
    vertex 510.60251902386636 157.18216976469532 -6.767919558114953e-14
    vertex 519.6025190238662 131.4821697646953 -8.177902799388902e-14
  endloop
endfacet
facet normal 0.0 0.0 -1.0
  outer loop
    vertex 583.6025190238654 9.7821697646954 -6.767919558114953e-14
    vertex 519.6025190238662 35.4821697646954 -8.177902799388902e-14
    vertex 574.602519023866 35.4821697646954 -8.177902799388902e-14
  endloop
endfacet
facet normal -0.0 -0.0 1.0
  outer loop
    vertex 580.8025190238664 142.08216976469532 2.999999999999932
    vertex 513.4025190238665 152.38216976469533 2.999999999999932
    vertex 513.4025190238665 142.08216976469532 2.999999999999932
  endloop
endfacet
facet normal -0.0 -0.0 1.0
  outer loop
    vertex 513.4025190238665 152.38216976469533 2.999999999999932
    vertex 580.8025190238664 142.08216976469532 2.999999999999932
    vertex 580.8025190238664 152.38216976469533 2.999999999999932
  endloop
endfacet
facet normal 0.0 -1.0 0.0
  outer loop
    vertex 580.8025190238653 24.88216976469538 3.999999999999931
    vertex 513.4025190238663 24.88216976469538 2.9999999999999334
    vertex 580.8025190238653 24.88216976469538 2.9999999999999334
  endloop
endfacet
facet normal 0.0 -1.0 0.0
  outer loop
    vertex 513.4025190238663 24.88216976469538 2.9999999999999334
    vertex 580.8025190238653 24.88216976469538 3.999999999999931
    vertex 513.4025190238663 24.88216976469538 3.99999999999993
  endloop
endfacet
facet normal -0.0 -0.0 1.0
  outer loop
    vertex 580.8025190238653 14.582169764695402 2.9999999999999334
    vertex 513.4025190238663 24.88216976469538 2.9999999999999334
    vertex 513.4025190238663 14.582169764695402 2.9999999999999334
  endloop
endfacet
facet normal -0.0 -0.0 1.0
  outer loop
    vertex 513.4025190238663 24.88216976469538 2.9999999999999334
    vertex 580.8025190238653 14.582169764695402 2.9999999999999334
    vertex 580.8025190238653 24.88216976469538 2.9999999999999334
  endloop
endfacet
facet normal -1.0 0.0 0.0
  outer loop
    vertex 580.8025190238653 24.88216976469538 3.999999999999931
    vertex 580.8025190238653 14.582169764695402 2.9999999999999334
    vertex 580.8025190238653 14.582169764695402 3.999999999999931
  endloop
endfacet
facet normal -1.0 0.0 0.0
  outer loop
    vertex 580.8025190238653 14.582169764695402 2.9999999999999334
    vertex 580.8025190238653 24.88216976469538 3.999999999999931
    vertex 580.8025190238653 24.88216976469538 2.9999999999999334
  endloop
endfacet
facet normal 1.0 -0.0 -0.0
  outer loop
    vertex 513.4025190238665 152.38216976469533 2.999999999999932
    vertex 513.4025190238665 142.08216976469532 3.999999999999933
    vertex 513.4025190238665 142.08216976469532 2.999999999999932
  endloop
endfacet
facet normal 1.0 -0.0 -0.0
  outer loop
    vertex 513.4025190238665 142.08216976469532 3.999999999999933
    vertex 513.4025190238665 152.38216976469533 2.999999999999932
    vertex 513.4025190238665 152.38216976469533 3.999999999999933
  endloop
endfacet
facet normal 0.7071067811865006 8.362674445489297e-34 0.7071067811865944
  outer loop
    vertex 515.8525190238661 42.4821697646954 10.999999999999932
    vertex 515.3525190238661 124.48216976469531 11.499999999999934
    vertex 515.3525190238661 42.4821697646954 11.499999999999934
  endloop
endfacet
facet normal 0.7071067811865006 8.362674445489297e-34 0.7071067811865944
  outer loop
    vertex 515.3525190238661 124.48216976469531 11.499999999999934
    vertex 515.8525190238661 42.4821697646954 10.999999999999932
    vertex 515.8525190238661 124.48216976469531 10.999999999999932
  endloop
endfacet
facet normal -1.6882904251143468e-32 -0.7071067811865644 0.7071067811865306
  outer loop
    vertex 583.6025190238665 152.8821697646953 12.99999999999993
    vertex 510.60251902386636 152.38216976469533 12.49999999999993
    vertex 583.6025190238665 152.38216976469533 12.49999999999993
  endloop
endfacet
facet normal -1.6882904251143468e-32 -0.7071067811865644 0.7071067811865306
  outer loop
    vertex 510.60251902386636 152.38216976469533 12.49999999999993
    vertex 583.6025190238665 152.8821697646953 12.99999999999993
    vertex 510.60251902386636 152.8821697646953 12.99999999999993
  endloop
endfacet
facet normal -0.7071067811863726 -1.1192869882550218e-18 0.7071067811867225
  outer loop
    vertex 581.3025190238656 14.582169764695402 4.499999999999931
    vertex 580.8025190238653 24.88216976469538 3.999999999999931
    vertex 580.8025190238653 14.582169764695402 3.999999999999931
  endloop
endfacet
facet normal -0.7071067811863726 -1.1192869882550218e-18 0.7071067811867225
  outer loop
    vertex 580.8025190238653 24.88216976469538 3.999999999999931
    vertex 581.3025190238656 14.582169764695402 4.499999999999931
    vertex 581.3025190238656 25.38216976469538 4.499999999999931
  endloop
endfacet
facet normal 1.0 -0.0 -0.0
  outer loop
    vertex 519.6025190238662 131.4821697646953 -8.177902799388902e-14
    vertex 519.6025190238662 35.4821697646954 4.4999999999999325
    vertex 519.6025190238662 35.4821697646954 -8.177902799388902e-14
  endloop
endfacet
facet normal 1.0 -0.0 -0.0
  outer loop
    vertex 519.6025190238662 35.4821697646954 4.4999999999999325
    vertex 519.6025190238662 131.4821697646953 -8.177902799388902e-14
    vertex 519.6025190238662 131.4821697646953 4.4999999999999325
  endloop
endfacet
facet normal -1.0 0.0 0.0
  outer loop
    vertex 578.8525190238661 124.48216976469531 10.999999999999932
    vertex 578.8525190238661 42.4821697646954 4.4999999999999325
    vertex 578.8525190238661 42.4821697646954 10.999999999999932
  endloop
endfacet
facet normal -1.0 0.0 0.0
  outer loop
    vertex 578.8525190238661 42.4821697646954 4.4999999999999325
    vertex 578.8525190238661 124.48216976469531 10.999999999999932
    vertex 578.8525190238661 124.48216976469531 4.4999999999999325
  endloop
endfacet
facet normal 6.1051036513147165e-18 -1.3231598095066032e-17 1.0
  outer loop
    vertex 583.6025190238654 14.582169764695402 4.499999999999927
    vertex 581.3025190238656 25.38216976469538 4.499999999999931
    vertex 581.3025190238656 14.582169764695402 4.499999999999931
  endloop
endfacet
facet normal 6.1051036513147165e-18 -1.3231598095066032e-17 1.0
  outer loop
    vertex 512.9025190238663 14.582169764695402 4.49999999999993
    vertex 510.6025190238662 42.4821697646954 4.4999999999999325
    vertex 510.6025190238662 14.582169764695402 4.499999999999925
  endloop
endfacet
facet normal 6.1051036513147165e-18 -1.3231598095066032e-17 1.0
  outer loop
    vertex 510.6025190238662 42.4821697646954 4.4999999999999325
    vertex 512.9025190238663 14.582169764695402 4.49999999999993
    vertex 512.9025190238663 25.38216976469538 4.49999999999993
  endloop
endfacet
facet normal 6.1051036513147165e-18 -1.3231598095066032e-17 1.0
  outer loop
    vertex 510.6025190238662 42.4821697646954 4.4999999999999325
    vertex 512.9025190238663 25.38216976469538 4.49999999999993
    vertex 515.8525190238661 42.4821697646954 4.4999999999999325
  endloop
endfacet
facet normal 6.1051036513147165e-18 -1.3231598095066032e-17 1.0
  outer loop
    vertex 515.8525190238661 42.4821697646954 4.4999999999999325
    vertex 512.9025190238663 25.38216976469538 4.49999999999993
    vertex 519.6025190238662 35.4821697646954 4.4999999999999325
  endloop
endfacet
facet normal 6.1051036513147165e-18 -1.3231598095066032e-17 1.0
  outer loop
    vertex 519.6025190238662 35.4821697646954 4.4999999999999325
    vertex 512.9025190238663 25.38216976469538 4.49999999999993
    vertex 581.3025190238656 25.38216976469538 4.499999999999931
  endloop
endfacet
facet normal 6.1051036513147165e-18 -1.3231598095066032e-17 1.0
  outer loop
    vertex 515.8525190238661 42.4821697646954 4.4999999999999325
    vertex 519.6025190238662 35.4821697646954 4.4999999999999325
    vertex 515.8525190238661 124.48216976469531 4.4999999999999325
  endloop
endfacet
facet normal 6.1051036513147165e-18 -1.3231598095066032e-17 1.0
  outer loop
    vertex 519.6025190238662 35.4821697646954 4.4999999999999325
    vertex 581.3025190238656 25.38216976469538 4.499999999999931
    vertex 574.602519023866 35.4821697646954 4.4999999999999325
  endloop
endfacet
facet normal 6.1051036513147165e-18 -1.3231598095066032e-17 1.0
  outer loop
    vertex 574.602519023866 35.4821697646954 4.4999999999999325
    vertex 581.3025190238656 25.38216976469538 4.499999999999931
    vertex 578.8525190238661 42.4821697646954 4.4999999999999325
  endloop
endfacet
facet normal 6.1051036513147165e-18 -1.3231598095066032e-17 1.0
  outer loop
    vertex 574.602519023866 35.4821697646954 4.4999999999999325
    vertex 578.8525190238661 42.4821697646954 4.4999999999999325
    vertex 574.602519023866 131.4821697646953 4.4999999999999325
  endloop
endfacet
facet normal 6.1051036513147165e-18 -1.3231598095066032e-17 1.0
  outer loop
    vertex 578.8525190238661 42.4821697646954 4.4999999999999325
    vertex 581.3025190238656 25.38216976469538 4.499999999999931
    vertex 583.6025190238661 42.4821697646954 4.4999999999999325
  endloop
endfacet
facet normal 6.1051036513147165e-18 -1.3231598095066032e-17 1.0
  outer loop
    vertex 583.6025190238661 42.4821697646954 4.4999999999999325
    vertex 581.3025190238656 25.38216976469538 4.499999999999931
    vertex 583.6025190238654 14.582169764695402 4.499999999999927
  endloop
endfacet
facet normal 6.1051036513147165e-18 -1.3231598095066032e-17 1.0
  outer loop
    vertex 515.8525190238661 124.48216976469531 4.4999999999999325
    vertex 510.60251902386636 152.38216976469533 4.4999999999999325
    vertex 510.6025190238662 124.48216976469531 4.4999999999999325
  endloop
endfacet
facet normal 6.1051036513147165e-18 -1.3231598095066032e-17 1.0
  outer loop
    vertex 510.60251902386636 152.38216976469533 4.4999999999999325
    vertex 515.8525190238661 124.48216976469531 4.4999999999999325
    vertex 512.9025190238664 141.58216976469532 4.4999999999999325
  endloop
endfacet
facet normal 6.1051036513147165e-18 -1.3231598095066032e-17 1.0
  outer loop
    vertex 512.9025190238664 141.58216976469532 4.4999999999999325
    vertex 515.8525190238661 124.48216976469531 4.4999999999999325
    vertex 519.6025190238662 131.4821697646953 4.4999999999999325
  endloop
endfacet
facet normal 6.1051036513147165e-18 -1.3231598095066032e-17 1.0
  outer loop
    vertex 512.9025190238664 141.58216976469532 4.4999999999999325
    vertex 519.6025190238662 131.4821697646953 4.4999999999999325
    vertex 581.3025190238662 141.58216976469532 4.49999999999993
  endloop
endfacet
facet normal 6.1051036513147165e-18 -1.3231598095066032e-17 1.0
  outer loop
    vertex 519.6025190238662 131.4821697646953 4.4999999999999325
    vertex 515.8525190238661 124.48216976469531 4.4999999999999325
    vertex 519.6025190238662 35.4821697646954 4.4999999999999325
  endloop
endfacet
facet normal 6.1051036513147165e-18 -1.3231598095066032e-17 1.0
  outer loop
    vertex 581.3025190238662 141.58216976469532 4.49999999999993
    vertex 519.6025190238662 131.4821697646953 4.4999999999999325
    vertex 574.602519023866 131.4821697646953 4.4999999999999325
  endloop
endfacet
facet normal 6.1051036513147165e-18 -1.3231598095066032e-17 1.0
  outer loop
    vertex 581.3025190238662 141.58216976469532 4.49999999999993
    vertex 574.602519023866 131.4821697646953 4.4999999999999325
    vertex 578.8525190238661 124.48216976469531 4.4999999999999325
  endloop
endfacet
facet normal 6.1051036513147165e-18 -1.3231598095066032e-17 1.0
  outer loop
    vertex 578.8525190238661 124.48216976469531 4.4999999999999325
    vertex 574.602519023866 131.4821697646953 4.4999999999999325
    vertex 578.8525190238661 42.4821697646954 4.4999999999999325
  endloop
endfacet
facet normal 6.1051036513147165e-18 -1.3231598095066032e-17 1.0
  outer loop
    vertex 581.3025190238662 141.58216976469532 4.49999999999993
    vertex 578.8525190238661 124.48216976469531 4.4999999999999325
    vertex 583.6025190238661 124.48216976469531 4.4999999999999325
  endloop
endfacet
facet normal 6.1051036513147165e-18 -1.3231598095066032e-17 1.0
  outer loop
    vertex 581.3025190238662 141.58216976469532 4.49999999999993
    vertex 583.6025190238661 124.48216976469531 4.4999999999999325
    vertex 581.3025190238662 152.38216976469533 4.49999999999993
  endloop
endfacet
facet normal 6.1051036513147165e-18 -1.3231598095066032e-17 1.0
  outer loop
    vertex 581.3025190238662 152.38216976469533 4.49999999999993
    vertex 583.6025190238661 124.48216976469531 4.4999999999999325
    vertex 583.6025190238665 152.38216976469533 4.49999999999993
  endloop
endfacet
facet normal 6.1051036513147165e-18 -1.3231598095066032e-17 1.0
  outer loop
    vertex 512.9025190238664 152.38216976469533 4.4999999999999325
    vertex 510.60251902386636 152.38216976469533 4.4999999999999325
    vertex 512.9025190238664 141.58216976469532 4.4999999999999325
  endloop
endfacet
facet normal -1.0 0.0 0.0
  outer loop
    vertex 574.602519023866 131.4821697646953 4.4999999999999325
    vertex 574.602519023866 35.4821697646954 -8.177902799388902e-14
    vertex 574.602519023866 35.4821697646954 4.4999999999999325
  endloop
endfacet
facet normal -1.0 0.0 0.0
  outer loop
    vertex 574.602519023866 35.4821697646954 -8.177902799388902e-14
    vertex 574.602519023866 131.4821697646953 4.4999999999999325
    vertex 574.602519023866 131.4821697646953 -8.177902799388902e-14
  endloop
endfacet
facet normal -0.0 -0.0 1.0
  outer loop
    vertex 515.3525190238661 42.4821697646954 11.499999999999934
    vertex 510.6025190238662 124.48216976469531 11.499999999999934
    vertex 510.6025190238662 42.4821697646954 11.499999999999934
  endloop
endfacet
facet normal -0.0 -0.0 1.0
  outer loop
    vertex 510.6025190238662 124.48216976469531 11.499999999999934
    vertex 515.3525190238661 42.4821697646954 11.499999999999934
    vertex 515.3525190238661 124.48216976469531 11.499999999999934
  endloop
endfacet
facet normal -0.7071067811866277 -1.5390196088519613e-18 0.7071067811864673
  outer loop
    vertex 581.3025190238662 152.38216976469533 4.49999999999993
    vertex 580.8025190238664 142.08216976469532 3.99999999999993
    vertex 581.3025190238662 141.58216976469532 4.49999999999993
  endloop
endfacet
facet normal -0.7071067811866277 -1.5390196088519613e-18 0.7071067811864673
  outer loop
    vertex 580.8025190238664 142.08216976469532 3.99999999999993
    vertex 581.3025190238662 152.38216976469533 4.49999999999993
    vertex 580.8025190238664 152.38216976469533 3.99999999999993
  endloop
endfacet
facet normal 1.0 -0.0 -0.0
  outer loop
    vertex 513.4025190238663 24.88216976469538 2.9999999999999334
    vertex 513.4025190238663 14.582169764695402 3.99999999999993
    vertex 513.4025190238663 14.582169764695402 2.9999999999999334
  endloop
endfacet
facet normal 1.0 -0.0 -0.0
  outer loop
    vertex 513.4025190238663 14.582169764695402 3.99999999999993
    vertex 513.4025190238663 24.88216976469538 2.9999999999999334
    vertex 513.4025190238663 24.88216976469538 3.99999999999993
  endloop
endfacet
facet normal -0.7071067811866283 -8.36267444548779e-34 0.7071067811864669
  outer loop
    vertex 579.352519023866 124.48216976469531 11.499999999999932
    vertex 578.8525190238661 42.4821697646954 10.999999999999932
    vertex 579.352519023866 42.4821697646954 11.499999999999932
  endloop
endfacet
facet normal -0.7071067811866283 -8.36267444548779e-34 0.7071067811864669
  outer loop
    vertex 578.8525190238661 42.4821697646954 10.999999999999932
    vertex 579.352519023866 124.48216976469531 11.499999999999932
    vertex 578.8525190238661 124.48216976469531 10.999999999999932
  endloop
endfacet
facet normal -0.0 -0.0 1.0
  outer loop
    vertex 583.6025190238665 152.8821697646953 12.99999999999993
    vertex 510.60251902386636 157.18216976469532 12.99999999999993
    vertex 510.60251902386636 152.8821697646953 12.99999999999993
  endloop
endfacet
facet normal -0.0 -0.0 1.0
  outer loop
    vertex 510.60251902386636 157.18216976469532 12.99999999999993
    vertex 583.6025190238665 152.8821697646953 12.99999999999993
    vertex 583.6025190238665 157.18216976469532 12.99999999999993
  endloop
endfacet
facet normal 1.688290425114427e-32 0.7071067811865486 0.7071067811865466
  outer loop
    vertex 510.6025190238662 14.082169764695402 12.99999999999993
    vertex 583.6025190238654 14.582169764695402 12.49999999999993
    vertex 510.6025190238662 14.582169764695402 12.49999999999993
  endloop
endfacet
facet normal 1.688290425114427e-32 0.7071067811865486 0.7071067811865466
  outer loop
    vertex 583.6025190238654 14.582169764695402 12.49999999999993
    vertex 510.6025190238662 14.082169764695402 12.99999999999993
    vertex 583.6025190238654 14.082169764695402 12.99999999999993
  endloop
endfacet
facet normal -1.4761076972206543e-17 -0.707106781186548 0.707106781186547
  outer loop
    vertex 580.8025190238653 24.88216976469538 3.999999999999931
    vertex 512.9025190238663 25.38216976469538 4.49999999999993
    vertex 513.4025190238663 24.88216976469538 3.99999999999993
  endloop
endfacet
facet normal -1.4761076972206543e-17 -0.707106781186548 0.707106781186547
  outer loop
    vertex 512.9025190238663 25.38216976469538 4.49999999999993
    vertex 580.8025190238653 24.88216976469538 3.999999999999931
    vertex 581.3025190238656 25.38216976469538 4.499999999999931
  endloop
endfacet
facet normal 0.0 -1.0 0.0
  outer loop
    vertex 574.602519023866 131.4821697646953 4.4999999999999325
    vertex 519.6025190238662 131.4821697646953 -8.177902799388902e-14
    vertex 574.602519023866 131.4821697646953 -8.177902799388902e-14
  endloop
endfacet
facet normal 0.0 -1.0 0.0
  outer loop
    vertex 519.6025190238662 131.4821697646953 -8.177902799388902e-14
    vertex 574.602519023866 131.4821697646953 4.4999999999999325
    vertex 519.6025190238662 131.4821697646953 4.4999999999999325
  endloop
endfacet
facet normal -0.0 1.0 -0.0
  outer loop
    vertex 519.6025190238662 35.4821697646954 4.4999999999999325
    vertex 574.602519023866 35.4821697646954 -8.177902799388902e-14
    vertex 519.6025190238662 35.4821697646954 -8.177902799388902e-14
  endloop
endfacet
facet normal -0.0 1.0 -0.0
  outer loop
    vertex 574.602519023866 35.4821697646954 -8.177902799388902e-14
    vertex 519.6025190238662 35.4821697646954 4.4999999999999325
    vertex 574.602519023866 35.4821697646954 4.4999999999999325
  endloop
endfacet
facet normal 0.7071067811865002 -1.6789304823834417e-18 0.7071067811865949
  outer loop
    vertex 513.4025190238663 14.582169764695402 3.99999999999993
    vertex 512.9025190238663 25.38216976469538 4.49999999999993
    vertex 512.9025190238663 14.582169764695402 4.49999999999993
  endloop
endfacet
facet normal 0.7071067811865002 -1.6789304823834417e-18 0.7071067811865949
  outer loop
    vertex 512.9025190238663 25.38216976469538 4.49999999999993
    vertex 513.4025190238663 14.582169764695402 3.99999999999993
    vertex 513.4025190238663 24.88216976469538 3.99999999999993
  endloop
endfacet
facet normal -0.0 1.0 -0.0
  outer loop
    vertex 513.4025190238663 14.582169764695402 4.49999999999993
    vertex 513.4025190238663 14.582169764695402 3.99999999999993
    vertex 512.9025190238663 14.582169764695402 4.49999999999993
  endloop
endfacet
facet normal 0.7071067811865002 -1.1192869882556198e-18 0.7071067811865949
  outer loop
    vertex 513.4025190238665 142.08216976469532 3.999999999999933
    vertex 512.9025190238664 152.38216976469533 4.4999999999999325
    vertex 512.9025190238664 141.58216976469532 4.4999999999999325
  endloop
endfacet
facet normal 0.7071067811865002 -1.1192869882556198e-18 0.7071067811865949
  outer loop
    vertex 512.9025190238664 152.38216976469533 4.4999999999999325
    vertex 513.4025190238665 142.08216976469532 3.999999999999933
    vertex 513.4025190238665 152.38216976469533 3.999999999999933
  endloop
endfacet
facet normal 2.9350513514504064e-17 0.7071067811865321 0.707106781186563
  outer loop
    vertex 581.3025190238662 141.58216976469532 4.49999999999993
    vertex 513.4025190238665 142.08216976469532 3.999999999999933
    vertex 512.9025190238664 141.58216976469532 4.4999999999999325
  endloop
endfacet
facet normal 2.9350513514504064e-17 0.7071067811865321 0.707106781186563
  outer loop
    vertex 513.4025190238665 142.08216976469532 3.999999999999933
    vertex 581.3025190238662 141.58216976469532 4.49999999999993
    vertex 580.8025190238664 142.08216976469532 3.99999999999993
  endloop
endfacet
endsolid Codelock
