solid Codelock
facet normal -1.0 0.0 0.0
  outer loop
    vertex 684.1993801234744 132.22226774851296 4.499999999999947
    vertex 684.1993801234744 36.222267748513026 -6.767919558114953e-14
    vertex 684.1993801234744 36.222267748513026 4.499999999999947
  endloop
endfacet
facet normal -1.0 0.0 0.0
  outer loop
    vertex 684.1993801234744 36.222267748513026 -6.767919558114953e-14
    vertex 684.1993801234744 132.22226774851296 4.499999999999947
    vertex 684.1993801234744 132.22226774851296 -6.767919558114953e-14
  endloop
endfacet
facet normal 6.338648695934889e-15 -2.1315686648834507e-27 1.0
  outer loop
    vertex 690.3993801234725 153.62226774851297 10.99999999999953
    vertex 622.9993801234748 157.92226774851295 10.999999999999956
    vertex 622.9993801234748 153.62226774851294 10.999999999999956
  endloop
endfacet
facet normal 6.338648695934889e-15 -2.1315686648834507e-27 1.0
  outer loop
    vertex 622.9993801234748 157.92226774851295 10.999999999999956
    vertex 690.3993801234725 153.62226774851297 10.99999999999953
    vertex 690.3993801234755 157.92226774851298 10.99999999999953
  endloop
endfacet
facet normal 5.020711838364188e-16 -1.0 -1.1779030878896312e-31
  outer loop
    vertex 690.3993801234748 10.522267748513064 10.999999999999517
    vertex 622.9993801234745 10.52226774851303 -5.357936316841005e-14
    vertex 690.3993801234748 10.522267748513064 -4.809871165894462e-13
  endloop
endfacet
facet normal 5.020711838364188e-16 -1.0 -1.1779030878896312e-31
  outer loop
    vertex 622.9993801234745 10.52226774851303 -5.357936316841005e-14
    vertex 690.3993801234748 10.522267748513064 10.999999999999517
    vertex 622.9993801234745 10.52226774851303 10.999999999999947
  endloop
endfacet
facet normal 0.0 -1.0 0.0
  outer loop
    vertex 684.1993801234744 132.22226774851296 4.499999999999947
    vertex 629.1993801234745 132.22226774851296 -6.767919558114953e-14
    vertex 684.1993801234744 132.22226774851296 -6.767919558114953e-14
  endloop
endfacet
facet normal 0.0 -1.0 0.0
  outer loop
    vertex 629.1993801234745 132.22226774851296 -6.767919558114953e-14
    vertex 684.1993801234744 132.22226774851296 4.499999999999947
    vertex 629.1993801234745 132.22226774851296 4.499999999999947
  endloop
endfacet
facet normal -3.259344416407561e-15 4.387500062780527e-17 -1.0
  outer loop
    vertex 690.3993801234755 157.92226774851298 -4.727876231126213e-13
    vertex 629.1993801234745 132.22226774851296 -6.767919558114953e-14
    vertex 622.9993801234748 157.92226774851295 -4.809891526320337e-14
  endloop
endfacet
facet normal -3.259344416407561e-15 4.387500062780527e-17 -1.0
  outer loop
    vertex 629.1993801234745 132.22226774851296 -6.767919558114953e-14
    vertex 690.3993801234755 157.92226774851298 -4.727876231126213e-13
    vertex 684.1993801234744 132.22226774851296 -6.767919558114953e-14
  endloop
endfacet
facet normal -3.259344416407561e-15 4.387500062780527e-17 -1.0
  outer loop
    vertex 684.1993801234744 132.22226774851296 -6.767919558114953e-14
    vertex 690.3993801234755 157.92226774851298 -4.727876231126213e-13
    vertex 684.1993801234744 36.222267748513026 -6.767919558114953e-14
  endloop
endfacet
facet normal -3.259344416407561e-15 4.387500062780527e-17 -1.0
  outer loop
    vertex 684.1993801234744 36.222267748513026 -6.767919558114953e-14
    vertex 690.3993801234755 157.92226774851298 -4.727876231126213e-13
    vertex 690.3993801234748 10.522267748513064 -4.809871165894462e-13
  endloop
endfacet
facet normal -3.259344416407561e-15 4.387500062780527e-17 -1.0
  outer loop
    vertex 690.3993801234748 10.522267748513064 -4.809871165894462e-13
    vertex 690.3993801234755 157.92226774851298 -4.727876231126213e-13
    vertex 690.3993801234755 125.22226774851298 -4.727876231126213e-13
  endloop
endfacet
facet normal -3.259344416407561e-15 4.387500062780527e-17 -1.0
  outer loop
    vertex 690.3993801234748 10.522267748513064 -4.809871165894462e-13
    vertex 690.3993801234755 125.22226774851298 -4.727876231126213e-13
    vertex 690.3993801234758 43.22226774851305 -4.806725231816867e-13
  endloop
endfacet
facet normal -3.259344416407561e-15 4.387500062780527e-17 -1.0
  outer loop
    vertex 690.3993801234758 43.22226774851305 -4.806725231816867e-13
    vertex 690.3993801234755 125.22226774851298 -4.727876231126213e-13
    vertex 695.399380123475 125.22226774851302 5.326476976065081e-14
  endloop
endfacet
facet normal -3.259344416407561e-15 4.387500062780527e-17 -1.0
  outer loop
    vertex 690.3993801234758 43.22226774851305 -4.806725231816867e-13
    vertex 695.399380123475 125.22226774851302 5.326476976065081e-14
    vertex 695.3993801234758 43.22226774851305 5.3579363168410215e-14
  endloop
endfacet
facet normal -3.259344416407561e-15 4.387500062780527e-17 -1.0
  outer loop
    vertex 622.9993801234745 125.22226774851298 -4.8098915263202593e-14
    vertex 617.9993801234745 43.22226774851303 -5.357936316841005e-14
    vertex 617.9993801234745 125.22226774851298 -5.357936316841005e-14
  endloop
endfacet
facet normal -3.259344416407561e-15 4.387500062780527e-17 -1.0
  outer loop
    vertex 617.9993801234745 43.22226774851303 -5.357936316841005e-14
    vertex 622.9993801234745 125.22226774851298 -4.8098915263202593e-14
    vertex 622.9993801234745 43.22226774851303 -5.357936316841005e-14
  endloop
endfacet
facet normal -3.259344416407561e-15 4.387500062780527e-17 -1.0
  outer loop
    vertex 622.9993801234745 43.22226774851303 -5.357936316841005e-14
    vertex 622.9993801234745 125.22226774851298 -4.8098915263202593e-14
    vertex 622.9993801234748 157.92226774851295 -4.809891526320337e-14
  endloop
endfacet
facet normal -3.259344416407561e-15 4.387500062780527e-17 -1.0
  outer loop
    vertex 622.9993801234745 43.22226774851303 -5.357936316841005e-14
    vertex 622.9993801234748 157.92226774851295 -4.809891526320337e-14
    vertex 622.9993801234745 10.52226774851303 -5.357936316841005e-14
  endloop
endfacet
facet normal -3.259344416407561e-15 4.387500062780527e-17 -1.0
  outer loop
    vertex 622.9993801234745 10.52226774851303 -5.357936316841005e-14
    vertex 622.9993801234748 157.92226774851295 -4.809891526320337e-14
    vertex 629.1993801234745 36.222267748513026 -6.767919558114953e-14
  endloop
endfacet
facet normal -3.259344416407561e-15 4.387500062780527e-17 -1.0
  outer loop
    vertex 622.9993801234745 10.52226774851303 -5.357936316841005e-14
    vertex 629.1993801234745 36.222267748513026 -6.767919558114953e-14
    vertex 690.3993801234748 10.522267748513064 -4.809871165894462e-13
  endloop
endfacet
facet normal -3.259344416407561e-15 4.387500062780527e-17 -1.0
  outer loop
    vertex 629.1993801234745 36.222267748513026 -6.767919558114953e-14
    vertex 622.9993801234748 157.92226774851295 -4.809891526320337e-14
    vertex 629.1993801234745 132.22226774851296 -6.767919558114953e-14
  endloop
endfacet
facet normal -3.259344416407561e-15 4.387500062780527e-17 -1.0
  outer loop
    vertex 690.3993801234748 10.522267748513064 -4.809871165894462e-13
    vertex 629.1993801234745 36.222267748513026 -6.767919558114953e-14
    vertex 684.1993801234744 36.222267748513026 -6.767919558114953e-14
  endloop
endfacet
facet normal 1.8304678577369536e-17 2.6210924844856783e-18 1.0
  outer loop
    vertex 622.9993801234748 26.122267748513003 4.499999999999947
    vertex 629.1993801234745 36.222267748513026 4.499999999999947
    vertex 622.9993801234748 43.22226774851303 4.499999999999947
  endloop
endfacet
facet normal 1.8304678577369536e-17 2.6210924844856783e-18 1.0
  outer loop
    vertex 629.1993801234745 36.222267748513026 4.499999999999947
    vertex 622.9993801234748 26.122267748513003 4.499999999999947
    vertex 690.3993801234748 26.122267748513014 4.499999999999945
  endloop
endfacet
facet normal 1.8304678577369536e-17 2.6210924844856783e-18 1.0
  outer loop
    vertex 622.9993801234748 43.22226774851303 4.499999999999947
    vertex 629.1993801234745 36.222267748513026 4.499999999999947
    vertex 622.9993801234748 125.22226774851298 4.499999999999947
  endloop
endfacet
facet normal 1.8304678577369536e-17 2.6210924844856783e-18 1.0
  outer loop
    vertex 622.9993801234748 125.22226774851298 4.499999999999947
    vertex 629.1993801234745 36.222267748513026 4.499999999999947
    vertex 622.9993801234748 142.32226774851296 4.499999999999947
  endloop
endfacet
facet normal 1.8304678577369536e-17 2.6210924844856783e-18 1.0
  outer loop
    vertex 629.1993801234745 36.222267748513026 4.499999999999947
    vertex 690.3993801234748 26.122267748513014 4.499999999999945
    vertex 684.1993801234744 36.222267748513026 4.499999999999947
  endloop
endfacet
facet normal 1.8304678577369536e-17 2.6210924844856783e-18 1.0
  outer loop
    vertex 684.1993801234744 36.222267748513026 4.499999999999947
    vertex 690.3993801234748 26.122267748513014 4.499999999999945
    vertex 684.1993801234744 132.22226774851296 4.499999999999947
  endloop
endfacet
facet normal 1.8304678577369536e-17 2.6210924844856783e-18 1.0
  outer loop
    vertex 622.9993801234748 142.32226774851296 4.499999999999947
    vertex 629.1993801234745 132.22226774851296 4.499999999999947
    vertex 690.3993801234748 142.32226774851296 4.499999999999944
  endloop
endfacet
facet normal 1.8304678577369536e-17 2.6210924844856783e-18 1.0
  outer loop
    vertex 629.1993801234745 132.22226774851296 4.499999999999947
    vertex 622.9993801234748 142.32226774851296 4.499999999999947
    vertex 629.1993801234745 36.222267748513026 4.499999999999947
  endloop
endfacet
facet normal 1.8304678577369536e-17 2.6210924844856783e-18 1.0
  outer loop
    vertex 690.3993801234748 142.32226774851296 4.499999999999944
    vertex 629.1993801234745 132.22226774851296 4.499999999999947
    vertex 684.1993801234744 132.22226774851296 4.499999999999947
  endloop
endfacet
facet normal 1.8304678577369536e-17 2.6210924844856783e-18 1.0
  outer loop
    vertex 690.3993801234748 142.32226774851296 4.499999999999944
    vertex 684.1993801234744 132.22226774851296 4.499999999999947
    vertex 690.3993801234748 26.122267748513014 4.499999999999945
  endloop
endfacet
facet normal 1.8304678577369536e-17 2.6210924844856783e-18 1.0
  outer loop
    vertex 690.3993801234748 142.32226774851296 4.499999999999944
    vertex 690.3993801234748 26.122267748513014 4.499999999999945
    vertex 690.3993801234748 43.22226774851303 4.499999999999946
  endloop
endfacet
facet normal 1.8304678577369536e-17 2.6210924844856783e-18 1.0
  outer loop
    vertex 690.3993801234748 142.32226774851296 4.499999999999944
    vertex 690.3993801234748 43.22226774851303 4.499999999999946
    vertex 690.3993801234748 125.22226774851298 4.499999999999947
  endloop
endfacet
facet normal -6.694282451152215e-16 1.0 -1.9150676031346507e-31
  outer loop
    vertex 622.9993801234748 157.92226774851295 -4.809891526320337e-14
    vertex 690.3993801234755 157.92226774851298 10.99999999999953
    vertex 690.3993801234755 157.92226774851298 -4.727876231126213e-13
  endloop
endfacet
facet normal -6.694282451152215e-16 1.0 -1.9150676031346507e-31
  outer loop
    vertex 690.3993801234755 157.92226774851298 10.99999999999953
    vertex 622.9993801234748 157.92226774851295 -4.809891526320337e-14
    vertex 622.9993801234748 157.92226774851295 10.999999999999956
  endloop
endfacet
facet normal -1.0 0.0 0.0
  outer loop
    vertex 617.9993801234745 125.22226774851298 10.999999999999837
    vertex 617.9993801234745 43.22226774851303 -5.357936316841005e-14
    vertex 617.9993801234745 43.22226774851303 10.999999999999837
  endloop
endfacet
facet normal -1.0 0.0 0.0
  outer loop
    vertex 617.9993801234745 43.22226774851303 -5.357936316841005e-14
    vertex 617.9993801234745 125.22226774851298 10.999999999999837
    vertex 617.9993801234745 125.22226774851298 -5.357936316841005e-14
  endloop
endfacet
facet normal 1.0 -0.0 -0.0
  outer loop
    vertex 629.1993801234745 132.22226774851296 -6.767919558114953e-14
    vertex 629.1993801234745 36.222267748513026 4.499999999999947
    vertex 629.1993801234745 36.222267748513026 -6.767919558114953e-14
  endloop
endfacet
facet normal 1.0 -0.0 -0.0
  outer loop
    vertex 629.1993801234745 36.222267748513026 4.499999999999947
    vertex 629.1993801234745 132.22226774851296 -6.767919558114953e-14
    vertex 629.1993801234745 132.22226774851296 4.499999999999947
  endloop
endfacet
facet normal -0.0 1.0 -0.0
  outer loop
    vertex 629.1993801234745 36.222267748513026 4.499999999999947
    vertex 684.1993801234744 36.222267748513026 -6.767919558114953e-14
    vertex 629.1993801234745 36.222267748513026 -6.767919558114953e-14
  endloop
endfacet
facet normal -0.0 1.0 -0.0
  outer loop
    vertex 684.1993801234744 36.222267748513026 -6.767919558114953e-14
    vertex 629.1993801234745 36.222267748513026 4.499999999999947
    vertex 684.1993801234744 36.222267748513026 4.499999999999947
  endloop
endfacet
facet normal -0.0 -0.0 1.0
  outer loop
    vertex 690.3993801234736 15.322267748513033 2.999999999999947
    vertex 622.9993801234745 25.622267748513014 2.999999999999947
    vertex 622.9993801234745 15.322267748513033 2.999999999999947
  endloop
endfacet
facet normal -0.0 -0.0 1.0
  outer loop
    vertex 622.9993801234745 25.622267748513014 2.999999999999947
    vertex 690.3993801234736 15.322267748513033 2.999999999999947
    vertex 690.3993801234736 25.622267748513014 2.999999999999947
  endloop
endfacet
facet normal -2.1306413423694944e-14 7.548003795642182e-32 1.0
  outer loop
    vertex 695.3993801234747 43.22226774851305 10.999999999999636
    vertex 690.8993801234747 125.22226774851298 10.99999999999954
    vertex 690.8993801234747 43.22226774851303 10.99999999999954
  endloop
endfacet
facet normal -2.1306413423694944e-14 7.548003795642182e-32 1.0
  outer loop
    vertex 690.8993801234747 125.22226774851298 10.99999999999954
    vertex 695.3993801234747 43.22226774851305 10.999999999999636
    vertex 695.3993801234747 125.22226774851302 10.999999999999636
  endloop
endfacet
facet normal 1.0 -0.0 -0.0
  outer loop
    vertex 622.9993801234748 125.22226774851298 4.499999999999947
    vertex 622.9993801234748 43.22226774851303 10.499999999999837
    vertex 622.9993801234748 43.22226774851303 4.499999999999947
  endloop
endfacet
facet normal 1.0 -0.0 -0.0
  outer loop
    vertex 622.9993801234748 43.22226774851303 10.499999999999837
    vertex 622.9993801234748 125.22226774851298 4.499999999999947
    vertex 622.9993801234748 125.22226774851298 10.499999999999837
  endloop
endfacet
facet normal -2.5103559191822064e-16 1.0 -2.2559731860383552e-15
  outer loop
    vertex 622.9993801234745 15.322267748513033 10.499999999999945
    vertex 690.3993801234736 15.322267748513033 2.999999999999947
    vertex 622.9993801234745 15.322267748513033 2.999999999999947
  endloop
endfacet
facet normal -2.5103559191822064e-16 1.0 -2.2559731860383552e-15
  outer loop
    vertex 690.3993801234736 15.322267748513033 2.999999999999947
    vertex 622.9993801234745 15.322267748513033 10.499999999999945
    vertex 690.3993801234715 15.322267748513067 10.499999999999515
  endloop
endfacet
facet normal 1.6090871335522641e-15 -1.0 -5.387554791604131e-16
  outer loop
    vertex 695.3993801234758 43.22226774851305 5.3579363168410215e-14
    vertex 690.3993801234748 43.22226774851303 4.499999999999946
    vertex 690.3993801234758 43.22226774851305 -4.806725231816867e-13
  endloop
endfacet
facet normal 1.6090871335522641e-15 -1.0 -5.387554791604131e-16
  outer loop
    vertex 690.3993801234748 43.22226774851303 4.499999999999946
    vertex 695.3993801234758 43.22226774851305 5.3579363168410215e-14
    vertex 695.3993801234747 43.22226774851305 10.999999999999636
  endloop
endfacet
facet normal 1.6090871335522641e-15 -1.0 -5.387554791604131e-16
  outer loop
    vertex 690.3993801234748 43.22226774851303 4.499999999999946
    vertex 695.3993801234747 43.22226774851305 10.999999999999636
    vertex 690.3993801234743 43.22226774851303 10.499999999999527
  endloop
endfacet
facet normal 1.6090871335522641e-15 -1.0 -5.387554791604131e-16
  outer loop
    vertex 690.3993801234743 43.22226774851303 10.499999999999527
    vertex 695.3993801234747 43.22226774851305 10.999999999999636
    vertex 690.8993801234747 43.22226774851303 10.99999999999954
  endloop
endfacet
facet normal -0.0 -0.0 1.0
  outer loop
    vertex 690.3993801234748 142.82226774851296 2.9999999999999463
    vertex 622.9993801234748 153.12226774851294 2.9999999999999463
    vertex 622.9993801234748 142.82226774851296 2.9999999999999463
  endloop
endfacet
facet normal -0.0 -0.0 1.0
  outer loop
    vertex 622.9993801234748 153.12226774851294 2.9999999999999463
    vertex 690.3993801234748 142.82226774851296 2.9999999999999463
    vertex 690.3993801234748 153.12226774851294 2.9999999999999463
  endloop
endfacet
facet normal -0.0 1.0 -0.0
  outer loop
    vertex 622.9993801234748 142.82226774851296 3.9999999999999467
    vertex 690.3993801234748 142.82226774851296 2.9999999999999463
    vertex 622.9993801234748 142.82226774851296 2.9999999999999463
  endloop
endfacet
facet normal -0.0 1.0 -0.0
  outer loop
    vertex 690.3993801234748 142.82226774851296 2.9999999999999463
    vertex 622.9993801234748 142.82226774851296 3.9999999999999467
    vertex 690.3993801234748 142.82226774851296 3.999999999999944
  endloop
endfacet
facet normal -1.0 4.575430384213403e-15 5.585084541097578e-15
  outer loop
    vertex 622.9993801234748 153.62226774851294 10.999999999999956
    vertex 622.9993801234748 153.12226774851294 2.9999999999999463
    vertex 622.9993801234748 153.12226774851294 10.499999999999956
  endloop
endfacet
facet normal -1.0 4.575430384213403e-15 5.585084541097578e-15
  outer loop
    vertex 622.9993801234748 142.32226774851296 4.499999999999947
    vertex 622.9993801234745 125.22226774851298 -4.8098915263202593e-14
    vertex 622.9993801234748 125.22226774851298 4.499999999999947
  endloop
endfacet
facet normal -1.0 4.575430384213403e-15 5.585084541097578e-15
  outer loop
    vertex 622.9993801234745 125.22226774851298 -4.8098915263202593e-14
    vertex 622.9993801234748 142.32226774851296 4.499999999999947
    vertex 622.9993801234748 142.82226774851296 2.9999999999999463
  endloop
endfacet
facet normal -1.0 4.575430384213403e-15 5.585084541097578e-15
  outer loop
    vertex 622.9993801234745 125.22226774851298 -4.8098915263202593e-14
    vertex 622.9993801234748 142.82226774851296 2.9999999999999463
    vertex 622.9993801234748 157.92226774851295 -4.809891526320337e-14
  endloop
endfacet
facet normal -1.0 4.575430384213403e-15 5.585084541097578e-15
  outer loop
    vertex 622.9993801234748 142.82226774851296 2.9999999999999463
    vertex 622.9993801234748 142.32226774851296 4.499999999999947
    vertex 622.9993801234748 142.82226774851296 3.9999999999999467
  endloop
endfacet
facet normal -1.0 4.575430384213403e-15 5.585084541097578e-15
  outer loop
    vertex 622.9993801234748 157.92226774851295 -4.809891526320337e-14
    vertex 622.9993801234748 142.82226774851296 2.9999999999999463
    vertex 622.9993801234748 153.12226774851294 2.9999999999999463
  endloop
endfacet
facet normal -1.0 4.575430384213403e-15 5.585084541097578e-15
  outer loop
    vertex 622.9993801234748 157.92226774851295 -4.809891526320337e-14
    vertex 622.9993801234748 153.12226774851294 2.9999999999999463
    vertex 622.9993801234748 153.62226774851294 10.999999999999956
  endloop
endfacet
facet normal -1.0 4.575430384213403e-15 5.585084541097578e-15
  outer loop
    vertex 622.9993801234748 157.92226774851295 -4.809891526320337e-14
    vertex 622.9993801234748 153.62226774851294 10.999999999999956
    vertex 622.9993801234748 157.92226774851295 10.999999999999956
  endloop
endfacet
facet normal -9.181304110879992e-15 1.0 1.4645780015959982e-16
  outer loop
    vertex 690.3993801234748 125.22226774851298 4.499999999999947
    vertex 695.399380123475 125.22226774851302 5.326476976065081e-14
    vertex 690.3993801234755 125.22226774851298 -4.727876231126213e-13
  endloop
endfacet
facet normal -9.181304110879992e-15 1.0 1.4645780015959982e-16
  outer loop
    vertex 695.399380123475 125.22226774851302 5.326476976065081e-14
    vertex 690.3993801234748 125.22226774851298 4.499999999999947
    vertex 695.3993801234747 125.22226774851302 10.999999999999636
  endloop
endfacet
facet normal -9.181304110879992e-15 1.0 1.4645780015959982e-16
  outer loop
    vertex 695.3993801234747 125.22226774851302 10.999999999999636
    vertex 690.3993801234748 125.22226774851298 4.499999999999947
    vertex 690.3993801234743 125.22226774851298 10.499999999999527
  endloop
endfacet
facet normal -9.181304110879992e-15 1.0 1.4645780015959982e-16
  outer loop
    vertex 695.3993801234747 125.22226774851302 10.999999999999636
    vertex 690.3993801234743 125.22226774851298 10.499999999999527
    vertex 690.8993801234747 125.22226774851298 10.99999999999954
  endloop
endfacet
facet normal 0.0 -1.0 0.0
  outer loop
    vertex 690.3993801234736 25.622267748513014 3.9999999999999454
    vertex 622.9993801234745 25.622267748513014 2.999999999999947
    vertex 690.3993801234736 25.622267748513014 2.999999999999947
  endloop
endfacet
facet normal 0.0 -1.0 0.0
  outer loop
    vertex 622.9993801234745 25.622267748513014 2.999999999999947
    vertex 690.3993801234736 25.622267748513014 3.9999999999999454
    vertex 622.9993801234745 25.622267748513014 3.999999999999944
  endloop
endfacet
facet normal 1.0 -2.756564589124712e-14 1.744837917533345e-13
  outer loop
    vertex 690.3993801234748 10.522267748513064 -4.809871165894462e-13
    vertex 690.3993801234736 15.322267748513033 2.999999999999947
    vertex 690.3993801234748 10.522267748513064 10.999999999999517
  endloop
endfacet
facet normal 1.0 -2.756564589124712e-14 1.744837917533345e-13
  outer loop
    vertex 690.3993801234736 15.322267748513033 2.999999999999947
    vertex 690.3993801234748 10.522267748513064 -4.809871165894462e-13
    vertex 690.3993801234758 43.22226774851305 -4.806725231816867e-13
  endloop
endfacet
facet normal 1.0 -2.756564589124712e-14 1.744837917533345e-13
  outer loop
    vertex 690.3993801234748 10.522267748513064 10.999999999999517
    vertex 690.3993801234736 15.322267748513033 2.999999999999947
    vertex 690.3993801234718 14.822267748513068 10.999999999999517
  endloop
endfacet
facet normal 1.0 -2.756564589124712e-14 1.744837917533345e-13
  outer loop
    vertex 690.3993801234736 15.322267748513033 2.999999999999947
    vertex 690.3993801234758 43.22226774851305 -4.806725231816867e-13
    vertex 690.3993801234736 25.622267748513014 2.999999999999947
  endloop
endfacet
facet normal 1.0 -2.756564589124712e-14 1.744837917533345e-13
  outer loop
    vertex 690.3993801234736 25.622267748513014 2.999999999999947
    vertex 690.3993801234758 43.22226774851305 -4.806725231816867e-13
    vertex 690.3993801234736 25.622267748513014 3.9999999999999454
  endloop
endfacet
facet normal 1.0 -2.756564589124712e-14 1.744837917533345e-13
  outer loop
    vertex 690.3993801234736 25.622267748513014 3.9999999999999454
    vertex 690.3993801234758 43.22226774851305 -4.806725231816867e-13
    vertex 690.3993801234748 26.122267748513014 4.499999999999945
  endloop
endfacet
facet normal 1.0 -2.756564589124712e-14 1.744837917533345e-13
  outer loop
    vertex 690.3993801234748 26.122267748513014 4.499999999999945
    vertex 690.3993801234758 43.22226774851305 -4.806725231816867e-13
    vertex 690.3993801234748 43.22226774851303 4.499999999999946
  endloop
endfacet
facet normal 1.0 -2.756564589124712e-14 1.744837917533345e-13
  outer loop
    vertex 690.3993801234715 15.322267748513067 10.499999999999515
    vertex 690.3993801234718 14.822267748513068 10.999999999999517
    vertex 690.3993801234736 15.322267748513033 2.999999999999947
  endloop
endfacet
facet normal -1.0 7.307400632201785e-15 6.555298935192114e-15
  outer loop
    vertex 622.9993801234748 26.122267748513003 4.499999999999947
    vertex 622.9993801234745 25.622267748513014 2.999999999999947
    vertex 622.9993801234745 25.622267748513014 3.999999999999944
  endloop
endfacet
facet normal -1.0 7.307400632201785e-15 6.555298935192114e-15
  outer loop
    vertex 622.9993801234745 14.822267748513035 10.999999999999945
    vertex 622.9993801234745 10.52226774851303 -5.357936316841005e-14
    vertex 622.9993801234745 10.52226774851303 10.999999999999947
  endloop
endfacet
facet normal -1.0 7.307400632201785e-15 6.555298935192114e-15
  outer loop
    vertex 622.9993801234745 10.52226774851303 -5.357936316841005e-14
    vertex 622.9993801234745 14.822267748513035 10.999999999999945
    vertex 622.9993801234745 15.322267748513033 2.999999999999947
  endloop
endfacet
facet normal -1.0 7.307400632201785e-15 6.555298935192114e-15
  outer loop
    vertex 622.9993801234745 10.52226774851303 -5.357936316841005e-14
    vertex 622.9993801234745 15.322267748513033 2.999999999999947
    vertex 622.9993801234745 43.22226774851303 -5.357936316841005e-14
  endloop
endfacet
facet normal -1.0 7.307400632201785e-15 6.555298935192114e-15
  outer loop
    vertex 622.9993801234745 15.322267748513033 2.999999999999947
    vertex 622.9993801234745 14.822267748513035 10.999999999999945
    vertex 622.9993801234745 15.322267748513033 10.499999999999945
  endloop
endfacet
facet normal -1.0 7.307400632201785e-15 6.555298935192114e-15
  outer loop
    vertex 622.9993801234745 43.22226774851303 -5.357936316841005e-14
    vertex 622.9993801234745 15.322267748513033 2.999999999999947
    vertex 622.9993801234745 25.622267748513014 2.999999999999947
  endloop
endfacet
facet normal -1.0 7.307400632201785e-15 6.555298935192114e-15
  outer loop
    vertex 622.9993801234745 43.22226774851303 -5.357936316841005e-14
    vertex 622.9993801234745 25.622267748513014 2.999999999999947
    vertex 622.9993801234748 26.122267748513003 4.499999999999947
  endloop
endfacet
facet normal -1.0 7.307400632201785e-15 6.555298935192114e-15
  outer loop
    vertex 622.9993801234745 43.22226774851303 -5.357936316841005e-14
    vertex 622.9993801234748 26.122267748513003 4.499999999999947
    vertex 622.9993801234748 43.22226774851303 4.499999999999947
  endloop
endfacet
facet normal 0.0 -1.0 0.0
  outer loop
    vertex 622.9993801234748 43.22226774851303 4.499999999999947
    vertex 617.9993801234745 43.22226774851303 -5.357936316841005e-14
    vertex 622.9993801234745 43.22226774851303 -5.357936316841005e-14
  endloop
endfacet
facet normal 0.0 -1.0 0.0
  outer loop
    vertex 617.9993801234745 43.22226774851303 -5.357936316841005e-14
    vertex 622.9993801234748 43.22226774851303 4.499999999999947
    vertex 617.9993801234745 43.22226774851303 10.999999999999837
  endloop
endfacet
facet normal 0.0 -1.0 0.0
  outer loop
    vertex 617.9993801234745 43.22226774851303 10.999999999999837
    vertex 622.9993801234748 43.22226774851303 4.499999999999947
    vertex 622.9993801234748 43.22226774851303 10.499999999999837
  endloop
endfacet
facet normal 0.0 -1.0 0.0
  outer loop
    vertex 617.9993801234745 43.22226774851303 10.999999999999837
    vertex 622.9993801234748 43.22226774851303 10.499999999999837
    vertex 622.4993801234746 43.22226774851303 10.999999999999837
  endloop
endfacet
facet normal 5.923001126021078e-17 -0.707106781186553 0.7071067811865421
  outer loop
    vertex 690.3993801234736 25.622267748513014 3.9999999999999454
    vertex 622.9993801234748 26.122267748513003 4.499999999999947
    vertex 622.9993801234745 25.622267748513014 3.999999999999944
  endloop
endfacet
facet normal 5.923001126021078e-17 -0.707106781186553 0.7071067811865421
  outer loop
    vertex 622.9993801234748 26.122267748513003 4.499999999999947
    vertex 690.3993801234736 25.622267748513014 3.9999999999999454
    vertex 690.3993801234748 26.122267748513014 4.499999999999945
  endloop
endfacet
facet normal -0.0 1.0 -0.0
  outer loop
    vertex 617.9993801234745 125.22226774851298 10.999999999999837
    vertex 622.9993801234745 125.22226774851298 -4.8098915263202593e-14
    vertex 617.9993801234745 125.22226774851298 -5.357936316841005e-14
  endloop
endfacet
facet normal -0.0 1.0 -0.0
  outer loop
    vertex 622.9993801234745 125.22226774851298 -4.8098915263202593e-14
    vertex 617.9993801234745 125.22226774851298 10.999999999999837
    vertex 622.9993801234748 125.22226774851298 4.499999999999947
  endloop
endfacet
facet normal -0.0 1.0 -0.0
  outer loop
    vertex 622.9993801234748 125.22226774851298 4.499999999999947
    vertex 617.9993801234745 125.22226774851298 10.999999999999837
    vertex 622.9993801234748 125.22226774851298 10.499999999999837
  endloop
endfacet
facet normal -0.0 1.0 -0.0
  outer loop
    vertex 622.9993801234748 125.22226774851298 10.499999999999837
    vertex 617.9993801234745 125.22226774851298 10.999999999999837
    vertex 622.4993801234746 125.22226774851298 10.999999999999837
  endloop
endfacet
facet normal 1.0 4.401898899586963e-15 6.562831086657175e-14
  outer loop
    vertex 695.399380123475 125.22226774851302 5.326476976065081e-14
    vertex 695.3993801234747 43.22226774851305 10.999999999999636
    vertex 695.3993801234758 43.22226774851305 5.3579363168410215e-14
  endloop
endfacet
facet normal 1.0 4.401898899586963e-15 6.562831086657175e-14
  outer loop
    vertex 695.3993801234747 43.22226774851305 10.999999999999636
    vertex 695.399380123475 125.22226774851302 5.326476976065081e-14
    vertex 695.3993801234747 125.22226774851302 10.999999999999636
  endloop
endfacet
facet normal 1.0 -4.2839839854269346e-15 1.756048588411429e-13
  outer loop
    vertex 690.3993801234755 157.92226774851298 -4.727876231126213e-13
    vertex 690.3993801234748 125.22226774851298 4.499999999999947
    vertex 690.3993801234755 125.22226774851298 -4.727876231126213e-13
  endloop
endfacet
facet normal 1.0 -4.2839839854269346e-15 1.756048588411429e-13
  outer loop
    vertex 690.3993801234748 125.22226774851298 4.499999999999947
    vertex 690.3993801234755 157.92226774851298 -4.727876231126213e-13
    vertex 690.3993801234748 142.82226774851296 2.9999999999999463
  endloop
endfacet
facet normal 1.0 -4.2839839854269346e-15 1.756048588411429e-13
  outer loop
    vertex 690.3993801234748 125.22226774851298 4.499999999999947
    vertex 690.3993801234748 142.82226774851296 2.9999999999999463
    vertex 690.3993801234748 142.32226774851296 4.499999999999944
  endloop
endfacet
facet normal 1.0 -4.2839839854269346e-15 1.756048588411429e-13
  outer loop
    vertex 690.3993801234748 142.82226774851296 2.9999999999999463
    vertex 690.3993801234755 157.92226774851298 -4.727876231126213e-13
    vertex 690.3993801234748 153.12226774851294 2.9999999999999463
  endloop
endfacet
facet normal 1.0 -4.2839839854269346e-15 1.756048588411429e-13
  outer loop
    vertex 690.3993801234748 153.12226774851294 2.9999999999999463
    vertex 690.3993801234755 157.92226774851298 -4.727876231126213e-13
    vertex 690.3993801234725 153.122267748513 10.49999999999953
  endloop
endfacet
facet normal 1.0 -4.2839839854269346e-15 1.756048588411429e-13
  outer loop
    vertex 690.3993801234725 153.122267748513 10.49999999999953
    vertex 690.3993801234755 157.92226774851298 -4.727876231126213e-13
    vertex 690.3993801234725 153.62226774851297 10.99999999999953
  endloop
endfacet
facet normal 1.0 -4.2839839854269346e-15 1.756048588411429e-13
  outer loop
    vertex 690.3993801234725 153.62226774851297 10.99999999999953
    vertex 690.3993801234755 157.92226774851298 -4.727876231126213e-13
    vertex 690.3993801234755 157.92226774851298 10.99999999999953
  endloop
endfacet
facet normal 1.0 -4.2839839854269346e-15 1.756048588411429e-13
  outer loop
    vertex 690.3993801234748 142.82226774851296 3.999999999999944
    vertex 690.3993801234748 142.32226774851296 4.499999999999944
    vertex 690.3993801234748 142.82226774851296 2.9999999999999463
  endloop
endfacet
facet normal 2.961500563010367e-17 0.707106781186564 0.7071067811865311
  outer loop
    vertex 622.9993801234748 142.82226774851296 3.9999999999999467
    vertex 690.3993801234748 142.32226774851296 4.499999999999944
    vertex 690.3993801234748 142.82226774851296 3.999999999999944
  endloop
endfacet
facet normal 2.961500563010367e-17 0.707106781186564 0.7071067811865311
  outer loop
    vertex 690.3993801234748 142.32226774851296 4.499999999999944
    vertex 622.9993801234748 142.82226774851296 3.9999999999999467
    vertex 622.9993801234748 142.32226774851296 4.499999999999947
  endloop
endfacet
facet normal 6.359568328594773e-15 3.27903079368165e-16 1.0
  outer loop
    vertex 690.3993801234748 10.522267748513064 10.999999999999517
    vertex 622.9993801234745 14.822267748513035 10.999999999999945
    vertex 622.9993801234745 10.52226774851303 10.999999999999947
  endloop
endfacet
facet normal 6.359568328594773e-15 3.27903079368165e-16 1.0
  outer loop
    vertex 622.9993801234745 14.822267748513035 10.999999999999945
    vertex 690.3993801234748 10.522267748513064 10.999999999999517
    vertex 690.3993801234718 14.822267748513068 10.999999999999517
  endloop
endfacet
facet normal -0.7071067811863809 8.36267444549071e-34 0.7071067811867141
  outer loop
    vertex 690.8993801234747 43.22226774851303 10.99999999999954
    vertex 690.3993801234743 125.22226774851298 10.499999999999527
    vertex 690.3993801234743 43.22226774851303 10.499999999999527
  endloop
endfacet
facet normal -0.7071067811863809 8.36267444549071e-34 0.7071067811867141
  outer loop
    vertex 690.3993801234743 125.22226774851298 10.499999999999527
    vertex 690.8993801234747 43.22226774851303 10.99999999999954
    vertex 690.8993801234747 125.22226774851298 10.99999999999954
  endloop
endfacet
facet normal 3.3471412255762384e-16 -1.0 3.0079642480511358e-15
  outer loop
    vertex 690.3993801234725 153.122267748513 10.49999999999953
    vertex 622.9993801234748 153.12226774851294 2.9999999999999463
    vertex 690.3993801234748 153.12226774851294 2.9999999999999463
  endloop
endfacet
facet normal 3.3471412255762384e-16 -1.0 3.0079642480511358e-15
  outer loop
    vertex 622.9993801234748 153.12226774851294 2.9999999999999463
    vertex 690.3993801234725 153.122267748513 10.49999999999953
    vertex 622.9993801234748 153.12226774851294 10.499999999999956
  endloop
endfacet
facet normal 0.707106781186373 -8.362674445490804e-34 0.707106781186722
  outer loop
    vertex 622.9993801234748 43.22226774851303 10.499999999999837
    vertex 622.4993801234746 125.22226774851298 10.999999999999837
    vertex 622.4993801234746 43.22226774851303 10.999999999999837
  endloop
endfacet
facet normal 0.707106781186373 -8.362674445490804e-34 0.707106781186722
  outer loop
    vertex 622.4993801234746 125.22226774851298 10.999999999999837
    vertex 622.9993801234748 43.22226774851303 10.499999999999837
    vertex 622.9993801234748 125.22226774851298 10.499999999999837
  endloop
endfacet
facet normal 4.1420940521591e-15 0.7071067811865486 0.7071067811865466
  outer loop
    vertex 622.9993801234745 15.322267748513033 10.499999999999945
    vertex 690.3993801234718 14.822267748513068 10.999999999999517
    vertex 690.3993801234715 15.322267748513067 10.499999999999515
  endloop
endfacet
facet normal 4.1420940521591e-15 0.7071067811865486 0.7071067811865466
  outer loop
    vertex 690.3993801234718 14.822267748513068 10.999999999999517
    vertex 622.9993801234745 15.322267748513033 10.499999999999945
    vertex 622.9993801234745 14.822267748513035 10.999999999999945
  endloop
endfacet
facet normal 4.9479706171287795e-15 -0.707106781186564 0.7071067811865311
  outer loop
    vertex 690.3993801234725 153.62226774851297 10.99999999999953
    vertex 622.9993801234748 153.12226774851294 10.499999999999956
    vertex 690.3993801234725 153.122267748513 10.49999999999953
  endloop
endfacet
facet normal 4.9479706171287795e-15 -0.707106781186564 0.7071067811865311
  outer loop
    vertex 622.9993801234748 153.12226774851294 10.499999999999956
    vertex 690.3993801234725 153.62226774851297 10.99999999999953
    vertex 622.9993801234748 153.62226774851294 10.999999999999956
  endloop
endfacet
facet normal -0.0 -0.0 1.0
  outer loop
    vertex 622.4993801234746 43.22226774851303 10.999999999999837
    vertex 617.9993801234745 125.22226774851298 10.999999999999837
    vertex 617.9993801234745 43.22226774851303 10.999999999999837
  endloop
endfacet
facet normal -0.0 -0.0 1.0
  outer loop
    vertex 617.9993801234745 125.22226774851298 10.999999999999837
    vertex 622.4993801234746 43.22226774851303 10.999999999999837
    vertex 622.4993801234746 125.22226774851298 10.999999999999837
  endloop
endfacet
facet normal -1.0 1.6021111120557662e-31 -6.015928496102601e-14
  outer loop
    vertex 690.3993801234743 125.22226774851298 10.499999999999527
    vertex 690.3993801234748 43.22226774851303 4.499999999999946
    vertex 690.3993801234743 43.22226774851303 10.499999999999527
  endloop
endfacet
facet normal -1.0 1.6021111120557662e-31 -6.015928496102601e-14
  outer loop
    vertex 690.3993801234748 43.22226774851303 4.499999999999946
    vertex 690.3993801234743 125.22226774851298 10.499999999999527
    vertex 690.3993801234748 125.22226774851298 4.499999999999947
  endloop
endfacet
endsolid Codelock
