solid Codelock
facet normal -1.0 0.0 0.0
  outer loop
    vertex 375.53226445979254 76.50606685027287 5.104882854735386
    vertex 375.53226445979254 23.50606685027283 3.404882854735386
    vertex 375.53226445979254 23.50606685027283 5.104882854735386
  endloop
endfacet
facet normal -1.0 0.0 0.0
  outer loop
    vertex 375.53226445979254 23.50606685027283 3.404882854735386
    vertex 375.53226445979254 76.50606685027287 5.104882854735386
    vertex 375.53226445979254 76.50606685027287 3.404882854735386
  endloop
endfacet
facet normal 1.0 0.0 0.0
  outer loop
    vertex 375.53226445979254 148.00606685027276 3.404882854735385
    vertex 375.53226445979254 95.00606685027287 5.104882854735384
    vertex 375.53226445979254 95.00606685027287 3.404882854735385
  endloop
endfacet
facet normal 1.0 0.0 0.0
  outer loop
    vertex 375.53226445979254 95.00606685027287 5.104882854735384
    vertex 375.53226445979254 148.00606685027276 3.404882854735385
    vertex 375.53226445979254 148.00606685027276 5.104882854735384
  endloop
endfacet
facet normal -1.0 0.0 0.0
  outer loop
    vertex 377.03226445979254 78.00606685027286 3.104882854735386
    vertex 377.03226445979254 22.006066850272838 1.904882854735386
    vertex 377.03226445979254 22.006066850272838 3.104882854735386
  endloop
endfacet
facet normal -1.0 0.0 0.0
  outer loop
    vertex 377.03226445979254 22.006066850272838 1.904882854735386
    vertex 377.03226445979254 78.00606685027286 3.104882854735386
    vertex 377.03226445979254 78.00606685027286 1.904882854735386
  endloop
endfacet
facet normal 1.0 0.0 0.0
  outer loop
    vertex 322.5322644597925 76.50606685027287 3.404882854735386
    vertex 322.5322644597925 23.50606685027283 5.104882854735386
    vertex 322.5322644597925 23.50606685027283 3.404882854735386
  endloop
endfacet
facet normal 1.0 0.0 0.0
  outer loop
    vertex 322.5322644597925 23.50606685027283 5.104882854735386
    vertex 322.5322644597925 76.50606685027287 3.404882854735386
    vertex 322.5322644597925 76.50606685027287 5.104882854735386
  endloop
endfacet
facet normal 0.0 -1.0 0.0
  outer loop
    vertex 377.03226445979254 149.50606685027273 3.104882854735386
    vertex 321.0322644597925 149.50606685027273 1.904882854735386
    vertex 377.03226445979254 149.50606685027273 1.904882854735386
  endloop
endfacet
facet normal 0.0 -1.0 0.0
  outer loop
    vertex 321.0322644597925 149.50606685027273 1.904882854735386
    vertex 377.03226445979254 149.50606685027273 3.104882854735386
    vertex 321.0322644597925 149.50606685027273 3.104882854735386
  endloop
endfacet
facet normal 0.0 -1.0 0.0
  outer loop
    vertex 375.53226445979254 95.00606685027287 5.104882854735384
    vertex 322.5322644597925 95.00606685027287 3.404882854735385
    vertex 375.53226445979254 95.00606685027287 3.404882854735385
  endloop
endfacet
facet normal 0.0 -1.0 0.0
  outer loop
    vertex 322.5322644597925 95.00606685027287 3.404882854735385
    vertex 375.53226445979254 95.00606685027287 5.104882854735384
    vertex 322.5322644597925 95.00606685027287 5.104882854735384
  endloop
endfacet
facet normal 0.0 1.0 0.0
  outer loop
    vertex 321.0322644597925 93.50606685027286 3.104882854735386
    vertex 377.03226445979254 93.50606685027286 1.904882854735386
    vertex 321.0322644597925 93.50606685027286 1.904882854735386
  endloop
endfacet
facet normal 0.0 1.0 0.0
  outer loop
    vertex 377.03226445979254 93.50606685027286 1.904882854735386
    vertex 321.0322644597925 93.50606685027286 3.104882854735386
    vertex 377.03226445979254 93.50606685027286 3.104882854735386
  endloop
endfacet
facet normal 0.0 -1.0 0.0
  outer loop
    vertex 375.53226445979254 76.50606685027287 5.104882854735386
    vertex 322.5322644597925 76.50606685027287 3.404882854735386
    vertex 375.53226445979254 76.50606685027287 3.404882854735386
  endloop
endfacet
facet normal 0.0 -1.0 0.0
  outer loop
    vertex 322.5322644597925 76.50606685027287 3.404882854735386
    vertex 375.53226445979254 76.50606685027287 5.104882854735386
    vertex 322.5322644597925 76.50606685027287 5.104882854735386
  endloop
endfacet
facet normal 0.0 0.0 1.0
  outer loop
    vertex 317.8322644597925 19.556066850272824 1.904882854735386
    vertex 321.0322644597925 22.006066850272838 1.904882854735386
    vertex 317.8322644597925 151.95606685027278 1.904882854735386
  endloop
endfacet
facet normal 0.0 0.0 1.0
  outer loop
    vertex 321.0322644597925 22.006066850272838 1.904882854735386
    vertex 317.8322644597925 19.556066850272824 1.904882854735386
    vertex 380.2322644597931 19.556066850272824 1.904882854735386
  endloop
endfacet
facet normal 0.0 0.0 1.0
  outer loop
    vertex 321.0322644597925 22.006066850272838 1.904882854735386
    vertex 380.2322644597931 19.556066850272824 1.904882854735386
    vertex 377.03226445979254 22.006066850272838 1.904882854735386
  endloop
endfacet
facet normal 0.0 0.0 1.0
  outer loop
    vertex 377.03226445979254 22.006066850272838 1.904882854735386
    vertex 380.2322644597931 19.556066850272824 1.904882854735386
    vertex 377.03226445979254 78.00606685027286 1.904882854735386
  endloop
endfacet
facet normal 0.0 0.0 1.0
  outer loop
    vertex 377.03226445979254 78.00606685027286 1.904882854735386
    vertex 380.2322644597931 19.556066850272824 1.904882854735386
    vertex 377.03226445979254 93.50606685027286 1.904882854735386
  endloop
endfacet
facet normal 0.0 0.0 1.0
  outer loop
    vertex 377.03226445979254 93.50606685027286 1.904882854735386
    vertex 380.2322644597931 19.556066850272824 1.904882854735386
    vertex 377.03226445979254 149.50606685027273 1.904882854735386
  endloop
endfacet
facet normal 0.0 0.0 1.0
  outer loop
    vertex 317.8322644597925 151.95606685027278 1.904882854735386
    vertex 321.0322644597925 149.50606685027273 1.904882854735386
    vertex 380.2322644597931 151.95606685027278 1.904882854735386
  endloop
endfacet
facet normal 0.0 0.0 1.0
  outer loop
    vertex 321.0322644597925 149.50606685027273 1.904882854735386
    vertex 317.8322644597925 151.95606685027278 1.904882854735386
    vertex 321.0322644597925 22.006066850272838 1.904882854735386
  endloop
endfacet
facet normal 0.0 0.0 1.0
  outer loop
    vertex 321.0322644597925 149.50606685027273 1.904882854735386
    vertex 321.0322644597925 22.006066850272838 1.904882854735386
    vertex 321.0322644597925 78.00606685027286 1.904882854735386
  endloop
endfacet
facet normal 0.0 0.0 1.0
  outer loop
    vertex 321.0322644597925 149.50606685027273 1.904882854735386
    vertex 321.0322644597925 78.00606685027286 1.904882854735386
    vertex 321.0322644597925 93.50606685027286 1.904882854735386
  endloop
endfacet
facet normal 0.0 0.0 1.0
  outer loop
    vertex 380.2322644597931 151.95606685027278 1.904882854735386
    vertex 321.0322644597925 149.50606685027273 1.904882854735386
    vertex 377.03226445979254 149.50606685027273 1.904882854735386
  endloop
endfacet
facet normal 0.0 0.0 1.0
  outer loop
    vertex 380.2322644597931 151.95606685027278 1.904882854735386
    vertex 377.03226445979254 149.50606685027273 1.904882854735386
    vertex 380.2322644597931 19.556066850272824 1.904882854735386
  endloop
endfacet
facet normal 0.0 0.0 1.0
  outer loop
    vertex 377.03226445979254 78.00606685027286 1.904882854735386
    vertex 321.0322644597925 93.50606685027286 1.904882854735386
    vertex 321.0322644597925 78.00606685027286 1.904882854735386
  endloop
endfacet
facet normal 0.0 0.0 1.0
  outer loop
    vertex 321.0322644597925 93.50606685027286 1.904882854735386
    vertex 377.03226445979254 78.00606685027286 1.904882854735386
    vertex 377.03226445979254 93.50606685027286 1.904882854735386
  endloop
endfacet
facet normal -1.0 0.0 0.0
  outer loop
    vertex 374.53226445979277 147.00606685027276 5.404882854735384
    vertex 374.53226445979277 96.00606685027287 0.7048828547353843
    vertex 374.53226445979277 96.00606685027287 5.404882854735384
  endloop
endfacet
facet normal -1.0 0.0 0.0
  outer loop
    vertex 374.53226445979277 96.00606685027287 0.7048828547353843
    vertex 374.53226445979277 147.00606685027276 5.404882854735384
    vertex 374.53226445979277 147.00606685027276 0.7048828547353843
  endloop
endfacet
facet normal 0.0 1.0 0.0
  outer loop
    vertex 322.5322644597925 23.50606685027283 5.104882854735386
    vertex 375.53226445979254 23.50606685027283 3.404882854735386
    vertex 322.5322644597925 23.50606685027283 3.404882854735386
  endloop
endfacet
facet normal 0.0 1.0 0.0
  outer loop
    vertex 375.53226445979254 23.50606685027283 3.404882854735386
    vertex 322.5322644597925 23.50606685027283 5.104882854735386
    vertex 375.53226445979254 23.50606685027283 5.104882854735386
  endloop
endfacet
facet normal -0.7071067811866281 0.0 -0.707106781186467
  outer loop
    vertex 375.2322644597926 23.806066850272828 5.404882854735386
    vertex 375.53226445979254 76.50606685027287 5.104882854735386
    vertex 375.53226445979254 23.50606685027283 5.104882854735386
  endloop
endfacet
facet normal -0.7071067811866281 0.0 -0.707106781186467
  outer loop
    vertex 375.53226445979254 76.50606685027287 5.104882854735386
    vertex 375.2322644597926 23.806066850272828 5.404882854735386
    vertex 375.2322644597926 76.20606685027286 5.404882854735386
  endloop
endfacet
facet normal 0.7071067811866281 0.0 -0.707106781186467
  outer loop
    vertex 322.5322644597925 76.50606685027287 5.104882854735386
    vertex 322.83226445979244 23.806066850272828 5.404882854735386
    vertex 322.5322644597925 23.50606685027283 5.104882854735386
  endloop
endfacet
facet normal 0.7071067811866281 0.0 -0.707106781186467
  outer loop
    vertex 322.83226445979244 23.806066850272828 5.404882854735386
    vertex 322.5322644597925 76.50606685027287 5.104882854735386
    vertex 322.83226445979244 76.20606685027286 5.404882854735386
  endloop
endfacet
facet normal 0.7071067811866306 -0.7071067811864644 -2.2135314691753513e-15
  outer loop
    vertex 380.532264459793 19.55606685027283 0.704882854735386
    vertex 380.2322644597931 19.256066850272827 1.604882854735386
    vertex 380.2322644597931 19.256066850272827 0.704882854735386
  endloop
endfacet
facet normal 0.7071067811866306 -0.7071067811864644 -2.2135314691753513e-15
  outer loop
    vertex 380.2322644597931 19.256066850272827 1.604882854735386
    vertex 380.532264459793 19.55606685027283 0.704882854735386
    vertex 380.532264459793 19.556066850272824 1.604882854735386
  endloop
endfacet
facet normal 0.0 1.0 0.0
  outer loop
    vertex 323.5322644597926 96.00606685027287 5.404882854735384
    vertex 374.53226445979277 96.00606685027287 0.7048828547353843
    vertex 323.5322644597926 96.00606685027287 0.7048828547353843
  endloop
endfacet
facet normal 0.0 1.0 0.0
  outer loop
    vertex 374.53226445979277 96.00606685027287 0.7048828547353843
    vertex 323.5322644597926 96.00606685027287 5.404882854735384
    vertex 374.53226445979277 96.00606685027287 5.404882854735384
  endloop
endfacet
facet normal 0.0 -0.7071067811865219 -0.7071067811865732
  outer loop
    vertex 375.53226445979254 148.00606685027276 5.104882854735384
    vertex 322.83226445979244 147.70606685027275 5.404882854735384
    vertex 322.5322644597925 148.00606685027276 5.104882854735384
  endloop
endfacet
facet normal 0.0 -0.7071067811865219 -0.7071067811865732
  outer loop
    vertex 322.83226445979244 147.70606685027275 5.404882854735384
    vertex 375.53226445979254 148.00606685027276 5.104882854735384
    vertex 375.2322644597926 147.70606685027275 5.404882854735384
  endloop
endfacet
facet normal 0.0 1.0 0.0
  outer loop
    vertex 323.5322644597926 75.50606685027287 5.404882854735386
    vertex 374.53226445979277 75.50606685027287 0.704882854735386
    vertex 323.5322644597926 75.50606685027287 0.704882854735386
  endloop
endfacet
facet normal 0.0 1.0 0.0
  outer loop
    vertex 374.53226445979277 75.50606685027287 0.704882854735386
    vertex 323.5322644597926 75.50606685027287 5.404882854735386
    vertex 374.53226445979277 75.50606685027287 5.404882854735386
  endloop
endfacet
facet normal 0.7071067811866282 3.837789471678497e-31 -0.7071067811864669
  outer loop
    vertex 322.5322644597925 148.00606685027276 5.104882854735384
    vertex 322.83226445979244 95.30606685027286 5.404882854735384
    vertex 322.5322644597925 95.00606685027287 5.104882854735384
  endloop
endfacet
facet normal 0.7071067811866282 3.837789471678497e-31 -0.7071067811864669
  outer loop
    vertex 322.83226445979244 95.30606685027286 5.404882854735384
    vertex 322.5322644597925 148.00606685027276 5.104882854735384
    vertex 322.83226445979244 147.70606685027275 5.404882854735384
  endloop
endfacet
facet normal 0.0 0.7071067811865749 -0.7071067811865202
  outer loop
    vertex 322.83226445979244 95.30606685027286 5.404882854735384
    vertex 375.53226445979254 95.00606685027287 5.104882854735384
    vertex 322.5322644597925 95.00606685027287 5.104882854735384
  endloop
endfacet
facet normal 0.0 0.7071067811865749 -0.7071067811865202
  outer loop
    vertex 375.53226445979254 95.00606685027287 5.104882854735384
    vertex 322.83226445979244 95.30606685027286 5.404882854735384
    vertex 375.2322644597926 95.30606685027286 5.404882854735384
  endloop
endfacet
facet normal 0.0 -0.7071067811865483 -0.7071067811865467
  outer loop
    vertex 375.2322644597926 76.20606685027286 5.404882854735386
    vertex 322.5322644597925 76.50606685027287 5.104882854735386
    vertex 375.53226445979254 76.50606685027287 5.104882854735386
  endloop
endfacet
facet normal 0.0 -0.7071067811865483 -0.7071067811865467
  outer loop
    vertex 322.5322644597925 76.50606685027287 5.104882854735386
    vertex 375.2322644597926 76.20606685027286 5.404882854735386
    vertex 322.83226445979244 76.20606685027286 5.404882854735386
  endloop
endfacet
facet normal -1.0 0.0 0.0
  outer loop
    vertex 322.5322644597925 148.00606685027276 5.104882854735384
    vertex 322.5322644597925 95.00606685027287 3.404882854735385
    vertex 322.5322644597925 95.00606685027287 5.104882854735384
  endloop
endfacet
facet normal -1.0 0.0 0.0
  outer loop
    vertex 322.5322644597925 95.00606685027287 3.404882854735385
    vertex 322.5322644597925 148.00606685027276 5.104882854735384
    vertex 322.5322644597925 148.00606685027276 3.404882854735385
  endloop
endfacet
facet normal -0.7071067811866282 3.9197272734396655e-31 -0.7071067811864669
  outer loop
    vertex 375.2322644597926 95.30606685027286 5.404882854735384
    vertex 375.53226445979254 148.00606685027276 5.104882854735384
    vertex 375.53226445979254 95.00606685027287 5.104882854735384
  endloop
endfacet
facet normal -0.7071067811866282 3.9197272734396655e-31 -0.7071067811864669
  outer loop
    vertex 375.53226445979254 148.00606685027276 5.104882854735384
    vertex 375.2322644597926 95.30606685027286 5.404882854735384
    vertex 375.2322644597926 147.70606685027275 5.404882854735384
  endloop
endfacet
facet normal 0.0 1.0 0.0
  outer loop
    vertex 322.5322644597925 148.00606685027276 5.104882854735384
    vertex 375.53226445979254 148.00606685027276 3.404882854735385
    vertex 322.5322644597925 148.00606685027276 3.404882854735385
  endloop
endfacet
facet normal 0.0 1.0 0.0
  outer loop
    vertex 375.53226445979254 148.00606685027276 3.404882854735385
    vertex 322.5322644597925 148.00606685027276 5.104882854735384
    vertex 375.53226445979254 148.00606685027276 5.104882854735384
  endloop
endfacet
facet normal 0.0 0.0 -1.0
  outer loop
    vertex 322.83226445979244 76.20606685027286 5.404882854735386
    vertex 323.5322644597926 75.50606685027287 5.404882854735386
    vertex 322.83226445979244 23.806066850272828 5.404882854735386
  endloop
endfacet
facet normal 0.0 0.0 -1.0
  outer loop
    vertex 323.5322644597926 75.50606685027287 5.404882854735386
    vertex 322.83226445979244 76.20606685027286 5.404882854735386
    vertex 375.2322644597926 76.20606685027286 5.404882854735386
  endloop
endfacet
facet normal 0.0 0.0 -1.0
  outer loop
    vertex 323.5322644597926 75.50606685027287 5.404882854735386
    vertex 375.2322644597926 76.20606685027286 5.404882854735386
    vertex 374.53226445979277 75.50606685027287 5.404882854735386
  endloop
endfacet
facet normal 0.0 0.0 -1.0
  outer loop
    vertex 374.53226445979277 75.50606685027287 5.404882854735386
    vertex 375.2322644597926 76.20606685027286 5.404882854735386
    vertex 374.53226445979277 24.506066850272852 5.404882854735386
  endloop
endfacet
facet normal 0.0 0.0 -1.0
  outer loop
    vertex 322.83226445979244 23.806066850272828 5.404882854735386
    vertex 323.5322644597926 24.506066850272852 5.404882854735386
    vertex 375.2322644597926 23.806066850272828 5.404882854735386
  endloop
endfacet
facet normal 0.0 0.0 -1.0
  outer loop
    vertex 323.5322644597926 24.506066850272852 5.404882854735386
    vertex 322.83226445979244 23.806066850272828 5.404882854735386
    vertex 323.5322644597926 75.50606685027287 5.404882854735386
  endloop
endfacet
facet normal 0.0 0.0 -1.0
  outer loop
    vertex 375.2322644597926 23.806066850272828 5.404882854735386
    vertex 323.5322644597926 24.506066850272852 5.404882854735386
    vertex 374.53226445979277 24.506066850272852 5.404882854735386
  endloop
endfacet
facet normal 0.0 0.0 -1.0
  outer loop
    vertex 375.2322644597926 23.806066850272828 5.404882854735386
    vertex 374.53226445979277 24.506066850272852 5.404882854735386
    vertex 375.2322644597926 76.20606685027286 5.404882854735386
  endloop
endfacet
facet normal 0.0 0.7071067811865483 -0.7071067811865467
  outer loop
    vertex 322.83226445979244 23.806066850272828 5.404882854735386
    vertex 375.53226445979254 23.50606685027283 5.104882854735386
    vertex 322.5322644597925 23.50606685027283 5.104882854735386
  endloop
endfacet
facet normal 0.0 0.7071067811865483 -0.7071067811865467
  outer loop
    vertex 375.53226445979254 23.50606685027283 5.104882854735386
    vertex 322.83226445979244 23.806066850272828 5.404882854735386
    vertex 375.2322644597926 23.806066850272828 5.404882854735386
  endloop
endfacet
facet normal 0.0 0.0 -1.0
  outer loop
    vertex 322.83226445979244 147.70606685027275 5.404882854735384
    vertex 323.5322644597926 147.00606685027276 5.404882854735384
    vertex 322.83226445979244 95.30606685027286 5.404882854735384
  endloop
endfacet
facet normal 0.0 0.0 -1.0
  outer loop
    vertex 323.5322644597926 147.00606685027276 5.404882854735384
    vertex 322.83226445979244 147.70606685027275 5.404882854735384
    vertex 375.2322644597926 147.70606685027275 5.404882854735384
  endloop
endfacet
facet normal 0.0 0.0 -1.0
  outer loop
    vertex 323.5322644597926 147.00606685027276 5.404882854735384
    vertex 375.2322644597926 147.70606685027275 5.404882854735384
    vertex 374.53226445979277 147.00606685027276 5.404882854735384
  endloop
endfacet
facet normal 0.0 0.0 -1.0
  outer loop
    vertex 374.53226445979277 147.00606685027276 5.404882854735384
    vertex 375.2322644597926 147.70606685027275 5.404882854735384
    vertex 374.53226445979277 96.00606685027287 5.404882854735384
  endloop
endfacet
facet normal 0.0 0.0 -1.0
  outer loop
    vertex 322.83226445979244 95.30606685027286 5.404882854735384
    vertex 323.5322644597926 96.00606685027287 5.404882854735384
    vertex 375.2322644597926 95.30606685027286 5.404882854735384
  endloop
endfacet
facet normal 0.0 0.0 -1.0
  outer loop
    vertex 323.5322644597926 96.00606685027287 5.404882854735384
    vertex 322.83226445979244 95.30606685027286 5.404882854735384
    vertex 323.5322644597926 147.00606685027276 5.404882854735384
  endloop
endfacet
facet normal 0.0 0.0 -1.0
  outer loop
    vertex 375.2322644597926 95.30606685027286 5.404882854735384
    vertex 323.5322644597926 96.00606685027287 5.404882854735384
    vertex 374.53226445979277 96.00606685027287 5.404882854735384
  endloop
endfacet
facet normal 0.0 0.0 -1.0
  outer loop
    vertex 375.2322644597926 95.30606685027286 5.404882854735384
    vertex 374.53226445979277 96.00606685027287 5.404882854735384
    vertex 375.2322644597926 147.70606685027275 5.404882854735384
  endloop
endfacet
facet normal -1.0 0.0 0.0
  outer loop
    vertex 323.5322644597926 75.50606685027287 5.404882854735386
    vertex 323.5322644597926 24.506066850272852 0.704882854735386
    vertex 323.5322644597926 24.506066850272852 5.404882854735386
  endloop
endfacet
facet normal -1.0 0.0 0.0
  outer loop
    vertex 323.5322644597926 24.506066850272852 0.704882854735386
    vertex 323.5322644597926 75.50606685027287 5.404882854735386
    vertex 323.5322644597926 75.50606685027287 0.704882854735386
  endloop
endfacet
facet normal 0.5773502691897129 -0.5773502691895828 0.5773502691895817
  outer loop
    vertex 380.2322644597931 19.556066850272824 1.904882854735386
    vertex 380.2322644597931 19.256066850272827 1.604882854735386
    vertex 380.532264459793 19.556066850272824 1.604882854735386
  endloop
endfacet
facet normal 0.0 -1.0 0.0
  outer loop
    vertex 380.2322644597931 19.256066850272827 1.604882854735386
    vertex 317.8322644597925 19.256066850272827 0.704882854735386
    vertex 380.2322644597931 19.256066850272827 0.704882854735386
  endloop
endfacet
facet normal 0.0 -1.0 0.0
  outer loop
    vertex 317.8322644597925 19.256066850272827 0.704882854735386
    vertex 380.2322644597931 19.256066850272827 1.604882854735386
    vertex 317.8322644597925 19.256066850272827 1.604882854735386
  endloop
endfacet
facet normal 0.0 -0.7071067811865482 0.7071067811865469
  outer loop
    vertex 380.2322644597931 19.556066850272824 1.904882854735386
    vertex 317.8322644597925 19.256066850272827 1.604882854735386
    vertex 380.2322644597931 19.256066850272827 1.604882854735386
  endloop
endfacet
facet normal 0.0 -0.7071067811865482 0.7071067811865469
  outer loop
    vertex 317.8322644597925 19.256066850272827 1.604882854735386
    vertex 380.2322644597931 19.556066850272824 1.904882854735386
    vertex 317.8322644597925 19.556066850272824 1.904882854735386
  endloop
endfacet
facet normal 0.0 0.7071067811865748 0.7071067811865203
  outer loop
    vertex 317.8322644597925 151.95606685027278 1.904882854735386
    vertex 380.2322644597931 152.25606685027273 1.604882854735386
    vertex 317.8322644597925 152.25606685027273 1.604882854735386
  endloop
endfacet
facet normal 0.0 0.7071067811865748 0.7071067811865203
  outer loop
    vertex 380.2322644597931 152.25606685027273 1.604882854735386
    vertex 317.8322644597925 151.95606685027278 1.904882854735386
    vertex 380.2322644597931 151.95606685027278 1.904882854735386
  endloop
endfacet
facet normal -0.707106781186628 4.514469476854594e-20 0.7071067811864671
  outer loop
    vertex 317.8322644597925 151.95606685027278 1.904882854735386
    vertex 317.53226445979254 19.556066850272824 1.604882854735386
    vertex 317.8322644597925 19.556066850272824 1.904882854735386
  endloop
endfacet
facet normal -0.707106781186628 4.514469476854594e-20 0.7071067811864671
  outer loop
    vertex 317.53226445979254 19.556066850272824 1.604882854735386
    vertex 317.8322644597925 151.95606685027278 1.904882854735386
    vertex 317.53226445979254 151.95606685027278 1.604882854735386
  endloop
endfacet
facet normal -0.5773502691896985 0.5773502691896117 0.5773502691895672
  outer loop
    vertex 317.8322644597925 152.25606685027273 1.604882854735386
    vertex 317.53226445979254 151.95606685027278 1.604882854735386
    vertex 317.8322644597925 151.95606685027278 1.904882854735386
  endloop
endfacet
facet normal 0.707106781186628 4.514469476854594e-20 0.7071067811864671
  outer loop
    vertex 380.532264459793 151.95606685027278 1.604882854735386
    vertex 380.2322644597931 19.556066850272824 1.904882854735386
    vertex 380.532264459793 19.556066850272824 1.604882854735386
  endloop
endfacet
facet normal 0.707106781186628 4.514469476854594e-20 0.7071067811864671
  outer loop
    vertex 380.2322644597931 19.556066850272824 1.904882854735386
    vertex 380.532264459793 151.95606685027278 1.604882854735386
    vertex 380.2322644597931 151.95606685027278 1.904882854735386
  endloop
endfacet
facet normal -1.0 0.0 0.0
  outer loop
    vertex 317.53226445979254 151.95606685027278 1.604882854735386
    vertex 317.53226445979254 19.55606685027283 0.704882854735386
    vertex 317.53226445979254 19.556066850272824 1.604882854735386
  endloop
endfacet
facet normal -1.0 0.0 0.0
  outer loop
    vertex 317.53226445979254 19.55606685027283 0.704882854735386
    vertex 317.53226445979254 151.95606685027278 1.604882854735386
    vertex 317.53226445979254 151.95606685027278 0.704882854735386
  endloop
endfacet
facet normal 0.0 1.0 0.0
  outer loop
    vertex 317.8322644597925 152.25606685027273 1.604882854735386
    vertex 380.2322644597931 152.25606685027273 0.704882854735386
    vertex 317.8322644597925 152.25606685027273 0.704882854735386
  endloop
endfacet
facet normal 0.0 1.0 0.0
  outer loop
    vertex 380.2322644597931 152.25606685027273 0.704882854735386
    vertex 317.8322644597925 152.25606685027273 1.604882854735386
    vertex 380.2322644597931 152.25606685027273 1.604882854735386
  endloop
endfacet
facet normal -0.7071067811866006 0.7071067811864944 0.0
  outer loop
    vertex 317.8322644597925 152.25606685027273 1.604882854735386
    vertex 317.53226445979254 151.95606685027278 0.704882854735386
    vertex 317.53226445979254 151.95606685027278 1.604882854735386
  endloop
endfacet
facet normal -0.7071067811866006 0.7071067811864944 0.0
  outer loop
    vertex 317.53226445979254 151.95606685027278 0.704882854735386
    vertex 317.8322644597925 152.25606685027273 1.604882854735386
    vertex 317.8322644597925 152.25606685027273 0.704882854735386
  endloop
endfacet
facet normal 1.0 0.0 0.0
  outer loop
    vertex 380.532264459793 19.55606685027283 0.704882854735386
    vertex 380.532264459793 151.95606685027278 1.604882854735386
    vertex 380.532264459793 19.556066850272824 1.604882854735386
  endloop
endfacet
facet normal 1.0 0.0 0.0
  outer loop
    vertex 380.532264459793 151.95606685027278 1.604882854735386
    vertex 380.532264459793 19.55606685027283 0.704882854735386
    vertex 380.532264459793 151.95606685027278 0.704882854735386
  endloop
endfacet
facet normal -0.5773502691897129 -0.5773502691895828 0.5773502691895817
  outer loop
    vertex 317.53226445979254 19.556066850272824 1.604882854735386
    vertex 317.8322644597925 19.256066850272827 1.604882854735386
    vertex 317.8322644597925 19.556066850272824 1.904882854735386
  endloop
endfacet
facet normal 0.0 0.0 -1.0
  outer loop
    vertex 317.95652852850446 151.95606685027278 0.404882854735386
    vertex 317.8322644597925 19.68033091898478 0.404882854735386
    vertex 317.8322644597925 151.8318027815608 0.404882854735386
  endloop
endfacet
facet normal 0.0 0.0 -1.0
  outer loop
    vertex 317.8322644597925 19.68033091898478 0.404882854735386
    vertex 317.95652852850446 151.95606685027278 0.404882854735386
    vertex 317.95652852850446 19.556066850272824 0.404882854735386
  endloop
endfacet
facet normal 0.0 0.0 -1.0
  outer loop
    vertex 317.95652852850446 19.556066850272824 0.404882854735386
    vertex 317.95652852850446 151.95606685027278 0.404882854735386
    vertex 323.2322644597927 147.30606685027274 0.40488285473538427
  endloop
endfacet
facet normal 0.0 0.0 -1.0
  outer loop
    vertex 323.2322644597927 147.30606685027274 0.40488285473538427
    vertex 317.95652852850446 151.95606685027278 0.404882854735386
    vertex 380.1080003910811 151.95606685027278 0.404882854735386
  endloop
endfacet
facet normal 0.0 0.0 -1.0
  outer loop
    vertex 323.2322644597927 147.30606685027274 0.40488285473538427
    vertex 380.1080003910811 151.95606685027278 0.404882854735386
    vertex 374.83226445979267 147.30606685027274 0.40488285473538427
  endloop
endfacet
facet normal 0.0 0.0 -1.0
  outer loop
    vertex 374.83226445979267 147.30606685027274 0.40488285473538427
    vertex 380.1080003910811 151.95606685027278 0.404882854735386
    vertex 374.83226445979267 95.70606685027286 0.40488285473538427
  endloop
endfacet
facet normal 0.0 0.0 -1.0
  outer loop
    vertex 374.83226445979267 95.70606685027286 0.40488285473538427
    vertex 380.1080003910811 151.95606685027278 0.404882854735386
    vertex 374.83226445979267 75.80606685027287 0.404882854735386
  endloop
endfacet
facet normal 0.0 0.0 -1.0
  outer loop
    vertex 374.83226445979267 75.80606685027287 0.404882854735386
    vertex 380.1080003910811 151.95606685027278 0.404882854735386
    vertex 374.83226445979267 24.206066850272855 0.404882854735386
  endloop
endfacet
facet normal 0.0 0.0 -1.0
  outer loop
    vertex 317.95652852850446 19.556066850272824 0.404882854735386
    vertex 323.2322644597927 24.206066850272855 0.404882854735386
    vertex 380.1080003910811 19.556066850272824 0.404882854735386
  endloop
endfacet
facet normal 0.0 0.0 -1.0
  outer loop
    vertex 323.2322644597927 24.206066850272855 0.404882854735386
    vertex 317.95652852850446 19.556066850272824 0.404882854735386
    vertex 323.2322644597927 147.30606685027274 0.40488285473538427
  endloop
endfacet
facet normal 0.0 0.0 -1.0
  outer loop
    vertex 323.2322644597927 24.206066850272855 0.404882854735386
    vertex 323.2322644597927 147.30606685027274 0.40488285473538427
    vertex 323.2322644597927 95.70606685027286 0.40488285473538427
  endloop
endfacet
facet normal 0.0 0.0 -1.0
  outer loop
    vertex 323.2322644597927 24.206066850272855 0.404882854735386
    vertex 323.2322644597927 95.70606685027286 0.40488285473538427
    vertex 323.2322644597927 75.80606685027287 0.404882854735386
  endloop
endfacet
facet normal 0.0 0.0 -1.0
  outer loop
    vertex 380.1080003910811 19.556066850272824 0.404882854735386
    vertex 323.2322644597927 24.206066850272855 0.404882854735386
    vertex 374.83226445979267 24.206066850272855 0.404882854735386
  endloop
endfacet
facet normal 0.0 0.0 -1.0
  outer loop
    vertex 380.1080003910811 19.556066850272824 0.404882854735386
    vertex 374.83226445979267 24.206066850272855 0.404882854735386
    vertex 380.1080003910811 151.95606685027278 0.404882854735386
  endloop
endfacet
facet normal 0.0 0.0 -1.0
  outer loop
    vertex 380.1080003910811 19.556066850272824 0.404882854735386
    vertex 380.1080003910811 151.95606685027278 0.404882854735386
    vertex 380.2322644597931 151.8318027815608 0.404882854735386
  endloop
endfacet
facet normal 0.0 0.0 -1.0
  outer loop
    vertex 380.1080003910811 19.556066850272824 0.404882854735386
    vertex 380.2322644597931 151.8318027815608 0.404882854735386
    vertex 380.2322644597931 19.68033091898478 0.404882854735386
  endloop
endfacet
facet normal 0.0 0.0 -1.0
  outer loop
    vertex 374.83226445979267 95.70606685027286 0.40488285473538427
    vertex 323.2322644597927 75.80606685027287 0.404882854735386
    vertex 323.2322644597927 95.70606685027286 0.40488285473538427
  endloop
endfacet
facet normal 0.0 0.0 -1.0
  outer loop
    vertex 323.2322644597927 75.80606685027287 0.404882854735386
    vertex 374.83226445979267 95.70606685027286 0.40488285473538427
    vertex 374.83226445979267 75.80606685027287 0.404882854735386
  endloop
endfacet
facet normal 0.0 -1.0 0.0
  outer loop
    vertex 374.53226445979277 24.506066850272852 5.404882854735386
    vertex 323.5322644597926 24.506066850272852 0.704882854735386
    vertex 374.53226445979277 24.506066850272852 0.704882854735386
  endloop
endfacet
facet normal 0.0 -1.0 0.0
  outer loop
    vertex 323.5322644597926 24.506066850272852 0.704882854735386
    vertex 374.53226445979277 24.506066850272852 5.404882854735386
    vertex 323.5322644597926 24.506066850272852 5.404882854735386
  endloop
endfacet
facet normal 1.0 0.0 0.0
  outer loop
    vertex 374.53226445979277 75.50606685027287 0.704882854735386
    vertex 374.53226445979277 24.506066850272852 5.404882854735386
    vertex 374.53226445979277 24.506066850272852 0.704882854735386
  endloop
endfacet
facet normal 1.0 0.0 0.0
  outer loop
    vertex 374.53226445979277 24.506066850272852 5.404882854735386
    vertex 374.53226445979277 75.50606685027287 0.704882854735386
    vertex 374.53226445979277 75.50606685027287 5.404882854735386
  endloop
endfacet
facet normal 0.5773502691896985 0.5773502691896117 0.5773502691895672
  outer loop
    vertex 380.2322644597931 152.25606685027273 1.604882854735386
    vertex 380.2322644597931 151.95606685027278 1.904882854735386
    vertex 380.532264459793 151.95606685027278 1.604882854735386
  endloop
endfacet
facet normal -0.5000000000000234 0.49999999999998596 -0.7071067811865409
  outer loop
    vertex 317.8322644597925 152.25606685027273 0.704882854735386
    vertex 317.8322644597925 151.8318027815608 0.404882854735386
    vertex 317.53226445979254 151.95606685027278 0.704882854735386
  endloop
endfacet
facet normal -0.5000000000000234 0.49999999999998596 -0.7071067811865409
  outer loop
    vertex 317.8322644597925 151.8318027815608 0.404882854735386
    vertex 317.8322644597925 152.25606685027273 0.704882854735386
    vertex 317.95652852850446 151.95606685027278 0.404882854735386
  endloop
endfacet
facet normal 0.0 0.7071067811865219 -0.7071067811865732
  outer loop
    vertex 321.3322644597924 93.80606685027288 3.404882854735386
    vertex 377.03226445979254 93.50606685027286 3.104882854735386
    vertex 321.0322644597925 93.50606685027286 3.104882854735386
  endloop
endfacet
facet normal 0.0 0.7071067811865219 -0.7071067811865732
  outer loop
    vertex 377.03226445979254 93.50606685027286 3.104882854735386
    vertex 321.3322644597924 93.80606685027288 3.404882854735386
    vertex 376.7322644597926 93.80606685027288 3.404882854735386
  endloop
endfacet
facet normal 0.0 1.0 0.0
  outer loop
    vertex 321.0322644597925 22.006066850272838 3.104882854735386
    vertex 377.03226445979254 22.006066850272838 1.904882854735386
    vertex 321.0322644597925 22.006066850272838 1.904882854735386
  endloop
endfacet
facet normal 0.0 1.0 0.0
  outer loop
    vertex 377.03226445979254 22.006066850272838 1.904882854735386
    vertex 321.0322644597925 22.006066850272838 3.104882854735386
    vertex 377.03226445979254 22.006066850272838 3.104882854735386
  endloop
endfacet
facet normal 0.0 0.0 -1.0
  outer loop
    vertex 321.3322644597924 77.70606685027286 3.404882854735386
    vertex 322.5322644597925 76.50606685027287 3.404882854735386
    vertex 321.3322644597924 22.30606685027284 3.404882854735386
  endloop
endfacet
facet normal 0.0 0.0 -1.0
  outer loop
    vertex 322.5322644597925 76.50606685027287 3.404882854735386
    vertex 321.3322644597924 77.70606685027286 3.404882854735386
    vertex 376.7322644597926 77.70606685027286 3.404882854735386
  endloop
endfacet
facet normal 0.0 0.0 -1.0
  outer loop
    vertex 322.5322644597925 76.50606685027287 3.404882854735386
    vertex 376.7322644597926 77.70606685027286 3.404882854735386
    vertex 375.53226445979254 76.50606685027287 3.404882854735386
  endloop
endfacet
facet normal 0.0 0.0 -1.0
  outer loop
    vertex 375.53226445979254 76.50606685027287 3.404882854735386
    vertex 376.7322644597926 77.70606685027286 3.404882854735386
    vertex 375.53226445979254 23.50606685027283 3.404882854735386
  endloop
endfacet
facet normal 0.0 0.0 -1.0
  outer loop
    vertex 321.3322644597924 22.30606685027284 3.404882854735386
    vertex 322.5322644597925 23.50606685027283 3.404882854735386
    vertex 376.7322644597926 22.30606685027284 3.404882854735386
  endloop
endfacet
facet normal 0.0 0.0 -1.0
  outer loop
    vertex 322.5322644597925 23.50606685027283 3.404882854735386
    vertex 321.3322644597924 22.30606685027284 3.404882854735386
    vertex 322.5322644597925 76.50606685027287 3.404882854735386
  endloop
endfacet
facet normal 0.0 0.0 -1.0
  outer loop
    vertex 376.7322644597926 22.30606685027284 3.404882854735386
    vertex 322.5322644597925 23.50606685027283 3.404882854735386
    vertex 375.53226445979254 23.50606685027283 3.404882854735386
  endloop
endfacet
facet normal 0.0 0.0 -1.0
  outer loop
    vertex 376.7322644597926 22.30606685027284 3.404882854735386
    vertex 375.53226445979254 23.50606685027283 3.404882854735386
    vertex 376.7322644597926 77.70606685027286 3.404882854735386
  endloop
endfacet
facet normal 0.0 -0.7071067811865481 -0.7071067811865469
  outer loop
    vertex 380.2322644597931 19.256066850272827 0.704882854735386
    vertex 317.95652852850446 19.556066850272824 0.404882854735386
    vertex 380.1080003910811 19.556066850272824 0.404882854735386
  endloop
endfacet
facet normal 0.0 -0.7071067811865481 -0.7071067811865469
  outer loop
    vertex 317.95652852850446 19.556066850272824 0.404882854735386
    vertex 380.2322644597931 19.256066850272827 0.704882854735386
    vertex 317.8322644597925 19.256066850272827 0.704882854735386
  endloop
endfacet
facet normal -0.5000000000000385 -0.4999999999999543 -0.7071067811865526
  outer loop
    vertex 317.8322644597925 19.68033091898478 0.404882854735386
    vertex 317.8322644597925 19.256066850272827 0.704882854735386
    vertex 317.53226445979254 19.55606685027283 0.704882854735386
  endloop
endfacet
facet normal -0.5000000000000385 -0.4999999999999543 -0.7071067811865526
  outer loop
    vertex 317.8322644597925 19.256066850272827 0.704882854735386
    vertex 317.8322644597925 19.68033091898478 0.404882854735386
    vertex 317.95652852850446 19.556066850272824 0.404882854735386
  endloop
endfacet
facet normal 0.7071067811866278 1.0282127915300764e-32 -0.7071067811864672
  outer loop
    vertex 380.2322644597931 19.68033091898478 0.404882854735386
    vertex 380.532264459793 151.95606685027278 0.704882854735386
    vertex 380.532264459793 19.55606685027283 0.704882854735386
  endloop
endfacet
facet normal 0.7071067811866278 1.0282127915300764e-32 -0.7071067811864672
  outer loop
    vertex 380.532264459793 151.95606685027278 0.704882854735386
    vertex 380.2322644597931 19.68033091898478 0.404882854735386
    vertex 380.2322644597931 151.8318027815608 0.404882854735386
  endloop
endfacet
facet normal 0.707106781186628 -4.10152560199505e-31 -0.7071067811864671
  outer loop
    vertex 323.2322644597927 147.30606685027274 0.40488285473538427
    vertex 323.5322644597926 96.00606685027287 0.7048828547353843
    vertex 323.2322644597927 95.70606685027286 0.40488285473538427
  endloop
endfacet
facet normal 0.707106781186628 -4.10152560199505e-31 -0.7071067811864671
  outer loop
    vertex 323.5322644597926 96.00606685027287 0.7048828547353843
    vertex 323.2322644597927 147.30606685027274 0.40488285473538427
    vertex 323.5322644597926 147.00606685027276 0.7048828547353843
  endloop
endfacet
facet normal 0.0 -0.7071067811865482 -0.7071067811865469
  outer loop
    vertex 374.53226445979277 75.50606685027287 0.704882854735386
    vertex 323.2322644597927 75.80606685027287 0.404882854735386
    vertex 374.83226445979267 75.80606685027287 0.404882854735386
  endloop
endfacet
facet normal 0.0 -0.7071067811865482 -0.7071067811865469
  outer loop
    vertex 323.2322644597927 75.80606685027287 0.404882854735386
    vertex 374.53226445979277 75.50606685027287 0.704882854735386
    vertex 323.5322644597926 75.50606685027287 0.704882854735386
  endloop
endfacet
facet normal 0.707106781186628 0.0 -0.7071067811864671
  outer loop
    vertex 323.2322644597927 75.80606685027287 0.404882854735386
    vertex 323.5322644597926 24.506066850272852 0.704882854735386
    vertex 323.2322644597927 24.206066850272855 0.404882854735386
  endloop
endfacet
facet normal 0.707106781186628 0.0 -0.7071067811864671
  outer loop
    vertex 323.5322644597926 24.506066850272852 0.704882854735386
    vertex 323.2322644597927 75.80606685027287 0.404882854735386
    vertex 323.5322644597926 75.50606685027287 0.704882854735386
  endloop
endfacet
facet normal -0.707106781186628 0.0 -0.7071067811864671
  outer loop
    vertex 374.53226445979277 24.506066850272852 0.704882854735386
    vertex 374.83226445979267 75.80606685027287 0.404882854735386
    vertex 374.83226445979267 24.206066850272855 0.404882854735386
  endloop
endfacet
facet normal -0.707106781186628 0.0 -0.7071067811864671
  outer loop
    vertex 374.83226445979267 75.80606685027287 0.404882854735386
    vertex 374.53226445979277 24.506066850272852 0.704882854735386
    vertex 374.53226445979277 75.50606685027287 0.704882854735386
  endloop
endfacet
facet normal 0.7071067811866282 -3.508877171484976e-31 -0.7071067811864669
  outer loop
    vertex 321.0322644597925 149.50606685027273 3.104882854735386
    vertex 321.3322644597924 93.80606685027288 3.404882854735386
    vertex 321.0322644597925 93.50606685027286 3.104882854735386
  endloop
endfacet
facet normal 0.7071067811866282 -3.508877171484976e-31 -0.7071067811864669
  outer loop
    vertex 321.3322644597924 93.80606685027288 3.404882854735386
    vertex 321.0322644597925 149.50606685027273 3.104882854735386
    vertex 321.3322644597924 149.20606685027275 3.404882854735386
  endloop
endfacet
facet normal -1.0 0.0 0.0
  outer loop
    vertex 377.03226445979254 149.50606685027273 3.104882854735386
    vertex 377.03226445979254 93.50606685027286 1.904882854735386
    vertex 377.03226445979254 93.50606685027286 3.104882854735386
  endloop
endfacet
facet normal -1.0 0.0 0.0
  outer loop
    vertex 377.03226445979254 93.50606685027286 1.904882854735386
    vertex 377.03226445979254 149.50606685027273 3.104882854735386
    vertex 377.03226445979254 149.50606685027273 1.904882854735386
  endloop
endfacet
facet normal 0.0 0.0 -1.0
  outer loop
    vertex 321.3322644597924 149.20606685027275 3.404882854735386
    vertex 322.5322644597925 148.00606685027276 3.404882854735385
    vertex 321.3322644597924 93.80606685027288 3.404882854735386
  endloop
endfacet
facet normal 0.0 0.0 -1.0
  outer loop
    vertex 322.5322644597925 148.00606685027276 3.404882854735385
    vertex 321.3322644597924 149.20606685027275 3.404882854735386
    vertex 376.7322644597926 149.20606685027275 3.404882854735386
  endloop
endfacet
facet normal 0.0 0.0 -1.0
  outer loop
    vertex 322.5322644597925 148.00606685027276 3.404882854735385
    vertex 376.7322644597926 149.20606685027275 3.404882854735386
    vertex 375.53226445979254 148.00606685027276 3.404882854735385
  endloop
endfacet
facet normal 0.0 0.0 -1.0
  outer loop
    vertex 375.53226445979254 148.00606685027276 3.404882854735385
    vertex 376.7322644597926 149.20606685027275 3.404882854735386
    vertex 375.53226445979254 95.00606685027287 3.404882854735385
  endloop
endfacet
facet normal 0.0 0.0 -1.0
  outer loop
    vertex 321.3322644597924 93.80606685027288 3.404882854735386
    vertex 322.5322644597925 95.00606685027287 3.404882854735385
    vertex 376.7322644597926 93.80606685027288 3.404882854735386
  endloop
endfacet
facet normal 0.0 0.0 -1.0
  outer loop
    vertex 322.5322644597925 95.00606685027287 3.404882854735385
    vertex 321.3322644597924 93.80606685027288 3.404882854735386
    vertex 322.5322644597925 148.00606685027276 3.404882854735385
  endloop
endfacet
facet normal 0.0 0.0 -1.0
  outer loop
    vertex 376.7322644597926 93.80606685027288 3.404882854735386
    vertex 322.5322644597925 95.00606685027287 3.404882854735385
    vertex 375.53226445979254 95.00606685027287 3.404882854735385
  endloop
endfacet
facet normal 0.0 0.0 -1.0
  outer loop
    vertex 376.7322644597926 93.80606685027288 3.404882854735386
    vertex 375.53226445979254 95.00606685027287 3.404882854735385
    vertex 376.7322644597926 149.20606685027275 3.404882854735386
  endloop
endfacet
facet normal 0.0 0.7071067811865482 -0.7071067811865469
  outer loop
    vertex 323.5322644597926 24.506066850272852 0.704882854735386
    vertex 374.83226445979267 24.206066850272855 0.404882854735386
    vertex 323.2322644597927 24.206066850272855 0.404882854735386
  endloop
endfacet
facet normal 0.0 0.7071067811865482 -0.7071067811865469
  outer loop
    vertex 374.83226445979267 24.206066850272855 0.404882854735386
    vertex 323.5322644597926 24.506066850272852 0.704882854735386
    vertex 374.53226445979277 24.506066850272852 0.704882854735386
  endloop
endfacet
facet normal 0.5000000000000385 -0.49999999999995437 -0.7071067811865527
  outer loop
    vertex 380.2322644597931 19.68033091898478 0.404882854735386
    vertex 380.2322644597931 19.256066850272827 0.704882854735386
    vertex 380.1080003910811 19.556066850272824 0.404882854735386
  endloop
endfacet
facet normal 0.5000000000000385 -0.49999999999995437 -0.7071067811865527
  outer loop
    vertex 380.2322644597931 19.256066850272827 0.704882854735386
    vertex 380.2322644597931 19.68033091898478 0.404882854735386
    vertex 380.532264459793 19.55606685027283 0.704882854735386
  endloop
endfacet
facet normal 0.5000000000000235 0.49999999999998596 -0.7071067811865409
  outer loop
    vertex 380.2322644597931 152.25606685027273 0.704882854735386
    vertex 380.2322644597931 151.8318027815608 0.404882854735386
    vertex 380.1080003910811 151.95606685027278 0.404882854735386
  endloop
endfacet
facet normal 0.5000000000000235 0.49999999999998596 -0.7071067811865409
  outer loop
    vertex 380.2322644597931 151.8318027815608 0.404882854735386
    vertex 380.2322644597931 152.25606685027273 0.704882854735386
    vertex 380.532264459793 151.95606685027278 0.704882854735386
  endloop
endfacet
facet normal -0.7071067811866278 -4.101525601995049e-31 -0.7071067811864672
  outer loop
    vertex 374.53226445979277 96.00606685027287 0.7048828547353843
    vertex 374.83226445979267 147.30606685027274 0.40488285473538427
    vertex 374.83226445979267 95.70606685027286 0.40488285473538427
  endloop
endfacet
facet normal -0.7071067811866278 -4.101525601995049e-31 -0.7071067811864672
  outer loop
    vertex 374.83226445979267 147.30606685027274 0.40488285473538427
    vertex 374.53226445979277 96.00606685027287 0.7048828547353843
    vertex 374.53226445979277 147.00606685027276 0.7048828547353843
  endloop
endfacet
facet normal 1.0 0.0 0.0
  outer loop
    vertex 321.0322644597925 149.50606685027273 1.904882854735386
    vertex 321.0322644597925 93.50606685027286 3.104882854735386
    vertex 321.0322644597925 93.50606685027286 1.904882854735386
  endloop
endfacet
facet normal 1.0 0.0 0.0
  outer loop
    vertex 321.0322644597925 93.50606685027286 3.104882854735386
    vertex 321.0322644597925 149.50606685027273 1.904882854735386
    vertex 321.0322644597925 149.50606685027273 3.104882854735386
  endloop
endfacet
facet normal 0.0 -0.7071067811865748 -0.7071067811865204
  outer loop
    vertex 374.53226445979277 147.00606685027276 0.7048828547353843
    vertex 323.2322644597927 147.30606685027274 0.40488285473538427
    vertex 374.83226445979267 147.30606685027274 0.40488285473538427
  endloop
endfacet
facet normal 0.0 -0.7071067811865748 -0.7071067811865204
  outer loop
    vertex 323.2322644597927 147.30606685027274 0.40488285473538427
    vertex 374.53226445979277 147.00606685027276 0.7048828547353843
    vertex 323.5322644597926 147.00606685027276 0.7048828547353843
  endloop
endfacet
facet normal -0.7071067811866278 1.0282127915300764e-32 -0.7071067811864672
  outer loop
    vertex 317.53226445979254 151.95606685027278 0.704882854735386
    vertex 317.8322644597925 19.68033091898478 0.404882854735386
    vertex 317.53226445979254 19.55606685027283 0.704882854735386
  endloop
endfacet
facet normal -0.7071067811866278 1.0282127915300764e-32 -0.7071067811864672
  outer loop
    vertex 317.8322644597925 19.68033091898478 0.404882854735386
    vertex 317.53226445979254 151.95606685027278 0.704882854735386
    vertex 317.8322644597925 151.8318027815608 0.404882854735386
  endloop
endfacet
facet normal 0.0 -1.0 0.0
  outer loop
    vertex 377.03226445979254 78.00606685027286 3.104882854735386
    vertex 321.0322644597925 78.00606685027286 1.904882854735386
    vertex 377.03226445979254 78.00606685027286 1.904882854735386
  endloop
endfacet
facet normal 0.0 -1.0 0.0
  outer loop
    vertex 321.0322644597925 78.00606685027286 1.904882854735386
    vertex 377.03226445979254 78.00606685027286 3.104882854735386
    vertex 321.0322644597925 78.00606685027286 3.104882854735386
  endloop
endfacet
facet normal 0.0 -1.0 0.0
  outer loop
    vertex 374.53226445979277 147.00606685027276 5.404882854735384
    vertex 323.5322644597926 147.00606685027276 0.7048828547353843
    vertex 374.53226445979277 147.00606685027276 0.7048828547353843
  endloop
endfacet
facet normal 0.0 -1.0 0.0
  outer loop
    vertex 323.5322644597926 147.00606685027276 0.7048828547353843
    vertex 374.53226445979277 147.00606685027276 5.404882854735384
    vertex 323.5322644597926 147.00606685027276 5.404882854735384
  endloop
endfacet
facet normal 1.0 0.0 0.0
  outer loop
    vertex 323.5322644597926 147.00606685027276 0.7048828547353843
    vertex 323.5322644597926 96.00606685027287 5.404882854735384
    vertex 323.5322644597926 96.00606685027287 0.7048828547353843
  endloop
endfacet
facet normal 1.0 0.0 0.0
  outer loop
    vertex 323.5322644597926 96.00606685027287 5.404882854735384
    vertex 323.5322644597926 147.00606685027276 0.7048828547353843
    vertex 323.5322644597926 147.00606685027276 5.404882854735384
  endloop
endfacet
facet normal 0.0 0.7071067811865748 -0.7071067811865204
  outer loop
    vertex 317.8322644597925 152.25606685027273 0.704882854735386
    vertex 380.1080003910811 151.95606685027278 0.404882854735386
    vertex 317.95652852850446 151.95606685027278 0.404882854735386
  endloop
endfacet
facet normal 0.0 0.7071067811865748 -0.7071067811865204
  outer loop
    vertex 380.1080003910811 151.95606685027278 0.404882854735386
    vertex 317.8322644597925 152.25606685027273 0.704882854735386
    vertex 380.2322644597931 152.25606685027273 0.704882854735386
  endloop
endfacet
facet normal 0.0 -0.707106781186575 -0.7071067811865202
  outer loop
    vertex 376.7322644597926 149.20606685027275 3.404882854735386
    vertex 321.0322644597925 149.50606685027273 3.104882854735386
    vertex 377.03226445979254 149.50606685027273 3.104882854735386
  endloop
endfacet
facet normal 0.0 -0.707106781186575 -0.7071067811865202
  outer loop
    vertex 321.0322644597925 149.50606685027273 3.104882854735386
    vertex 376.7322644597926 149.20606685027275 3.404882854735386
    vertex 321.3322644597924 149.20606685027275 3.404882854735386
  endloop
endfacet
facet normal -0.7071067811866282 -3.4355277616855722e-31 -0.7071067811864669
  outer loop
    vertex 376.7322644597926 93.80606685027288 3.404882854735386
    vertex 377.03226445979254 149.50606685027273 3.104882854735386
    vertex 377.03226445979254 93.50606685027286 3.104882854735386
  endloop
endfacet
facet normal -0.7071067811866282 -3.4355277616855722e-31 -0.7071067811864669
  outer loop
    vertex 377.03226445979254 149.50606685027273 3.104882854735386
    vertex 376.7322644597926 93.80606685027288 3.404882854735386
    vertex 376.7322644597926 149.20606685027275 3.404882854735386
  endloop
endfacet
facet normal 1.0 0.0 0.0
  outer loop
    vertex 321.0322644597925 78.00606685027286 1.904882854735386
    vertex 321.0322644597925 22.006066850272838 3.104882854735386
    vertex 321.0322644597925 22.006066850272838 1.904882854735386
  endloop
endfacet
facet normal 1.0 0.0 0.0
  outer loop
    vertex 321.0322644597925 22.006066850272838 3.104882854735386
    vertex 321.0322644597925 78.00606685027286 1.904882854735386
    vertex 321.0322644597925 78.00606685027286 3.104882854735386
  endloop
endfacet
facet normal 0.0 0.7071067811865216 -0.7071067811865736
  outer loop
    vertex 323.5322644597926 96.00606685027287 0.7048828547353843
    vertex 374.83226445979267 95.70606685027286 0.40488285473538427
    vertex 323.2322644597927 95.70606685027286 0.40488285473538427
  endloop
endfacet
facet normal 0.0 0.7071067811865216 -0.7071067811865736
  outer loop
    vertex 374.83226445979267 95.70606685027286 0.40488285473538427
    vertex 323.5322644597926 96.00606685027287 0.7048828547353843
    vertex 374.53226445979277 96.00606685027287 0.7048828547353843
  endloop
endfacet
facet normal 0.0 -0.7071067811865483 -0.7071067811865467
  outer loop
    vertex 376.7322644597926 77.70606685027286 3.404882854735386
    vertex 321.0322644597925 78.00606685027286 3.104882854735386
    vertex 377.03226445979254 78.00606685027286 3.104882854735386
  endloop
endfacet
facet normal 0.0 -0.7071067811865483 -0.7071067811865467
  outer loop
    vertex 321.0322644597925 78.00606685027286 3.104882854735386
    vertex 376.7322644597926 77.70606685027286 3.404882854735386
    vertex 321.3322644597924 77.70606685027286 3.404882854735386
  endloop
endfacet
facet normal 0.0 0.7071067811865483 -0.7071067811865467
  outer loop
    vertex 321.3322644597924 22.30606685027284 3.404882854735386
    vertex 377.03226445979254 22.006066850272838 3.104882854735386
    vertex 321.0322644597925 22.006066850272838 3.104882854735386
  endloop
endfacet
facet normal 0.0 0.7071067811865483 -0.7071067811865467
  outer loop
    vertex 377.03226445979254 22.006066850272838 3.104882854735386
    vertex 321.3322644597924 22.30606685027284 3.404882854735386
    vertex 376.7322644597926 22.30606685027284 3.404882854735386
  endloop
endfacet
facet normal -0.7071067811866282 0.0 -0.7071067811864669
  outer loop
    vertex 376.7322644597926 22.30606685027284 3.404882854735386
    vertex 377.03226445979254 78.00606685027286 3.104882854735386
    vertex 377.03226445979254 22.006066850272838 3.104882854735386
  endloop
endfacet
facet normal -0.7071067811866282 0.0 -0.7071067811864669
  outer loop
    vertex 377.03226445979254 78.00606685027286 3.104882854735386
    vertex 376.7322644597926 22.30606685027284 3.404882854735386
    vertex 376.7322644597926 77.70606685027286 3.404882854735386
  endloop
endfacet
facet normal 0.7071067811866282 0.0 -0.7071067811864669
  outer loop
    vertex 321.0322644597925 78.00606685027286 3.104882854735386
    vertex 321.3322644597924 22.30606685027284 3.404882854735386
    vertex 321.0322644597925 22.006066850272838 3.104882854735386
  endloop
endfacet
facet normal 0.7071067811866282 0.0 -0.7071067811864669
  outer loop
    vertex 321.3322644597924 22.30606685027284 3.404882854735386
    vertex 321.0322644597925 78.00606685027286 3.104882854735386
    vertex 321.3322644597924 77.70606685027286 3.404882854735386
  endloop
endfacet
facet normal -0.7071067811866306 -0.7071067811864644 -2.213531469175351e-15
  outer loop
    vertex 317.53226445979254 19.556066850272824 1.604882854735386
    vertex 317.8322644597925 19.256066850272827 0.704882854735386
    vertex 317.8322644597925 19.256066850272827 1.604882854735386
  endloop
endfacet
facet normal -0.7071067811866306 -0.7071067811864644 -2.213531469175351e-15
  outer loop
    vertex 317.8322644597925 19.256066850272827 0.704882854735386
    vertex 317.53226445979254 19.556066850272824 1.604882854735386
    vertex 317.53226445979254 19.55606685027283 0.704882854735386
  endloop
endfacet
facet normal 0.7071067811866006 0.7071067811864944 0.0
  outer loop
    vertex 380.2322644597931 152.25606685027273 0.704882854735386
    vertex 380.532264459793 151.95606685027278 1.604882854735386
    vertex 380.532264459793 151.95606685027278 0.704882854735386
  endloop
endfacet
facet normal 0.7071067811866006 0.7071067811864944 0.0
  outer loop
    vertex 380.532264459793 151.95606685027278 1.604882854735386
    vertex 380.2322644597931 152.25606685027273 0.704882854735386
    vertex 380.2322644597931 152.25606685027273 1.604882854735386
  endloop
endfacet
endsolid Codelock
