G04 #@! TF.GenerationSoftware,KiCad,Pcbnew,(5.1.7)-1*
G04 #@! TF.CreationDate,2020-10-19T19:05:30+02:00*
G04 #@! TF.ProjectId,Touch-Steuerung,546f7563-682d-4537-9465-756572756e67,1.0*
G04 #@! TF.SameCoordinates,Original*
G04 #@! TF.FileFunction,Copper,L1,Top*
G04 #@! TF.FilePolarity,Positive*
%FSLAX46Y46*%
G04 Gerber Fmt 4.6, Leading zero omitted, Abs format (unit mm)*
G04 Created by KiCad (PCBNEW (5.1.7)-1) date 2020-10-19 19:05:30*
%MOMM*%
%LPD*%
G01*
G04 APERTURE LIST*
G04 #@! TA.AperFunction,SMDPad,CuDef*
%ADD10R,1.600000X2.180000*%
G04 #@! TD*
G04 #@! TA.AperFunction,ComponentPad*
%ADD11C,1.700000*%
G04 #@! TD*
G04 #@! TA.AperFunction,ComponentPad*
%ADD12O,1.700000X1.700000*%
G04 #@! TD*
G04 #@! TA.AperFunction,ComponentPad*
%ADD13R,1.350000X1.350000*%
G04 #@! TD*
G04 #@! TA.AperFunction,SMDPad,CuDef*
%ADD14R,1.600000X0.550000*%
G04 #@! TD*
G04 #@! TA.AperFunction,SMDPad,CuDef*
%ADD15R,0.550000X1.600000*%
G04 #@! TD*
G04 #@! TA.AperFunction,SMDPad,CuDef*
%ADD16R,1.200000X2.524000*%
G04 #@! TD*
G04 #@! TA.AperFunction,SMDPad,CuDef*
%ADD17R,1.800000X1.750000*%
G04 #@! TD*
G04 #@! TA.AperFunction,ComponentPad*
%ADD18O,1.350000X1.350000*%
G04 #@! TD*
G04 #@! TA.AperFunction,SMDPad,CuDef*
%ADD19R,2.000000X4.200000*%
G04 #@! TD*
G04 #@! TA.AperFunction,SMDPad,CuDef*
%ADD20R,0.700000X1.000000*%
G04 #@! TD*
G04 #@! TA.AperFunction,ComponentPad*
%ADD21R,1.700000X1.700000*%
G04 #@! TD*
G04 #@! TA.AperFunction,SMDPad,CuDef*
%ADD22R,2.000000X6.000000*%
G04 #@! TD*
G04 #@! TA.AperFunction,SMDPad,CuDef*
%ADD23R,2.000000X3.500000*%
G04 #@! TD*
G04 #@! TA.AperFunction,SMDPad,CuDef*
%ADD24R,3.800000X2.000000*%
G04 #@! TD*
G04 #@! TA.AperFunction,SMDPad,CuDef*
%ADD25R,1.500000X2.000000*%
G04 #@! TD*
G04 #@! TA.AperFunction,SMDPad,CuDef*
%ADD26R,1.060000X0.650000*%
G04 #@! TD*
G04 #@! TA.AperFunction,ComponentPad*
%ADD27C,1.524000*%
G04 #@! TD*
G04 #@! TA.AperFunction,ViaPad*
%ADD28C,0.600000*%
G04 #@! TD*
G04 #@! TA.AperFunction,Conductor*
%ADD29C,0.250000*%
G04 #@! TD*
G04 #@! TA.AperFunction,Conductor*
%ADD30C,0.600000*%
G04 #@! TD*
G04 APERTURE END LIST*
G04 #@! TA.AperFunction,SMDPad,CuDef*
G36*
G01*
X105375000Y-74525000D02*
X105375000Y-75625000D01*
G75*
G02*
X105125000Y-75875000I-250000J0D01*
G01*
X103025000Y-75875000D01*
G75*
G02*
X102775000Y-75625000I0J250000D01*
G01*
X102775000Y-74525000D01*
G75*
G02*
X103025000Y-74275000I250000J0D01*
G01*
X105125000Y-74275000D01*
G75*
G02*
X105375000Y-74525000I0J-250000D01*
G01*
G37*
G04 #@! TD.AperFunction*
G04 #@! TA.AperFunction,SMDPad,CuDef*
G36*
G01*
X108975000Y-74525000D02*
X108975000Y-75625000D01*
G75*
G02*
X108725000Y-75875000I-250000J0D01*
G01*
X106625000Y-75875000D01*
G75*
G02*
X106375000Y-75625000I0J250000D01*
G01*
X106375000Y-74525000D01*
G75*
G02*
X106625000Y-74275000I250000J0D01*
G01*
X108725000Y-74275000D01*
G75*
G02*
X108975000Y-74525000I0J-250000D01*
G01*
G37*
G04 #@! TD.AperFunction*
D10*
X122650000Y-55785000D03*
X122650000Y-64965000D03*
D11*
X77341500Y-75601500D03*
D12*
X77341500Y-78141500D03*
X77341500Y-80681500D03*
X77341500Y-83221500D03*
D11*
X77278000Y-85761500D03*
D12*
X79818000Y-85761500D03*
X82358000Y-85761500D03*
X84898000Y-85761500D03*
X87438000Y-85761500D03*
X89978000Y-85761500D03*
D13*
X77300000Y-48300000D03*
G04 #@! TA.AperFunction,SMDPad,CuDef*
G36*
G01*
X78859999Y-77893000D02*
X79760001Y-77893000D01*
G75*
G02*
X80010000Y-78142999I0J-249999D01*
G01*
X80010000Y-78793001D01*
G75*
G02*
X79760001Y-79043000I-249999J0D01*
G01*
X78859999Y-79043000D01*
G75*
G02*
X78610000Y-78793001I0J249999D01*
G01*
X78610000Y-78142999D01*
G75*
G02*
X78859999Y-77893000I249999J0D01*
G01*
G37*
G04 #@! TD.AperFunction*
G04 #@! TA.AperFunction,SMDPad,CuDef*
G36*
G01*
X78859999Y-75843000D02*
X79760001Y-75843000D01*
G75*
G02*
X80010000Y-76092999I0J-249999D01*
G01*
X80010000Y-76743001D01*
G75*
G02*
X79760001Y-76993000I-249999J0D01*
G01*
X78859999Y-76993000D01*
G75*
G02*
X78610000Y-76743001I0J249999D01*
G01*
X78610000Y-76092999D01*
G75*
G02*
X78859999Y-75843000I249999J0D01*
G01*
G37*
G04 #@! TD.AperFunction*
G04 #@! TA.AperFunction,SMDPad,CuDef*
G36*
G01*
X91750499Y-77621000D02*
X92650501Y-77621000D01*
G75*
G02*
X92900500Y-77870999I0J-249999D01*
G01*
X92900500Y-78521001D01*
G75*
G02*
X92650501Y-78771000I-249999J0D01*
G01*
X91750499Y-78771000D01*
G75*
G02*
X91500500Y-78521001I0J249999D01*
G01*
X91500500Y-77870999D01*
G75*
G02*
X91750499Y-77621000I249999J0D01*
G01*
G37*
G04 #@! TD.AperFunction*
G04 #@! TA.AperFunction,SMDPad,CuDef*
G36*
G01*
X91750499Y-79671000D02*
X92650501Y-79671000D01*
G75*
G02*
X92900500Y-79920999I0J-249999D01*
G01*
X92900500Y-80571001D01*
G75*
G02*
X92650501Y-80821000I-249999J0D01*
G01*
X91750499Y-80821000D01*
G75*
G02*
X91500500Y-80571001I0J249999D01*
G01*
X91500500Y-79920999D01*
G75*
G02*
X91750499Y-79671000I249999J0D01*
G01*
G37*
G04 #@! TD.AperFunction*
G04 #@! TA.AperFunction,SMDPad,CuDef*
G36*
G01*
X79252000Y-72241501D02*
X79252000Y-71341499D01*
G75*
G02*
X79501999Y-71091500I249999J0D01*
G01*
X80152001Y-71091500D01*
G75*
G02*
X80402000Y-71341499I0J-249999D01*
G01*
X80402000Y-72241501D01*
G75*
G02*
X80152001Y-72491500I-249999J0D01*
G01*
X79501999Y-72491500D01*
G75*
G02*
X79252000Y-72241501I0J249999D01*
G01*
G37*
G04 #@! TD.AperFunction*
G04 #@! TA.AperFunction,SMDPad,CuDef*
G36*
G01*
X77202000Y-72241501D02*
X77202000Y-71341499D01*
G75*
G02*
X77451999Y-71091500I249999J0D01*
G01*
X78102001Y-71091500D01*
G75*
G02*
X78352000Y-71341499I0J-249999D01*
G01*
X78352000Y-72241501D01*
G75*
G02*
X78102001Y-72491500I-249999J0D01*
G01*
X77451999Y-72491500D01*
G75*
G02*
X77202000Y-72241501I0J249999D01*
G01*
G37*
G04 #@! TD.AperFunction*
G04 #@! TA.AperFunction,SMDPad,CuDef*
G36*
G01*
X93845999Y-77621000D02*
X94746001Y-77621000D01*
G75*
G02*
X94996000Y-77870999I0J-249999D01*
G01*
X94996000Y-78521001D01*
G75*
G02*
X94746001Y-78771000I-249999J0D01*
G01*
X93845999Y-78771000D01*
G75*
G02*
X93596000Y-78521001I0J249999D01*
G01*
X93596000Y-77870999D01*
G75*
G02*
X93845999Y-77621000I249999J0D01*
G01*
G37*
G04 #@! TD.AperFunction*
G04 #@! TA.AperFunction,SMDPad,CuDef*
G36*
G01*
X93845999Y-79671000D02*
X94746001Y-79671000D01*
G75*
G02*
X94996000Y-79920999I0J-249999D01*
G01*
X94996000Y-80571001D01*
G75*
G02*
X94746001Y-80821000I-249999J0D01*
G01*
X93845999Y-80821000D01*
G75*
G02*
X93596000Y-80571001I0J249999D01*
G01*
X93596000Y-79920999D01*
G75*
G02*
X93845999Y-79671000I249999J0D01*
G01*
G37*
G04 #@! TD.AperFunction*
G04 #@! TA.AperFunction,SMDPad,CuDef*
G36*
G01*
X94619001Y-68039500D02*
X93718999Y-68039500D01*
G75*
G02*
X93469000Y-67789501I0J249999D01*
G01*
X93469000Y-67139499D01*
G75*
G02*
X93718999Y-66889500I249999J0D01*
G01*
X94619001Y-66889500D01*
G75*
G02*
X94869000Y-67139499I0J-249999D01*
G01*
X94869000Y-67789501D01*
G75*
G02*
X94619001Y-68039500I-249999J0D01*
G01*
G37*
G04 #@! TD.AperFunction*
G04 #@! TA.AperFunction,SMDPad,CuDef*
G36*
G01*
X94619001Y-70089500D02*
X93718999Y-70089500D01*
G75*
G02*
X93469000Y-69839501I0J249999D01*
G01*
X93469000Y-69189499D01*
G75*
G02*
X93718999Y-68939500I249999J0D01*
G01*
X94619001Y-68939500D01*
G75*
G02*
X94869000Y-69189499I0J-249999D01*
G01*
X94869000Y-69839501D01*
G75*
G02*
X94619001Y-70089500I-249999J0D01*
G01*
G37*
G04 #@! TD.AperFunction*
D14*
X90037000Y-79417500D03*
X90037000Y-78617500D03*
X90037000Y-77817500D03*
X90037000Y-77017500D03*
X90037000Y-76217500D03*
X90037000Y-75417500D03*
X90037000Y-74617500D03*
X90037000Y-73817500D03*
D15*
X88587000Y-72367500D03*
X87787000Y-72367500D03*
X86987000Y-72367500D03*
X86187000Y-72367500D03*
X85387000Y-72367500D03*
X84587000Y-72367500D03*
X83787000Y-72367500D03*
X82987000Y-72367500D03*
D14*
X81537000Y-73817500D03*
X81537000Y-74617500D03*
X81537000Y-75417500D03*
X81537000Y-76217500D03*
X81537000Y-77017500D03*
X81537000Y-77817500D03*
X81537000Y-78617500D03*
X81537000Y-79417500D03*
D15*
X82987000Y-80867500D03*
X83787000Y-80867500D03*
X84587000Y-80867500D03*
X85387000Y-80867500D03*
X86187000Y-80867500D03*
X86987000Y-80867500D03*
X87787000Y-80867500D03*
X88587000Y-80867500D03*
D16*
X77390000Y-69282000D03*
X79390000Y-69282000D03*
X81390000Y-69282000D03*
X83390000Y-69282000D03*
X85390000Y-69282000D03*
X87390000Y-69282000D03*
X89390000Y-69282000D03*
X91390000Y-69282000D03*
X85390000Y-50282000D03*
X83390000Y-50282000D03*
X87390000Y-50282000D03*
G04 #@! TA.AperFunction,SMDPad,CuDef*
G36*
G01*
X86371000Y-82707999D02*
X86371000Y-83608001D01*
G75*
G02*
X86121001Y-83858000I-249999J0D01*
G01*
X85470999Y-83858000D01*
G75*
G02*
X85221000Y-83608001I0J249999D01*
G01*
X85221000Y-82707999D01*
G75*
G02*
X85470999Y-82458000I249999J0D01*
G01*
X86121001Y-82458000D01*
G75*
G02*
X86371000Y-82707999I0J-249999D01*
G01*
G37*
G04 #@! TD.AperFunction*
G04 #@! TA.AperFunction,SMDPad,CuDef*
G36*
G01*
X84321000Y-82707999D02*
X84321000Y-83608001D01*
G75*
G02*
X84071001Y-83858000I-249999J0D01*
G01*
X83420999Y-83858000D01*
G75*
G02*
X83171000Y-83608001I0J249999D01*
G01*
X83171000Y-82707999D01*
G75*
G02*
X83420999Y-82458000I249999J0D01*
G01*
X84071001Y-82458000D01*
G75*
G02*
X84321000Y-82707999I0J-249999D01*
G01*
G37*
G04 #@! TD.AperFunction*
D17*
X93915000Y-75512000D03*
X93915000Y-72262000D03*
G04 #@! TA.AperFunction,SMDPad,CuDef*
G36*
G01*
X78350001Y-95575000D02*
X77449999Y-95575000D01*
G75*
G02*
X77200000Y-95325001I0J249999D01*
G01*
X77200000Y-94674999D01*
G75*
G02*
X77449999Y-94425000I249999J0D01*
G01*
X78350001Y-94425000D01*
G75*
G02*
X78600000Y-94674999I0J-249999D01*
G01*
X78600000Y-95325001D01*
G75*
G02*
X78350001Y-95575000I-249999J0D01*
G01*
G37*
G04 #@! TD.AperFunction*
G04 #@! TA.AperFunction,SMDPad,CuDef*
G36*
G01*
X78350001Y-93525000D02*
X77449999Y-93525000D01*
G75*
G02*
X77200000Y-93275001I0J249999D01*
G01*
X77200000Y-92624999D01*
G75*
G02*
X77449999Y-92375000I249999J0D01*
G01*
X78350001Y-92375000D01*
G75*
G02*
X78600000Y-92624999I0J-249999D01*
G01*
X78600000Y-93275001D01*
G75*
G02*
X78350001Y-93525000I-249999J0D01*
G01*
G37*
G04 #@! TD.AperFunction*
G04 #@! TA.AperFunction,SMDPad,CuDef*
G36*
G01*
X80850001Y-93525000D02*
X79949999Y-93525000D01*
G75*
G02*
X79700000Y-93275001I0J249999D01*
G01*
X79700000Y-92624999D01*
G75*
G02*
X79949999Y-92375000I249999J0D01*
G01*
X80850001Y-92375000D01*
G75*
G02*
X81100000Y-92624999I0J-249999D01*
G01*
X81100000Y-93275001D01*
G75*
G02*
X80850001Y-93525000I-249999J0D01*
G01*
G37*
G04 #@! TD.AperFunction*
G04 #@! TA.AperFunction,SMDPad,CuDef*
G36*
G01*
X80850001Y-95575000D02*
X79949999Y-95575000D01*
G75*
G02*
X79700000Y-95325001I0J249999D01*
G01*
X79700000Y-94674999D01*
G75*
G02*
X79949999Y-94425000I249999J0D01*
G01*
X80850001Y-94425000D01*
G75*
G02*
X81100000Y-94674999I0J-249999D01*
G01*
X81100000Y-95325001D01*
G75*
G02*
X80850001Y-95575000I-249999J0D01*
G01*
G37*
G04 #@! TD.AperFunction*
G04 #@! TA.AperFunction,SMDPad,CuDef*
G36*
G01*
X106975000Y-70549999D02*
X106975000Y-71450001D01*
G75*
G02*
X106725001Y-71700000I-249999J0D01*
G01*
X106074999Y-71700000D01*
G75*
G02*
X105825000Y-71450001I0J249999D01*
G01*
X105825000Y-70549999D01*
G75*
G02*
X106074999Y-70300000I249999J0D01*
G01*
X106725001Y-70300000D01*
G75*
G02*
X106975000Y-70549999I0J-249999D01*
G01*
G37*
G04 #@! TD.AperFunction*
G04 #@! TA.AperFunction,SMDPad,CuDef*
G36*
G01*
X104925000Y-70549999D02*
X104925000Y-71450001D01*
G75*
G02*
X104675001Y-71700000I-249999J0D01*
G01*
X104024999Y-71700000D01*
G75*
G02*
X103775000Y-71450001I0J249999D01*
G01*
X103775000Y-70549999D01*
G75*
G02*
X104024999Y-70300000I249999J0D01*
G01*
X104675001Y-70300000D01*
G75*
G02*
X104925000Y-70549999I0J-249999D01*
G01*
G37*
G04 #@! TD.AperFunction*
D13*
X96300000Y-160600000D03*
D18*
X98300000Y-160600000D03*
X100300000Y-160600000D03*
X102300000Y-160600000D03*
X104300000Y-160600000D03*
X106300000Y-160600000D03*
D19*
X107100000Y-60000000D03*
X115100000Y-60000000D03*
G04 #@! TA.AperFunction,SMDPad,CuDef*
G36*
G01*
X119375000Y-75625000D02*
X119375000Y-74525000D01*
G75*
G02*
X119625000Y-74275000I250000J0D01*
G01*
X121725000Y-74275000D01*
G75*
G02*
X121975000Y-74525000I0J-250000D01*
G01*
X121975000Y-75625000D01*
G75*
G02*
X121725000Y-75875000I-250000J0D01*
G01*
X119625000Y-75875000D01*
G75*
G02*
X119375000Y-75625000I0J250000D01*
G01*
G37*
G04 #@! TD.AperFunction*
G04 #@! TA.AperFunction,SMDPad,CuDef*
G36*
G01*
X122975000Y-75625000D02*
X122975000Y-74525000D01*
G75*
G02*
X123225000Y-74275000I250000J0D01*
G01*
X125325000Y-74275000D01*
G75*
G02*
X125575000Y-74525000I0J-250000D01*
G01*
X125575000Y-75625000D01*
G75*
G02*
X125325000Y-75875000I-250000J0D01*
G01*
X123225000Y-75875000D01*
G75*
G02*
X122975000Y-75625000I0J250000D01*
G01*
G37*
G04 #@! TD.AperFunction*
D20*
X123100000Y-87625000D03*
X119100000Y-87625000D03*
X119100000Y-93575000D03*
X123100000Y-93575000D03*
D21*
X100800000Y-50600000D03*
D12*
X103340000Y-50600000D03*
X105880000Y-50600000D03*
X108420000Y-50600000D03*
X110960000Y-50600000D03*
X113500000Y-50600000D03*
X94800000Y-63200000D03*
X94800000Y-60660000D03*
X94800000Y-58120000D03*
X94800000Y-55580000D03*
X94800000Y-53040000D03*
D21*
X94800000Y-50500000D03*
D22*
X114200000Y-127900000D03*
D23*
X114200000Y-118650000D03*
D22*
X118200000Y-127900000D03*
D23*
X118200000Y-118650000D03*
X109200000Y-118650000D03*
D22*
X109200000Y-127900000D03*
D23*
X105200000Y-118650000D03*
D22*
X105200000Y-127900000D03*
D24*
X114025000Y-69900000D03*
D25*
X114025000Y-76200000D03*
X116325000Y-76200000D03*
X111725000Y-76200000D03*
D26*
X123800000Y-51600000D03*
X123800000Y-50650000D03*
X123800000Y-49700000D03*
X121600000Y-49700000D03*
X121600000Y-51600000D03*
X121600000Y-50650000D03*
G04 #@! TA.AperFunction,SMDPad,CuDef*
G36*
G01*
X100349999Y-53600000D02*
X101250001Y-53600000D01*
G75*
G02*
X101500000Y-53849999I0J-249999D01*
G01*
X101500000Y-54500001D01*
G75*
G02*
X101250001Y-54750000I-249999J0D01*
G01*
X100349999Y-54750000D01*
G75*
G02*
X100100000Y-54500001I0J249999D01*
G01*
X100100000Y-53849999D01*
G75*
G02*
X100349999Y-53600000I249999J0D01*
G01*
G37*
G04 #@! TD.AperFunction*
G04 #@! TA.AperFunction,SMDPad,CuDef*
G36*
G01*
X100349999Y-55650000D02*
X101250001Y-55650000D01*
G75*
G02*
X101500000Y-55899999I0J-249999D01*
G01*
X101500000Y-56550001D01*
G75*
G02*
X101250001Y-56800000I-249999J0D01*
G01*
X100349999Y-56800000D01*
G75*
G02*
X100100000Y-56550001I0J249999D01*
G01*
X100100000Y-55899999D01*
G75*
G02*
X100349999Y-55650000I249999J0D01*
G01*
G37*
G04 #@! TD.AperFunction*
D27*
X114220000Y-85290000D03*
X114220000Y-87830000D03*
X114220000Y-90370000D03*
X114220000Y-92910000D03*
D28*
X88200000Y-75411000D03*
X86121000Y-83158000D03*
X82993000Y-76173000D03*
X85980000Y-59180000D03*
X120224999Y-51775001D03*
X106350000Y-72250000D03*
X92100000Y-76600000D03*
X84350000Y-42600000D03*
X73100000Y-129000000D03*
X79246500Y-73442500D03*
X79158500Y-78541500D03*
X87530000Y-66870000D03*
X79600000Y-66820000D03*
X120250000Y-50650000D03*
X125900000Y-40600000D03*
X118500000Y-40549999D03*
X101350001Y-40549999D03*
X84350001Y-40599999D03*
X118949999Y-171800001D03*
X101299999Y-171800001D03*
X84550000Y-171800000D03*
X101350001Y-42549999D03*
X118500000Y-42600000D03*
X118950000Y-169850000D03*
X101300000Y-169800000D03*
X84550000Y-169850000D03*
X92010000Y-72871000D03*
X88835000Y-82586500D03*
X79900000Y-122500000D03*
X82700000Y-122500000D03*
X83755000Y-73823500D03*
X81405500Y-71728000D03*
X85406000Y-76046000D03*
X82040500Y-83158000D03*
X82866000Y-79348000D03*
X91188969Y-63411031D03*
X87501500Y-83221500D03*
X88035776Y-82621992D03*
X77900000Y-91500000D03*
X80400000Y-91500000D03*
X79800000Y-89400000D03*
X87819000Y-74014000D03*
X126500000Y-45800000D03*
X118400000Y-73900000D03*
X86168000Y-74014000D03*
X90200000Y-65200000D03*
X90200000Y-66100000D03*
X89343000Y-71855000D03*
X122800000Y-42700000D03*
X85100000Y-74000000D03*
X90200000Y-64300000D03*
D29*
X77390000Y-69282000D02*
X77390000Y-68538000D01*
X90037000Y-75417500D02*
X88206500Y-75417500D01*
X88206500Y-75417500D02*
X88200000Y-75411000D01*
X82993000Y-76173000D02*
X81581500Y-76173000D01*
X81581500Y-76173000D02*
X81537000Y-76217500D01*
X90037000Y-75417500D02*
X91087000Y-75417500D01*
X91087000Y-75417500D02*
X91372000Y-75702500D01*
X92200500Y-77971000D02*
X92200500Y-77846000D01*
X79310000Y-76193000D02*
X79310000Y-75794500D01*
X79310000Y-75794500D02*
X80487000Y-74617500D01*
X80487000Y-74617500D02*
X81537000Y-74617500D01*
X79310000Y-76193000D02*
X81512500Y-76193000D01*
X81512500Y-76193000D02*
X81537000Y-76217500D01*
X77341500Y-75601500D02*
X78718500Y-75601500D01*
X78718500Y-75601500D02*
X79310000Y-76193000D01*
X77552000Y-71791500D02*
X77552000Y-75391000D01*
X77552000Y-75391000D02*
X77341500Y-75601500D01*
X77390000Y-69282000D02*
X77390000Y-71629500D01*
X77390000Y-71629500D02*
X77552000Y-71791500D01*
X77390000Y-71185000D02*
X77552000Y-71347000D01*
X77677000Y-71347000D02*
X77552000Y-71347000D01*
X94660000Y-50500000D02*
X94800000Y-50500000D01*
X77390000Y-67770000D02*
X85980000Y-59180000D01*
X77390000Y-69282000D02*
X77390000Y-67770000D01*
X85980000Y-59180000D02*
X85980000Y-59180000D01*
X85796000Y-84996000D02*
X86100000Y-85300000D01*
X85796000Y-83158000D02*
X85796000Y-84996000D01*
X75511409Y-90025001D02*
X75150010Y-90386400D01*
X82373501Y-90025001D02*
X75511409Y-90025001D01*
X86100000Y-86298502D02*
X82373501Y-90025001D01*
X86100000Y-85300000D02*
X86100000Y-86298502D01*
X75150010Y-161050010D02*
X77149970Y-163049970D01*
X75150010Y-90386400D02*
X75150010Y-161050010D01*
X93850030Y-163049970D02*
X96300000Y-160600000D01*
X77149970Y-163049970D02*
X93850030Y-163049970D01*
X121424999Y-51775001D02*
X121600000Y-51600000D01*
X120224999Y-51775001D02*
X121424999Y-51775001D01*
X106350000Y-73750000D02*
X107675000Y-75075000D01*
X106350000Y-70975000D02*
X106350000Y-72250000D01*
X106350000Y-72250000D02*
X106350000Y-73750000D01*
X92200500Y-76600500D02*
X92200500Y-76600500D01*
X92200500Y-76700500D02*
X92100000Y-76600000D01*
X92200500Y-78196000D02*
X92200500Y-76700500D01*
X92100000Y-76600000D02*
X91400000Y-76600000D01*
X91400000Y-76600000D02*
X91372000Y-76572000D01*
X91372000Y-75702500D02*
X91372000Y-76572000D01*
X90926500Y-77017500D02*
X91372000Y-76572000D01*
X90037000Y-77017500D02*
X90926500Y-77017500D01*
X107675000Y-75075000D02*
X108750000Y-74000000D01*
X108750000Y-74000000D02*
X113000000Y-74000000D01*
X114025000Y-75025000D02*
X114025000Y-76200000D01*
X113000000Y-74000000D02*
X114025000Y-75025000D01*
X90037000Y-76217500D02*
X88536500Y-76217500D01*
X88574500Y-77817500D02*
X90037000Y-77817500D01*
X88327000Y-77570000D02*
X88574500Y-77817500D01*
X88327000Y-76427000D02*
X88327000Y-77570000D01*
X88536500Y-76217500D02*
X88327000Y-76427000D01*
X81708500Y-77189000D02*
X81537000Y-77017500D01*
X80052000Y-71791500D02*
X80052000Y-72637000D01*
X80052000Y-72637000D02*
X79246500Y-73442500D01*
X80052000Y-71791500D02*
X80052000Y-69944000D01*
X80052000Y-69944000D02*
X79390000Y-69282000D01*
X87390000Y-51794000D02*
X87390000Y-50282000D01*
X92200500Y-80471000D02*
X92200500Y-80636000D01*
X90037000Y-77817500D02*
X91087000Y-77817500D01*
X91087000Y-77817500D02*
X91250499Y-77980999D01*
X91250499Y-77980999D02*
X91250499Y-79395999D01*
X91250499Y-79395999D02*
X92200500Y-80346000D01*
X92200500Y-80346000D02*
X92200500Y-80471000D01*
X81537000Y-77017500D02*
X80487000Y-77017500D01*
X80487000Y-77017500D02*
X80185000Y-77319500D01*
X80185000Y-77319500D02*
X80185000Y-77693000D01*
X80185000Y-77693000D02*
X79310000Y-78568000D01*
X79310000Y-78568000D02*
X79310000Y-78693000D01*
X77341500Y-78141500D02*
X78758500Y-78141500D01*
X78758500Y-78141500D02*
X79158500Y-78541500D01*
X79158500Y-78541500D02*
X79310000Y-78693000D01*
X83390000Y-51794000D02*
X84106000Y-52510000D01*
X84106000Y-52510000D02*
X87390000Y-52510000D01*
X83390000Y-50282000D02*
X83390000Y-51794000D01*
X87390000Y-52510000D02*
X87390000Y-51794000D01*
X106300000Y-160600000D02*
X104300000Y-160600000D01*
X79390000Y-69282000D02*
X79390000Y-68450000D01*
X94270000Y-52510000D02*
X94800000Y-53040000D01*
X87390000Y-52510000D02*
X94270000Y-52510000D01*
X94800000Y-53040000D02*
X99540000Y-48300000D01*
X108660000Y-48300000D02*
X110960000Y-50600000D01*
X99540000Y-48300000D02*
X108660000Y-48300000D01*
X87625000Y-66775000D02*
X87530000Y-66870000D01*
X93704500Y-66775000D02*
X87625000Y-66775000D01*
X94169000Y-67239500D02*
X93704500Y-66775000D01*
X94169000Y-67364500D02*
X94169000Y-67239500D01*
X94296000Y-80346000D02*
X95246001Y-79395999D01*
X94296000Y-80471000D02*
X94296000Y-80346000D01*
X95246001Y-68441501D02*
X94169000Y-67364500D01*
X92200500Y-80471000D02*
X94296000Y-80471000D01*
X105999999Y-160900001D02*
X106300000Y-160600000D01*
X87530000Y-66870000D02*
X87530000Y-66870000D01*
X123800000Y-50650000D02*
X121600000Y-50650000D01*
X77283000Y-78200000D02*
X77341500Y-78141500D01*
X79390000Y-69282000D02*
X79390000Y-67010000D01*
X93360000Y-53040000D02*
X94800000Y-53040000D01*
X79390000Y-67010000D02*
X93360000Y-53040000D01*
X121600000Y-50650000D02*
X120225000Y-50650000D01*
X120225000Y-50650000D02*
X120150000Y-50650000D01*
X104300000Y-74850000D02*
X104075000Y-75075000D01*
X104300000Y-70975000D02*
X104300000Y-74850000D01*
X124050000Y-74850000D02*
X124275000Y-75075000D01*
X95392002Y-71000000D02*
X95246001Y-70853999D01*
X104350000Y-71000000D02*
X95392002Y-71000000D01*
X95246001Y-70853999D02*
X95246001Y-68441501D01*
X95246001Y-79395999D02*
X95246001Y-70853999D01*
X104075000Y-75075000D02*
X106500000Y-77500000D01*
X110425000Y-77500000D02*
X111725000Y-76200000D01*
X106500000Y-77500000D02*
X110425000Y-77500000D01*
X124275000Y-75075000D02*
X121850000Y-77500000D01*
X113050001Y-77525001D02*
X111725000Y-76200000D01*
X117474999Y-77525001D02*
X113050001Y-77525001D01*
X117500000Y-77500000D02*
X117474999Y-77525001D01*
X121850000Y-77500000D02*
X117500000Y-77500000D01*
X104350000Y-70750000D02*
X115100000Y-60000000D01*
X104350000Y-71000000D02*
X104350000Y-70750000D01*
X117685000Y-60000000D02*
X122650000Y-64965000D01*
X115100000Y-60000000D02*
X117685000Y-60000000D01*
X124290002Y-50650000D02*
X123800000Y-50650000D01*
X125900000Y-49040002D02*
X124290002Y-50650000D01*
X125900000Y-40600000D02*
X125900000Y-49040002D01*
X75863609Y-164850010D02*
X73100000Y-162086401D01*
X100049990Y-164850010D02*
X75863609Y-164850010D01*
X104300000Y-160600000D02*
X100049990Y-164850010D01*
X77341500Y-78141500D02*
X75658500Y-78141500D01*
X73099999Y-80700001D02*
X73099999Y-82399999D01*
X75658500Y-78141500D02*
X73099999Y-80700001D01*
X73099999Y-82399999D02*
X73099999Y-82233010D01*
X73100000Y-162086401D02*
X73099999Y-82399999D01*
X118950000Y-171375736D02*
X118950000Y-169850000D01*
X118949999Y-171800001D02*
X118950000Y-171375736D01*
X101300000Y-171375736D02*
X101300000Y-169800000D01*
X101299999Y-171800001D02*
X101300000Y-171375736D01*
X84550000Y-171800000D02*
X84550000Y-169850000D01*
X84350000Y-40600000D02*
X84350001Y-40599999D01*
X84350000Y-42600000D02*
X84350000Y-40600000D01*
X101350001Y-42549999D02*
X101350001Y-40549999D01*
X118500000Y-42600000D02*
X118500000Y-40549999D01*
X91390000Y-69282000D02*
X91390000Y-68620000D01*
X91390000Y-68620000D02*
X90464999Y-67694999D01*
X90464999Y-67694999D02*
X88529999Y-67694999D01*
X88529999Y-67694999D02*
X88315001Y-67909997D01*
X88315001Y-67909997D02*
X88315001Y-70804001D01*
X88315001Y-70804001D02*
X87876503Y-71242499D01*
X87876503Y-71242499D02*
X84851999Y-71242499D01*
X84851999Y-71242499D02*
X84587000Y-71507498D01*
X84587000Y-71507498D02*
X84587000Y-72367500D01*
X91390000Y-69282000D02*
X91390000Y-69944000D01*
X92010000Y-72871000D02*
X91248000Y-72871000D01*
X91248000Y-72871000D02*
X90359000Y-71982000D01*
X89390000Y-70966000D02*
X89390000Y-71013000D01*
X89390000Y-69282000D02*
X89390000Y-70966000D01*
X89390000Y-71013000D02*
X90359000Y-71982000D01*
X88835000Y-82586500D02*
X88835000Y-81115500D01*
X88835000Y-81115500D02*
X88587000Y-80867500D01*
X89390000Y-69282000D02*
X89390000Y-69944000D01*
X85390000Y-48770000D02*
X85390000Y-50282000D01*
X84920000Y-48300000D02*
X85390000Y-48770000D01*
X77300000Y-48300000D02*
X84920000Y-48300000D01*
X76400000Y-122500000D02*
X75600020Y-121700020D01*
X79900000Y-122500000D02*
X76400000Y-122500000D01*
X75600020Y-97400020D02*
X76500040Y-96500000D01*
X75600020Y-121700020D02*
X75600020Y-97400020D01*
X76500040Y-96500000D02*
X77500000Y-96500000D01*
X77900000Y-96100000D02*
X77900000Y-95000000D01*
X77500000Y-96500000D02*
X77900000Y-96100000D01*
X79700000Y-97000000D02*
X78000000Y-97000000D01*
X80400000Y-96300000D02*
X79700000Y-97000000D01*
X80400000Y-95000000D02*
X80400000Y-96300000D01*
X78000000Y-97000000D02*
X78100000Y-97000000D01*
X77500000Y-97000000D02*
X78000000Y-97000000D01*
X76636450Y-97000000D02*
X77500000Y-97000000D01*
X76050030Y-97586420D02*
X76636450Y-97000000D01*
X76050030Y-121450030D02*
X76050030Y-97586420D01*
X76474999Y-121874999D02*
X76050030Y-121450030D01*
X82074999Y-121874999D02*
X76474999Y-121874999D01*
X82700000Y-122500000D02*
X82074999Y-121874999D01*
X83755000Y-73823500D02*
X83755000Y-72399500D01*
X83755000Y-72399500D02*
X83787000Y-72367500D01*
X81390000Y-69282000D02*
X81390000Y-71712500D01*
X81390000Y-71712500D02*
X81405500Y-71728000D01*
X81390000Y-69282000D02*
X81390000Y-66310000D01*
X92120000Y-55580000D02*
X94800000Y-55580000D01*
X81390000Y-66310000D02*
X92120000Y-55580000D01*
X85596500Y-69075500D02*
X85390000Y-69282000D01*
X85390000Y-68620000D02*
X85390000Y-69282000D01*
X82987000Y-72367500D02*
X82987000Y-71317500D01*
X82987000Y-71317500D02*
X83435499Y-70869001D01*
X83435499Y-70869001D02*
X84464999Y-70869001D01*
X84464999Y-70869001D02*
X85390000Y-69944000D01*
X85390000Y-69944000D02*
X85390000Y-69282000D01*
X85390000Y-69282000D02*
X85390000Y-65110000D01*
X89840000Y-60660000D02*
X94800000Y-60660000D01*
X85390000Y-65110000D02*
X89840000Y-60660000D01*
X83390000Y-68620000D02*
X83390000Y-69282000D01*
X81537000Y-73292500D02*
X81537000Y-73817500D01*
X82030502Y-72798998D02*
X81537000Y-73292500D01*
X82030502Y-71303498D02*
X82030502Y-72798998D01*
X83390000Y-69944000D02*
X82030502Y-71303498D01*
X83390000Y-69282000D02*
X83390000Y-69944000D01*
X83390000Y-69282000D02*
X83390000Y-65610000D01*
X90880000Y-58120000D02*
X94800000Y-58120000D01*
X83390000Y-65610000D02*
X90880000Y-58120000D01*
X82866000Y-79348000D02*
X85914000Y-79348000D01*
X85914000Y-79348000D02*
X86187000Y-79621000D01*
X85406000Y-76046000D02*
X85406000Y-78840000D01*
X85406000Y-78840000D02*
X86187000Y-79621000D01*
X86187000Y-79621000D02*
X86187000Y-80867500D01*
X83421000Y-83158000D02*
X82040500Y-83158000D01*
X94588969Y-63411031D02*
X94800000Y-63200000D01*
X91188969Y-63411031D02*
X91188969Y-63411031D01*
X100800000Y-57200000D02*
X100800000Y-56225000D01*
X94800000Y-63200000D02*
X100800000Y-57200000D01*
X91188969Y-63411031D02*
X94588969Y-63411031D01*
X86987000Y-82038998D02*
X86987000Y-81917500D01*
X87501500Y-83221500D02*
X87201501Y-82921501D01*
X86987000Y-81917500D02*
X86987000Y-80867500D01*
X87201501Y-82921501D02*
X87201501Y-82253499D01*
X87201501Y-82253499D02*
X86987000Y-82038998D01*
X87787000Y-82373216D02*
X88035776Y-82621992D01*
X87787000Y-80867500D02*
X87787000Y-82373216D01*
X77900000Y-92950000D02*
X77900000Y-91500000D01*
X80487000Y-78617500D02*
X81537000Y-78617500D01*
X80411999Y-78692501D02*
X80487000Y-78617500D01*
X80411999Y-79514591D02*
X80411999Y-78692501D01*
X79245090Y-80681500D02*
X80411999Y-79514591D01*
X77341500Y-80681500D02*
X79245090Y-80681500D01*
X80400000Y-92950000D02*
X80400000Y-91500000D01*
X77341500Y-83221500D02*
X81145500Y-79417500D01*
X81145500Y-79417500D02*
X81537000Y-79417500D01*
X77278000Y-85761500D02*
X82172000Y-80867500D01*
X82172000Y-80867500D02*
X82987000Y-80867500D01*
X90037000Y-83162500D02*
X90037000Y-79942500D01*
X87438000Y-85761500D02*
X90037000Y-83162500D01*
X90037000Y-79942500D02*
X90037000Y-79417500D01*
X79818000Y-84559419D02*
X79818000Y-85761500D01*
X83521501Y-82182999D02*
X82090497Y-82182999D01*
X83787000Y-81917500D02*
X83521501Y-82182999D01*
X83787000Y-80867500D02*
X83787000Y-81917500D01*
X79818000Y-84455496D02*
X79818000Y-84559419D01*
X82090497Y-82182999D02*
X79818000Y-84455496D01*
X95400020Y-163499980D02*
X98300000Y-160600000D01*
X76799980Y-163499980D02*
X95400020Y-163499980D01*
X74700000Y-161400000D02*
X76799980Y-163499980D01*
X74700000Y-90200000D02*
X74700000Y-161400000D01*
X75500000Y-89400000D02*
X74700000Y-90200000D01*
X79800000Y-89400000D02*
X75500000Y-89400000D01*
X84587000Y-80867500D02*
X84587000Y-83977002D01*
X84587000Y-83977002D02*
X83652501Y-84911501D01*
X83652501Y-84911501D02*
X83207999Y-84911501D01*
X83207999Y-84911501D02*
X82358000Y-85761500D01*
X76200000Y-164400000D02*
X98500000Y-164400000D01*
X73700000Y-161900000D02*
X76200000Y-164400000D01*
X98500000Y-164400000D02*
X102300000Y-160600000D01*
X73700000Y-94419500D02*
X73700000Y-161900000D01*
X82358000Y-85761500D02*
X79819500Y-88300000D01*
X75000000Y-88300000D02*
X73700000Y-89600000D01*
X79819500Y-88300000D02*
X75000000Y-88300000D01*
X73700000Y-94419500D02*
X73700000Y-89600000D01*
X84898000Y-85761500D02*
X84898000Y-84559419D01*
X84898000Y-84559419D02*
X85045999Y-84411420D01*
X85045999Y-84411420D02*
X85045999Y-82258501D01*
X85045999Y-82258501D02*
X85387000Y-81917500D01*
X85387000Y-81917500D02*
X85387000Y-80867500D01*
X81909490Y-88750010D02*
X84898000Y-85761500D01*
X75249990Y-88750010D02*
X81909490Y-88750010D01*
X74150010Y-89849990D02*
X75249990Y-88750010D01*
X74150010Y-161550010D02*
X74150010Y-89849990D01*
X76549990Y-163949990D02*
X74150010Y-161550010D01*
X96950010Y-163949990D02*
X76549990Y-163949990D01*
X100300000Y-160600000D02*
X96950010Y-163949990D01*
X94296000Y-77971000D02*
X94296000Y-75893000D01*
X94296000Y-75893000D02*
X93915000Y-75512000D01*
X93915000Y-75512000D02*
X92765000Y-75512000D01*
X92765000Y-75512000D02*
X91870500Y-74617500D01*
X91087000Y-74617500D02*
X90037000Y-74617500D01*
X91870500Y-74617500D02*
X91087000Y-74617500D01*
X94169000Y-69739500D02*
X94169000Y-72008000D01*
X94169000Y-72008000D02*
X93915000Y-72262000D01*
X92328500Y-73823500D02*
X92322500Y-73817500D01*
X92322500Y-73817500D02*
X90037000Y-73817500D01*
X93915000Y-72262000D02*
X93890000Y-72262000D01*
X93890000Y-72262000D02*
X92328500Y-73823500D01*
X87819000Y-74014000D02*
X87819000Y-72399500D01*
X87819000Y-72399500D02*
X87787000Y-72367500D01*
X124580000Y-51600000D02*
X126500000Y-49680000D01*
X123800000Y-51600000D02*
X124580000Y-51600000D01*
X126500000Y-49680000D02*
X126500000Y-45800000D01*
X119500000Y-73900000D02*
X118400000Y-73900000D01*
X120675000Y-75075000D02*
X119500000Y-73900000D01*
X116325000Y-76200000D02*
X116325000Y-75075000D01*
X117500000Y-73900000D02*
X118400000Y-73900000D01*
X116325000Y-75075000D02*
X117500000Y-73900000D01*
D30*
X109200000Y-117100000D02*
X109200000Y-118650000D01*
X109200000Y-95390000D02*
X114220000Y-90370000D01*
X109200000Y-118650000D02*
X109200000Y-95390000D01*
X120355000Y-90370000D02*
X114220000Y-90370000D01*
X123100000Y-87625000D02*
X120355000Y-90370000D01*
X105200000Y-118650000D02*
X105200000Y-115300000D01*
X105200000Y-96850000D02*
X114220000Y-87830000D01*
X105200000Y-118650000D02*
X105200000Y-96850000D01*
X114425000Y-87625000D02*
X114220000Y-87830000D01*
X119100000Y-87625000D02*
X114425000Y-87625000D01*
X114200000Y-118650000D02*
X114200000Y-117500000D01*
X114200000Y-98475000D02*
X119100000Y-93575000D01*
X114200000Y-118650000D02*
X114200000Y-98475000D01*
X118200000Y-118650000D02*
X118200000Y-118500000D01*
X121075000Y-95600000D02*
X123100000Y-93575000D01*
X118200000Y-98475000D02*
X123100000Y-93575000D01*
X118200000Y-118650000D02*
X118200000Y-98475000D01*
D29*
X100800000Y-54175000D02*
X100800000Y-50600000D01*
X86187000Y-72367500D02*
X86187000Y-73995000D01*
X86187000Y-73995000D02*
X86168000Y-74014000D01*
X86168000Y-72386500D02*
X86187000Y-72367500D01*
X86104500Y-72450000D02*
X86187000Y-72367500D01*
X90200000Y-65200000D02*
X96825000Y-65200000D01*
X122650000Y-55785000D02*
X106240000Y-55785000D01*
X102962500Y-59062500D02*
X103140000Y-58885000D01*
X106240000Y-55785000D02*
X102962500Y-59062500D01*
X96825000Y-65200000D02*
X102962500Y-59062500D01*
X89343000Y-71855000D02*
X88830500Y-72367500D01*
X88830500Y-72367500D02*
X88587000Y-72367500D01*
X88581000Y-72373500D02*
X88587000Y-72367500D01*
X107100000Y-60000000D02*
X104000000Y-60000000D01*
X104000000Y-60000000D02*
X97900000Y-66100000D01*
X90200000Y-66100000D02*
X97900000Y-66100000D01*
X123900000Y-49700000D02*
X123800000Y-49700000D01*
X125000000Y-48600000D02*
X123900000Y-49700000D01*
X125000000Y-44900000D02*
X125000000Y-48600000D01*
X122800000Y-42700000D02*
X125000000Y-44900000D01*
X85100000Y-73900000D02*
X85100000Y-73900000D01*
X85387000Y-73713000D02*
X85100000Y-74000000D01*
X85387000Y-72367500D02*
X85387000Y-73713000D01*
X102500000Y-55600000D02*
X105400000Y-52700000D01*
X102500000Y-57239002D02*
X102500000Y-55600000D01*
X95364001Y-64375001D02*
X102500000Y-57239002D01*
X94235999Y-64375001D02*
X95364001Y-64375001D01*
X94160998Y-64300000D02*
X94235999Y-64375001D01*
X90200000Y-64300000D02*
X94160998Y-64300000D01*
X117274998Y-52700000D02*
X116950000Y-52700000D01*
X121600000Y-49700000D02*
X120274998Y-49700000D01*
X120274998Y-49700000D02*
X117274998Y-52700000D01*
X105400000Y-52700000D02*
X116950000Y-52700000D01*
M02*
