M48
; DRILL file {KiCad (5.1.7)-1} date 10/19/20 19:05:33
; FORMAT={-:-/ absolute / inch / decimal}
; #@! TF.CreationDate,2020-10-19T19:05:33+02:00
; #@! TF.GenerationSoftware,Kicad,Pcbnew,(5.1.7)-1
; #@! TF.FileFunction,Plated,1,4,PTH
FMAT,2
INCH
T1C0.0118
T2C0.0157
T3C0.0300
T4C0.0315
T5C0.0394
%
G90
G05
T1
X3.1339Y-2.6307
X3.3209Y-1.6772
X3.3209Y-1.5984
X3.3287Y-6.687
X3.3287Y-6.7638
X3.385Y-2.3299
X3.4461Y-2.6327
X3.5512Y-2.5669
X3.5901Y-2.4965
X3.9882Y-6.7638
X3.9882Y-6.685
X3.9902Y-1.5965
X3.9902Y-1.6752
X4.6654Y-1.5965
X4.6654Y-1.6772
X4.6831Y-6.7638
X4.6831Y-6.687
T2
X2.878Y-5.0787
X3.0669Y-3.6024
X3.1165Y-3.0922
X3.1199Y-2.8914
X3.1417Y-3.5197
X3.1457Y-4.8228
X3.1654Y-3.6024
X3.2049Y-2.8239
X3.2299Y-3.2739
X3.2559Y-4.8228
X3.2624Y-3.1239
X3.2674Y-2.9989
X3.2974Y-2.9064
X3.3504Y-2.9134
X3.3624Y-2.9939
X3.3906Y-3.2739
X3.3924Y-2.9139
X3.4449Y-3.2764
X3.4574Y-2.9139
X3.466Y-3.2528
X3.4724Y-2.9689
X3.4974Y-3.2514
X3.5174Y-2.8289
X3.5512Y-2.5315
X3.5512Y-2.6024
X3.6224Y-2.8689
X3.626Y-3.0157
X4.187Y-2.8445
X4.6614Y-2.9094
X4.7333Y-2.0384
X4.7343Y-1.9941
X4.8346Y-1.6811
X4.9567Y-1.5984
X4.9803Y-1.8031
T3
X4.4969Y-3.3579
X4.4969Y-3.4579
X4.4969Y-3.5579
X4.4969Y-3.6579
T4
X3.7913Y-6.3228
X3.8701Y-6.3228
X3.9488Y-6.3228
X4.0276Y-6.3228
X4.1063Y-6.3228
X4.185Y-6.3228
X3.0433Y-1.9016
T5
X3.0424Y-3.3764
X3.1424Y-3.3764
X3.2424Y-3.3764
X3.3424Y-3.3764
X3.4424Y-3.3764
X3.5424Y-3.3764
X3.7323Y-1.9882
X3.7323Y-2.0882
X3.7323Y-2.1882
X3.7323Y-2.2882
X3.7323Y-2.3882
X3.7323Y-2.4882
X3.9685Y-1.9921
X4.0685Y-1.9921
X4.1685Y-1.9921
X4.2685Y-1.9921
X4.3685Y-1.9921
X4.4685Y-1.9921
X3.0449Y-2.9764
X3.0449Y-3.0764
X3.0449Y-3.1764
X3.0449Y-3.2764
T0
M30
