G04 #@! TF.GenerationSoftware,KiCad,Pcbnew,(5.1.7)-1*
G04 #@! TF.CreationDate,2020-10-19T19:05:30+02:00*
G04 #@! TF.ProjectId,Touch-Steuerung,546f7563-682d-4537-9465-756572756e67,1.0*
G04 #@! TF.SameCoordinates,Original*
G04 #@! TF.FileFunction,Copper,L4,Bot*
G04 #@! TF.FilePolarity,Positive*
%FSLAX46Y46*%
G04 Gerber Fmt 4.6, Leading zero omitted, Abs format (unit mm)*
G04 Created by KiCad (PCBNEW (5.1.7)-1) date 2020-10-19 19:05:30*
%MOMM*%
%LPD*%
G01*
G04 APERTURE LIST*
G04 #@! TA.AperFunction,ComponentPad*
%ADD10C,1.700000*%
G04 #@! TD*
G04 #@! TA.AperFunction,ComponentPad*
%ADD11O,1.700000X1.700000*%
G04 #@! TD*
G04 #@! TA.AperFunction,ComponentPad*
%ADD12R,1.350000X1.350000*%
G04 #@! TD*
G04 #@! TA.AperFunction,SMDPad,CuDef*
%ADD13R,1.500000X1.000000*%
G04 #@! TD*
G04 #@! TA.AperFunction,ComponentPad*
%ADD14O,1.350000X1.350000*%
G04 #@! TD*
G04 #@! TA.AperFunction,ComponentPad*
%ADD15R,1.700000X1.700000*%
G04 #@! TD*
G04 #@! TA.AperFunction,ComponentPad*
%ADD16C,1.524000*%
G04 #@! TD*
G04 #@! TA.AperFunction,ViaPad*
%ADD17C,0.600000*%
G04 #@! TD*
G04 #@! TA.AperFunction,Conductor*
%ADD18C,0.250000*%
G04 #@! TD*
G04 #@! TA.AperFunction,Conductor*
%ADD19C,0.600000*%
G04 #@! TD*
G04 APERTURE END LIST*
D10*
X77341500Y-75601500D03*
D11*
X77341500Y-78141500D03*
X77341500Y-80681500D03*
X77341500Y-83221500D03*
D10*
X77278000Y-85761500D03*
D11*
X79818000Y-85761500D03*
X82358000Y-85761500D03*
X84898000Y-85761500D03*
X87438000Y-85761500D03*
X89978000Y-85761500D03*
D12*
X77300000Y-48300000D03*
G04 #@! TA.AperFunction,SMDPad,CuDef*
G36*
G01*
X80525000Y-124712500D02*
X79275000Y-124712500D01*
G75*
G02*
X79025000Y-124462500I0J250000D01*
G01*
X79025000Y-123537500D01*
G75*
G02*
X79275000Y-123287500I250000J0D01*
G01*
X80525000Y-123287500D01*
G75*
G02*
X80775000Y-123537500I0J-250000D01*
G01*
X80775000Y-124462500D01*
G75*
G02*
X80525000Y-124712500I-250000J0D01*
G01*
G37*
G04 #@! TD.AperFunction*
G04 #@! TA.AperFunction,SMDPad,CuDef*
G36*
G01*
X80525000Y-127687500D02*
X79275000Y-127687500D01*
G75*
G02*
X79025000Y-127437500I0J250000D01*
G01*
X79025000Y-126512500D01*
G75*
G02*
X79275000Y-126262500I250000J0D01*
G01*
X80525000Y-126262500D01*
G75*
G02*
X80775000Y-126512500I0J-250000D01*
G01*
X80775000Y-127437500D01*
G75*
G02*
X80525000Y-127687500I-250000J0D01*
G01*
G37*
G04 #@! TD.AperFunction*
G04 #@! TA.AperFunction,SMDPad,CuDef*
G36*
G01*
X83325000Y-127712500D02*
X82075000Y-127712500D01*
G75*
G02*
X81825000Y-127462500I0J250000D01*
G01*
X81825000Y-126537500D01*
G75*
G02*
X82075000Y-126287500I250000J0D01*
G01*
X83325000Y-126287500D01*
G75*
G02*
X83575000Y-126537500I0J-250000D01*
G01*
X83575000Y-127462500D01*
G75*
G02*
X83325000Y-127712500I-250000J0D01*
G01*
G37*
G04 #@! TD.AperFunction*
G04 #@! TA.AperFunction,SMDPad,CuDef*
G36*
G01*
X83325000Y-124737500D02*
X82075000Y-124737500D01*
G75*
G02*
X81825000Y-124487500I0J250000D01*
G01*
X81825000Y-123562500D01*
G75*
G02*
X82075000Y-123312500I250000J0D01*
G01*
X83325000Y-123312500D01*
G75*
G02*
X83575000Y-123562500I0J-250000D01*
G01*
X83575000Y-124487500D01*
G75*
G02*
X83325000Y-124737500I-250000J0D01*
G01*
G37*
G04 #@! TD.AperFunction*
D13*
X124350000Y-44800000D03*
X124350000Y-41600000D03*
X129250000Y-44800000D03*
X129250000Y-41600000D03*
X112250000Y-41600000D03*
X112250000Y-44800000D03*
X107350000Y-41600000D03*
X107350000Y-44800000D03*
X95250000Y-41600000D03*
X95250000Y-44800000D03*
X90350000Y-41600000D03*
X90350000Y-44800000D03*
X73350000Y-44800000D03*
X73350000Y-41600000D03*
X78250000Y-44800000D03*
X78250000Y-41600000D03*
X73350000Y-170800000D03*
X73350000Y-167600000D03*
X78250000Y-170800000D03*
X78250000Y-167600000D03*
X95250000Y-167600000D03*
X95250000Y-170800000D03*
X90350000Y-167600000D03*
X90350000Y-170800000D03*
X107350000Y-170800000D03*
X107350000Y-167600000D03*
X112250000Y-170800000D03*
X112250000Y-167600000D03*
X129250000Y-167600000D03*
X129250000Y-170800000D03*
X124350000Y-167600000D03*
X124350000Y-170800000D03*
D12*
X96300000Y-160600000D03*
D14*
X98300000Y-160600000D03*
X100300000Y-160600000D03*
X102300000Y-160600000D03*
X104300000Y-160600000D03*
X106300000Y-160600000D03*
D15*
X100800000Y-50600000D03*
D11*
X103340000Y-50600000D03*
X105880000Y-50600000D03*
X108420000Y-50600000D03*
X110960000Y-50600000D03*
X113500000Y-50600000D03*
X94800000Y-63200000D03*
X94800000Y-60660000D03*
X94800000Y-58120000D03*
X94800000Y-55580000D03*
X94800000Y-53040000D03*
D15*
X94800000Y-50500000D03*
G04 #@! TA.AperFunction,SMDPad,CuDef*
G36*
G01*
X118950001Y-45225000D02*
X118049999Y-45225000D01*
G75*
G02*
X117800000Y-44975001I0J249999D01*
G01*
X117800000Y-44324999D01*
G75*
G02*
X118049999Y-44075000I249999J0D01*
G01*
X118950001Y-44075000D01*
G75*
G02*
X119200000Y-44324999I0J-249999D01*
G01*
X119200000Y-44975001D01*
G75*
G02*
X118950001Y-45225000I-249999J0D01*
G01*
G37*
G04 #@! TD.AperFunction*
G04 #@! TA.AperFunction,SMDPad,CuDef*
G36*
G01*
X118950001Y-43175000D02*
X118049999Y-43175000D01*
G75*
G02*
X117800000Y-42925001I0J249999D01*
G01*
X117800000Y-42274999D01*
G75*
G02*
X118049999Y-42025000I249999J0D01*
G01*
X118950001Y-42025000D01*
G75*
G02*
X119200000Y-42274999I0J-249999D01*
G01*
X119200000Y-42925001D01*
G75*
G02*
X118950001Y-43175000I-249999J0D01*
G01*
G37*
G04 #@! TD.AperFunction*
G04 #@! TA.AperFunction,SMDPad,CuDef*
G36*
G01*
X101750001Y-43175000D02*
X100849999Y-43175000D01*
G75*
G02*
X100600000Y-42925001I0J249999D01*
G01*
X100600000Y-42274999D01*
G75*
G02*
X100849999Y-42025000I249999J0D01*
G01*
X101750001Y-42025000D01*
G75*
G02*
X102000000Y-42274999I0J-249999D01*
G01*
X102000000Y-42925001D01*
G75*
G02*
X101750001Y-43175000I-249999J0D01*
G01*
G37*
G04 #@! TD.AperFunction*
G04 #@! TA.AperFunction,SMDPad,CuDef*
G36*
G01*
X101750001Y-45225000D02*
X100849999Y-45225000D01*
G75*
G02*
X100600000Y-44975001I0J249999D01*
G01*
X100600000Y-44324999D01*
G75*
G02*
X100849999Y-44075000I249999J0D01*
G01*
X101750001Y-44075000D01*
G75*
G02*
X102000000Y-44324999I0J-249999D01*
G01*
X102000000Y-44975001D01*
G75*
G02*
X101750001Y-45225000I-249999J0D01*
G01*
G37*
G04 #@! TD.AperFunction*
G04 #@! TA.AperFunction,SMDPad,CuDef*
G36*
G01*
X84800001Y-45225000D02*
X83899999Y-45225000D01*
G75*
G02*
X83650000Y-44975001I0J249999D01*
G01*
X83650000Y-44324999D01*
G75*
G02*
X83899999Y-44075000I249999J0D01*
G01*
X84800001Y-44075000D01*
G75*
G02*
X85050000Y-44324999I0J-249999D01*
G01*
X85050000Y-44975001D01*
G75*
G02*
X84800001Y-45225000I-249999J0D01*
G01*
G37*
G04 #@! TD.AperFunction*
G04 #@! TA.AperFunction,SMDPad,CuDef*
G36*
G01*
X84800001Y-43175000D02*
X83899999Y-43175000D01*
G75*
G02*
X83650000Y-42925001I0J249999D01*
G01*
X83650000Y-42274999D01*
G75*
G02*
X83899999Y-42025000I249999J0D01*
G01*
X84800001Y-42025000D01*
G75*
G02*
X85050000Y-42274999I0J-249999D01*
G01*
X85050000Y-42925001D01*
G75*
G02*
X84800001Y-43175000I-249999J0D01*
G01*
G37*
G04 #@! TD.AperFunction*
G04 #@! TA.AperFunction,SMDPad,CuDef*
G36*
G01*
X84049999Y-167225000D02*
X84950001Y-167225000D01*
G75*
G02*
X85200000Y-167474999I0J-249999D01*
G01*
X85200000Y-168125001D01*
G75*
G02*
X84950001Y-168375000I-249999J0D01*
G01*
X84049999Y-168375000D01*
G75*
G02*
X83800000Y-168125001I0J249999D01*
G01*
X83800000Y-167474999D01*
G75*
G02*
X84049999Y-167225000I249999J0D01*
G01*
G37*
G04 #@! TD.AperFunction*
G04 #@! TA.AperFunction,SMDPad,CuDef*
G36*
G01*
X84049999Y-169275000D02*
X84950001Y-169275000D01*
G75*
G02*
X85200000Y-169524999I0J-249999D01*
G01*
X85200000Y-170175001D01*
G75*
G02*
X84950001Y-170425000I-249999J0D01*
G01*
X84049999Y-170425000D01*
G75*
G02*
X83800000Y-170175001I0J249999D01*
G01*
X83800000Y-169524999D01*
G75*
G02*
X84049999Y-169275000I249999J0D01*
G01*
G37*
G04 #@! TD.AperFunction*
G04 #@! TA.AperFunction,SMDPad,CuDef*
G36*
G01*
X100849999Y-167200000D02*
X101750001Y-167200000D01*
G75*
G02*
X102000000Y-167449999I0J-249999D01*
G01*
X102000000Y-168100001D01*
G75*
G02*
X101750001Y-168350000I-249999J0D01*
G01*
X100849999Y-168350000D01*
G75*
G02*
X100600000Y-168100001I0J249999D01*
G01*
X100600000Y-167449999D01*
G75*
G02*
X100849999Y-167200000I249999J0D01*
G01*
G37*
G04 #@! TD.AperFunction*
G04 #@! TA.AperFunction,SMDPad,CuDef*
G36*
G01*
X100849999Y-169250000D02*
X101750001Y-169250000D01*
G75*
G02*
X102000000Y-169499999I0J-249999D01*
G01*
X102000000Y-170150001D01*
G75*
G02*
X101750001Y-170400000I-249999J0D01*
G01*
X100849999Y-170400000D01*
G75*
G02*
X100600000Y-170150001I0J249999D01*
G01*
X100600000Y-169499999D01*
G75*
G02*
X100849999Y-169250000I249999J0D01*
G01*
G37*
G04 #@! TD.AperFunction*
G04 #@! TA.AperFunction,SMDPad,CuDef*
G36*
G01*
X118549999Y-169250000D02*
X119450001Y-169250000D01*
G75*
G02*
X119700000Y-169499999I0J-249999D01*
G01*
X119700000Y-170150001D01*
G75*
G02*
X119450001Y-170400000I-249999J0D01*
G01*
X118549999Y-170400000D01*
G75*
G02*
X118300000Y-170150001I0J249999D01*
G01*
X118300000Y-169499999D01*
G75*
G02*
X118549999Y-169250000I249999J0D01*
G01*
G37*
G04 #@! TD.AperFunction*
G04 #@! TA.AperFunction,SMDPad,CuDef*
G36*
G01*
X118549999Y-167200000D02*
X119450001Y-167200000D01*
G75*
G02*
X119700000Y-167449999I0J-249999D01*
G01*
X119700000Y-168100001D01*
G75*
G02*
X119450001Y-168350000I-249999J0D01*
G01*
X118549999Y-168350000D01*
G75*
G02*
X118300000Y-168100001I0J249999D01*
G01*
X118300000Y-167449999D01*
G75*
G02*
X118549999Y-167200000I249999J0D01*
G01*
G37*
G04 #@! TD.AperFunction*
D16*
X114220000Y-85290000D03*
X114220000Y-87830000D03*
X114220000Y-90370000D03*
X114220000Y-92910000D03*
D17*
X88200000Y-75411000D03*
X86121000Y-83158000D03*
X82993000Y-76173000D03*
X85980000Y-59180000D03*
X120224999Y-51775001D03*
X106350000Y-72250000D03*
X92100000Y-76600000D03*
X84350000Y-42600000D03*
X73100000Y-129000000D03*
X79246500Y-73442500D03*
X79158500Y-78541500D03*
X87530000Y-66870000D03*
X79600000Y-66820000D03*
X120250000Y-50650000D03*
X125900000Y-40600000D03*
X118500000Y-40549999D03*
X101350001Y-40549999D03*
X84350001Y-40599999D03*
X118949999Y-171800001D03*
X101299999Y-171800001D03*
X84550000Y-171800000D03*
X101350001Y-42549999D03*
X118500000Y-42600000D03*
X118950000Y-169850000D03*
X101300000Y-169800000D03*
X84550000Y-169850000D03*
X92010000Y-72871000D03*
X88835000Y-82586500D03*
X79900000Y-122500000D03*
X82700000Y-122500000D03*
X83755000Y-73823500D03*
X81405500Y-71728000D03*
X85406000Y-76046000D03*
X82040500Y-83158000D03*
X82866000Y-79348000D03*
X91188969Y-63411031D03*
X87501500Y-83221500D03*
X88035776Y-82621992D03*
X77900000Y-91500000D03*
X80400000Y-91500000D03*
X79800000Y-89400000D03*
X87819000Y-74014000D03*
X126500000Y-45800000D03*
X118400000Y-73900000D03*
X86168000Y-74014000D03*
X90200000Y-65200000D03*
X90200000Y-66100000D03*
X89343000Y-71855000D03*
X122800000Y-42700000D03*
X85100000Y-74000000D03*
X90200000Y-64300000D03*
D18*
X88200000Y-75411000D02*
X88200000Y-76935000D01*
X88200000Y-76935000D02*
X86676000Y-78459000D01*
X86676000Y-78459000D02*
X86041000Y-78459000D01*
X86041000Y-83078000D02*
X86121000Y-83158000D01*
X86041000Y-78459000D02*
X86041000Y-83078000D01*
X86295000Y-78459000D02*
X86041000Y-78459000D01*
X94660000Y-50500000D02*
X94800000Y-50500000D01*
X85980000Y-59180000D02*
X94660000Y-50500000D01*
X94800000Y-50500000D02*
X94800000Y-49300000D01*
X94800000Y-49300000D02*
X96200000Y-47900000D01*
X105720000Y-47900000D02*
X108420000Y-50600000D01*
X96200000Y-47900000D02*
X105720000Y-47900000D01*
X83755000Y-76173000D02*
X86041000Y-78459000D01*
X82993000Y-76173000D02*
X83755000Y-76173000D01*
X109595001Y-51775001D02*
X120224999Y-51775001D01*
X108420000Y-50600000D02*
X109595001Y-51775001D01*
X120224999Y-51775001D02*
X120224999Y-51775001D01*
X106350000Y-72250000D02*
X94750000Y-72250000D01*
X92100000Y-74900000D02*
X94750000Y-72250000D01*
X92100000Y-76600000D02*
X92100000Y-74900000D01*
X79183000Y-73506000D02*
X79183000Y-78713000D01*
X79246500Y-73442500D02*
X79183000Y-73506000D01*
X110960000Y-50600000D02*
X113500000Y-50600000D01*
X79875000Y-127000000D02*
X79900000Y-126975000D01*
X82675000Y-126975000D02*
X82700000Y-127000000D01*
X79900000Y-126975000D02*
X82675000Y-126975000D01*
X79650000Y-66870000D02*
X79600000Y-66820000D01*
X87530000Y-66870000D02*
X79650000Y-66870000D01*
X120200000Y-50600000D02*
X120250000Y-50650000D01*
X113500000Y-50600000D02*
X120200000Y-50600000D01*
D19*
X113250001Y-40599999D02*
X112250000Y-41600000D01*
X96250001Y-40599999D02*
X104700001Y-40599999D01*
X95250000Y-41600000D02*
X96250001Y-40599999D01*
X79250001Y-40599999D02*
X78250000Y-41600000D01*
X96250001Y-40599999D02*
X87700001Y-40599999D01*
X89349999Y-171800001D02*
X90350000Y-170800000D01*
X74350001Y-171800001D02*
X84599999Y-171800001D01*
X73350000Y-170800000D02*
X74350001Y-171800001D01*
X106349999Y-171800001D02*
X107350000Y-170800000D01*
X89349999Y-171800001D02*
X101299999Y-171800001D01*
X123349999Y-171800001D02*
X124350000Y-170800000D01*
X106349999Y-171800001D02*
X118949999Y-171800001D01*
X130000001Y-40849999D02*
X129250000Y-41600000D01*
X130000001Y-40599999D02*
X130000001Y-40849999D01*
X130000001Y-40599999D02*
X125700001Y-40599999D01*
X125700001Y-40599999D02*
X120900001Y-40599999D01*
D18*
X79900000Y-126975000D02*
X79900000Y-128400000D01*
X79300000Y-129000000D02*
X73100000Y-129000000D01*
X79900000Y-128400000D02*
X79300000Y-129000000D01*
D19*
X130400001Y-171800001D02*
X123349999Y-171800001D01*
X130900000Y-171300002D02*
X130400001Y-171800001D01*
X130900000Y-41400000D02*
X130900000Y-171300002D01*
X130099999Y-40599999D02*
X130900000Y-41400000D01*
X130000001Y-40599999D02*
X130099999Y-40599999D01*
X120900001Y-40599999D02*
X113250001Y-40599999D01*
X104700001Y-40599999D02*
X113250001Y-40599999D01*
X87700001Y-40599999D02*
X81000001Y-40599999D01*
X81000001Y-40599999D02*
X79250001Y-40599999D01*
X118949999Y-171800001D02*
X123349999Y-171800001D01*
X101299999Y-171800001D02*
X106349999Y-171800001D01*
X84599999Y-171800001D02*
X89349999Y-171800001D01*
D18*
X92010000Y-72871000D02*
X91756000Y-72871000D01*
X90105000Y-74522000D02*
X90105000Y-80237000D01*
X91756000Y-72871000D02*
X90105000Y-74522000D01*
X90105000Y-80237000D02*
X88835000Y-81507000D01*
X88835000Y-81507000D02*
X88835000Y-82586500D01*
X79900000Y-124000000D02*
X79900000Y-122500000D01*
X82700000Y-124025000D02*
X82700000Y-122500000D01*
X81405500Y-71728000D02*
X83501000Y-73823500D01*
X83501000Y-73823500D02*
X83755000Y-73823500D01*
X90403800Y-72534800D02*
X90403800Y-72572200D01*
X85406000Y-75157000D02*
X85406000Y-76046000D01*
X85660000Y-74903000D02*
X85406000Y-75157000D01*
X86422000Y-74903000D02*
X85660000Y-74903000D01*
X86930000Y-74395000D02*
X86422000Y-74903000D01*
X86930000Y-73633000D02*
X86930000Y-74395000D01*
X87311000Y-73252000D02*
X86930000Y-73633000D01*
X89724000Y-73252000D02*
X87311000Y-73252000D01*
X90403800Y-72572200D02*
X89724000Y-73252000D01*
X91188975Y-71749625D02*
X91188975Y-71749612D01*
X90403800Y-72534800D02*
X91188975Y-71749625D01*
X91188975Y-71749612D02*
X91188969Y-71749618D01*
X91188969Y-71749618D02*
X91188969Y-63411031D01*
X82040500Y-80173500D02*
X82866000Y-79348000D01*
X82040500Y-83158000D02*
X82040500Y-80173500D01*
X92635002Y-72317000D02*
X92264000Y-71945998D01*
X92635002Y-73134998D02*
X92635002Y-72317000D01*
X89821499Y-81156911D02*
X90740000Y-80238410D01*
X92264000Y-71945998D02*
X92264000Y-57686500D01*
X89821499Y-83121499D02*
X89821499Y-81156911D01*
X89421499Y-83521499D02*
X89821499Y-83121499D01*
X87801499Y-83521499D02*
X89421499Y-83521499D01*
X90740000Y-75030000D02*
X92635002Y-73134998D01*
X90740000Y-80238410D02*
X90740000Y-75030000D01*
X87501500Y-83221500D02*
X87801499Y-83521499D01*
X99535001Y-56944999D02*
X105880000Y-50600000D01*
X93005501Y-56944999D02*
X99535001Y-56944999D01*
X92264000Y-57686500D02*
X93005501Y-56944999D01*
X99535001Y-54404999D02*
X103340000Y-50600000D01*
X92569001Y-54404999D02*
X99535001Y-54404999D01*
X91813989Y-55160011D02*
X92569001Y-54404999D01*
X91813989Y-71761009D02*
X91813989Y-55160011D01*
X91801499Y-71773499D02*
X91813989Y-71761009D01*
X91801499Y-72063501D02*
X91801499Y-71773499D01*
X89470000Y-80061413D02*
X89470000Y-74395000D01*
X89470000Y-74395000D02*
X91801499Y-72063501D01*
X88035776Y-81495637D02*
X89470000Y-80061413D01*
X88035776Y-82621992D02*
X88035776Y-81495637D01*
X77341500Y-80681500D02*
X75218500Y-80681500D01*
X75218500Y-80681500D02*
X73700000Y-82200000D01*
X76600000Y-91000000D02*
X74400000Y-91000000D01*
X74400000Y-91000000D02*
X73700000Y-90300000D01*
X73700000Y-82200000D02*
X73700000Y-90300000D01*
X77400000Y-91000000D02*
X77900000Y-91500000D01*
X76600000Y-91000000D02*
X77400000Y-91000000D01*
X78649990Y-90549990D02*
X74586400Y-90549990D01*
X74586400Y-90549990D02*
X74150010Y-90113600D01*
X74150010Y-90113600D02*
X74150010Y-84249990D01*
X75178500Y-83221500D02*
X77341500Y-83221500D01*
X74150010Y-84249990D02*
X75178500Y-83221500D01*
X79449990Y-90549990D02*
X80400000Y-91500000D01*
X78649990Y-90549990D02*
X79449990Y-90549990D01*
X79800000Y-85779500D02*
X79818000Y-85761500D01*
X79800000Y-89400000D02*
X79800000Y-85779500D01*
X88898500Y-75157000D02*
X88898500Y-74331500D01*
X88581000Y-74014000D02*
X87819000Y-74014000D01*
X88898500Y-74331500D02*
X88581000Y-74014000D01*
X88898500Y-75792000D02*
X88898500Y-75157000D01*
X88898500Y-76236500D02*
X88898500Y-75792000D01*
X86746002Y-81399583D02*
X88091584Y-80054001D01*
X88091584Y-80054001D02*
X88841001Y-80054001D01*
X88841001Y-80054001D02*
X88906001Y-79989001D01*
X86746002Y-83418502D02*
X86746002Y-81399583D01*
X88906001Y-76244001D02*
X88898500Y-76236500D01*
X88802999Y-84586499D02*
X87913999Y-84586499D01*
X88906001Y-79989001D02*
X88906001Y-76244001D01*
X89978000Y-85761500D02*
X88802999Y-84586499D01*
X87913999Y-84586499D02*
X86746002Y-83418502D01*
X115450000Y-41600000D02*
X112250000Y-44800000D01*
X124350000Y-41600000D02*
X115450000Y-41600000D01*
D19*
X124350000Y-44800000D02*
X124300000Y-44800000D01*
X74350001Y-45800001D02*
X80899999Y-45800001D01*
X89349999Y-45800001D02*
X90350000Y-44800000D01*
X73350000Y-44800000D02*
X74350001Y-45800001D01*
X106349999Y-45800001D02*
X107350000Y-44800000D01*
X123349999Y-45800001D02*
X124350000Y-44800000D01*
X129100001Y-45800001D02*
X127399999Y-45800001D01*
X112250000Y-167500000D02*
X113150001Y-166599999D01*
X129250000Y-167600000D02*
X129250000Y-167450000D01*
X96250001Y-166599999D02*
X101350001Y-166599999D01*
X95250000Y-167600000D02*
X96250001Y-166599999D01*
X79250001Y-166599999D02*
X84550001Y-166599999D01*
X78250000Y-167600000D02*
X79250001Y-166599999D01*
X126599999Y-45800001D02*
X123349999Y-45800001D01*
X127399999Y-45800001D02*
X126599999Y-45800001D01*
D18*
X118499990Y-73999990D02*
X118400000Y-73900000D01*
X130000000Y-73999990D02*
X118499990Y-73999990D01*
D19*
X130000000Y-165899998D02*
X129299999Y-166599999D01*
X129250000Y-167600000D02*
X129250000Y-167349998D01*
X128500001Y-166599999D02*
X129299999Y-166599999D01*
X113150001Y-166599999D02*
X118950001Y-166599999D01*
X129250000Y-166649998D02*
X130000000Y-165899998D01*
X129250000Y-167600000D02*
X129250000Y-166649998D01*
X130000000Y-46700000D02*
X129100001Y-45800001D01*
X130000000Y-73999990D02*
X130000000Y-46700000D01*
X120999999Y-45800001D02*
X123349999Y-45800001D01*
X104699999Y-45800001D02*
X106349999Y-45800001D01*
X87699999Y-45800001D02*
X89349999Y-45800001D01*
X118950001Y-166599999D02*
X128500001Y-166599999D01*
X101350001Y-166599999D02*
X113150001Y-166599999D01*
X84550001Y-166599999D02*
X96250001Y-166599999D01*
D18*
X84350000Y-45750000D02*
X84299999Y-45800001D01*
X84350000Y-44650000D02*
X84350000Y-45750000D01*
D19*
X84299999Y-45800001D02*
X87699999Y-45800001D01*
X80899999Y-45800001D02*
X84299999Y-45800001D01*
D18*
X101300000Y-45675000D02*
X101174999Y-45800001D01*
X101300000Y-44650000D02*
X101300000Y-45675000D01*
D19*
X101174999Y-45800001D02*
X104699999Y-45800001D01*
X89349999Y-45800001D02*
X101174999Y-45800001D01*
D18*
X118500000Y-45600000D02*
X118299999Y-45800001D01*
X118500000Y-44650000D02*
X118500000Y-45600000D01*
D19*
X118299999Y-45800001D02*
X120999999Y-45800001D01*
X106349999Y-45800001D02*
X118299999Y-45800001D01*
D18*
X119000000Y-166649998D02*
X118950001Y-166599999D01*
X119000000Y-167775000D02*
X119000000Y-166649998D01*
X101300000Y-166650000D02*
X101350001Y-166599999D01*
X101300000Y-167775000D02*
X101300000Y-166650000D01*
X84500000Y-166650000D02*
X84550001Y-166599999D01*
X84500000Y-167800000D02*
X84500000Y-166650000D01*
D19*
X114510000Y-85000000D02*
X114220000Y-85290000D01*
X130000000Y-85000000D02*
X114510000Y-85000000D01*
X130000000Y-73999990D02*
X130000000Y-85000000D01*
X130000000Y-85000000D02*
X130000000Y-165899998D01*
D18*
X98450000Y-41600000D02*
X95250000Y-44800000D01*
X107350000Y-41600000D02*
X98450000Y-41600000D01*
X81450000Y-41600000D02*
X78250000Y-44800000D01*
X90350000Y-41600000D02*
X81450000Y-41600000D01*
X71500000Y-43450000D02*
X73350000Y-41600000D01*
X71500000Y-43600000D02*
X71500000Y-43450000D01*
X71500000Y-165750000D02*
X73350000Y-167600000D01*
X71500000Y-164600000D02*
X71500000Y-165750000D01*
X71500000Y-164600000D02*
X71500000Y-43600000D01*
X87150000Y-170800000D02*
X90350000Y-167600000D01*
X78250000Y-170800000D02*
X87150000Y-170800000D01*
X104150000Y-170800000D02*
X107350000Y-167600000D01*
X95250000Y-170800000D02*
X104150000Y-170800000D01*
X121150000Y-170800000D02*
X124350000Y-167600000D01*
X112250000Y-170800000D02*
X121150000Y-170800000D01*
X89350000Y-65550000D02*
X89700000Y-65200000D01*
X89700000Y-65200000D02*
X90200000Y-65200000D01*
X89350000Y-70350000D02*
X89350000Y-65550000D01*
X86168000Y-73532000D02*
X89350000Y-70350000D01*
X86168000Y-74014000D02*
X86168000Y-73532000D01*
X90200000Y-70998000D02*
X89343000Y-71855000D01*
X90200000Y-70998000D02*
X90200000Y-66100000D01*
X127650000Y-43200000D02*
X129250000Y-44800000D01*
X127149999Y-42699999D02*
X129250000Y-44800000D01*
X122799999Y-42699999D02*
X127149999Y-42699999D01*
X85100000Y-74000000D02*
X85100000Y-73300000D01*
X85100000Y-73300000D02*
X88500000Y-69900000D01*
X88500000Y-69900000D02*
X88500000Y-65900000D01*
X88500000Y-65900000D02*
X88500000Y-65174998D01*
X89274998Y-64400000D02*
X89274998Y-64400000D01*
X90200000Y-64300000D02*
X89374998Y-64300000D01*
X89374998Y-64300000D02*
X88637499Y-65037499D01*
X88637499Y-65037499D02*
X89274998Y-64400000D01*
X88500000Y-65174998D02*
X88637499Y-65037499D01*
M02*
