G04 #@! TF.GenerationSoftware,KiCad,Pcbnew,(5.1.7)-1*
G04 #@! TF.CreationDate,2020-10-19T19:05:30+02:00*
G04 #@! TF.ProjectId,Touch-Steuerung,546f7563-682d-4537-9465-756572756e67,1.0*
G04 #@! TF.SameCoordinates,Original*
G04 #@! TF.FileFunction,Legend,Bot*
G04 #@! TF.FilePolarity,Positive*
%FSLAX46Y46*%
G04 Gerber Fmt 4.6, Leading zero omitted, Abs format (unit mm)*
G04 Created by KiCad (PCBNEW (5.1.7)-1) date 2020-10-19 19:05:30*
%MOMM*%
%LPD*%
G01*
G04 APERTURE LIST*
%ADD10C,0.100000*%
%ADD11C,0.120000*%
%ADD12C,0.150000*%
G04 APERTURE END LIST*
D10*
X78948809Y-76331666D02*
X78448809Y-76165000D01*
X78948809Y-75998333D01*
X78496428Y-75545952D02*
X78472619Y-75569761D01*
X78448809Y-75641190D01*
X78448809Y-75688809D01*
X78472619Y-75760238D01*
X78520238Y-75807857D01*
X78567857Y-75831666D01*
X78663095Y-75855476D01*
X78734523Y-75855476D01*
X78829761Y-75831666D01*
X78877380Y-75807857D01*
X78925000Y-75760238D01*
X78948809Y-75688809D01*
X78948809Y-75641190D01*
X78925000Y-75569761D01*
X78901190Y-75545952D01*
X78496428Y-75045952D02*
X78472619Y-75069761D01*
X78448809Y-75141190D01*
X78448809Y-75188809D01*
X78472619Y-75260238D01*
X78520238Y-75307857D01*
X78567857Y-75331666D01*
X78663095Y-75355476D01*
X78734523Y-75355476D01*
X78829761Y-75331666D01*
X78877380Y-75307857D01*
X78925000Y-75260238D01*
X78948809Y-75188809D01*
X78948809Y-75141190D01*
X78925000Y-75069761D01*
X78901190Y-75045952D01*
X90410547Y-84654190D02*
X90410547Y-84154190D01*
X90291500Y-84154190D01*
X90220071Y-84178000D01*
X90172452Y-84225619D01*
X90148642Y-84273238D01*
X90124833Y-84368476D01*
X90124833Y-84439904D01*
X90148642Y-84535142D01*
X90172452Y-84582761D01*
X90220071Y-84630380D01*
X90291500Y-84654190D01*
X90410547Y-84654190D01*
X89696261Y-84154190D02*
X89791500Y-84154190D01*
X89839119Y-84178000D01*
X89862928Y-84201809D01*
X89910547Y-84273238D01*
X89934357Y-84368476D01*
X89934357Y-84558952D01*
X89910547Y-84606571D01*
X89886738Y-84630380D01*
X89839119Y-84654190D01*
X89743880Y-84654190D01*
X89696261Y-84630380D01*
X89672452Y-84606571D01*
X89648642Y-84558952D01*
X89648642Y-84439904D01*
X89672452Y-84392285D01*
X89696261Y-84368476D01*
X89743880Y-84344666D01*
X89839119Y-84344666D01*
X89886738Y-84368476D01*
X89910547Y-84392285D01*
X89934357Y-84439904D01*
X87870547Y-84717690D02*
X87870547Y-84217690D01*
X87751500Y-84217690D01*
X87680071Y-84241500D01*
X87632452Y-84289119D01*
X87608642Y-84336738D01*
X87584833Y-84431976D01*
X87584833Y-84503404D01*
X87608642Y-84598642D01*
X87632452Y-84646261D01*
X87680071Y-84693880D01*
X87751500Y-84717690D01*
X87870547Y-84717690D01*
X87418166Y-84217690D02*
X87108642Y-84217690D01*
X87275309Y-84408166D01*
X87203880Y-84408166D01*
X87156261Y-84431976D01*
X87132452Y-84455785D01*
X87108642Y-84503404D01*
X87108642Y-84622452D01*
X87132452Y-84670071D01*
X87156261Y-84693880D01*
X87203880Y-84717690D01*
X87346738Y-84717690D01*
X87394357Y-84693880D01*
X87418166Y-84670071D01*
X85318642Y-84511333D02*
X85080547Y-84511333D01*
X85366261Y-84654190D02*
X85199595Y-84154190D01*
X85032928Y-84654190D01*
X84628166Y-84154190D02*
X84866261Y-84154190D01*
X84890071Y-84392285D01*
X84866261Y-84368476D01*
X84818642Y-84344666D01*
X84699595Y-84344666D01*
X84651976Y-84368476D01*
X84628166Y-84392285D01*
X84604357Y-84439904D01*
X84604357Y-84558952D01*
X84628166Y-84606571D01*
X84651976Y-84630380D01*
X84699595Y-84654190D01*
X84818642Y-84654190D01*
X84866261Y-84630380D01*
X84890071Y-84606571D01*
X82778642Y-84511333D02*
X82540547Y-84511333D01*
X82826261Y-84654190D02*
X82659595Y-84154190D01*
X82492928Y-84654190D01*
X82111976Y-84320857D02*
X82111976Y-84654190D01*
X82231023Y-84130380D02*
X82350071Y-84487523D01*
X82040547Y-84487523D01*
X80302142Y-84511333D02*
X80064047Y-84511333D01*
X80349761Y-84654190D02*
X80183095Y-84154190D01*
X80016428Y-84654190D01*
X79897380Y-84154190D02*
X79587857Y-84154190D01*
X79754523Y-84344666D01*
X79683095Y-84344666D01*
X79635476Y-84368476D01*
X79611666Y-84392285D01*
X79587857Y-84439904D01*
X79587857Y-84558952D01*
X79611666Y-84606571D01*
X79635476Y-84630380D01*
X79683095Y-84654190D01*
X79825952Y-84654190D01*
X79873571Y-84630380D01*
X79897380Y-84606571D01*
X78424112Y-85056963D02*
X78255753Y-84888604D01*
X78356769Y-85191650D02*
X78592471Y-84720246D01*
X78121066Y-84955948D01*
X78339933Y-84535051D02*
X78339933Y-84501379D01*
X78323097Y-84450872D01*
X78238917Y-84366692D01*
X78188410Y-84349856D01*
X78154738Y-84349856D01*
X78104230Y-84366692D01*
X78070559Y-84400364D01*
X78036887Y-84467708D01*
X78036887Y-84871769D01*
X77818021Y-84652902D01*
X78655166Y-83515142D02*
X78655166Y-83277047D01*
X78512309Y-83562761D02*
X79012309Y-83396095D01*
X78512309Y-83229428D01*
X78512309Y-82800857D02*
X78512309Y-83086571D01*
X78512309Y-82943714D02*
X79012309Y-82943714D01*
X78940880Y-82991333D01*
X78893261Y-83038952D01*
X78869452Y-83086571D01*
X78655166Y-81038642D02*
X78655166Y-80800547D01*
X78512309Y-81086261D02*
X79012309Y-80919595D01*
X78512309Y-80752928D01*
X79012309Y-80491023D02*
X79012309Y-80443404D01*
X78988500Y-80395785D01*
X78964690Y-80371976D01*
X78917071Y-80348166D01*
X78821833Y-80324357D01*
X78702785Y-80324357D01*
X78607547Y-80348166D01*
X78559928Y-80371976D01*
X78536119Y-80395785D01*
X78512309Y-80443404D01*
X78512309Y-80491023D01*
X78536119Y-80538642D01*
X78559928Y-80562452D01*
X78607547Y-80586261D01*
X78702785Y-80610071D01*
X78821833Y-80610071D01*
X78917071Y-80586261D01*
X78964690Y-80562452D01*
X78988500Y-80538642D01*
X79012309Y-80491023D01*
X78925000Y-78585952D02*
X78948809Y-78633571D01*
X78948809Y-78705000D01*
X78925000Y-78776428D01*
X78877380Y-78824047D01*
X78829761Y-78847857D01*
X78734523Y-78871666D01*
X78663095Y-78871666D01*
X78567857Y-78847857D01*
X78520238Y-78824047D01*
X78472619Y-78776428D01*
X78448809Y-78705000D01*
X78448809Y-78657380D01*
X78472619Y-78585952D01*
X78496428Y-78562142D01*
X78663095Y-78562142D01*
X78663095Y-78657380D01*
X78448809Y-78347857D02*
X78948809Y-78347857D01*
X78448809Y-78062142D01*
X78948809Y-78062142D01*
X78448809Y-77824047D02*
X78948809Y-77824047D01*
X78948809Y-77705000D01*
X78925000Y-77633571D01*
X78877380Y-77585952D01*
X78829761Y-77562142D01*
X78734523Y-77538333D01*
X78663095Y-77538333D01*
X78567857Y-77562142D01*
X78520238Y-77585952D01*
X78472619Y-77633571D01*
X78448809Y-77705000D01*
X78448809Y-77824047D01*
D11*
X78360000Y-49300000D02*
X78360000Y-49360000D01*
X78360000Y-49360000D02*
X76240000Y-49360000D01*
X76240000Y-49360000D02*
X76240000Y-49300000D01*
X76240000Y-49300000D02*
X78360000Y-49300000D01*
X78360000Y-48300000D02*
X78360000Y-47240000D01*
X78360000Y-47240000D02*
X77300000Y-47240000D01*
X81035000Y-123887500D02*
X81035000Y-127947500D01*
X81035000Y-127947500D02*
X78765000Y-127947500D01*
X78765000Y-127947500D02*
X78765000Y-123887500D01*
X81565000Y-127972500D02*
X81565000Y-123912500D01*
X83835000Y-127972500D02*
X81565000Y-127972500D01*
X83835000Y-123912500D02*
X83835000Y-127972500D01*
X123150000Y-45950000D02*
X130450000Y-45950000D01*
X123150000Y-40450000D02*
X130450000Y-40450000D01*
X130450000Y-40450000D02*
X130450000Y-41600000D01*
X113450000Y-40450000D02*
X113450000Y-41600000D01*
X106150000Y-40450000D02*
X113450000Y-40450000D01*
X106150000Y-45950000D02*
X113450000Y-45950000D01*
X96450000Y-40450000D02*
X96450000Y-41600000D01*
X89150000Y-40450000D02*
X96450000Y-40450000D01*
X89150000Y-45950000D02*
X96450000Y-45950000D01*
X72150000Y-45950000D02*
X79450000Y-45950000D01*
X72150000Y-40450000D02*
X79450000Y-40450000D01*
X79450000Y-40450000D02*
X79450000Y-41600000D01*
X72150000Y-171950000D02*
X72150000Y-170800000D01*
X79450000Y-171950000D02*
X72150000Y-171950000D01*
X79450000Y-166450000D02*
X72150000Y-166450000D01*
X96450000Y-166450000D02*
X89150000Y-166450000D01*
X96450000Y-171950000D02*
X89150000Y-171950000D01*
X89150000Y-171950000D02*
X89150000Y-170800000D01*
X106150000Y-171950000D02*
X106150000Y-170800000D01*
X113450000Y-171950000D02*
X106150000Y-171950000D01*
X113450000Y-166450000D02*
X106150000Y-166450000D01*
X130450000Y-166450000D02*
X123150000Y-166450000D01*
X130450000Y-171950000D02*
X123150000Y-171950000D01*
X123150000Y-171950000D02*
X123150000Y-170800000D01*
X117790000Y-43886252D02*
X117790000Y-43363748D01*
X119210000Y-43886252D02*
X119210000Y-43363748D01*
X102010000Y-43886252D02*
X102010000Y-43363748D01*
X100590000Y-43886252D02*
X100590000Y-43363748D01*
X83640000Y-43886252D02*
X83640000Y-43363748D01*
X85060000Y-43886252D02*
X85060000Y-43363748D01*
X85210000Y-168563748D02*
X85210000Y-169086252D01*
X83790000Y-168563748D02*
X83790000Y-169086252D01*
X102010000Y-168538748D02*
X102010000Y-169061252D01*
X100590000Y-168538748D02*
X100590000Y-169061252D01*
X118290000Y-168538748D02*
X118290000Y-169061252D01*
X119710000Y-168538748D02*
X119710000Y-169061252D01*
D12*
X75752166Y-47728642D02*
X75752166Y-48204833D01*
X76037880Y-47633404D02*
X75037880Y-47966738D01*
X76037880Y-48300071D01*
X76037880Y-48633404D02*
X75037880Y-48633404D01*
X76037880Y-49204833D01*
X75037880Y-49204833D01*
X75037880Y-49538166D02*
X75037880Y-50109595D01*
X76037880Y-49823880D02*
X75037880Y-49823880D01*
X80638095Y-122552380D02*
X80638095Y-121552380D01*
X80400000Y-121552380D01*
X80257142Y-121600000D01*
X80161904Y-121695238D01*
X80114285Y-121790476D01*
X80066666Y-121980952D01*
X80066666Y-122123809D01*
X80114285Y-122314285D01*
X80161904Y-122409523D01*
X80257142Y-122504761D01*
X80400000Y-122552380D01*
X80638095Y-122552380D01*
X79114285Y-122552380D02*
X79685714Y-122552380D01*
X79400000Y-122552380D02*
X79400000Y-121552380D01*
X79495238Y-121695238D01*
X79590476Y-121790476D01*
X79685714Y-121838095D01*
X83438095Y-122552380D02*
X83438095Y-121552380D01*
X83200000Y-121552380D01*
X83057142Y-121600000D01*
X82961904Y-121695238D01*
X82914285Y-121790476D01*
X82866666Y-121980952D01*
X82866666Y-122123809D01*
X82914285Y-122314285D01*
X82961904Y-122409523D01*
X83057142Y-122504761D01*
X83200000Y-122552380D01*
X83438095Y-122552380D01*
X82485714Y-121647619D02*
X82438095Y-121600000D01*
X82342857Y-121552380D01*
X82104761Y-121552380D01*
X82009523Y-121600000D01*
X81961904Y-121647619D01*
X81914285Y-121742857D01*
X81914285Y-121838095D01*
X81961904Y-121980952D01*
X82533333Y-122552380D01*
X81914285Y-122552380D01*
X132338095Y-41152380D02*
X132338095Y-40152380D01*
X132100000Y-40152380D01*
X131957142Y-40200000D01*
X131861904Y-40295238D01*
X131814285Y-40390476D01*
X131766666Y-40580952D01*
X131766666Y-40723809D01*
X131814285Y-40914285D01*
X131861904Y-41009523D01*
X131957142Y-41104761D01*
X132100000Y-41152380D01*
X132338095Y-41152380D01*
X131433333Y-40152380D02*
X130814285Y-40152380D01*
X131147619Y-40533333D01*
X131004761Y-40533333D01*
X130909523Y-40580952D01*
X130861904Y-40628571D01*
X130814285Y-40723809D01*
X130814285Y-40961904D01*
X130861904Y-41057142D01*
X130909523Y-41104761D01*
X131004761Y-41152380D01*
X131290476Y-41152380D01*
X131385714Y-41104761D01*
X131433333Y-41057142D01*
X122364285Y-45252380D02*
X122935714Y-45252380D01*
X122650000Y-45252380D02*
X122650000Y-44252380D01*
X122745238Y-44395238D01*
X122840476Y-44490476D01*
X122935714Y-44538095D01*
X115238095Y-41152380D02*
X115238095Y-40152380D01*
X115000000Y-40152380D01*
X114857142Y-40200000D01*
X114761904Y-40295238D01*
X114714285Y-40390476D01*
X114666666Y-40580952D01*
X114666666Y-40723809D01*
X114714285Y-40914285D01*
X114761904Y-41009523D01*
X114857142Y-41104761D01*
X115000000Y-41152380D01*
X115238095Y-41152380D01*
X113809523Y-40485714D02*
X113809523Y-41152380D01*
X114047619Y-40104761D02*
X114285714Y-40819047D01*
X113666666Y-40819047D01*
X105364285Y-45252380D02*
X105935714Y-45252380D01*
X105650000Y-45252380D02*
X105650000Y-44252380D01*
X105745238Y-44395238D01*
X105840476Y-44490476D01*
X105935714Y-44538095D01*
X98138095Y-41152380D02*
X98138095Y-40152380D01*
X97900000Y-40152380D01*
X97757142Y-40200000D01*
X97661904Y-40295238D01*
X97614285Y-40390476D01*
X97566666Y-40580952D01*
X97566666Y-40723809D01*
X97614285Y-40914285D01*
X97661904Y-41009523D01*
X97757142Y-41104761D01*
X97900000Y-41152380D01*
X98138095Y-41152380D01*
X96661904Y-40152380D02*
X97138095Y-40152380D01*
X97185714Y-40628571D01*
X97138095Y-40580952D01*
X97042857Y-40533333D01*
X96804761Y-40533333D01*
X96709523Y-40580952D01*
X96661904Y-40628571D01*
X96614285Y-40723809D01*
X96614285Y-40961904D01*
X96661904Y-41057142D01*
X96709523Y-41104761D01*
X96804761Y-41152380D01*
X97042857Y-41152380D01*
X97138095Y-41104761D01*
X97185714Y-41057142D01*
X88364285Y-45252380D02*
X88935714Y-45252380D01*
X88650000Y-45252380D02*
X88650000Y-44252380D01*
X88745238Y-44395238D01*
X88840476Y-44490476D01*
X88935714Y-44538095D01*
X81338095Y-41152380D02*
X81338095Y-40152380D01*
X81100000Y-40152380D01*
X80957142Y-40200000D01*
X80861904Y-40295238D01*
X80814285Y-40390476D01*
X80766666Y-40580952D01*
X80766666Y-40723809D01*
X80814285Y-40914285D01*
X80861904Y-41009523D01*
X80957142Y-41104761D01*
X81100000Y-41152380D01*
X81338095Y-41152380D01*
X79909523Y-40152380D02*
X80100000Y-40152380D01*
X80195238Y-40200000D01*
X80242857Y-40247619D01*
X80338095Y-40390476D01*
X80385714Y-40580952D01*
X80385714Y-40961904D01*
X80338095Y-41057142D01*
X80290476Y-41104761D01*
X80195238Y-41152380D01*
X80004761Y-41152380D01*
X79909523Y-41104761D01*
X79861904Y-41057142D01*
X79814285Y-40961904D01*
X79814285Y-40723809D01*
X79861904Y-40628571D01*
X79909523Y-40580952D01*
X80004761Y-40533333D01*
X80195238Y-40533333D01*
X80290476Y-40580952D01*
X80338095Y-40628571D01*
X80385714Y-40723809D01*
X71364285Y-45252380D02*
X71935714Y-45252380D01*
X71650000Y-45252380D02*
X71650000Y-44252380D01*
X71745238Y-44395238D01*
X71840476Y-44490476D01*
X71935714Y-44538095D01*
X76538095Y-166152380D02*
X76538095Y-165152380D01*
X76300000Y-165152380D01*
X76157142Y-165200000D01*
X76061904Y-165295238D01*
X76014285Y-165390476D01*
X75966666Y-165580952D01*
X75966666Y-165723809D01*
X76014285Y-165914285D01*
X76061904Y-166009523D01*
X76157142Y-166104761D01*
X76300000Y-166152380D01*
X76538095Y-166152380D01*
X75633333Y-165152380D02*
X74966666Y-165152380D01*
X75395238Y-166152380D01*
X79664285Y-168052380D02*
X80235714Y-168052380D01*
X79950000Y-168052380D02*
X79950000Y-167052380D01*
X80045238Y-167195238D01*
X80140476Y-167290476D01*
X80235714Y-167338095D01*
X93538095Y-166152380D02*
X93538095Y-165152380D01*
X93300000Y-165152380D01*
X93157142Y-165200000D01*
X93061904Y-165295238D01*
X93014285Y-165390476D01*
X92966666Y-165580952D01*
X92966666Y-165723809D01*
X93014285Y-165914285D01*
X93061904Y-166009523D01*
X93157142Y-166104761D01*
X93300000Y-166152380D01*
X93538095Y-166152380D01*
X92395238Y-165580952D02*
X92490476Y-165533333D01*
X92538095Y-165485714D01*
X92585714Y-165390476D01*
X92585714Y-165342857D01*
X92538095Y-165247619D01*
X92490476Y-165200000D01*
X92395238Y-165152380D01*
X92204761Y-165152380D01*
X92109523Y-165200000D01*
X92061904Y-165247619D01*
X92014285Y-165342857D01*
X92014285Y-165390476D01*
X92061904Y-165485714D01*
X92109523Y-165533333D01*
X92204761Y-165580952D01*
X92395238Y-165580952D01*
X92490476Y-165628571D01*
X92538095Y-165676190D01*
X92585714Y-165771428D01*
X92585714Y-165961904D01*
X92538095Y-166057142D01*
X92490476Y-166104761D01*
X92395238Y-166152380D01*
X92204761Y-166152380D01*
X92109523Y-166104761D01*
X92061904Y-166057142D01*
X92014285Y-165961904D01*
X92014285Y-165771428D01*
X92061904Y-165676190D01*
X92109523Y-165628571D01*
X92204761Y-165580952D01*
X96664285Y-168052380D02*
X97235714Y-168052380D01*
X96950000Y-168052380D02*
X96950000Y-167052380D01*
X97045238Y-167195238D01*
X97140476Y-167290476D01*
X97235714Y-167338095D01*
X110538095Y-166152380D02*
X110538095Y-165152380D01*
X110300000Y-165152380D01*
X110157142Y-165200000D01*
X110061904Y-165295238D01*
X110014285Y-165390476D01*
X109966666Y-165580952D01*
X109966666Y-165723809D01*
X110014285Y-165914285D01*
X110061904Y-166009523D01*
X110157142Y-166104761D01*
X110300000Y-166152380D01*
X110538095Y-166152380D01*
X109490476Y-166152380D02*
X109300000Y-166152380D01*
X109204761Y-166104761D01*
X109157142Y-166057142D01*
X109061904Y-165914285D01*
X109014285Y-165723809D01*
X109014285Y-165342857D01*
X109061904Y-165247619D01*
X109109523Y-165200000D01*
X109204761Y-165152380D01*
X109395238Y-165152380D01*
X109490476Y-165200000D01*
X109538095Y-165247619D01*
X109585714Y-165342857D01*
X109585714Y-165580952D01*
X109538095Y-165676190D01*
X109490476Y-165723809D01*
X109395238Y-165771428D01*
X109204761Y-165771428D01*
X109109523Y-165723809D01*
X109061904Y-165676190D01*
X109014285Y-165580952D01*
X113664285Y-168052380D02*
X114235714Y-168052380D01*
X113950000Y-168052380D02*
X113950000Y-167052380D01*
X114045238Y-167195238D01*
X114140476Y-167290476D01*
X114235714Y-167338095D01*
X128014285Y-166152380D02*
X128014285Y-165152380D01*
X127776190Y-165152380D01*
X127633333Y-165200000D01*
X127538095Y-165295238D01*
X127490476Y-165390476D01*
X127442857Y-165580952D01*
X127442857Y-165723809D01*
X127490476Y-165914285D01*
X127538095Y-166009523D01*
X127633333Y-166104761D01*
X127776190Y-166152380D01*
X128014285Y-166152380D01*
X126490476Y-166152380D02*
X127061904Y-166152380D01*
X126776190Y-166152380D02*
X126776190Y-165152380D01*
X126871428Y-165295238D01*
X126966666Y-165390476D01*
X127061904Y-165438095D01*
X125871428Y-165152380D02*
X125776190Y-165152380D01*
X125680952Y-165200000D01*
X125633333Y-165247619D01*
X125585714Y-165342857D01*
X125538095Y-165533333D01*
X125538095Y-165771428D01*
X125585714Y-165961904D01*
X125633333Y-166057142D01*
X125680952Y-166104761D01*
X125776190Y-166152380D01*
X125871428Y-166152380D01*
X125966666Y-166104761D01*
X126014285Y-166057142D01*
X126061904Y-165961904D01*
X126109523Y-165771428D01*
X126109523Y-165533333D01*
X126061904Y-165342857D01*
X126014285Y-165247619D01*
X125966666Y-165200000D01*
X125871428Y-165152380D01*
X130664285Y-168052380D02*
X131235714Y-168052380D01*
X130950000Y-168052380D02*
X130950000Y-167052380D01*
X131045238Y-167195238D01*
X131140476Y-167290476D01*
X131235714Y-167338095D01*
X118566666Y-41357142D02*
X118614285Y-41404761D01*
X118757142Y-41452380D01*
X118852380Y-41452380D01*
X118995238Y-41404761D01*
X119090476Y-41309523D01*
X119138095Y-41214285D01*
X119185714Y-41023809D01*
X119185714Y-40880952D01*
X119138095Y-40690476D01*
X119090476Y-40595238D01*
X118995238Y-40500000D01*
X118852380Y-40452380D01*
X118757142Y-40452380D01*
X118614285Y-40500000D01*
X118566666Y-40547619D01*
X118090476Y-41452380D02*
X117900000Y-41452380D01*
X117804761Y-41404761D01*
X117757142Y-41357142D01*
X117661904Y-41214285D01*
X117614285Y-41023809D01*
X117614285Y-40642857D01*
X117661904Y-40547619D01*
X117709523Y-40500000D01*
X117804761Y-40452380D01*
X117995238Y-40452380D01*
X118090476Y-40500000D01*
X118138095Y-40547619D01*
X118185714Y-40642857D01*
X118185714Y-40880952D01*
X118138095Y-40976190D01*
X118090476Y-41023809D01*
X117995238Y-41071428D01*
X117804761Y-41071428D01*
X117709523Y-41023809D01*
X117661904Y-40976190D01*
X117614285Y-40880952D01*
X102042857Y-41357142D02*
X102090476Y-41404761D01*
X102233333Y-41452380D01*
X102328571Y-41452380D01*
X102471428Y-41404761D01*
X102566666Y-41309523D01*
X102614285Y-41214285D01*
X102661904Y-41023809D01*
X102661904Y-40880952D01*
X102614285Y-40690476D01*
X102566666Y-40595238D01*
X102471428Y-40500000D01*
X102328571Y-40452380D01*
X102233333Y-40452380D01*
X102090476Y-40500000D01*
X102042857Y-40547619D01*
X101090476Y-41452380D02*
X101661904Y-41452380D01*
X101376190Y-41452380D02*
X101376190Y-40452380D01*
X101471428Y-40595238D01*
X101566666Y-40690476D01*
X101661904Y-40738095D01*
X100471428Y-40452380D02*
X100376190Y-40452380D01*
X100280952Y-40500000D01*
X100233333Y-40547619D01*
X100185714Y-40642857D01*
X100138095Y-40833333D01*
X100138095Y-41071428D01*
X100185714Y-41261904D01*
X100233333Y-41357142D01*
X100280952Y-41404761D01*
X100376190Y-41452380D01*
X100471428Y-41452380D01*
X100566666Y-41404761D01*
X100614285Y-41357142D01*
X100661904Y-41261904D01*
X100709523Y-41071428D01*
X100709523Y-40833333D01*
X100661904Y-40642857D01*
X100614285Y-40547619D01*
X100566666Y-40500000D01*
X100471428Y-40452380D01*
X85042857Y-41457142D02*
X85090476Y-41504761D01*
X85233333Y-41552380D01*
X85328571Y-41552380D01*
X85471428Y-41504761D01*
X85566666Y-41409523D01*
X85614285Y-41314285D01*
X85661904Y-41123809D01*
X85661904Y-40980952D01*
X85614285Y-40790476D01*
X85566666Y-40695238D01*
X85471428Y-40600000D01*
X85328571Y-40552380D01*
X85233333Y-40552380D01*
X85090476Y-40600000D01*
X85042857Y-40647619D01*
X84090476Y-41552380D02*
X84661904Y-41552380D01*
X84376190Y-41552380D02*
X84376190Y-40552380D01*
X84471428Y-40695238D01*
X84566666Y-40790476D01*
X84661904Y-40838095D01*
X83709523Y-40647619D02*
X83661904Y-40600000D01*
X83566666Y-40552380D01*
X83328571Y-40552380D01*
X83233333Y-40600000D01*
X83185714Y-40647619D01*
X83138095Y-40742857D01*
X83138095Y-40838095D01*
X83185714Y-40980952D01*
X83757142Y-41552380D01*
X83138095Y-41552380D01*
X85242857Y-166757142D02*
X85290476Y-166804761D01*
X85433333Y-166852380D01*
X85528571Y-166852380D01*
X85671428Y-166804761D01*
X85766666Y-166709523D01*
X85814285Y-166614285D01*
X85861904Y-166423809D01*
X85861904Y-166280952D01*
X85814285Y-166090476D01*
X85766666Y-165995238D01*
X85671428Y-165900000D01*
X85528571Y-165852380D01*
X85433333Y-165852380D01*
X85290476Y-165900000D01*
X85242857Y-165947619D01*
X84290476Y-166852380D02*
X84861904Y-166852380D01*
X84576190Y-166852380D02*
X84576190Y-165852380D01*
X84671428Y-165995238D01*
X84766666Y-166090476D01*
X84861904Y-166138095D01*
X83433333Y-166185714D02*
X83433333Y-166852380D01*
X83671428Y-165804761D02*
X83909523Y-166519047D01*
X83290476Y-166519047D01*
X101942857Y-166657142D02*
X101990476Y-166704761D01*
X102133333Y-166752380D01*
X102228571Y-166752380D01*
X102371428Y-166704761D01*
X102466666Y-166609523D01*
X102514285Y-166514285D01*
X102561904Y-166323809D01*
X102561904Y-166180952D01*
X102514285Y-165990476D01*
X102466666Y-165895238D01*
X102371428Y-165800000D01*
X102228571Y-165752380D01*
X102133333Y-165752380D01*
X101990476Y-165800000D01*
X101942857Y-165847619D01*
X100990476Y-166752380D02*
X101561904Y-166752380D01*
X101276190Y-166752380D02*
X101276190Y-165752380D01*
X101371428Y-165895238D01*
X101466666Y-165990476D01*
X101561904Y-166038095D01*
X100133333Y-165752380D02*
X100323809Y-165752380D01*
X100419047Y-165800000D01*
X100466666Y-165847619D01*
X100561904Y-165990476D01*
X100609523Y-166180952D01*
X100609523Y-166561904D01*
X100561904Y-166657142D01*
X100514285Y-166704761D01*
X100419047Y-166752380D01*
X100228571Y-166752380D01*
X100133333Y-166704761D01*
X100085714Y-166657142D01*
X100038095Y-166561904D01*
X100038095Y-166323809D01*
X100085714Y-166228571D01*
X100133333Y-166180952D01*
X100228571Y-166133333D01*
X100419047Y-166133333D01*
X100514285Y-166180952D01*
X100561904Y-166228571D01*
X100609523Y-166323809D01*
X119742857Y-166557142D02*
X119790476Y-166604761D01*
X119933333Y-166652380D01*
X120028571Y-166652380D01*
X120171428Y-166604761D01*
X120266666Y-166509523D01*
X120314285Y-166414285D01*
X120361904Y-166223809D01*
X120361904Y-166080952D01*
X120314285Y-165890476D01*
X120266666Y-165795238D01*
X120171428Y-165700000D01*
X120028571Y-165652380D01*
X119933333Y-165652380D01*
X119790476Y-165700000D01*
X119742857Y-165747619D01*
X118790476Y-166652380D02*
X119361904Y-166652380D01*
X119076190Y-166652380D02*
X119076190Y-165652380D01*
X119171428Y-165795238D01*
X119266666Y-165890476D01*
X119361904Y-165938095D01*
X118457142Y-165652380D02*
X117790476Y-165652380D01*
X118219047Y-166652380D01*
M02*
