G04 #@! TF.GenerationSoftware,KiCad,Pcbnew,(5.1.7)-1*
G04 #@! TF.CreationDate,2020-10-19T19:05:30+02:00*
G04 #@! TF.ProjectId,Touch-Steuerung,546f7563-682d-4537-9465-756572756e67,1.0*
G04 #@! TF.SameCoordinates,Original*
G04 #@! TF.FileFunction,Soldermask,Bot*
G04 #@! TF.FilePolarity,Negative*
%FSLAX46Y46*%
G04 Gerber Fmt 4.6, Leading zero omitted, Abs format (unit mm)*
G04 Created by KiCad (PCBNEW (5.1.7)-1) date 2020-10-19 19:05:30*
%MOMM*%
%LPD*%
G01*
G04 APERTURE LIST*
%ADD10C,1.700000*%
%ADD11O,1.700000X1.700000*%
%ADD12R,1.350000X1.350000*%
%ADD13R,1.500000X1.000000*%
%ADD14O,1.350000X1.350000*%
%ADD15R,1.700000X1.700000*%
%ADD16C,1.524000*%
G04 APERTURE END LIST*
D10*
X77341500Y-75601500D03*
D11*
X77341500Y-78141500D03*
X77341500Y-80681500D03*
X77341500Y-83221500D03*
D10*
X77278000Y-85761500D03*
D11*
X79818000Y-85761500D03*
X82358000Y-85761500D03*
X84898000Y-85761500D03*
X87438000Y-85761500D03*
X89978000Y-85761500D03*
D12*
X77300000Y-48300000D03*
G36*
G01*
X80525000Y-124712500D02*
X79275000Y-124712500D01*
G75*
G02*
X79025000Y-124462500I0J250000D01*
G01*
X79025000Y-123537500D01*
G75*
G02*
X79275000Y-123287500I250000J0D01*
G01*
X80525000Y-123287500D01*
G75*
G02*
X80775000Y-123537500I0J-250000D01*
G01*
X80775000Y-124462500D01*
G75*
G02*
X80525000Y-124712500I-250000J0D01*
G01*
G37*
G36*
G01*
X80525000Y-127687500D02*
X79275000Y-127687500D01*
G75*
G02*
X79025000Y-127437500I0J250000D01*
G01*
X79025000Y-126512500D01*
G75*
G02*
X79275000Y-126262500I250000J0D01*
G01*
X80525000Y-126262500D01*
G75*
G02*
X80775000Y-126512500I0J-250000D01*
G01*
X80775000Y-127437500D01*
G75*
G02*
X80525000Y-127687500I-250000J0D01*
G01*
G37*
G36*
G01*
X83325000Y-127712500D02*
X82075000Y-127712500D01*
G75*
G02*
X81825000Y-127462500I0J250000D01*
G01*
X81825000Y-126537500D01*
G75*
G02*
X82075000Y-126287500I250000J0D01*
G01*
X83325000Y-126287500D01*
G75*
G02*
X83575000Y-126537500I0J-250000D01*
G01*
X83575000Y-127462500D01*
G75*
G02*
X83325000Y-127712500I-250000J0D01*
G01*
G37*
G36*
G01*
X83325000Y-124737500D02*
X82075000Y-124737500D01*
G75*
G02*
X81825000Y-124487500I0J250000D01*
G01*
X81825000Y-123562500D01*
G75*
G02*
X82075000Y-123312500I250000J0D01*
G01*
X83325000Y-123312500D01*
G75*
G02*
X83575000Y-123562500I0J-250000D01*
G01*
X83575000Y-124487500D01*
G75*
G02*
X83325000Y-124737500I-250000J0D01*
G01*
G37*
D13*
X124350000Y-44800000D03*
X124350000Y-41600000D03*
X129250000Y-44800000D03*
X129250000Y-41600000D03*
X112250000Y-41600000D03*
X112250000Y-44800000D03*
X107350000Y-41600000D03*
X107350000Y-44800000D03*
X95250000Y-41600000D03*
X95250000Y-44800000D03*
X90350000Y-41600000D03*
X90350000Y-44800000D03*
X73350000Y-44800000D03*
X73350000Y-41600000D03*
X78250000Y-44800000D03*
X78250000Y-41600000D03*
X73350000Y-170800000D03*
X73350000Y-167600000D03*
X78250000Y-170800000D03*
X78250000Y-167600000D03*
X95250000Y-167600000D03*
X95250000Y-170800000D03*
X90350000Y-167600000D03*
X90350000Y-170800000D03*
X107350000Y-170800000D03*
X107350000Y-167600000D03*
X112250000Y-170800000D03*
X112250000Y-167600000D03*
X129250000Y-167600000D03*
X129250000Y-170800000D03*
X124350000Y-167600000D03*
X124350000Y-170800000D03*
D12*
X96300000Y-160600000D03*
D14*
X98300000Y-160600000D03*
X100300000Y-160600000D03*
X102300000Y-160600000D03*
X104300000Y-160600000D03*
X106300000Y-160600000D03*
D15*
X100800000Y-50600000D03*
D11*
X103340000Y-50600000D03*
X105880000Y-50600000D03*
X108420000Y-50600000D03*
X110960000Y-50600000D03*
X113500000Y-50600000D03*
X94800000Y-63200000D03*
X94800000Y-60660000D03*
X94800000Y-58120000D03*
X94800000Y-55580000D03*
X94800000Y-53040000D03*
D15*
X94800000Y-50500000D03*
G36*
G01*
X118950001Y-45225000D02*
X118049999Y-45225000D01*
G75*
G02*
X117800000Y-44975001I0J249999D01*
G01*
X117800000Y-44324999D01*
G75*
G02*
X118049999Y-44075000I249999J0D01*
G01*
X118950001Y-44075000D01*
G75*
G02*
X119200000Y-44324999I0J-249999D01*
G01*
X119200000Y-44975001D01*
G75*
G02*
X118950001Y-45225000I-249999J0D01*
G01*
G37*
G36*
G01*
X118950001Y-43175000D02*
X118049999Y-43175000D01*
G75*
G02*
X117800000Y-42925001I0J249999D01*
G01*
X117800000Y-42274999D01*
G75*
G02*
X118049999Y-42025000I249999J0D01*
G01*
X118950001Y-42025000D01*
G75*
G02*
X119200000Y-42274999I0J-249999D01*
G01*
X119200000Y-42925001D01*
G75*
G02*
X118950001Y-43175000I-249999J0D01*
G01*
G37*
G36*
G01*
X101750001Y-43175000D02*
X100849999Y-43175000D01*
G75*
G02*
X100600000Y-42925001I0J249999D01*
G01*
X100600000Y-42274999D01*
G75*
G02*
X100849999Y-42025000I249999J0D01*
G01*
X101750001Y-42025000D01*
G75*
G02*
X102000000Y-42274999I0J-249999D01*
G01*
X102000000Y-42925001D01*
G75*
G02*
X101750001Y-43175000I-249999J0D01*
G01*
G37*
G36*
G01*
X101750001Y-45225000D02*
X100849999Y-45225000D01*
G75*
G02*
X100600000Y-44975001I0J249999D01*
G01*
X100600000Y-44324999D01*
G75*
G02*
X100849999Y-44075000I249999J0D01*
G01*
X101750001Y-44075000D01*
G75*
G02*
X102000000Y-44324999I0J-249999D01*
G01*
X102000000Y-44975001D01*
G75*
G02*
X101750001Y-45225000I-249999J0D01*
G01*
G37*
G36*
G01*
X84800001Y-45225000D02*
X83899999Y-45225000D01*
G75*
G02*
X83650000Y-44975001I0J249999D01*
G01*
X83650000Y-44324999D01*
G75*
G02*
X83899999Y-44075000I249999J0D01*
G01*
X84800001Y-44075000D01*
G75*
G02*
X85050000Y-44324999I0J-249999D01*
G01*
X85050000Y-44975001D01*
G75*
G02*
X84800001Y-45225000I-249999J0D01*
G01*
G37*
G36*
G01*
X84800001Y-43175000D02*
X83899999Y-43175000D01*
G75*
G02*
X83650000Y-42925001I0J249999D01*
G01*
X83650000Y-42274999D01*
G75*
G02*
X83899999Y-42025000I249999J0D01*
G01*
X84800001Y-42025000D01*
G75*
G02*
X85050000Y-42274999I0J-249999D01*
G01*
X85050000Y-42925001D01*
G75*
G02*
X84800001Y-43175000I-249999J0D01*
G01*
G37*
G36*
G01*
X84049999Y-167225000D02*
X84950001Y-167225000D01*
G75*
G02*
X85200000Y-167474999I0J-249999D01*
G01*
X85200000Y-168125001D01*
G75*
G02*
X84950001Y-168375000I-249999J0D01*
G01*
X84049999Y-168375000D01*
G75*
G02*
X83800000Y-168125001I0J249999D01*
G01*
X83800000Y-167474999D01*
G75*
G02*
X84049999Y-167225000I249999J0D01*
G01*
G37*
G36*
G01*
X84049999Y-169275000D02*
X84950001Y-169275000D01*
G75*
G02*
X85200000Y-169524999I0J-249999D01*
G01*
X85200000Y-170175001D01*
G75*
G02*
X84950001Y-170425000I-249999J0D01*
G01*
X84049999Y-170425000D01*
G75*
G02*
X83800000Y-170175001I0J249999D01*
G01*
X83800000Y-169524999D01*
G75*
G02*
X84049999Y-169275000I249999J0D01*
G01*
G37*
G36*
G01*
X100849999Y-167200000D02*
X101750001Y-167200000D01*
G75*
G02*
X102000000Y-167449999I0J-249999D01*
G01*
X102000000Y-168100001D01*
G75*
G02*
X101750001Y-168350000I-249999J0D01*
G01*
X100849999Y-168350000D01*
G75*
G02*
X100600000Y-168100001I0J249999D01*
G01*
X100600000Y-167449999D01*
G75*
G02*
X100849999Y-167200000I249999J0D01*
G01*
G37*
G36*
G01*
X100849999Y-169250000D02*
X101750001Y-169250000D01*
G75*
G02*
X102000000Y-169499999I0J-249999D01*
G01*
X102000000Y-170150001D01*
G75*
G02*
X101750001Y-170400000I-249999J0D01*
G01*
X100849999Y-170400000D01*
G75*
G02*
X100600000Y-170150001I0J249999D01*
G01*
X100600000Y-169499999D01*
G75*
G02*
X100849999Y-169250000I249999J0D01*
G01*
G37*
G36*
G01*
X118549999Y-169250000D02*
X119450001Y-169250000D01*
G75*
G02*
X119700000Y-169499999I0J-249999D01*
G01*
X119700000Y-170150001D01*
G75*
G02*
X119450001Y-170400000I-249999J0D01*
G01*
X118549999Y-170400000D01*
G75*
G02*
X118300000Y-170150001I0J249999D01*
G01*
X118300000Y-169499999D01*
G75*
G02*
X118549999Y-169250000I249999J0D01*
G01*
G37*
G36*
G01*
X118549999Y-167200000D02*
X119450001Y-167200000D01*
G75*
G02*
X119700000Y-167449999I0J-249999D01*
G01*
X119700000Y-168100001D01*
G75*
G02*
X119450001Y-168350000I-249999J0D01*
G01*
X118549999Y-168350000D01*
G75*
G02*
X118300000Y-168100001I0J249999D01*
G01*
X118300000Y-167449999D01*
G75*
G02*
X118549999Y-167200000I249999J0D01*
G01*
G37*
D16*
X114220000Y-85290000D03*
X114220000Y-87830000D03*
X114220000Y-90370000D03*
X114220000Y-92910000D03*
M02*
