G04 #@! TF.GenerationSoftware,KiCad,Pcbnew,(5.1.7)-1*
G04 #@! TF.CreationDate,2020-10-19T19:05:30+02:00*
G04 #@! TF.ProjectId,Touch-Steuerung,546f7563-682d-4537-9465-756572756e67,1.0*
G04 #@! TF.SameCoordinates,Original*
G04 #@! TF.FileFunction,Legend,Top*
G04 #@! TF.FilePolarity,Positive*
%FSLAX46Y46*%
G04 Gerber Fmt 4.6, Leading zero omitted, Abs format (unit mm)*
G04 Created by KiCad (PCBNEW (5.1.7)-1) date 2020-10-19 19:05:30*
%MOMM*%
%LPD*%
G01*
G04 APERTURE LIST*
%ADD10C,0.100000*%
%ADD11C,0.152400*%
%ADD12C,0.120000*%
%ADD13C,0.150000*%
%ADD14C,0.200000*%
%ADD15C,0.254000*%
G04 APERTURE END LIST*
D10*
X100373809Y-53026190D02*
X100207142Y-52788095D01*
X100088095Y-53026190D02*
X100088095Y-52526190D01*
X100278571Y-52526190D01*
X100326190Y-52550000D01*
X100350000Y-52573809D01*
X100373809Y-52621428D01*
X100373809Y-52692857D01*
X100350000Y-52740476D01*
X100326190Y-52764285D01*
X100278571Y-52788095D01*
X100088095Y-52788095D01*
X100588095Y-52764285D02*
X100754761Y-52764285D01*
X100826190Y-53026190D02*
X100588095Y-53026190D01*
X100588095Y-52526190D01*
X100826190Y-52526190D01*
X101016666Y-53002380D02*
X101088095Y-53026190D01*
X101207142Y-53026190D01*
X101254761Y-53002380D01*
X101278571Y-52978571D01*
X101302380Y-52930952D01*
X101302380Y-52883333D01*
X101278571Y-52835714D01*
X101254761Y-52811904D01*
X101207142Y-52788095D01*
X101111904Y-52764285D01*
X101064285Y-52740476D01*
X101040476Y-52716666D01*
X101016666Y-52669047D01*
X101016666Y-52621428D01*
X101040476Y-52573809D01*
X101064285Y-52550000D01*
X101111904Y-52526190D01*
X101230952Y-52526190D01*
X101302380Y-52550000D01*
X101516666Y-52764285D02*
X101683333Y-52764285D01*
X101754761Y-53026190D02*
X101516666Y-53026190D01*
X101516666Y-52526190D01*
X101754761Y-52526190D01*
X101897619Y-52526190D02*
X102183333Y-52526190D01*
X102040476Y-53026190D02*
X102040476Y-52526190D01*
X107633333Y-52126190D02*
X107800000Y-52626190D01*
X107966666Y-52126190D01*
X108419047Y-52578571D02*
X108395238Y-52602380D01*
X108323809Y-52626190D01*
X108276190Y-52626190D01*
X108204761Y-52602380D01*
X108157142Y-52554761D01*
X108133333Y-52507142D01*
X108109523Y-52411904D01*
X108109523Y-52340476D01*
X108133333Y-52245238D01*
X108157142Y-52197619D01*
X108204761Y-52150000D01*
X108276190Y-52126190D01*
X108323809Y-52126190D01*
X108395238Y-52150000D01*
X108419047Y-52173809D01*
X108919047Y-52578571D02*
X108895238Y-52602380D01*
X108823809Y-52626190D01*
X108776190Y-52626190D01*
X108704761Y-52602380D01*
X108657142Y-52554761D01*
X108633333Y-52507142D01*
X108609523Y-52411904D01*
X108609523Y-52340476D01*
X108633333Y-52245238D01*
X108657142Y-52197619D01*
X108704761Y-52150000D01*
X108776190Y-52126190D01*
X108823809Y-52126190D01*
X108895238Y-52150000D01*
X108919047Y-52173809D01*
X113119047Y-52150000D02*
X113071428Y-52126190D01*
X113000000Y-52126190D01*
X112928571Y-52150000D01*
X112880952Y-52197619D01*
X112857142Y-52245238D01*
X112833333Y-52340476D01*
X112833333Y-52411904D01*
X112857142Y-52507142D01*
X112880952Y-52554761D01*
X112928571Y-52602380D01*
X113000000Y-52626190D01*
X113047619Y-52626190D01*
X113119047Y-52602380D01*
X113142857Y-52578571D01*
X113142857Y-52411904D01*
X113047619Y-52411904D01*
X113357142Y-52626190D02*
X113357142Y-52126190D01*
X113642857Y-52626190D01*
X113642857Y-52126190D01*
X113880952Y-52626190D02*
X113880952Y-52126190D01*
X114000000Y-52126190D01*
X114071428Y-52150000D01*
X114119047Y-52197619D01*
X114142857Y-52245238D01*
X114166666Y-52340476D01*
X114166666Y-52411904D01*
X114142857Y-52507142D01*
X114119047Y-52554761D01*
X114071428Y-52602380D01*
X114000000Y-52626190D01*
X113880952Y-52626190D01*
D11*
X106824761Y-135059619D02*
X106824761Y-134043619D01*
X107308571Y-134382285D02*
X107308571Y-135059619D01*
X107308571Y-134479047D02*
X107356952Y-134430666D01*
X107453714Y-134382285D01*
X107598857Y-134382285D01*
X107695619Y-134430666D01*
X107744000Y-134527428D01*
X107744000Y-135059619D01*
X108227809Y-134382285D02*
X108227809Y-135398285D01*
X108227809Y-134430666D02*
X108324571Y-134382285D01*
X108518095Y-134382285D01*
X108614857Y-134430666D01*
X108663238Y-134479047D01*
X108711619Y-134575809D01*
X108711619Y-134866095D01*
X108663238Y-134962857D01*
X108614857Y-135011238D01*
X108518095Y-135059619D01*
X108324571Y-135059619D01*
X108227809Y-135011238D01*
X109582476Y-134382285D02*
X109582476Y-135059619D01*
X109147047Y-134382285D02*
X109147047Y-134914476D01*
X109195428Y-135011238D01*
X109292190Y-135059619D01*
X109437333Y-135059619D01*
X109534095Y-135011238D01*
X109582476Y-134962857D01*
X109921142Y-134382285D02*
X110308190Y-134382285D01*
X110066285Y-134043619D02*
X110066285Y-134914476D01*
X110114666Y-135011238D01*
X110211428Y-135059619D01*
X110308190Y-135059619D01*
X112195047Y-134382285D02*
X111420952Y-134672571D01*
X112195047Y-134962857D01*
X113404571Y-134140380D02*
X113452952Y-134092000D01*
X113549714Y-134043619D01*
X113791619Y-134043619D01*
X113888380Y-134092000D01*
X113936761Y-134140380D01*
X113985142Y-134237142D01*
X113985142Y-134333904D01*
X113936761Y-134479047D01*
X113356190Y-135059619D01*
X113985142Y-135059619D01*
X114614095Y-134043619D02*
X114710857Y-134043619D01*
X114807619Y-134092000D01*
X114856000Y-134140380D01*
X114904380Y-134237142D01*
X114952761Y-134430666D01*
X114952761Y-134672571D01*
X114904380Y-134866095D01*
X114856000Y-134962857D01*
X114807619Y-135011238D01*
X114710857Y-135059619D01*
X114614095Y-135059619D01*
X114517333Y-135011238D01*
X114468952Y-134962857D01*
X114420571Y-134866095D01*
X114372190Y-134672571D01*
X114372190Y-134430666D01*
X114420571Y-134237142D01*
X114468952Y-134140380D01*
X114517333Y-134092000D01*
X114614095Y-134043619D01*
X115243047Y-134043619D02*
X115581714Y-135059619D01*
X115920380Y-134043619D01*
X104293904Y-132672571D02*
X105068000Y-132672571D01*
X104680952Y-133059619D02*
X104680952Y-132285523D01*
X106325904Y-133059619D02*
X106325904Y-132043619D01*
X106567809Y-132043619D01*
X106712952Y-132092000D01*
X106809714Y-132188761D01*
X106858095Y-132285523D01*
X106906476Y-132479047D01*
X106906476Y-132624190D01*
X106858095Y-132817714D01*
X106809714Y-132914476D01*
X106712952Y-133011238D01*
X106567809Y-133059619D01*
X106325904Y-133059619D01*
X107922476Y-132962857D02*
X107874095Y-133011238D01*
X107728952Y-133059619D01*
X107632190Y-133059619D01*
X107487047Y-133011238D01*
X107390285Y-132914476D01*
X107341904Y-132817714D01*
X107293523Y-132624190D01*
X107293523Y-132479047D01*
X107341904Y-132285523D01*
X107390285Y-132188761D01*
X107487047Y-132092000D01*
X107632190Y-132043619D01*
X107728952Y-132043619D01*
X107874095Y-132092000D01*
X107922476Y-132140380D01*
X109132000Y-132672571D02*
X109906095Y-132672571D01*
X113818095Y-133059619D02*
X114350285Y-132382285D01*
X113818095Y-132382285D02*
X114350285Y-133059619D01*
X115463047Y-132769333D02*
X115946857Y-132769333D01*
X115366285Y-133059619D02*
X115704952Y-132043619D01*
X116043619Y-133059619D01*
X116962857Y-132962857D02*
X116914476Y-133011238D01*
X116769333Y-133059619D01*
X116672571Y-133059619D01*
X116527428Y-133011238D01*
X116430666Y-132914476D01*
X116382285Y-132817714D01*
X116333904Y-132624190D01*
X116333904Y-132479047D01*
X116382285Y-132285523D01*
X116430666Y-132188761D01*
X116527428Y-132092000D01*
X116672571Y-132043619D01*
X116769333Y-132043619D01*
X116914476Y-132092000D01*
X116962857Y-132140380D01*
X118075619Y-133059619D02*
X118607809Y-132382285D01*
X118075619Y-132382285D02*
X118607809Y-133059619D01*
X74300000Y-168200000D02*
X74300000Y-114200000D01*
X128300000Y-168200000D02*
X74300000Y-168200000D01*
X128300000Y-114200000D02*
X128300000Y-168200000D01*
X74300000Y-114200000D02*
X128300000Y-114200000D01*
X74300000Y-44200000D02*
X74300000Y-98200000D01*
X128300000Y-44200000D02*
X74300000Y-44200000D01*
X128300000Y-98200000D02*
X128300000Y-44200000D01*
X74300000Y-98200000D02*
X128300000Y-98200000D01*
X80740964Y-133121419D02*
X80740964Y-132105419D01*
X80740964Y-132589228D02*
X81321536Y-132589228D01*
X81321536Y-133121419D02*
X81321536Y-132105419D01*
X82144012Y-132589228D02*
X82289155Y-132637609D01*
X82337536Y-132685990D01*
X82385917Y-132782752D01*
X82385917Y-132927895D01*
X82337536Y-133024657D01*
X82289155Y-133073038D01*
X82192393Y-133121419D01*
X81805345Y-133121419D01*
X81805345Y-132105419D01*
X82144012Y-132105419D01*
X82240774Y-132153800D01*
X82289155Y-132202180D01*
X82337536Y-132298942D01*
X82337536Y-132395704D01*
X82289155Y-132492466D01*
X82240774Y-132540847D01*
X82144012Y-132589228D01*
X81805345Y-132589228D01*
X82821345Y-132734371D02*
X83595440Y-132734371D01*
X84659821Y-133024657D02*
X84611440Y-133073038D01*
X84466298Y-133121419D01*
X84369536Y-133121419D01*
X84224393Y-133073038D01*
X84127631Y-132976276D01*
X84079250Y-132879514D01*
X84030869Y-132685990D01*
X84030869Y-132540847D01*
X84079250Y-132347323D01*
X84127631Y-132250561D01*
X84224393Y-132153800D01*
X84369536Y-132105419D01*
X84466298Y-132105419D01*
X84611440Y-132153800D01*
X84659821Y-132202180D01*
X85095250Y-133121419D02*
X85095250Y-132105419D01*
X85337155Y-132105419D01*
X85482298Y-132153800D01*
X85579060Y-132250561D01*
X85627440Y-132347323D01*
X85675821Y-132540847D01*
X85675821Y-132685990D01*
X85627440Y-132879514D01*
X85579060Y-132976276D01*
X85482298Y-133073038D01*
X85337155Y-133121419D01*
X85095250Y-133121419D01*
X86595060Y-133121419D02*
X86111250Y-133121419D01*
X86111250Y-132105419D01*
X86933726Y-132734371D02*
X87707821Y-132734371D01*
X88627060Y-132105419D02*
X88433536Y-132105419D01*
X88336774Y-132153800D01*
X88288393Y-132202180D01*
X88191631Y-132347323D01*
X88143250Y-132540847D01*
X88143250Y-132927895D01*
X88191631Y-133024657D01*
X88240012Y-133073038D01*
X88336774Y-133121419D01*
X88530298Y-133121419D01*
X88627060Y-133073038D01*
X88675440Y-133024657D01*
X88723821Y-132927895D01*
X88723821Y-132685990D01*
X88675440Y-132589228D01*
X88627060Y-132540847D01*
X88530298Y-132492466D01*
X88336774Y-132492466D01*
X88240012Y-132540847D01*
X88191631Y-132589228D01*
X88143250Y-132685990D01*
X89836583Y-132444085D02*
X90078488Y-133121419D01*
X90320393Y-132444085D01*
X91239631Y-133121419D02*
X90659060Y-133121419D01*
X90949345Y-133121419D02*
X90949345Y-132105419D01*
X90852583Y-132250561D01*
X90755821Y-132347323D01*
X90659060Y-132395704D01*
X91675060Y-133024657D02*
X91723440Y-133073038D01*
X91675060Y-133121419D01*
X91626679Y-133073038D01*
X91675060Y-133024657D01*
X91675060Y-133121419D01*
X92352393Y-132105419D02*
X92449155Y-132105419D01*
X92545917Y-132153800D01*
X92594298Y-132202180D01*
X92642679Y-132298942D01*
X92691060Y-132492466D01*
X92691060Y-132734371D01*
X92642679Y-132927895D01*
X92594298Y-133024657D01*
X92545917Y-133073038D01*
X92449155Y-133121419D01*
X92352393Y-133121419D01*
X92255631Y-133073038D01*
X92207250Y-133024657D01*
X92158869Y-132927895D01*
X92110488Y-132734371D01*
X92110488Y-132492466D01*
X92158869Y-132298942D01*
X92207250Y-132202180D01*
X92255631Y-132153800D01*
X92352393Y-132105419D01*
X80740964Y-134797819D02*
X80740964Y-133781819D01*
X80740964Y-134168866D02*
X80837726Y-134120485D01*
X81031250Y-134120485D01*
X81128012Y-134168866D01*
X81176393Y-134217247D01*
X81224774Y-134314009D01*
X81224774Y-134604295D01*
X81176393Y-134701057D01*
X81128012Y-134749438D01*
X81031250Y-134797819D01*
X80837726Y-134797819D01*
X80740964Y-134749438D01*
X81563440Y-134120485D02*
X81805345Y-134797819D01*
X82047250Y-134120485D02*
X81805345Y-134797819D01*
X81708583Y-135039723D01*
X81660202Y-135088104D01*
X81563440Y-135136485D01*
X83063250Y-134120485D02*
X83450298Y-134120485D01*
X83208393Y-133781819D02*
X83208393Y-134652676D01*
X83256774Y-134749438D01*
X83353536Y-134797819D01*
X83450298Y-134797819D01*
X83788964Y-134797819D02*
X83788964Y-134120485D01*
X83788964Y-134314009D02*
X83837345Y-134217247D01*
X83885726Y-134168866D01*
X83982488Y-134120485D01*
X84079250Y-134120485D01*
X84417917Y-134797819D02*
X84417917Y-134120485D01*
X84417917Y-133781819D02*
X84369536Y-133830200D01*
X84417917Y-133878580D01*
X84466298Y-133830200D01*
X84417917Y-133781819D01*
X84417917Y-133878580D01*
X85046869Y-134797819D02*
X84950107Y-134749438D01*
X84901726Y-134652676D01*
X84901726Y-133781819D01*
X85869345Y-134120485D02*
X85869345Y-134797819D01*
X85433917Y-134120485D02*
X85433917Y-134652676D01*
X85482298Y-134749438D01*
X85579060Y-134797819D01*
X85724202Y-134797819D01*
X85820964Y-134749438D01*
X85869345Y-134701057D01*
D10*
X96714285Y-60826190D02*
X96714285Y-60326190D01*
X96880952Y-60683333D01*
X97047619Y-60326190D01*
X97047619Y-60826190D01*
X97285714Y-60826190D02*
X97285714Y-60326190D01*
X97500000Y-60802380D02*
X97571428Y-60826190D01*
X97690476Y-60826190D01*
X97738095Y-60802380D01*
X97761904Y-60778571D01*
X97785714Y-60730952D01*
X97785714Y-60683333D01*
X97761904Y-60635714D01*
X97738095Y-60611904D01*
X97690476Y-60588095D01*
X97595238Y-60564285D01*
X97547619Y-60540476D01*
X97523809Y-60516666D01*
X97500000Y-60469047D01*
X97500000Y-60421428D01*
X97523809Y-60373809D01*
X97547619Y-60350000D01*
X97595238Y-60326190D01*
X97714285Y-60326190D01*
X97785714Y-60350000D01*
X98095238Y-60326190D02*
X98190476Y-60326190D01*
X98238095Y-60350000D01*
X98285714Y-60397619D01*
X98309523Y-60492857D01*
X98309523Y-60659523D01*
X98285714Y-60754761D01*
X98238095Y-60802380D01*
X98190476Y-60826190D01*
X98095238Y-60826190D01*
X98047619Y-60802380D01*
X98000000Y-60754761D01*
X97976190Y-60659523D01*
X97976190Y-60492857D01*
X98000000Y-60397619D01*
X98047619Y-60350000D01*
X98095238Y-60326190D01*
X96757142Y-58302380D02*
X96828571Y-58326190D01*
X96947619Y-58326190D01*
X96995238Y-58302380D01*
X97019047Y-58278571D01*
X97042857Y-58230952D01*
X97042857Y-58183333D01*
X97019047Y-58135714D01*
X96995238Y-58111904D01*
X96947619Y-58088095D01*
X96852380Y-58064285D01*
X96804761Y-58040476D01*
X96780952Y-58016666D01*
X96757142Y-57969047D01*
X96757142Y-57921428D01*
X96780952Y-57873809D01*
X96804761Y-57850000D01*
X96852380Y-57826190D01*
X96971428Y-57826190D01*
X97042857Y-57850000D01*
X97542857Y-58278571D02*
X97519047Y-58302380D01*
X97447619Y-58326190D01*
X97400000Y-58326190D01*
X97328571Y-58302380D01*
X97280952Y-58254761D01*
X97257142Y-58207142D01*
X97233333Y-58111904D01*
X97233333Y-58040476D01*
X97257142Y-57945238D01*
X97280952Y-57897619D01*
X97328571Y-57850000D01*
X97400000Y-57826190D01*
X97447619Y-57826190D01*
X97519047Y-57850000D01*
X97542857Y-57873809D01*
X97757142Y-58326190D02*
X97757142Y-57826190D01*
X98042857Y-58326190D02*
X97828571Y-58040476D01*
X98042857Y-57826190D02*
X97757142Y-58111904D01*
X97073809Y-63626190D02*
X96907142Y-63388095D01*
X96788095Y-63626190D02*
X96788095Y-63126190D01*
X96978571Y-63126190D01*
X97026190Y-63150000D01*
X97050000Y-63173809D01*
X97073809Y-63221428D01*
X97073809Y-63292857D01*
X97050000Y-63340476D01*
X97026190Y-63364285D01*
X96978571Y-63388095D01*
X96788095Y-63388095D01*
X97288095Y-63364285D02*
X97454761Y-63364285D01*
X97526190Y-63626190D02*
X97288095Y-63626190D01*
X97288095Y-63126190D01*
X97526190Y-63126190D01*
X97716666Y-63602380D02*
X97788095Y-63626190D01*
X97907142Y-63626190D01*
X97954761Y-63602380D01*
X97978571Y-63578571D01*
X98002380Y-63530952D01*
X98002380Y-63483333D01*
X97978571Y-63435714D01*
X97954761Y-63411904D01*
X97907142Y-63388095D01*
X97811904Y-63364285D01*
X97764285Y-63340476D01*
X97740476Y-63316666D01*
X97716666Y-63269047D01*
X97716666Y-63221428D01*
X97740476Y-63173809D01*
X97764285Y-63150000D01*
X97811904Y-63126190D01*
X97930952Y-63126190D01*
X98002380Y-63150000D01*
X98216666Y-63364285D02*
X98383333Y-63364285D01*
X98454761Y-63626190D02*
X98216666Y-63626190D01*
X98216666Y-63126190D01*
X98454761Y-63126190D01*
X98597619Y-63126190D02*
X98883333Y-63126190D01*
X98740476Y-63626190D02*
X98740476Y-63126190D01*
X96714285Y-55826190D02*
X96714285Y-55326190D01*
X96880952Y-55683333D01*
X97047619Y-55326190D01*
X97047619Y-55826190D01*
X97380952Y-55326190D02*
X97476190Y-55326190D01*
X97523809Y-55350000D01*
X97571428Y-55397619D01*
X97595238Y-55492857D01*
X97595238Y-55659523D01*
X97571428Y-55754761D01*
X97523809Y-55802380D01*
X97476190Y-55826190D01*
X97380952Y-55826190D01*
X97333333Y-55802380D01*
X97285714Y-55754761D01*
X97261904Y-55659523D01*
X97261904Y-55492857D01*
X97285714Y-55397619D01*
X97333333Y-55350000D01*
X97380952Y-55326190D01*
X97785714Y-55802380D02*
X97857142Y-55826190D01*
X97976190Y-55826190D01*
X98023809Y-55802380D01*
X98047619Y-55778571D01*
X98071428Y-55730952D01*
X98071428Y-55683333D01*
X98047619Y-55635714D01*
X98023809Y-55611904D01*
X97976190Y-55588095D01*
X97880952Y-55564285D01*
X97833333Y-55540476D01*
X97809523Y-55516666D01*
X97785714Y-55469047D01*
X97785714Y-55421428D01*
X97809523Y-55373809D01*
X97833333Y-55350000D01*
X97880952Y-55326190D01*
X98000000Y-55326190D01*
X98071428Y-55350000D01*
X98285714Y-55826190D02*
X98285714Y-55326190D01*
X110519047Y-52150000D02*
X110471428Y-52126190D01*
X110400000Y-52126190D01*
X110328571Y-52150000D01*
X110280952Y-52197619D01*
X110257142Y-52245238D01*
X110233333Y-52340476D01*
X110233333Y-52411904D01*
X110257142Y-52507142D01*
X110280952Y-52554761D01*
X110328571Y-52602380D01*
X110400000Y-52626190D01*
X110447619Y-52626190D01*
X110519047Y-52602380D01*
X110542857Y-52578571D01*
X110542857Y-52411904D01*
X110447619Y-52411904D01*
X110757142Y-52626190D02*
X110757142Y-52126190D01*
X111042857Y-52626190D01*
X111042857Y-52126190D01*
X111280952Y-52626190D02*
X111280952Y-52126190D01*
X111400000Y-52126190D01*
X111471428Y-52150000D01*
X111519047Y-52197619D01*
X111542857Y-52245238D01*
X111566666Y-52340476D01*
X111566666Y-52411904D01*
X111542857Y-52507142D01*
X111519047Y-52554761D01*
X111471428Y-52602380D01*
X111400000Y-52626190D01*
X111280952Y-52626190D01*
X97019047Y-52750000D02*
X96971428Y-52726190D01*
X96900000Y-52726190D01*
X96828571Y-52750000D01*
X96780952Y-52797619D01*
X96757142Y-52845238D01*
X96733333Y-52940476D01*
X96733333Y-53011904D01*
X96757142Y-53107142D01*
X96780952Y-53154761D01*
X96828571Y-53202380D01*
X96900000Y-53226190D01*
X96947619Y-53226190D01*
X97019047Y-53202380D01*
X97042857Y-53178571D01*
X97042857Y-53011904D01*
X96947619Y-53011904D01*
X97257142Y-53226190D02*
X97257142Y-52726190D01*
X97542857Y-53226190D01*
X97542857Y-52726190D01*
X97780952Y-53226190D02*
X97780952Y-52726190D01*
X97900000Y-52726190D01*
X97971428Y-52750000D01*
X98019047Y-52797619D01*
X98042857Y-52845238D01*
X98066666Y-52940476D01*
X98066666Y-53011904D01*
X98042857Y-53107142D01*
X98019047Y-53154761D01*
X97971428Y-53202380D01*
X97900000Y-53226190D01*
X97780952Y-53226190D01*
X105566666Y-52626190D02*
X105400000Y-52388095D01*
X105280952Y-52626190D02*
X105280952Y-52126190D01*
X105471428Y-52126190D01*
X105519047Y-52150000D01*
X105542857Y-52173809D01*
X105566666Y-52221428D01*
X105566666Y-52292857D01*
X105542857Y-52340476D01*
X105519047Y-52364285D01*
X105471428Y-52388095D01*
X105280952Y-52388095D01*
X105733333Y-52126190D02*
X106066666Y-52626190D01*
X106066666Y-52126190D02*
X105733333Y-52626190D01*
X106257142Y-52626190D02*
X106257142Y-52126190D01*
X106376190Y-52126190D01*
X106447619Y-52150000D01*
X106495238Y-52197619D01*
X106519047Y-52245238D01*
X106542857Y-52340476D01*
X106542857Y-52411904D01*
X106519047Y-52507142D01*
X106495238Y-52554761D01*
X106447619Y-52602380D01*
X106376190Y-52626190D01*
X106257142Y-52626190D01*
X102669047Y-52126190D02*
X102954761Y-52126190D01*
X102811904Y-52626190D02*
X102811904Y-52126190D01*
X103073809Y-52126190D02*
X103407142Y-52626190D01*
X103407142Y-52126190D02*
X103073809Y-52626190D01*
X103597619Y-52626190D02*
X103597619Y-52126190D01*
X103716666Y-52126190D01*
X103788095Y-52150000D01*
X103835714Y-52197619D01*
X103859523Y-52245238D01*
X103883333Y-52340476D01*
X103883333Y-52411904D01*
X103859523Y-52507142D01*
X103835714Y-52554761D01*
X103788095Y-52602380D01*
X103716666Y-52626190D01*
X103597619Y-52626190D01*
X96633333Y-50426190D02*
X96800000Y-50926190D01*
X96966666Y-50426190D01*
X97419047Y-50878571D02*
X97395238Y-50902380D01*
X97323809Y-50926190D01*
X97276190Y-50926190D01*
X97204761Y-50902380D01*
X97157142Y-50854761D01*
X97133333Y-50807142D01*
X97109523Y-50711904D01*
X97109523Y-50640476D01*
X97133333Y-50545238D01*
X97157142Y-50497619D01*
X97204761Y-50450000D01*
X97276190Y-50426190D01*
X97323809Y-50426190D01*
X97395238Y-50450000D01*
X97419047Y-50473809D01*
X97919047Y-50878571D02*
X97895238Y-50902380D01*
X97823809Y-50926190D01*
X97776190Y-50926190D01*
X97704761Y-50902380D01*
X97657142Y-50854761D01*
X97633333Y-50807142D01*
X97609523Y-50711904D01*
X97609523Y-50640476D01*
X97633333Y-50545238D01*
X97657142Y-50497619D01*
X97704761Y-50450000D01*
X97776190Y-50426190D01*
X97823809Y-50426190D01*
X97895238Y-50450000D01*
X97919047Y-50473809D01*
D12*
X103615000Y-72815000D02*
X103615000Y-74015000D01*
X103615000Y-77335000D02*
X103615000Y-76135000D01*
X107070563Y-77335000D02*
X103615000Y-77335000D01*
X107070563Y-72815000D02*
X103615000Y-72815000D01*
X108135000Y-73879437D02*
X108135000Y-74015000D01*
X108135000Y-76270563D02*
X108135000Y-76135000D01*
X108135000Y-76270563D02*
X107070563Y-77335000D01*
X108135000Y-73879437D02*
X107070563Y-72815000D01*
X108875000Y-76635000D02*
X108375000Y-76635000D01*
X108625000Y-76885000D02*
X108625000Y-76385000D01*
X124460000Y-57315000D02*
X124460000Y-63435000D01*
X124460000Y-63435000D02*
X120840000Y-63435000D01*
X120840000Y-63435000D02*
X120840000Y-57315000D01*
X120840000Y-57315000D02*
X124460000Y-57315000D01*
X78600000Y-77181748D02*
X78600000Y-77704252D01*
X80020000Y-77181748D02*
X80020000Y-77704252D01*
X92910500Y-78959748D02*
X92910500Y-79482252D01*
X91490500Y-78959748D02*
X91490500Y-79482252D01*
X78540748Y-72501500D02*
X79063252Y-72501500D01*
X78540748Y-71081500D02*
X79063252Y-71081500D01*
X95006000Y-78959748D02*
X95006000Y-79482252D01*
X93586000Y-78959748D02*
X93586000Y-79482252D01*
X94879000Y-68750752D02*
X94879000Y-68228248D01*
X93459000Y-68750752D02*
X93459000Y-68228248D01*
D13*
X89412000Y-80242500D02*
X89412000Y-80017500D01*
X82162000Y-80242500D02*
X82162000Y-79917500D01*
X82162000Y-72992500D02*
X82162000Y-73317500D01*
X89412000Y-72992500D02*
X89412000Y-73317500D01*
X89412000Y-80242500D02*
X89087000Y-80242500D01*
X89412000Y-72992500D02*
X89087000Y-72992500D01*
X82162000Y-72992500D02*
X82487000Y-72992500D01*
X82162000Y-80242500D02*
X82487000Y-80242500D01*
X89412000Y-80017500D02*
X90837000Y-80017500D01*
X76390000Y-50282000D02*
X76390000Y-69282000D01*
X92390000Y-50282000D02*
X76390000Y-50282000D01*
X92390000Y-69282000D02*
X92390000Y-50282000D01*
X76390000Y-69282000D02*
X92390000Y-69282000D01*
D12*
X85032252Y-83868000D02*
X84509748Y-83868000D01*
X85032252Y-82448000D02*
X84509748Y-82448000D01*
X92965000Y-74437000D02*
X92965000Y-73337000D01*
X94865000Y-74437000D02*
X94865000Y-73337000D01*
X93015000Y-76587000D02*
X94815000Y-76587000D01*
X77190000Y-94236252D02*
X77190000Y-93713748D01*
X78610000Y-94236252D02*
X78610000Y-93713748D01*
X81110000Y-94236252D02*
X81110000Y-93713748D01*
X79690000Y-94236252D02*
X79690000Y-93713748D01*
X105636252Y-71710000D02*
X105113748Y-71710000D01*
X105636252Y-70290000D02*
X105113748Y-70290000D01*
X95240000Y-161660000D02*
X95240000Y-160600000D01*
X96300000Y-161660000D02*
X95240000Y-161660000D01*
X97300000Y-161660000D02*
X97300000Y-159540000D01*
X97300000Y-159540000D02*
X107360000Y-159540000D01*
X97300000Y-161660000D02*
X107360000Y-161660000D01*
X107360000Y-161660000D02*
X107360000Y-159540000D01*
X106500000Y-57600000D02*
X106100000Y-57600000D01*
X106500000Y-55400000D02*
X106500000Y-57600000D01*
X106500000Y-62400000D02*
X106500000Y-64600000D01*
X115700000Y-62400000D02*
X115700000Y-64600000D01*
X115700000Y-64600000D02*
X106500000Y-64600000D01*
X115700000Y-55400000D02*
X115700000Y-57600000D01*
X106500000Y-55400000D02*
X115700000Y-55400000D01*
X119725000Y-73265000D02*
X119725000Y-73765000D01*
X119475000Y-73515000D02*
X119975000Y-73515000D01*
X120215000Y-76270563D02*
X121279437Y-77335000D01*
X120215000Y-73879437D02*
X121279437Y-72815000D01*
X120215000Y-73879437D02*
X120215000Y-74015000D01*
X120215000Y-76270563D02*
X120215000Y-76135000D01*
X121279437Y-77335000D02*
X124735000Y-77335000D01*
X121279437Y-72815000D02*
X124735000Y-72815000D01*
X124735000Y-72815000D02*
X124735000Y-74015000D01*
X124735000Y-77335000D02*
X124735000Y-76135000D01*
X119600000Y-88300000D02*
X122600000Y-88300000D01*
X122600000Y-92900000D02*
X119600000Y-92900000D01*
X118500000Y-88300000D02*
X118700000Y-88300000D01*
X118500000Y-92900000D02*
X118500000Y-88300000D01*
X118700000Y-92900000D02*
X118500000Y-92900000D01*
X123700000Y-92900000D02*
X123700000Y-87100000D01*
X123500000Y-92900000D02*
X123700000Y-92900000D01*
X99470000Y-51930000D02*
X99470000Y-50600000D01*
X100800000Y-51930000D02*
X99470000Y-51930000D01*
X102070000Y-51930000D02*
X102070000Y-49270000D01*
X102070000Y-49270000D02*
X114830000Y-49270000D01*
X102070000Y-51930000D02*
X114830000Y-51930000D01*
X114830000Y-51930000D02*
X114830000Y-49270000D01*
X93470000Y-64530000D02*
X96130000Y-64530000D01*
X93470000Y-51770000D02*
X93470000Y-64530000D01*
X96130000Y-51770000D02*
X96130000Y-64530000D01*
X93470000Y-51770000D02*
X96130000Y-51770000D01*
X93470000Y-50500000D02*
X93470000Y-49170000D01*
X93470000Y-49170000D02*
X94800000Y-49170000D01*
D14*
X112697000Y-130458000D02*
X112697000Y-117758000D01*
X119767000Y-117758000D02*
X119767000Y-130458000D01*
X115516000Y-130458000D02*
X116884000Y-130458000D01*
X115516000Y-117758000D02*
X116884000Y-117758000D01*
X106516000Y-117758000D02*
X107884000Y-117758000D01*
X106516000Y-130458000D02*
X107884000Y-130458000D01*
X110767000Y-117758000D02*
X110767000Y-130458000D01*
X103697000Y-130458000D02*
X103697000Y-117758000D01*
D12*
X110615000Y-77150000D02*
X110615000Y-71140000D01*
X117435000Y-74900000D02*
X117435000Y-71140000D01*
X110615000Y-71140000D02*
X111875000Y-71140000D01*
X117435000Y-71140000D02*
X116175000Y-71140000D01*
X121800000Y-52260000D02*
X124250000Y-52260000D01*
X123600000Y-49040000D02*
X121800000Y-49040000D01*
X100090000Y-54938748D02*
X100090000Y-55461252D01*
X101510000Y-54938748D02*
X101510000Y-55461252D01*
X115700000Y-94300000D02*
X115700000Y-83700000D01*
X115700000Y-83700000D02*
X95400000Y-83700000D01*
X95400000Y-83700000D02*
X95400000Y-94300000D01*
X95400000Y-94300000D02*
X115700000Y-94300000D01*
D13*
X107833333Y-72657142D02*
X107785714Y-72704761D01*
X107642857Y-72752380D01*
X107547619Y-72752380D01*
X107404761Y-72704761D01*
X107309523Y-72609523D01*
X107261904Y-72514285D01*
X107214285Y-72323809D01*
X107214285Y-72180952D01*
X107261904Y-71990476D01*
X107309523Y-71895238D01*
X107404761Y-71800000D01*
X107547619Y-71752380D01*
X107642857Y-71752380D01*
X107785714Y-71800000D01*
X107833333Y-71847619D01*
X108404761Y-72180952D02*
X108309523Y-72133333D01*
X108261904Y-72085714D01*
X108214285Y-71990476D01*
X108214285Y-71942857D01*
X108261904Y-71847619D01*
X108309523Y-71800000D01*
X108404761Y-71752380D01*
X108595238Y-71752380D01*
X108690476Y-71800000D01*
X108738095Y-71847619D01*
X108785714Y-71942857D01*
X108785714Y-71990476D01*
X108738095Y-72085714D01*
X108690476Y-72133333D01*
X108595238Y-72180952D01*
X108404761Y-72180952D01*
X108309523Y-72228571D01*
X108261904Y-72276190D01*
X108214285Y-72371428D01*
X108214285Y-72561904D01*
X108261904Y-72657142D01*
X108309523Y-72704761D01*
X108404761Y-72752380D01*
X108595238Y-72752380D01*
X108690476Y-72704761D01*
X108738095Y-72657142D01*
X108785714Y-72561904D01*
X108785714Y-72371428D01*
X108738095Y-72276190D01*
X108690476Y-72228571D01*
X108595238Y-72180952D01*
X120204761Y-60733333D02*
X120252380Y-60590476D01*
X120252380Y-60352380D01*
X120204761Y-60257142D01*
X120157142Y-60209523D01*
X120061904Y-60161904D01*
X119966666Y-60161904D01*
X119871428Y-60209523D01*
X119823809Y-60257142D01*
X119776190Y-60352380D01*
X119728571Y-60542857D01*
X119680952Y-60638095D01*
X119633333Y-60685714D01*
X119538095Y-60733333D01*
X119442857Y-60733333D01*
X119347619Y-60685714D01*
X119300000Y-60638095D01*
X119252380Y-60542857D01*
X119252380Y-60304761D01*
X119300000Y-60161904D01*
X119252380Y-59828571D02*
X120252380Y-59590476D01*
X119538095Y-59400000D01*
X120252380Y-59209523D01*
X119252380Y-58971428D01*
X119347619Y-58638095D02*
X119300000Y-58590476D01*
X119252380Y-58495238D01*
X119252380Y-58257142D01*
X119300000Y-58161904D01*
X119347619Y-58114285D01*
X119442857Y-58066666D01*
X119538095Y-58066666D01*
X119680952Y-58114285D01*
X120252380Y-58685714D01*
X120252380Y-58066666D01*
X79557142Y-80366666D02*
X79604761Y-80414285D01*
X79652380Y-80557142D01*
X79652380Y-80652380D01*
X79604761Y-80795238D01*
X79509523Y-80890476D01*
X79414285Y-80938095D01*
X79223809Y-80985714D01*
X79080952Y-80985714D01*
X78890476Y-80938095D01*
X78795238Y-80890476D01*
X78700000Y-80795238D01*
X78652380Y-80652380D01*
X78652380Y-80557142D01*
X78700000Y-80414285D01*
X78747619Y-80366666D01*
X79652380Y-79414285D02*
X79652380Y-79985714D01*
X79652380Y-79700000D02*
X78652380Y-79700000D01*
X78795238Y-79795238D01*
X78890476Y-79890476D01*
X78938095Y-79985714D01*
X92557142Y-82266666D02*
X92604761Y-82314285D01*
X92652380Y-82457142D01*
X92652380Y-82552380D01*
X92604761Y-82695238D01*
X92509523Y-82790476D01*
X92414285Y-82838095D01*
X92223809Y-82885714D01*
X92080952Y-82885714D01*
X91890476Y-82838095D01*
X91795238Y-82790476D01*
X91700000Y-82695238D01*
X91652380Y-82552380D01*
X91652380Y-82457142D01*
X91700000Y-82314285D01*
X91747619Y-82266666D01*
X91747619Y-81885714D02*
X91700000Y-81838095D01*
X91652380Y-81742857D01*
X91652380Y-81504761D01*
X91700000Y-81409523D01*
X91747619Y-81361904D01*
X91842857Y-81314285D01*
X91938095Y-81314285D01*
X92080952Y-81361904D01*
X92652380Y-81933333D01*
X92652380Y-81314285D01*
X75733333Y-71957142D02*
X75685714Y-72004761D01*
X75542857Y-72052380D01*
X75447619Y-72052380D01*
X75304761Y-72004761D01*
X75209523Y-71909523D01*
X75161904Y-71814285D01*
X75114285Y-71623809D01*
X75114285Y-71480952D01*
X75161904Y-71290476D01*
X75209523Y-71195238D01*
X75304761Y-71100000D01*
X75447619Y-71052380D01*
X75542857Y-71052380D01*
X75685714Y-71100000D01*
X75733333Y-71147619D01*
X76066666Y-71052380D02*
X76685714Y-71052380D01*
X76352380Y-71433333D01*
X76495238Y-71433333D01*
X76590476Y-71480952D01*
X76638095Y-71528571D01*
X76685714Y-71623809D01*
X76685714Y-71861904D01*
X76638095Y-71957142D01*
X76590476Y-72004761D01*
X76495238Y-72052380D01*
X76209523Y-72052380D01*
X76114285Y-72004761D01*
X76066666Y-71957142D01*
X94457142Y-82266666D02*
X94504761Y-82314285D01*
X94552380Y-82457142D01*
X94552380Y-82552380D01*
X94504761Y-82695238D01*
X94409523Y-82790476D01*
X94314285Y-82838095D01*
X94123809Y-82885714D01*
X93980952Y-82885714D01*
X93790476Y-82838095D01*
X93695238Y-82790476D01*
X93600000Y-82695238D01*
X93552380Y-82552380D01*
X93552380Y-82457142D01*
X93600000Y-82314285D01*
X93647619Y-82266666D01*
X93885714Y-81409523D02*
X94552380Y-81409523D01*
X93504761Y-81647619D02*
X94219047Y-81885714D01*
X94219047Y-81266666D01*
X93657142Y-65966666D02*
X93704761Y-66014285D01*
X93752380Y-66157142D01*
X93752380Y-66252380D01*
X93704761Y-66395238D01*
X93609523Y-66490476D01*
X93514285Y-66538095D01*
X93323809Y-66585714D01*
X93180952Y-66585714D01*
X92990476Y-66538095D01*
X92895238Y-66490476D01*
X92800000Y-66395238D01*
X92752380Y-66252380D01*
X92752380Y-66157142D01*
X92800000Y-66014285D01*
X92847619Y-65966666D01*
X92752380Y-65061904D02*
X92752380Y-65538095D01*
X93228571Y-65585714D01*
X93180952Y-65538095D01*
X93133333Y-65442857D01*
X93133333Y-65204761D01*
X93180952Y-65109523D01*
X93228571Y-65061904D01*
X93323809Y-65014285D01*
X93561904Y-65014285D01*
X93657142Y-65061904D01*
X93704761Y-65109523D01*
X93752380Y-65204761D01*
X93752380Y-65442857D01*
X93704761Y-65538095D01*
X93657142Y-65585714D01*
X88452380Y-79476190D02*
X87452380Y-79476190D01*
X88357142Y-78428571D02*
X88404761Y-78476190D01*
X88452380Y-78619047D01*
X88452380Y-78714285D01*
X88404761Y-78857142D01*
X88309523Y-78952380D01*
X88214285Y-79000000D01*
X88023809Y-79047619D01*
X87880952Y-79047619D01*
X87690476Y-79000000D01*
X87595238Y-78952380D01*
X87500000Y-78857142D01*
X87452380Y-78714285D01*
X87452380Y-78619047D01*
X87500000Y-78476190D01*
X87547619Y-78428571D01*
X88452380Y-77476190D02*
X88452380Y-78047619D01*
X88452380Y-77761904D02*
X87452380Y-77761904D01*
X87595238Y-77857142D01*
X87690476Y-77952380D01*
X87738095Y-78047619D01*
X83423809Y-54752380D02*
X83423809Y-53752380D01*
X84471428Y-54657142D02*
X84423809Y-54704761D01*
X84280952Y-54752380D01*
X84185714Y-54752380D01*
X84042857Y-54704761D01*
X83947619Y-54609523D01*
X83900000Y-54514285D01*
X83852380Y-54323809D01*
X83852380Y-54180952D01*
X83900000Y-53990476D01*
X83947619Y-53895238D01*
X84042857Y-53800000D01*
X84185714Y-53752380D01*
X84280952Y-53752380D01*
X84423809Y-53800000D01*
X84471428Y-53847619D01*
X84852380Y-53847619D02*
X84900000Y-53800000D01*
X84995238Y-53752380D01*
X85233333Y-53752380D01*
X85328571Y-53800000D01*
X85376190Y-53847619D01*
X85423809Y-53942857D01*
X85423809Y-54038095D01*
X85376190Y-54180952D01*
X84804761Y-54752380D01*
X85423809Y-54752380D01*
X81933333Y-83552380D02*
X81600000Y-83076190D01*
X81361904Y-83552380D02*
X81361904Y-82552380D01*
X81742857Y-82552380D01*
X81838095Y-82600000D01*
X81885714Y-82647619D01*
X81933333Y-82742857D01*
X81933333Y-82885714D01*
X81885714Y-82980952D01*
X81838095Y-83028571D01*
X81742857Y-83076190D01*
X81361904Y-83076190D01*
X82885714Y-83552380D02*
X82314285Y-83552380D01*
X82600000Y-83552380D02*
X82600000Y-82552380D01*
X82504761Y-82695238D01*
X82409523Y-82790476D01*
X82314285Y-82838095D01*
X92176190Y-73076190D02*
X92652380Y-73076190D01*
X91652380Y-73409523D02*
X92176190Y-73076190D01*
X91652380Y-72742857D01*
X92652380Y-71885714D02*
X92652380Y-72457142D01*
X92652380Y-72171428D02*
X91652380Y-72171428D01*
X91795238Y-72266666D01*
X91890476Y-72361904D01*
X91938095Y-72457142D01*
X78452380Y-96966666D02*
X77976190Y-97300000D01*
X78452380Y-97538095D02*
X77452380Y-97538095D01*
X77452380Y-97157142D01*
X77500000Y-97061904D01*
X77547619Y-97014285D01*
X77642857Y-96966666D01*
X77785714Y-96966666D01*
X77880952Y-97014285D01*
X77928571Y-97061904D01*
X77976190Y-97157142D01*
X77976190Y-97538095D01*
X77547619Y-96585714D02*
X77500000Y-96538095D01*
X77452380Y-96442857D01*
X77452380Y-96204761D01*
X77500000Y-96109523D01*
X77547619Y-96061904D01*
X77642857Y-96014285D01*
X77738095Y-96014285D01*
X77880952Y-96061904D01*
X78452380Y-96633333D01*
X78452380Y-96014285D01*
X80852380Y-96966666D02*
X80376190Y-97300000D01*
X80852380Y-97538095D02*
X79852380Y-97538095D01*
X79852380Y-97157142D01*
X79900000Y-97061904D01*
X79947619Y-97014285D01*
X80042857Y-96966666D01*
X80185714Y-96966666D01*
X80280952Y-97014285D01*
X80328571Y-97061904D01*
X80376190Y-97157142D01*
X80376190Y-97538095D01*
X79852380Y-96633333D02*
X79852380Y-96014285D01*
X80233333Y-96347619D01*
X80233333Y-96204761D01*
X80280952Y-96109523D01*
X80328571Y-96061904D01*
X80423809Y-96014285D01*
X80661904Y-96014285D01*
X80757142Y-96061904D01*
X80804761Y-96109523D01*
X80852380Y-96204761D01*
X80852380Y-96490476D01*
X80804761Y-96585714D01*
X80757142Y-96633333D01*
X103833333Y-69557142D02*
X103785714Y-69604761D01*
X103642857Y-69652380D01*
X103547619Y-69652380D01*
X103404761Y-69604761D01*
X103309523Y-69509523D01*
X103261904Y-69414285D01*
X103214285Y-69223809D01*
X103214285Y-69080952D01*
X103261904Y-68890476D01*
X103309523Y-68795238D01*
X103404761Y-68700000D01*
X103547619Y-68652380D01*
X103642857Y-68652380D01*
X103785714Y-68700000D01*
X103833333Y-68747619D01*
X104690476Y-68652380D02*
X104500000Y-68652380D01*
X104404761Y-68700000D01*
X104357142Y-68747619D01*
X104261904Y-68890476D01*
X104214285Y-69080952D01*
X104214285Y-69461904D01*
X104261904Y-69557142D01*
X104309523Y-69604761D01*
X104404761Y-69652380D01*
X104595238Y-69652380D01*
X104690476Y-69604761D01*
X104738095Y-69557142D01*
X104785714Y-69461904D01*
X104785714Y-69223809D01*
X104738095Y-69128571D01*
X104690476Y-69080952D01*
X104595238Y-69033333D01*
X104404761Y-69033333D01*
X104309523Y-69080952D01*
X104261904Y-69128571D01*
X104214285Y-69223809D01*
X101066666Y-157652380D02*
X101066666Y-158366666D01*
X101019047Y-158509523D01*
X100923809Y-158604761D01*
X100780952Y-158652380D01*
X100685714Y-158652380D01*
X101495238Y-157747619D02*
X101542857Y-157700000D01*
X101638095Y-157652380D01*
X101876190Y-157652380D01*
X101971428Y-157700000D01*
X102019047Y-157747619D01*
X102066666Y-157842857D01*
X102066666Y-157938095D01*
X102019047Y-158080952D01*
X101447619Y-158652380D01*
X102066666Y-158652380D01*
X110219047Y-54428571D02*
X110361904Y-54476190D01*
X110409523Y-54523809D01*
X110457142Y-54619047D01*
X110457142Y-54761904D01*
X110409523Y-54857142D01*
X110361904Y-54904761D01*
X110266666Y-54952380D01*
X109885714Y-54952380D01*
X109885714Y-53952380D01*
X110219047Y-53952380D01*
X110314285Y-54000000D01*
X110361904Y-54047619D01*
X110409523Y-54142857D01*
X110409523Y-54238095D01*
X110361904Y-54333333D01*
X110314285Y-54380952D01*
X110219047Y-54428571D01*
X109885714Y-54428571D01*
X110790476Y-53952380D02*
X111457142Y-53952380D01*
X110790476Y-54952380D01*
X111457142Y-54952380D01*
X112361904Y-54952380D02*
X111790476Y-54952380D01*
X112076190Y-54952380D02*
X112076190Y-53952380D01*
X111980952Y-54095238D01*
X111885714Y-54190476D01*
X111790476Y-54238095D01*
X122308333Y-72232142D02*
X122260714Y-72279761D01*
X122117857Y-72327380D01*
X122022619Y-72327380D01*
X121879761Y-72279761D01*
X121784523Y-72184523D01*
X121736904Y-72089285D01*
X121689285Y-71898809D01*
X121689285Y-71755952D01*
X121736904Y-71565476D01*
X121784523Y-71470238D01*
X121879761Y-71375000D01*
X122022619Y-71327380D01*
X122117857Y-71327380D01*
X122260714Y-71375000D01*
X122308333Y-71422619D01*
X122641666Y-71327380D02*
X123308333Y-71327380D01*
X122879761Y-72327380D01*
X119785714Y-86452380D02*
X119785714Y-85452380D01*
X120023809Y-85452380D01*
X120166666Y-85500000D01*
X120261904Y-85595238D01*
X120309523Y-85690476D01*
X120357142Y-85880952D01*
X120357142Y-86023809D01*
X120309523Y-86214285D01*
X120261904Y-86309523D01*
X120166666Y-86404761D01*
X120023809Y-86452380D01*
X119785714Y-86452380D01*
X121309523Y-86452380D02*
X120738095Y-86452380D01*
X121023809Y-86452380D02*
X121023809Y-85452380D01*
X120928571Y-85595238D01*
X120833333Y-85690476D01*
X120738095Y-85738095D01*
X122261904Y-86452380D02*
X121690476Y-86452380D01*
X121976190Y-86452380D02*
X121976190Y-85452380D01*
X121880952Y-85595238D01*
X121785714Y-85690476D01*
X121690476Y-85738095D01*
X107166666Y-47652380D02*
X107166666Y-48366666D01*
X107119047Y-48509523D01*
X107023809Y-48604761D01*
X106880952Y-48652380D01*
X106785714Y-48652380D01*
X108119047Y-47652380D02*
X107642857Y-47652380D01*
X107595238Y-48128571D01*
X107642857Y-48080952D01*
X107738095Y-48033333D01*
X107976190Y-48033333D01*
X108071428Y-48080952D01*
X108119047Y-48128571D01*
X108166666Y-48223809D01*
X108166666Y-48461904D01*
X108119047Y-48557142D01*
X108071428Y-48604761D01*
X107976190Y-48652380D01*
X107738095Y-48652380D01*
X107642857Y-48604761D01*
X107595238Y-48557142D01*
X94566666Y-47452380D02*
X94566666Y-48166666D01*
X94519047Y-48309523D01*
X94423809Y-48404761D01*
X94280952Y-48452380D01*
X94185714Y-48452380D01*
X95471428Y-47452380D02*
X95280952Y-47452380D01*
X95185714Y-47500000D01*
X95138095Y-47547619D01*
X95042857Y-47690476D01*
X94995238Y-47880952D01*
X94995238Y-48261904D01*
X95042857Y-48357142D01*
X95090476Y-48404761D01*
X95185714Y-48452380D01*
X95376190Y-48452380D01*
X95471428Y-48404761D01*
X95519047Y-48357142D01*
X95566666Y-48261904D01*
X95566666Y-48023809D01*
X95519047Y-47928571D01*
X95471428Y-47880952D01*
X95376190Y-47833333D01*
X95185714Y-47833333D01*
X95090476Y-47880952D01*
X95042857Y-47928571D01*
X94995238Y-48023809D01*
D15*
X115903526Y-123424503D02*
X115903526Y-124331646D01*
X115843050Y-124513075D01*
X115722098Y-124634027D01*
X115540669Y-124694503D01*
X115419717Y-124694503D01*
X116689717Y-123968789D02*
X116568764Y-123908313D01*
X116508288Y-123847837D01*
X116447812Y-123726884D01*
X116447812Y-123666408D01*
X116508288Y-123545456D01*
X116568764Y-123484980D01*
X116689717Y-123424503D01*
X116931621Y-123424503D01*
X117052574Y-123484980D01*
X117113050Y-123545456D01*
X117173526Y-123666408D01*
X117173526Y-123726884D01*
X117113050Y-123847837D01*
X117052574Y-123908313D01*
X116931621Y-123968789D01*
X116689717Y-123968789D01*
X116568764Y-124029265D01*
X116508288Y-124089741D01*
X116447812Y-124210694D01*
X116447812Y-124452599D01*
X116508288Y-124573551D01*
X116568764Y-124634027D01*
X116689717Y-124694503D01*
X116931621Y-124694503D01*
X117052574Y-124634027D01*
X117113050Y-124573551D01*
X117173526Y-124452599D01*
X117173526Y-124210694D01*
X117113050Y-124089741D01*
X117052574Y-124029265D01*
X116931621Y-123968789D01*
X106903526Y-123424503D02*
X106903526Y-124331646D01*
X106843050Y-124513075D01*
X106722098Y-124634027D01*
X106540669Y-124694503D01*
X106419717Y-124694503D01*
X107568764Y-124694503D02*
X107810669Y-124694503D01*
X107931621Y-124634027D01*
X107992098Y-124573551D01*
X108113050Y-124392122D01*
X108173526Y-124150218D01*
X108173526Y-123666408D01*
X108113050Y-123545456D01*
X108052574Y-123484980D01*
X107931621Y-123424503D01*
X107689717Y-123424503D01*
X107568764Y-123484980D01*
X107508288Y-123545456D01*
X107447812Y-123666408D01*
X107447812Y-123968789D01*
X107508288Y-124089741D01*
X107568764Y-124150218D01*
X107689717Y-124210694D01*
X107931621Y-124210694D01*
X108052574Y-124150218D01*
X108113050Y-124089741D01*
X108173526Y-123968789D01*
D13*
X109938095Y-69152380D02*
X109938095Y-69961904D01*
X109985714Y-70057142D01*
X110033333Y-70104761D01*
X110128571Y-70152380D01*
X110319047Y-70152380D01*
X110414285Y-70104761D01*
X110461904Y-70057142D01*
X110509523Y-69961904D01*
X110509523Y-69152380D01*
X110938095Y-69247619D02*
X110985714Y-69200000D01*
X111080952Y-69152380D01*
X111319047Y-69152380D01*
X111414285Y-69200000D01*
X111461904Y-69247619D01*
X111509523Y-69342857D01*
X111509523Y-69438095D01*
X111461904Y-69580952D01*
X110890476Y-70152380D01*
X111509523Y-70152380D01*
X118838095Y-48252380D02*
X118838095Y-49061904D01*
X118885714Y-49157142D01*
X118933333Y-49204761D01*
X119028571Y-49252380D01*
X119219047Y-49252380D01*
X119314285Y-49204761D01*
X119361904Y-49157142D01*
X119409523Y-49061904D01*
X119409523Y-48252380D01*
X119790476Y-48252380D02*
X120409523Y-48252380D01*
X120076190Y-48633333D01*
X120219047Y-48633333D01*
X120314285Y-48680952D01*
X120361904Y-48728571D01*
X120409523Y-48823809D01*
X120409523Y-49061904D01*
X120361904Y-49157142D01*
X120314285Y-49204761D01*
X120219047Y-49252380D01*
X119933333Y-49252380D01*
X119838095Y-49204761D01*
X119790476Y-49157142D01*
X99457142Y-55942857D02*
X99504761Y-55990476D01*
X99552380Y-56133333D01*
X99552380Y-56228571D01*
X99504761Y-56371428D01*
X99409523Y-56466666D01*
X99314285Y-56514285D01*
X99123809Y-56561904D01*
X98980952Y-56561904D01*
X98790476Y-56514285D01*
X98695238Y-56466666D01*
X98600000Y-56371428D01*
X98552380Y-56228571D01*
X98552380Y-56133333D01*
X98600000Y-55990476D01*
X98647619Y-55942857D01*
X99552380Y-54990476D02*
X99552380Y-55561904D01*
X99552380Y-55276190D02*
X98552380Y-55276190D01*
X98695238Y-55371428D01*
X98790476Y-55466666D01*
X98838095Y-55561904D01*
X99552380Y-54038095D02*
X99552380Y-54609523D01*
X99552380Y-54323809D02*
X98552380Y-54323809D01*
X98695238Y-54419047D01*
X98790476Y-54514285D01*
X98838095Y-54609523D01*
X104838095Y-82252380D02*
X104838095Y-83061904D01*
X104885714Y-83157142D01*
X104933333Y-83204761D01*
X105028571Y-83252380D01*
X105219047Y-83252380D01*
X105314285Y-83204761D01*
X105361904Y-83157142D01*
X105409523Y-83061904D01*
X105409523Y-82252380D01*
X106409523Y-83252380D02*
X105838095Y-83252380D01*
X106123809Y-83252380D02*
X106123809Y-82252380D01*
X106028571Y-82395238D01*
X105933333Y-82490476D01*
X105838095Y-82538095D01*
M02*
