G04 #@! TF.GenerationSoftware,KiCad,Pcbnew,(5.1.7)-1*
G04 #@! TF.CreationDate,2020-10-19T19:05:30+02:00*
G04 #@! TF.ProjectId,Touch-Steuerung,546f7563-682d-4537-9465-756572756e67,1.0*
G04 #@! TF.SameCoordinates,Original*
G04 #@! TF.FileFunction,Soldermask,Top*
G04 #@! TF.FilePolarity,Negative*
%FSLAX46Y46*%
G04 Gerber Fmt 4.6, Leading zero omitted, Abs format (unit mm)*
G04 Created by KiCad (PCBNEW (5.1.7)-1) date 2020-10-19 19:05:30*
%MOMM*%
%LPD*%
G01*
G04 APERTURE LIST*
%ADD10R,1.600000X2.180000*%
%ADD11C,1.700000*%
%ADD12O,1.700000X1.700000*%
%ADD13R,1.350000X1.350000*%
%ADD14R,1.600000X0.550000*%
%ADD15R,0.550000X1.600000*%
%ADD16R,1.200000X2.524000*%
%ADD17R,1.800000X1.750000*%
%ADD18O,1.350000X1.350000*%
%ADD19R,2.000000X4.200000*%
%ADD20R,0.700000X1.000000*%
%ADD21R,1.700000X1.700000*%
%ADD22R,2.000000X6.000000*%
%ADD23R,2.000000X3.500000*%
%ADD24R,3.800000X2.000000*%
%ADD25R,1.500000X2.000000*%
%ADD26R,1.060000X0.650000*%
%ADD27C,1.524000*%
G04 APERTURE END LIST*
G36*
G01*
X105375000Y-74525000D02*
X105375000Y-75625000D01*
G75*
G02*
X105125000Y-75875000I-250000J0D01*
G01*
X103025000Y-75875000D01*
G75*
G02*
X102775000Y-75625000I0J250000D01*
G01*
X102775000Y-74525000D01*
G75*
G02*
X103025000Y-74275000I250000J0D01*
G01*
X105125000Y-74275000D01*
G75*
G02*
X105375000Y-74525000I0J-250000D01*
G01*
G37*
G36*
G01*
X108975000Y-74525000D02*
X108975000Y-75625000D01*
G75*
G02*
X108725000Y-75875000I-250000J0D01*
G01*
X106625000Y-75875000D01*
G75*
G02*
X106375000Y-75625000I0J250000D01*
G01*
X106375000Y-74525000D01*
G75*
G02*
X106625000Y-74275000I250000J0D01*
G01*
X108725000Y-74275000D01*
G75*
G02*
X108975000Y-74525000I0J-250000D01*
G01*
G37*
D10*
X122650000Y-55785000D03*
X122650000Y-64965000D03*
D11*
X77341500Y-75601500D03*
D12*
X77341500Y-78141500D03*
X77341500Y-80681500D03*
X77341500Y-83221500D03*
D11*
X77278000Y-85761500D03*
D12*
X79818000Y-85761500D03*
X82358000Y-85761500D03*
X84898000Y-85761500D03*
X87438000Y-85761500D03*
X89978000Y-85761500D03*
D13*
X77300000Y-48300000D03*
G36*
G01*
X78859999Y-77893000D02*
X79760001Y-77893000D01*
G75*
G02*
X80010000Y-78142999I0J-249999D01*
G01*
X80010000Y-78793001D01*
G75*
G02*
X79760001Y-79043000I-249999J0D01*
G01*
X78859999Y-79043000D01*
G75*
G02*
X78610000Y-78793001I0J249999D01*
G01*
X78610000Y-78142999D01*
G75*
G02*
X78859999Y-77893000I249999J0D01*
G01*
G37*
G36*
G01*
X78859999Y-75843000D02*
X79760001Y-75843000D01*
G75*
G02*
X80010000Y-76092999I0J-249999D01*
G01*
X80010000Y-76743001D01*
G75*
G02*
X79760001Y-76993000I-249999J0D01*
G01*
X78859999Y-76993000D01*
G75*
G02*
X78610000Y-76743001I0J249999D01*
G01*
X78610000Y-76092999D01*
G75*
G02*
X78859999Y-75843000I249999J0D01*
G01*
G37*
G36*
G01*
X91750499Y-77621000D02*
X92650501Y-77621000D01*
G75*
G02*
X92900500Y-77870999I0J-249999D01*
G01*
X92900500Y-78521001D01*
G75*
G02*
X92650501Y-78771000I-249999J0D01*
G01*
X91750499Y-78771000D01*
G75*
G02*
X91500500Y-78521001I0J249999D01*
G01*
X91500500Y-77870999D01*
G75*
G02*
X91750499Y-77621000I249999J0D01*
G01*
G37*
G36*
G01*
X91750499Y-79671000D02*
X92650501Y-79671000D01*
G75*
G02*
X92900500Y-79920999I0J-249999D01*
G01*
X92900500Y-80571001D01*
G75*
G02*
X92650501Y-80821000I-249999J0D01*
G01*
X91750499Y-80821000D01*
G75*
G02*
X91500500Y-80571001I0J249999D01*
G01*
X91500500Y-79920999D01*
G75*
G02*
X91750499Y-79671000I249999J0D01*
G01*
G37*
G36*
G01*
X79252000Y-72241501D02*
X79252000Y-71341499D01*
G75*
G02*
X79501999Y-71091500I249999J0D01*
G01*
X80152001Y-71091500D01*
G75*
G02*
X80402000Y-71341499I0J-249999D01*
G01*
X80402000Y-72241501D01*
G75*
G02*
X80152001Y-72491500I-249999J0D01*
G01*
X79501999Y-72491500D01*
G75*
G02*
X79252000Y-72241501I0J249999D01*
G01*
G37*
G36*
G01*
X77202000Y-72241501D02*
X77202000Y-71341499D01*
G75*
G02*
X77451999Y-71091500I249999J0D01*
G01*
X78102001Y-71091500D01*
G75*
G02*
X78352000Y-71341499I0J-249999D01*
G01*
X78352000Y-72241501D01*
G75*
G02*
X78102001Y-72491500I-249999J0D01*
G01*
X77451999Y-72491500D01*
G75*
G02*
X77202000Y-72241501I0J249999D01*
G01*
G37*
G36*
G01*
X93845999Y-77621000D02*
X94746001Y-77621000D01*
G75*
G02*
X94996000Y-77870999I0J-249999D01*
G01*
X94996000Y-78521001D01*
G75*
G02*
X94746001Y-78771000I-249999J0D01*
G01*
X93845999Y-78771000D01*
G75*
G02*
X93596000Y-78521001I0J249999D01*
G01*
X93596000Y-77870999D01*
G75*
G02*
X93845999Y-77621000I249999J0D01*
G01*
G37*
G36*
G01*
X93845999Y-79671000D02*
X94746001Y-79671000D01*
G75*
G02*
X94996000Y-79920999I0J-249999D01*
G01*
X94996000Y-80571001D01*
G75*
G02*
X94746001Y-80821000I-249999J0D01*
G01*
X93845999Y-80821000D01*
G75*
G02*
X93596000Y-80571001I0J249999D01*
G01*
X93596000Y-79920999D01*
G75*
G02*
X93845999Y-79671000I249999J0D01*
G01*
G37*
G36*
G01*
X94619001Y-68039500D02*
X93718999Y-68039500D01*
G75*
G02*
X93469000Y-67789501I0J249999D01*
G01*
X93469000Y-67139499D01*
G75*
G02*
X93718999Y-66889500I249999J0D01*
G01*
X94619001Y-66889500D01*
G75*
G02*
X94869000Y-67139499I0J-249999D01*
G01*
X94869000Y-67789501D01*
G75*
G02*
X94619001Y-68039500I-249999J0D01*
G01*
G37*
G36*
G01*
X94619001Y-70089500D02*
X93718999Y-70089500D01*
G75*
G02*
X93469000Y-69839501I0J249999D01*
G01*
X93469000Y-69189499D01*
G75*
G02*
X93718999Y-68939500I249999J0D01*
G01*
X94619001Y-68939500D01*
G75*
G02*
X94869000Y-69189499I0J-249999D01*
G01*
X94869000Y-69839501D01*
G75*
G02*
X94619001Y-70089500I-249999J0D01*
G01*
G37*
D14*
X90037000Y-79417500D03*
X90037000Y-78617500D03*
X90037000Y-77817500D03*
X90037000Y-77017500D03*
X90037000Y-76217500D03*
X90037000Y-75417500D03*
X90037000Y-74617500D03*
X90037000Y-73817500D03*
D15*
X88587000Y-72367500D03*
X87787000Y-72367500D03*
X86987000Y-72367500D03*
X86187000Y-72367500D03*
X85387000Y-72367500D03*
X84587000Y-72367500D03*
X83787000Y-72367500D03*
X82987000Y-72367500D03*
D14*
X81537000Y-73817500D03*
X81537000Y-74617500D03*
X81537000Y-75417500D03*
X81537000Y-76217500D03*
X81537000Y-77017500D03*
X81537000Y-77817500D03*
X81537000Y-78617500D03*
X81537000Y-79417500D03*
D15*
X82987000Y-80867500D03*
X83787000Y-80867500D03*
X84587000Y-80867500D03*
X85387000Y-80867500D03*
X86187000Y-80867500D03*
X86987000Y-80867500D03*
X87787000Y-80867500D03*
X88587000Y-80867500D03*
D16*
X77390000Y-69282000D03*
X79390000Y-69282000D03*
X81390000Y-69282000D03*
X83390000Y-69282000D03*
X85390000Y-69282000D03*
X87390000Y-69282000D03*
X89390000Y-69282000D03*
X91390000Y-69282000D03*
X85390000Y-50282000D03*
X83390000Y-50282000D03*
X87390000Y-50282000D03*
G36*
G01*
X86371000Y-82707999D02*
X86371000Y-83608001D01*
G75*
G02*
X86121001Y-83858000I-249999J0D01*
G01*
X85470999Y-83858000D01*
G75*
G02*
X85221000Y-83608001I0J249999D01*
G01*
X85221000Y-82707999D01*
G75*
G02*
X85470999Y-82458000I249999J0D01*
G01*
X86121001Y-82458000D01*
G75*
G02*
X86371000Y-82707999I0J-249999D01*
G01*
G37*
G36*
G01*
X84321000Y-82707999D02*
X84321000Y-83608001D01*
G75*
G02*
X84071001Y-83858000I-249999J0D01*
G01*
X83420999Y-83858000D01*
G75*
G02*
X83171000Y-83608001I0J249999D01*
G01*
X83171000Y-82707999D01*
G75*
G02*
X83420999Y-82458000I249999J0D01*
G01*
X84071001Y-82458000D01*
G75*
G02*
X84321000Y-82707999I0J-249999D01*
G01*
G37*
D17*
X93915000Y-75512000D03*
X93915000Y-72262000D03*
G36*
G01*
X78350001Y-95575000D02*
X77449999Y-95575000D01*
G75*
G02*
X77200000Y-95325001I0J249999D01*
G01*
X77200000Y-94674999D01*
G75*
G02*
X77449999Y-94425000I249999J0D01*
G01*
X78350001Y-94425000D01*
G75*
G02*
X78600000Y-94674999I0J-249999D01*
G01*
X78600000Y-95325001D01*
G75*
G02*
X78350001Y-95575000I-249999J0D01*
G01*
G37*
G36*
G01*
X78350001Y-93525000D02*
X77449999Y-93525000D01*
G75*
G02*
X77200000Y-93275001I0J249999D01*
G01*
X77200000Y-92624999D01*
G75*
G02*
X77449999Y-92375000I249999J0D01*
G01*
X78350001Y-92375000D01*
G75*
G02*
X78600000Y-92624999I0J-249999D01*
G01*
X78600000Y-93275001D01*
G75*
G02*
X78350001Y-93525000I-249999J0D01*
G01*
G37*
G36*
G01*
X80850001Y-93525000D02*
X79949999Y-93525000D01*
G75*
G02*
X79700000Y-93275001I0J249999D01*
G01*
X79700000Y-92624999D01*
G75*
G02*
X79949999Y-92375000I249999J0D01*
G01*
X80850001Y-92375000D01*
G75*
G02*
X81100000Y-92624999I0J-249999D01*
G01*
X81100000Y-93275001D01*
G75*
G02*
X80850001Y-93525000I-249999J0D01*
G01*
G37*
G36*
G01*
X80850001Y-95575000D02*
X79949999Y-95575000D01*
G75*
G02*
X79700000Y-95325001I0J249999D01*
G01*
X79700000Y-94674999D01*
G75*
G02*
X79949999Y-94425000I249999J0D01*
G01*
X80850001Y-94425000D01*
G75*
G02*
X81100000Y-94674999I0J-249999D01*
G01*
X81100000Y-95325001D01*
G75*
G02*
X80850001Y-95575000I-249999J0D01*
G01*
G37*
G36*
G01*
X106975000Y-70549999D02*
X106975000Y-71450001D01*
G75*
G02*
X106725001Y-71700000I-249999J0D01*
G01*
X106074999Y-71700000D01*
G75*
G02*
X105825000Y-71450001I0J249999D01*
G01*
X105825000Y-70549999D01*
G75*
G02*
X106074999Y-70300000I249999J0D01*
G01*
X106725001Y-70300000D01*
G75*
G02*
X106975000Y-70549999I0J-249999D01*
G01*
G37*
G36*
G01*
X104925000Y-70549999D02*
X104925000Y-71450001D01*
G75*
G02*
X104675001Y-71700000I-249999J0D01*
G01*
X104024999Y-71700000D01*
G75*
G02*
X103775000Y-71450001I0J249999D01*
G01*
X103775000Y-70549999D01*
G75*
G02*
X104024999Y-70300000I249999J0D01*
G01*
X104675001Y-70300000D01*
G75*
G02*
X104925000Y-70549999I0J-249999D01*
G01*
G37*
D13*
X96300000Y-160600000D03*
D18*
X98300000Y-160600000D03*
X100300000Y-160600000D03*
X102300000Y-160600000D03*
X104300000Y-160600000D03*
X106300000Y-160600000D03*
D19*
X107100000Y-60000000D03*
X115100000Y-60000000D03*
G36*
G01*
X119375000Y-75625000D02*
X119375000Y-74525000D01*
G75*
G02*
X119625000Y-74275000I250000J0D01*
G01*
X121725000Y-74275000D01*
G75*
G02*
X121975000Y-74525000I0J-250000D01*
G01*
X121975000Y-75625000D01*
G75*
G02*
X121725000Y-75875000I-250000J0D01*
G01*
X119625000Y-75875000D01*
G75*
G02*
X119375000Y-75625000I0J250000D01*
G01*
G37*
G36*
G01*
X122975000Y-75625000D02*
X122975000Y-74525000D01*
G75*
G02*
X123225000Y-74275000I250000J0D01*
G01*
X125325000Y-74275000D01*
G75*
G02*
X125575000Y-74525000I0J-250000D01*
G01*
X125575000Y-75625000D01*
G75*
G02*
X125325000Y-75875000I-250000J0D01*
G01*
X123225000Y-75875000D01*
G75*
G02*
X122975000Y-75625000I0J250000D01*
G01*
G37*
D20*
X123100000Y-87625000D03*
X119100000Y-87625000D03*
X119100000Y-93575000D03*
X123100000Y-93575000D03*
D21*
X100800000Y-50600000D03*
D12*
X103340000Y-50600000D03*
X105880000Y-50600000D03*
X108420000Y-50600000D03*
X110960000Y-50600000D03*
X113500000Y-50600000D03*
X94800000Y-63200000D03*
X94800000Y-60660000D03*
X94800000Y-58120000D03*
X94800000Y-55580000D03*
X94800000Y-53040000D03*
D21*
X94800000Y-50500000D03*
D22*
X114200000Y-127900000D03*
D23*
X114200000Y-118650000D03*
D22*
X118200000Y-127900000D03*
D23*
X118200000Y-118650000D03*
X109200000Y-118650000D03*
D22*
X109200000Y-127900000D03*
D23*
X105200000Y-118650000D03*
D22*
X105200000Y-127900000D03*
D24*
X114025000Y-69900000D03*
D25*
X114025000Y-76200000D03*
X116325000Y-76200000D03*
X111725000Y-76200000D03*
D26*
X123800000Y-51600000D03*
X123800000Y-50650000D03*
X123800000Y-49700000D03*
X121600000Y-49700000D03*
X121600000Y-51600000D03*
X121600000Y-50650000D03*
G36*
G01*
X100349999Y-53600000D02*
X101250001Y-53600000D01*
G75*
G02*
X101500000Y-53849999I0J-249999D01*
G01*
X101500000Y-54500001D01*
G75*
G02*
X101250001Y-54750000I-249999J0D01*
G01*
X100349999Y-54750000D01*
G75*
G02*
X100100000Y-54500001I0J249999D01*
G01*
X100100000Y-53849999D01*
G75*
G02*
X100349999Y-53600000I249999J0D01*
G01*
G37*
G36*
G01*
X100349999Y-55650000D02*
X101250001Y-55650000D01*
G75*
G02*
X101500000Y-55899999I0J-249999D01*
G01*
X101500000Y-56550001D01*
G75*
G02*
X101250001Y-56800000I-249999J0D01*
G01*
X100349999Y-56800000D01*
G75*
G02*
X100100000Y-56550001I0J249999D01*
G01*
X100100000Y-55899999D01*
G75*
G02*
X100349999Y-55650000I249999J0D01*
G01*
G37*
D27*
X114220000Y-85290000D03*
X114220000Y-87830000D03*
X114220000Y-90370000D03*
X114220000Y-92910000D03*
M02*
